%FSLAX45Y45*%
G04 Gerber Fmt 4.5, Leading zero omitted, Abs format (unit mm)*
G04 Created by KiCad (PCBNEW 5.0.0-fee4fd1~66~ubuntu18.04.1) date Mon Oct  8 20:34:09 2018*
%MOMM*%
%LPD*%
G01*
G04 APERTURE LIST*
%ADD10C,0.100000*%
%ADD11C,0.200000*%
%ADD12C,0.300000*%
G04 APERTURE END LIST*
D10*
X24724142Y-11962160D02*
G75*
G03X24724142Y-11962160I-1399282J0D01*
G01*
X20000000Y-11300000D02*
X20000000Y-13100000D01*
X20000000Y-9700000D02*
X20000000Y-11300000D01*
X26500000Y-9700000D02*
G75*
G03X26200000Y-9400000I-300000J0D01*
G01*
X26200000Y-15000000D02*
G75*
G03X26500000Y-14700000I0J300000D01*
G01*
X20000000Y-14700000D02*
G75*
G03X20300000Y-15000000I300000J0D01*
G01*
X20300000Y-9400000D02*
G75*
G03X20000000Y-9700000I0J-300000D01*
G01*
X26200000Y-9400000D02*
X20300000Y-9400000D01*
X26500000Y-14700000D02*
X26500000Y-9700000D01*
X20300000Y-15000000D02*
X26200000Y-15000000D01*
X20000000Y-13100000D02*
X20000000Y-14700000D01*
D11*
X20031679Y-10372313D02*
X20091679Y-10432313D01*
X20091679Y-10372313D02*
X20031679Y-10432313D01*
X20031679Y-10874603D02*
X20091679Y-10934603D01*
X20091679Y-10874603D02*
X20031679Y-10934603D01*
X20031679Y-11392363D02*
X20091679Y-11452363D01*
X20091679Y-11392363D02*
X20031679Y-11452363D01*
X20076680Y-9901040D02*
X20136680Y-9961040D01*
X20136680Y-9901040D02*
X20076680Y-9961040D01*
X20076680Y-11901040D02*
X20136680Y-11961040D01*
X20136680Y-11901040D02*
X20076680Y-11961040D01*
X20076680Y-14401040D02*
X20136680Y-14461040D01*
X20136680Y-14401040D02*
X20076680Y-14461040D01*
X20408520Y-14848080D02*
X20468520Y-14908080D01*
X20468520Y-14848080D02*
X20408520Y-14908080D01*
X20518640Y-12871960D02*
X20578640Y-12931960D01*
X20578640Y-12871960D02*
X20518640Y-12931960D01*
X20737080Y-10085580D02*
X20797080Y-10145580D01*
X20797080Y-10085580D02*
X20737080Y-10145580D01*
X20774461Y-11147864D02*
X20834461Y-11207864D01*
X20834461Y-11147864D02*
X20774461Y-11207864D01*
X20864080Y-11723880D02*
X20924080Y-11783880D01*
X20924080Y-11723880D02*
X20864080Y-11783880D01*
X20884400Y-10806940D02*
X20944400Y-10866940D01*
X20944400Y-10806940D02*
X20884400Y-10866940D01*
X20908520Y-14848080D02*
X20968520Y-14908080D01*
X20968520Y-14848080D02*
X20908520Y-14908080D01*
X21011400Y-12523980D02*
X21071400Y-12583980D01*
X21071400Y-12523980D02*
X21011400Y-12583980D01*
X21062200Y-14032740D02*
X21122200Y-14092740D01*
X21122200Y-14032740D02*
X21062200Y-14092740D01*
X21270480Y-11805160D02*
X21330480Y-11865160D01*
X21330480Y-11805160D02*
X21270480Y-11865160D01*
X21298181Y-10881877D02*
X21358181Y-10941877D01*
X21358181Y-10881877D02*
X21298181Y-10941877D01*
X21408520Y-14848080D02*
X21468520Y-14908080D01*
X21468520Y-14848080D02*
X21408520Y-14908080D01*
X21476220Y-11802620D02*
X21536220Y-11862620D01*
X21536220Y-11802620D02*
X21476220Y-11862620D01*
X21509689Y-10895457D02*
X21569689Y-10955457D01*
X21569689Y-10895457D02*
X21509689Y-10955457D01*
X21542260Y-13420600D02*
X21602260Y-13480600D01*
X21602260Y-13420600D02*
X21542260Y-13480600D01*
X21590520Y-13738100D02*
X21650520Y-13798100D01*
X21650520Y-13738100D02*
X21590520Y-13798100D01*
X21627901Y-11625217D02*
X21687901Y-11685217D01*
X21687901Y-11625217D02*
X21627901Y-11685217D01*
X21660921Y-10815921D02*
X21720921Y-10875921D01*
X21720921Y-10815921D02*
X21660921Y-10875921D01*
X21730728Y-10152128D02*
X21790728Y-10212128D01*
X21790728Y-10152128D02*
X21730728Y-10212128D01*
X21745460Y-12183620D02*
X21805460Y-12243620D01*
X21805460Y-12183620D02*
X21745460Y-12243620D01*
X21897860Y-13999720D02*
X21957860Y-14059720D01*
X21957860Y-13999720D02*
X21897860Y-14059720D01*
X21908520Y-14848080D02*
X21968520Y-14908080D01*
X21968520Y-14848080D02*
X21908520Y-14908080D01*
X21994380Y-12826240D02*
X22054380Y-12886240D01*
X22054380Y-12826240D02*
X21994380Y-12886240D01*
X22024860Y-11002520D02*
X22084860Y-11062520D01*
X22084860Y-11002520D02*
X22024860Y-11062520D01*
X22060420Y-10334500D02*
X22120420Y-10394500D01*
X22120420Y-10334500D02*
X22060420Y-10394500D01*
X22408520Y-14848080D02*
X22468520Y-14908080D01*
X22468520Y-14848080D02*
X22408520Y-14908080D01*
X22586200Y-13321540D02*
X22646200Y-13381540D01*
X22646200Y-13321540D02*
X22586200Y-13381540D01*
X22791940Y-10156700D02*
X22851940Y-10216700D01*
X22851940Y-10156700D02*
X22791940Y-10216700D01*
X22908520Y-14848080D02*
X22968520Y-14908080D01*
X22968520Y-14848080D02*
X22908520Y-14908080D01*
X22992600Y-10431020D02*
X23052600Y-10491020D01*
X23052600Y-10431020D02*
X22992600Y-10491020D01*
X23152620Y-14111480D02*
X23212620Y-14171480D01*
X23212620Y-14111480D02*
X23152620Y-14171480D01*
X23157700Y-13722860D02*
X23217700Y-13782860D01*
X23217700Y-13722860D02*
X23157700Y-13782860D01*
X23325340Y-10225280D02*
X23385340Y-10285280D01*
X23385340Y-10225280D02*
X23325340Y-10285280D01*
X23408520Y-14848080D02*
X23468520Y-14908080D01*
X23468520Y-14848080D02*
X23408520Y-14908080D01*
X23908520Y-14848080D02*
X23968520Y-14908080D01*
X23968520Y-14848080D02*
X23908520Y-14908080D01*
X23917160Y-13329160D02*
X23977160Y-13389160D01*
X23977160Y-13329160D02*
X23917160Y-13389160D01*
X24110200Y-10624060D02*
X24170200Y-10684060D01*
X24170200Y-10624060D02*
X24110200Y-10684060D01*
X24288000Y-13588240D02*
X24348000Y-13648240D01*
X24348000Y-13588240D02*
X24288000Y-13648240D01*
X24325615Y-13907729D02*
X24385615Y-13967729D01*
X24385615Y-13907729D02*
X24325615Y-13967729D01*
X24408520Y-14848080D02*
X24468520Y-14908080D01*
X24468520Y-14848080D02*
X24408520Y-14908080D01*
X24445480Y-10403080D02*
X24505480Y-10463080D01*
X24505480Y-10403080D02*
X24445480Y-10463080D01*
X24479673Y-13788122D02*
X24539673Y-13848122D01*
X24539673Y-13788122D02*
X24479673Y-13848122D01*
X24583481Y-13825466D02*
X24643481Y-13885466D01*
X24643481Y-13825466D02*
X24583481Y-13885466D01*
X24618200Y-11134600D02*
X24678200Y-11194600D01*
X24678200Y-11134600D02*
X24618200Y-11194600D01*
X24664966Y-13690027D02*
X24724966Y-13750027D01*
X24724966Y-13690027D02*
X24664966Y-13750027D01*
X24674080Y-12645900D02*
X24734080Y-12705900D01*
X24734080Y-12645900D02*
X24674080Y-12705900D01*
X24735759Y-13774638D02*
X24795759Y-13834638D01*
X24795759Y-13774638D02*
X24735759Y-13834638D01*
X24818860Y-9996680D02*
X24878860Y-10056680D01*
X24878860Y-9996680D02*
X24818860Y-10056680D01*
X24908520Y-14848080D02*
X24968520Y-14908080D01*
X24968520Y-14848080D02*
X24908520Y-14908080D01*
X24975049Y-10155932D02*
X25035049Y-10215932D01*
X25035049Y-10155932D02*
X24975049Y-10215932D01*
X25037817Y-9976551D02*
X25097817Y-10036551D01*
X25097817Y-9976551D02*
X25037817Y-10036551D01*
X25076757Y-10207932D02*
X25136757Y-10267932D01*
X25136757Y-10207932D02*
X25076757Y-10267932D01*
X25142031Y-13086391D02*
X25202031Y-13146391D01*
X25202031Y-13086391D02*
X25142031Y-13146391D01*
X25243526Y-13988225D02*
X25303526Y-14048225D01*
X25303526Y-13988225D02*
X25243526Y-14048225D01*
X25250845Y-12767271D02*
X25310845Y-12827271D01*
X25310845Y-12767271D02*
X25250845Y-12827271D01*
X25260973Y-12877126D02*
X25320973Y-12937126D01*
X25320973Y-12877126D02*
X25260973Y-12937126D01*
X25385280Y-13501880D02*
X25445280Y-13561880D01*
X25445280Y-13501880D02*
X25385280Y-13561880D01*
X25408520Y-14848080D02*
X25468520Y-14908080D01*
X25468520Y-14848080D02*
X25408520Y-14908080D01*
X25431000Y-11238740D02*
X25491000Y-11298740D01*
X25491000Y-11238740D02*
X25431000Y-11298740D01*
X25608800Y-13539980D02*
X25668800Y-13599980D01*
X25668800Y-13539980D02*
X25608800Y-13599980D01*
X25618960Y-14055600D02*
X25678960Y-14115600D01*
X25678960Y-14055600D02*
X25618960Y-14115600D01*
X25629120Y-11589260D02*
X25689120Y-11649260D01*
X25689120Y-11589260D02*
X25629120Y-11649260D01*
X25643922Y-12504302D02*
X25703922Y-12564302D01*
X25703922Y-12504302D02*
X25643922Y-12564302D01*
X25646801Y-12702499D02*
X25706801Y-12762499D01*
X25706801Y-12702499D02*
X25646801Y-12762499D01*
X25728180Y-12242040D02*
X25788180Y-12302040D01*
X25788180Y-12242040D02*
X25728180Y-12302040D01*
X25731444Y-12934741D02*
X25791444Y-12994741D01*
X25791444Y-12934741D02*
X25731444Y-12994741D01*
X25758660Y-13684760D02*
X25818660Y-13744760D01*
X25818660Y-13684760D02*
X25758660Y-13744760D01*
X25907608Y-13467232D02*
X25967608Y-13527232D01*
X25967608Y-13467232D02*
X25907608Y-13527232D01*
X25908520Y-14848080D02*
X25968520Y-14908080D01*
X25968520Y-14848080D02*
X25908520Y-14908080D01*
X25928840Y-12432540D02*
X25988840Y-12492540D01*
X25988840Y-12432540D02*
X25928840Y-12492540D01*
X25954972Y-14057800D02*
X26014972Y-14117800D01*
X26014972Y-14057800D02*
X25954972Y-14117800D01*
X25992340Y-13954000D02*
X26052340Y-14014000D01*
X26052340Y-13954000D02*
X25992340Y-14014000D01*
X26104100Y-13885420D02*
X26164100Y-13945420D01*
X26164100Y-13885420D02*
X26104100Y-13945420D01*
X26234148Y-13465304D02*
X26294148Y-13525304D01*
X26294148Y-13465304D02*
X26234148Y-13525304D01*
X26271161Y-13287720D02*
X26331161Y-13347720D01*
X26331161Y-13287720D02*
X26271161Y-13347720D01*
X26271740Y-13651740D02*
X26331740Y-13711740D01*
X26331740Y-13651740D02*
X26271740Y-13711740D01*
X26347940Y-12849100D02*
X26407940Y-12909100D01*
X26407940Y-12849100D02*
X26347940Y-12909100D01*
X20461720Y-11794520D02*
G75*
G03X20461720Y-11794520I-35000J0D01*
G01*
X20964640Y-10402600D02*
G75*
G03X20964640Y-10402600I-35000J0D01*
G01*
X21244040Y-10341640D02*
G75*
G03X21244040Y-10341640I-35000J0D01*
G01*
X21459940Y-12020580D02*
G75*
G03X21459940Y-12020580I-35000J0D01*
G01*
X21739340Y-11802140D02*
G75*
G03X21739340Y-11802140I-35000J0D01*
G01*
X24286148Y-10276245D02*
G75*
G03X24286148Y-10276245I-35000J0D01*
G01*
X24965559Y-13924514D02*
G75*
G03X24965559Y-13924514I-35000J0D01*
G01*
X25254700Y-10646440D02*
G75*
G03X25254700Y-10646440I-35000J0D01*
G01*
X25479201Y-12741425D02*
G75*
G03X25479201Y-12741425I-35000J0D01*
G01*
X25752821Y-13243116D02*
G75*
G03X25752821Y-13243116I-35000J0D01*
G01*
X25762700Y-10636280D02*
G75*
G03X25762700Y-10636280I-35000J0D01*
G01*
X26250669Y-13159745D02*
G75*
G03X26250669Y-13159745I-35000J0D01*
G01*
X25381700Y-10341640D02*
G75*
G03X25381700Y-10341640I-35000J0D01*
G01*
X25581700Y-10341640D02*
G75*
G03X25581700Y-10341640I-35000J0D01*
G01*
X26077660Y-11454160D02*
G75*
G03X26077660Y-11454160I-35000J0D01*
G01*
X26277660Y-11454160D02*
G75*
G03X26277660Y-11454160I-35000J0D01*
G01*
X26077660Y-10341640D02*
G75*
G03X26077660Y-10341640I-35000J0D01*
G01*
X26277660Y-10341640D02*
G75*
G03X26277660Y-10341640I-35000J0D01*
G01*
X26077660Y-10897900D02*
G75*
G03X26077660Y-10897900I-35000J0D01*
G01*
X26277660Y-10897900D02*
G75*
G03X26277660Y-10897900I-35000J0D01*
G01*
X21305000Y-12401580D02*
G75*
G03X21305000Y-12401580I-35000J0D01*
G01*
X21305000Y-12601580D02*
G75*
G03X21305000Y-12601580I-35000J0D01*
G01*
X23789780Y-14606300D02*
G75*
G03X23789780Y-14606300I-35000J0D01*
G01*
X23989780Y-14606300D02*
G75*
G03X23989780Y-14606300I-35000J0D01*
G01*
X24189780Y-14606300D02*
G75*
G03X24189780Y-14606300I-35000J0D01*
G01*
X25379820Y-10897900D02*
G75*
G03X25379820Y-10897900I-35000J0D01*
G01*
X25579820Y-10897900D02*
G75*
G03X25579820Y-10897900I-35000J0D01*
G01*
X20837000Y-9573000D02*
X20837000Y-9673000D01*
X20787000Y-9623000D02*
X20887000Y-9623000D01*
X20837000Y-9827000D02*
X20837000Y-9927000D01*
X20787000Y-9877000D02*
X20887000Y-9877000D01*
X21091000Y-9573000D02*
X21091000Y-9673000D01*
X21041000Y-9623000D02*
X21141000Y-9623000D01*
X21091000Y-9827000D02*
X21091000Y-9927000D01*
X21041000Y-9877000D02*
X21141000Y-9877000D01*
X21345000Y-9573000D02*
X21345000Y-9673000D01*
X21295000Y-9623000D02*
X21395000Y-9623000D01*
X21345000Y-9827000D02*
X21345000Y-9927000D01*
X21295000Y-9877000D02*
X21395000Y-9877000D01*
X21599000Y-9573000D02*
X21599000Y-9673000D01*
X21549000Y-9623000D02*
X21649000Y-9623000D01*
X21599000Y-9827000D02*
X21599000Y-9927000D01*
X21549000Y-9877000D02*
X21649000Y-9877000D01*
X21853000Y-9573000D02*
X21853000Y-9673000D01*
X21803000Y-9623000D02*
X21903000Y-9623000D01*
X21853000Y-9827000D02*
X21853000Y-9927000D01*
X21803000Y-9877000D02*
X21903000Y-9877000D01*
X22107000Y-9573000D02*
X22107000Y-9673000D01*
X22057000Y-9623000D02*
X22157000Y-9623000D01*
X22107000Y-9827000D02*
X22107000Y-9927000D01*
X22057000Y-9877000D02*
X22157000Y-9877000D01*
X22361000Y-9573000D02*
X22361000Y-9673000D01*
X22311000Y-9623000D02*
X22411000Y-9623000D01*
X22361000Y-9827000D02*
X22361000Y-9927000D01*
X22311000Y-9877000D02*
X22411000Y-9877000D01*
X22615000Y-9573000D02*
X22615000Y-9673000D01*
X22565000Y-9623000D02*
X22665000Y-9623000D01*
X22615000Y-9827000D02*
X22615000Y-9927000D01*
X22565000Y-9877000D02*
X22665000Y-9877000D01*
X22869000Y-9573000D02*
X22869000Y-9673000D01*
X22819000Y-9623000D02*
X22919000Y-9623000D01*
X22869000Y-9827000D02*
X22869000Y-9927000D01*
X22819000Y-9877000D02*
X22919000Y-9877000D01*
X23123000Y-9573000D02*
X23123000Y-9673000D01*
X23073000Y-9623000D02*
X23173000Y-9623000D01*
X23123000Y-9827000D02*
X23123000Y-9927000D01*
X23073000Y-9877000D02*
X23173000Y-9877000D01*
X23377000Y-9573000D02*
X23377000Y-9673000D01*
X23327000Y-9623000D02*
X23427000Y-9623000D01*
X23377000Y-9827000D02*
X23377000Y-9927000D01*
X23327000Y-9877000D02*
X23427000Y-9877000D01*
X23631000Y-9573000D02*
X23631000Y-9673000D01*
X23581000Y-9623000D02*
X23681000Y-9623000D01*
X23631000Y-9827000D02*
X23631000Y-9927000D01*
X23581000Y-9877000D02*
X23681000Y-9877000D01*
X23885000Y-9573000D02*
X23885000Y-9673000D01*
X23835000Y-9623000D02*
X23935000Y-9623000D01*
X23885000Y-9827000D02*
X23885000Y-9927000D01*
X23835000Y-9877000D02*
X23935000Y-9877000D01*
X24139000Y-9573000D02*
X24139000Y-9673000D01*
X24089000Y-9623000D02*
X24189000Y-9623000D01*
X24139000Y-9827000D02*
X24139000Y-9927000D01*
X24089000Y-9877000D02*
X24189000Y-9877000D01*
X24393000Y-9573000D02*
X24393000Y-9673000D01*
X24343000Y-9623000D02*
X24443000Y-9623000D01*
X24393000Y-9827000D02*
X24393000Y-9927000D01*
X24343000Y-9877000D02*
X24443000Y-9877000D01*
X24647000Y-9573000D02*
X24647000Y-9673000D01*
X24597000Y-9623000D02*
X24697000Y-9623000D01*
X24647000Y-9827000D02*
X24647000Y-9927000D01*
X24597000Y-9877000D02*
X24697000Y-9877000D01*
X24901000Y-9573000D02*
X24901000Y-9673000D01*
X24851000Y-9623000D02*
X24951000Y-9623000D01*
X24901000Y-9827000D02*
X24901000Y-9927000D01*
X24851000Y-9877000D02*
X24951000Y-9877000D01*
X25155000Y-9573000D02*
X25155000Y-9673000D01*
X25105000Y-9623000D02*
X25205000Y-9623000D01*
X25155000Y-9827000D02*
X25155000Y-9927000D01*
X25105000Y-9877000D02*
X25205000Y-9877000D01*
X25409000Y-9573000D02*
X25409000Y-9673000D01*
X25359000Y-9623000D02*
X25459000Y-9623000D01*
X25409000Y-9827000D02*
X25409000Y-9927000D01*
X25359000Y-9877000D02*
X25459000Y-9877000D01*
X25663000Y-9573000D02*
X25663000Y-9673000D01*
X25613000Y-9623000D02*
X25713000Y-9623000D01*
X25663000Y-9827000D02*
X25663000Y-9927000D01*
X25613000Y-9877000D02*
X25713000Y-9877000D01*
X20394061Y-13519541D02*
X20394061Y-13447699D01*
X20322219Y-13447699D01*
X20322219Y-13519541D01*
X20394061Y-13519541D01*
X20648061Y-13519541D02*
X20648061Y-13447699D01*
X20576219Y-13447699D01*
X20576219Y-13519541D01*
X20648061Y-13519541D01*
X25484221Y-11521323D02*
X25484221Y-11449481D01*
X25412379Y-11449481D01*
X25412379Y-11521323D01*
X25484221Y-11521323D01*
X25484221Y-11775323D02*
X25484221Y-11703481D01*
X25412379Y-11703481D01*
X25412379Y-11775323D01*
X25484221Y-11775323D01*
X20401681Y-12112381D02*
X20401681Y-12040539D01*
X20329839Y-12040539D01*
X20329839Y-12112381D01*
X20401681Y-12112381D01*
X20401681Y-12366381D02*
X20401681Y-12294539D01*
X20329839Y-12294539D01*
X20329839Y-12366381D01*
X20401681Y-12366381D01*
X20401681Y-12620381D02*
X20401681Y-12548539D01*
X20329839Y-12548539D01*
X20329839Y-12620381D01*
X20401681Y-12620381D01*
X20394061Y-13875141D02*
X20394061Y-13803299D01*
X20322219Y-13803299D01*
X20322219Y-13875141D01*
X20394061Y-13875141D01*
X20648061Y-13875141D02*
X20648061Y-13803299D01*
X20576219Y-13803299D01*
X20576219Y-13875141D01*
X20648061Y-13875141D01*
X24661261Y-14299321D02*
X24661261Y-14227479D01*
X24589419Y-14227479D01*
X24589419Y-14299321D01*
X24661261Y-14299321D01*
X24661261Y-14553321D02*
X24661261Y-14481479D01*
X24589419Y-14481479D01*
X24589419Y-14553321D01*
X24661261Y-14553321D01*
X20394061Y-13163941D02*
X20394061Y-13092099D01*
X20322219Y-13092099D01*
X20322219Y-13163941D01*
X20394061Y-13163941D01*
X20648061Y-13163941D02*
X20648061Y-13092099D01*
X20576219Y-13092099D01*
X20576219Y-13163941D01*
X20648061Y-13163941D01*
X21867261Y-14591421D02*
X21867261Y-14519579D01*
X21795419Y-14519579D01*
X21795419Y-14591421D01*
X21867261Y-14591421D01*
X22121261Y-14591421D02*
X22121261Y-14519579D01*
X22049419Y-14519579D01*
X22049419Y-14591421D01*
X22121261Y-14591421D01*
X22375261Y-14591421D02*
X22375261Y-14519579D01*
X22303419Y-14519579D01*
X22303419Y-14591421D01*
X22375261Y-14591421D01*
X20342632Y-10604056D02*
X20397496Y-10549192D01*
X20342632Y-10494328D01*
X20287768Y-10549192D01*
X20342632Y-10604056D01*
X20342632Y-10858056D02*
X20397496Y-10803192D01*
X20342632Y-10748328D01*
X20287768Y-10803192D01*
X20342632Y-10858056D01*
X20342632Y-11209056D02*
X20397496Y-11154192D01*
X20342632Y-11099328D01*
X20287768Y-11154192D01*
X20342632Y-11209056D01*
X20342632Y-11463056D02*
X20397496Y-11408192D01*
X20342632Y-11353328D01*
X20287768Y-11408192D01*
X20342632Y-11463056D01*
X21949540Y-10586840D02*
X22199540Y-10836840D01*
X22199540Y-10586840D02*
X21949540Y-10836840D01*
X22199540Y-10711840D02*
G75*
G03X22199540Y-10711840I-125000J0D01*
G01*
X21949540Y-13086840D02*
X22199540Y-13336840D01*
X22199540Y-13086840D02*
X21949540Y-13336840D01*
X22199540Y-13211840D02*
G75*
G03X22199540Y-13211840I-125000J0D01*
G01*
X24449540Y-10586840D02*
X24699540Y-10836840D01*
X24699540Y-10586840D02*
X24449540Y-10836840D01*
X24699540Y-10711840D02*
G75*
G03X24699540Y-10711840I-125000J0D01*
G01*
X24449540Y-13086840D02*
X24699540Y-13336840D01*
X24699540Y-13086840D02*
X24449540Y-13336840D01*
X24699540Y-13211840D02*
G75*
G03X24699540Y-13211840I-125000J0D01*
G01*
X20215000Y-9615000D02*
X20485000Y-9885000D01*
X20485000Y-9615000D02*
X20215000Y-9885000D01*
X20350000Y-9615000D02*
X20350000Y-9885000D01*
X20215000Y-9750000D02*
X20485000Y-9750000D01*
X26015000Y-9615000D02*
X26285000Y-9885000D01*
X26285000Y-9615000D02*
X26015000Y-9885000D01*
X26150000Y-9615000D02*
X26150000Y-9885000D01*
X26015000Y-9750000D02*
X26285000Y-9750000D01*
X26015000Y-14515000D02*
X26285000Y-14785000D01*
X26285000Y-14515000D02*
X26015000Y-14785000D01*
X26150000Y-14515000D02*
X26150000Y-14785000D01*
X26015000Y-14650000D02*
X26285000Y-14650000D01*
X20215000Y-14515000D02*
X20485000Y-14785000D01*
X20485000Y-14515000D02*
X20215000Y-14785000D01*
X20350000Y-14515000D02*
X20350000Y-14785000D01*
X20215000Y-14650000D02*
X20485000Y-14650000D01*
D12*
X20281428Y-15470714D02*
X20281428Y-15170714D01*
X20352857Y-15170714D01*
X20395714Y-15185000D01*
X20424286Y-15213571D01*
X20438571Y-15242143D01*
X20452857Y-15299286D01*
X20452857Y-15342143D01*
X20438571Y-15399286D01*
X20424286Y-15427857D01*
X20395714Y-15456429D01*
X20352857Y-15470714D01*
X20281428Y-15470714D01*
X20581428Y-15470714D02*
X20581428Y-15270714D01*
X20581428Y-15327857D02*
X20595714Y-15299286D01*
X20610000Y-15285000D01*
X20638571Y-15270714D01*
X20667143Y-15270714D01*
X20767143Y-15470714D02*
X20767143Y-15270714D01*
X20767143Y-15170714D02*
X20752857Y-15185000D01*
X20767143Y-15199286D01*
X20781428Y-15185000D01*
X20767143Y-15170714D01*
X20767143Y-15199286D01*
X20952857Y-15470714D02*
X20924286Y-15456429D01*
X20910000Y-15427857D01*
X20910000Y-15170714D01*
X21110000Y-15470714D02*
X21081428Y-15456429D01*
X21067143Y-15427857D01*
X21067143Y-15170714D01*
X21452857Y-15470714D02*
X21452857Y-15170714D01*
X21552857Y-15385000D01*
X21652857Y-15170714D01*
X21652857Y-15470714D01*
X21924286Y-15470714D02*
X21924286Y-15313571D01*
X21910000Y-15285000D01*
X21881428Y-15270714D01*
X21824286Y-15270714D01*
X21795714Y-15285000D01*
X21924286Y-15456429D02*
X21895714Y-15470714D01*
X21824286Y-15470714D01*
X21795714Y-15456429D01*
X21781428Y-15427857D01*
X21781428Y-15399286D01*
X21795714Y-15370714D01*
X21824286Y-15356429D01*
X21895714Y-15356429D01*
X21924286Y-15342143D01*
X22067143Y-15270714D02*
X22067143Y-15570714D01*
X22067143Y-15285000D02*
X22095714Y-15270714D01*
X22152857Y-15270714D01*
X22181428Y-15285000D01*
X22195714Y-15299286D01*
X22210000Y-15327857D01*
X22210000Y-15413571D01*
X22195714Y-15442143D01*
X22181428Y-15456429D01*
X22152857Y-15470714D01*
X22095714Y-15470714D01*
X22067143Y-15456429D01*
X22338571Y-15442143D02*
X22352857Y-15456429D01*
X22338571Y-15470714D01*
X22324286Y-15456429D01*
X22338571Y-15442143D01*
X22338571Y-15470714D01*
X22338571Y-15285000D02*
X22352857Y-15299286D01*
X22338571Y-15313571D01*
X22324286Y-15299286D01*
X22338571Y-15285000D01*
X22338571Y-15313571D01*
X19935000Y-15935000D02*
X19995000Y-15995000D01*
X19995000Y-15935000D02*
X19935000Y-15995000D01*
X20338571Y-15800714D02*
X20367143Y-15800714D01*
X20395714Y-15815000D01*
X20410000Y-15829286D01*
X20424286Y-15857857D01*
X20438571Y-15915000D01*
X20438571Y-15986429D01*
X20424286Y-16043571D01*
X20410000Y-16072143D01*
X20395714Y-16086429D01*
X20367143Y-16100714D01*
X20338571Y-16100714D01*
X20310000Y-16086429D01*
X20295714Y-16072143D01*
X20281428Y-16043571D01*
X20267143Y-15986429D01*
X20267143Y-15915000D01*
X20281428Y-15857857D01*
X20295714Y-15829286D01*
X20310000Y-15815000D01*
X20338571Y-15800714D01*
X20567143Y-16072143D02*
X20581428Y-16086429D01*
X20567143Y-16100714D01*
X20552857Y-16086429D01*
X20567143Y-16072143D01*
X20567143Y-16100714D01*
X20838571Y-15800714D02*
X20781428Y-15800714D01*
X20752857Y-15815000D01*
X20738571Y-15829286D01*
X20710000Y-15872143D01*
X20695714Y-15929286D01*
X20695714Y-16043571D01*
X20710000Y-16072143D01*
X20724286Y-16086429D01*
X20752857Y-16100714D01*
X20810000Y-16100714D01*
X20838571Y-16086429D01*
X20852857Y-16072143D01*
X20867143Y-16043571D01*
X20867143Y-15972143D01*
X20852857Y-15943571D01*
X20838571Y-15929286D01*
X20810000Y-15915000D01*
X20752857Y-15915000D01*
X20724286Y-15929286D01*
X20710000Y-15943571D01*
X20695714Y-15972143D01*
X21052857Y-15800714D02*
X21081428Y-15800714D01*
X21110000Y-15815000D01*
X21124286Y-15829286D01*
X21138571Y-15857857D01*
X21152857Y-15915000D01*
X21152857Y-15986429D01*
X21138571Y-16043571D01*
X21124286Y-16072143D01*
X21110000Y-16086429D01*
X21081428Y-16100714D01*
X21052857Y-16100714D01*
X21024286Y-16086429D01*
X21010000Y-16072143D01*
X20995714Y-16043571D01*
X20981428Y-15986429D01*
X20981428Y-15915000D01*
X20995714Y-15857857D01*
X21010000Y-15829286D01*
X21024286Y-15815000D01*
X21052857Y-15800714D01*
X21281428Y-16100714D02*
X21281428Y-15900714D01*
X21281428Y-15929286D02*
X21295714Y-15915000D01*
X21324286Y-15900714D01*
X21367143Y-15900714D01*
X21395714Y-15915000D01*
X21410000Y-15943571D01*
X21410000Y-16100714D01*
X21410000Y-15943571D02*
X21424286Y-15915000D01*
X21452857Y-15900714D01*
X21495714Y-15900714D01*
X21524286Y-15915000D01*
X21538571Y-15943571D01*
X21538571Y-16100714D01*
X21681428Y-16100714D02*
X21681428Y-15900714D01*
X21681428Y-15929286D02*
X21695714Y-15915000D01*
X21724286Y-15900714D01*
X21767143Y-15900714D01*
X21795714Y-15915000D01*
X21810000Y-15943571D01*
X21810000Y-16100714D01*
X21810000Y-15943571D02*
X21824286Y-15915000D01*
X21852857Y-15900714D01*
X21895714Y-15900714D01*
X21924286Y-15915000D01*
X21938571Y-15943571D01*
X21938571Y-16100714D01*
X22524286Y-15786429D02*
X22267143Y-16172143D01*
X22910000Y-15800714D02*
X22938571Y-15800714D01*
X22967143Y-15815000D01*
X22981428Y-15829286D01*
X22995714Y-15857857D01*
X23010000Y-15915000D01*
X23010000Y-15986429D01*
X22995714Y-16043571D01*
X22981428Y-16072143D01*
X22967143Y-16086429D01*
X22938571Y-16100714D01*
X22910000Y-16100714D01*
X22881428Y-16086429D01*
X22867143Y-16072143D01*
X22852857Y-16043571D01*
X22838571Y-15986429D01*
X22838571Y-15915000D01*
X22852857Y-15857857D01*
X22867143Y-15829286D01*
X22881428Y-15815000D01*
X22910000Y-15800714D01*
X23138571Y-16072143D02*
X23152857Y-16086429D01*
X23138571Y-16100714D01*
X23124286Y-16086429D01*
X23138571Y-16072143D01*
X23138571Y-16100714D01*
X23338571Y-15800714D02*
X23367143Y-15800714D01*
X23395714Y-15815000D01*
X23410000Y-15829286D01*
X23424286Y-15857857D01*
X23438571Y-15915000D01*
X23438571Y-15986429D01*
X23424286Y-16043571D01*
X23410000Y-16072143D01*
X23395714Y-16086429D01*
X23367143Y-16100714D01*
X23338571Y-16100714D01*
X23310000Y-16086429D01*
X23295714Y-16072143D01*
X23281428Y-16043571D01*
X23267143Y-15986429D01*
X23267143Y-15915000D01*
X23281428Y-15857857D01*
X23295714Y-15829286D01*
X23310000Y-15815000D01*
X23338571Y-15800714D01*
X23552857Y-15829286D02*
X23567143Y-15815000D01*
X23595714Y-15800714D01*
X23667143Y-15800714D01*
X23695714Y-15815000D01*
X23710000Y-15829286D01*
X23724286Y-15857857D01*
X23724286Y-15886429D01*
X23710000Y-15929286D01*
X23538571Y-16100714D01*
X23724286Y-16100714D01*
X23981428Y-15900714D02*
X23981428Y-16100714D01*
X23910000Y-15786429D02*
X23838571Y-16000714D01*
X24024286Y-16000714D01*
X24124286Y-15800714D02*
X24124286Y-15857857D01*
X24238571Y-15800714D02*
X24238571Y-15857857D01*
X24681428Y-16215000D02*
X24667143Y-16200714D01*
X24638571Y-16157857D01*
X24624286Y-16129286D01*
X24610000Y-16086429D01*
X24595714Y-16015000D01*
X24595714Y-15957857D01*
X24610000Y-15886429D01*
X24624286Y-15843571D01*
X24638571Y-15815000D01*
X24667143Y-15772143D01*
X24681428Y-15757857D01*
X24838571Y-15929286D02*
X24810000Y-15915000D01*
X24795714Y-15900714D01*
X24781428Y-15872143D01*
X24781428Y-15857857D01*
X24795714Y-15829286D01*
X24810000Y-15815000D01*
X24838571Y-15800714D01*
X24895714Y-15800714D01*
X24924286Y-15815000D01*
X24938571Y-15829286D01*
X24952857Y-15857857D01*
X24952857Y-15872143D01*
X24938571Y-15900714D01*
X24924286Y-15915000D01*
X24895714Y-15929286D01*
X24838571Y-15929286D01*
X24810000Y-15943571D01*
X24795714Y-15957857D01*
X24781428Y-15986429D01*
X24781428Y-16043571D01*
X24795714Y-16072143D01*
X24810000Y-16086429D01*
X24838571Y-16100714D01*
X24895714Y-16100714D01*
X24924286Y-16086429D01*
X24938571Y-16072143D01*
X24952857Y-16043571D01*
X24952857Y-15986429D01*
X24938571Y-15957857D01*
X24924286Y-15943571D01*
X24895714Y-15929286D01*
X25052857Y-15800714D02*
X25238571Y-15800714D01*
X25138571Y-15915000D01*
X25181428Y-15915000D01*
X25210000Y-15929286D01*
X25224286Y-15943571D01*
X25238571Y-15972143D01*
X25238571Y-16043571D01*
X25224286Y-16072143D01*
X25210000Y-16086429D01*
X25181428Y-16100714D01*
X25095714Y-16100714D01*
X25067143Y-16086429D01*
X25052857Y-16072143D01*
X25595714Y-16100714D02*
X25595714Y-15800714D01*
X25724286Y-16100714D02*
X25724286Y-15943571D01*
X25710000Y-15915000D01*
X25681428Y-15900714D01*
X25638571Y-15900714D01*
X25610000Y-15915000D01*
X25595714Y-15929286D01*
X25910000Y-16100714D02*
X25881428Y-16086429D01*
X25867143Y-16072143D01*
X25852857Y-16043571D01*
X25852857Y-15957857D01*
X25867143Y-15929286D01*
X25881428Y-15915000D01*
X25910000Y-15900714D01*
X25952857Y-15900714D01*
X25981428Y-15915000D01*
X25995714Y-15929286D01*
X26010000Y-15957857D01*
X26010000Y-16043571D01*
X25995714Y-16072143D01*
X25981428Y-16086429D01*
X25952857Y-16100714D01*
X25910000Y-16100714D01*
X26181428Y-16100714D02*
X26152857Y-16086429D01*
X26138571Y-16057857D01*
X26138571Y-15800714D01*
X26410000Y-16086429D02*
X26381428Y-16100714D01*
X26324286Y-16100714D01*
X26295714Y-16086429D01*
X26281428Y-16057857D01*
X26281428Y-15943571D01*
X26295714Y-15915000D01*
X26324286Y-15900714D01*
X26381428Y-15900714D01*
X26410000Y-15915000D01*
X26424286Y-15943571D01*
X26424286Y-15972143D01*
X26281428Y-16000714D01*
X26538571Y-16086429D02*
X26567143Y-16100714D01*
X26624286Y-16100714D01*
X26652857Y-16086429D01*
X26667143Y-16057857D01*
X26667143Y-16043571D01*
X26652857Y-16015000D01*
X26624286Y-16000714D01*
X26581428Y-16000714D01*
X26552857Y-15986429D01*
X26538571Y-15957857D01*
X26538571Y-15943571D01*
X26552857Y-15915000D01*
X26581428Y-15900714D01*
X26624286Y-15900714D01*
X26652857Y-15915000D01*
X26767143Y-16215000D02*
X26781428Y-16200714D01*
X26810000Y-16157857D01*
X26824286Y-16129286D01*
X26838571Y-16086429D01*
X26852857Y-16015000D01*
X26852857Y-15957857D01*
X26838571Y-15886429D01*
X26824286Y-15843571D01*
X26810000Y-15815000D01*
X26781428Y-15772143D01*
X26767143Y-15757857D01*
X19995000Y-16361000D02*
G75*
G03X19995000Y-16361000I-35000J0D01*
G01*
X20338571Y-16196714D02*
X20367143Y-16196714D01*
X20395714Y-16211000D01*
X20410000Y-16225286D01*
X20424286Y-16253857D01*
X20438571Y-16311000D01*
X20438571Y-16382429D01*
X20424286Y-16439571D01*
X20410000Y-16468143D01*
X20395714Y-16482429D01*
X20367143Y-16496714D01*
X20338571Y-16496714D01*
X20310000Y-16482429D01*
X20295714Y-16468143D01*
X20281428Y-16439571D01*
X20267143Y-16382429D01*
X20267143Y-16311000D01*
X20281428Y-16253857D01*
X20295714Y-16225286D01*
X20310000Y-16211000D01*
X20338571Y-16196714D01*
X20567143Y-16468143D02*
X20581428Y-16482429D01*
X20567143Y-16496714D01*
X20552857Y-16482429D01*
X20567143Y-16468143D01*
X20567143Y-16496714D01*
X20681428Y-16196714D02*
X20881428Y-16196714D01*
X20752857Y-16496714D01*
X21052857Y-16196714D02*
X21081428Y-16196714D01*
X21110000Y-16211000D01*
X21124286Y-16225286D01*
X21138571Y-16253857D01*
X21152857Y-16311000D01*
X21152857Y-16382429D01*
X21138571Y-16439571D01*
X21124286Y-16468143D01*
X21110000Y-16482429D01*
X21081428Y-16496714D01*
X21052857Y-16496714D01*
X21024286Y-16482429D01*
X21010000Y-16468143D01*
X20995714Y-16439571D01*
X20981428Y-16382429D01*
X20981428Y-16311000D01*
X20995714Y-16253857D01*
X21010000Y-16225286D01*
X21024286Y-16211000D01*
X21052857Y-16196714D01*
X21281428Y-16496714D02*
X21281428Y-16296714D01*
X21281428Y-16325286D02*
X21295714Y-16311000D01*
X21324286Y-16296714D01*
X21367143Y-16296714D01*
X21395714Y-16311000D01*
X21410000Y-16339571D01*
X21410000Y-16496714D01*
X21410000Y-16339571D02*
X21424286Y-16311000D01*
X21452857Y-16296714D01*
X21495714Y-16296714D01*
X21524286Y-16311000D01*
X21538571Y-16339571D01*
X21538571Y-16496714D01*
X21681428Y-16496714D02*
X21681428Y-16296714D01*
X21681428Y-16325286D02*
X21695714Y-16311000D01*
X21724286Y-16296714D01*
X21767143Y-16296714D01*
X21795714Y-16311000D01*
X21810000Y-16339571D01*
X21810000Y-16496714D01*
X21810000Y-16339571D02*
X21824286Y-16311000D01*
X21852857Y-16296714D01*
X21895714Y-16296714D01*
X21924286Y-16311000D01*
X21938571Y-16339571D01*
X21938571Y-16496714D01*
X22524286Y-16182429D02*
X22267143Y-16568143D01*
X22910000Y-16196714D02*
X22938571Y-16196714D01*
X22967143Y-16211000D01*
X22981428Y-16225286D01*
X22995714Y-16253857D01*
X23010000Y-16311000D01*
X23010000Y-16382429D01*
X22995714Y-16439571D01*
X22981428Y-16468143D01*
X22967143Y-16482429D01*
X22938571Y-16496714D01*
X22910000Y-16496714D01*
X22881428Y-16482429D01*
X22867143Y-16468143D01*
X22852857Y-16439571D01*
X22838571Y-16382429D01*
X22838571Y-16311000D01*
X22852857Y-16253857D01*
X22867143Y-16225286D01*
X22881428Y-16211000D01*
X22910000Y-16196714D01*
X23138571Y-16468143D02*
X23152857Y-16482429D01*
X23138571Y-16496714D01*
X23124286Y-16482429D01*
X23138571Y-16468143D01*
X23138571Y-16496714D01*
X23338571Y-16196714D02*
X23367143Y-16196714D01*
X23395714Y-16211000D01*
X23410000Y-16225286D01*
X23424286Y-16253857D01*
X23438571Y-16311000D01*
X23438571Y-16382429D01*
X23424286Y-16439571D01*
X23410000Y-16468143D01*
X23395714Y-16482429D01*
X23367143Y-16496714D01*
X23338571Y-16496714D01*
X23310000Y-16482429D01*
X23295714Y-16468143D01*
X23281428Y-16439571D01*
X23267143Y-16382429D01*
X23267143Y-16311000D01*
X23281428Y-16253857D01*
X23295714Y-16225286D01*
X23310000Y-16211000D01*
X23338571Y-16196714D01*
X23552857Y-16225286D02*
X23567143Y-16211000D01*
X23595714Y-16196714D01*
X23667143Y-16196714D01*
X23695714Y-16211000D01*
X23710000Y-16225286D01*
X23724286Y-16253857D01*
X23724286Y-16282429D01*
X23710000Y-16325286D01*
X23538571Y-16496714D01*
X23724286Y-16496714D01*
X23895714Y-16325286D02*
X23867143Y-16311000D01*
X23852857Y-16296714D01*
X23838571Y-16268143D01*
X23838571Y-16253857D01*
X23852857Y-16225286D01*
X23867143Y-16211000D01*
X23895714Y-16196714D01*
X23952857Y-16196714D01*
X23981428Y-16211000D01*
X23995714Y-16225286D01*
X24010000Y-16253857D01*
X24010000Y-16268143D01*
X23995714Y-16296714D01*
X23981428Y-16311000D01*
X23952857Y-16325286D01*
X23895714Y-16325286D01*
X23867143Y-16339571D01*
X23852857Y-16353857D01*
X23838571Y-16382429D01*
X23838571Y-16439571D01*
X23852857Y-16468143D01*
X23867143Y-16482429D01*
X23895714Y-16496714D01*
X23952857Y-16496714D01*
X23981428Y-16482429D01*
X23995714Y-16468143D01*
X24010000Y-16439571D01*
X24010000Y-16382429D01*
X23995714Y-16353857D01*
X23981428Y-16339571D01*
X23952857Y-16325286D01*
X24124286Y-16196714D02*
X24124286Y-16253857D01*
X24238571Y-16196714D02*
X24238571Y-16253857D01*
X24681428Y-16611000D02*
X24667143Y-16596714D01*
X24638571Y-16553857D01*
X24624286Y-16525286D01*
X24610000Y-16482429D01*
X24595714Y-16411000D01*
X24595714Y-16353857D01*
X24610000Y-16282429D01*
X24624286Y-16239571D01*
X24638571Y-16211000D01*
X24667143Y-16168143D01*
X24681428Y-16153857D01*
X24781428Y-16225286D02*
X24795714Y-16211000D01*
X24824286Y-16196714D01*
X24895714Y-16196714D01*
X24924286Y-16211000D01*
X24938571Y-16225286D01*
X24952857Y-16253857D01*
X24952857Y-16282429D01*
X24938571Y-16325286D01*
X24767143Y-16496714D01*
X24952857Y-16496714D01*
X25052857Y-16196714D02*
X25252857Y-16196714D01*
X25124286Y-16496714D01*
X25595714Y-16496714D02*
X25595714Y-16196714D01*
X25724286Y-16496714D02*
X25724286Y-16339571D01*
X25710000Y-16311000D01*
X25681428Y-16296714D01*
X25638571Y-16296714D01*
X25610000Y-16311000D01*
X25595714Y-16325286D01*
X25910000Y-16496714D02*
X25881428Y-16482429D01*
X25867143Y-16468143D01*
X25852857Y-16439571D01*
X25852857Y-16353857D01*
X25867143Y-16325286D01*
X25881428Y-16311000D01*
X25910000Y-16296714D01*
X25952857Y-16296714D01*
X25981428Y-16311000D01*
X25995714Y-16325286D01*
X26010000Y-16353857D01*
X26010000Y-16439571D01*
X25995714Y-16468143D01*
X25981428Y-16482429D01*
X25952857Y-16496714D01*
X25910000Y-16496714D01*
X26181428Y-16496714D02*
X26152857Y-16482429D01*
X26138571Y-16453857D01*
X26138571Y-16196714D01*
X26410000Y-16482429D02*
X26381428Y-16496714D01*
X26324286Y-16496714D01*
X26295714Y-16482429D01*
X26281428Y-16453857D01*
X26281428Y-16339571D01*
X26295714Y-16311000D01*
X26324286Y-16296714D01*
X26381428Y-16296714D01*
X26410000Y-16311000D01*
X26424286Y-16339571D01*
X26424286Y-16368143D01*
X26281428Y-16396714D01*
X26538571Y-16482429D02*
X26567143Y-16496714D01*
X26624286Y-16496714D01*
X26652857Y-16482429D01*
X26667143Y-16453857D01*
X26667143Y-16439571D01*
X26652857Y-16411000D01*
X26624286Y-16396714D01*
X26581428Y-16396714D01*
X26552857Y-16382429D01*
X26538571Y-16353857D01*
X26538571Y-16339571D01*
X26552857Y-16311000D01*
X26581428Y-16296714D01*
X26624286Y-16296714D01*
X26652857Y-16311000D01*
X26767143Y-16611000D02*
X26781428Y-16596714D01*
X26810000Y-16553857D01*
X26824286Y-16525286D01*
X26838571Y-16482429D01*
X26852857Y-16411000D01*
X26852857Y-16353857D01*
X26838571Y-16282429D01*
X26824286Y-16239571D01*
X26810000Y-16211000D01*
X26781428Y-16168143D01*
X26767143Y-16153857D01*
X19945000Y-16707000D02*
X19945000Y-16807000D01*
X19895000Y-16757000D02*
X19995000Y-16757000D01*
X20438571Y-16892714D02*
X20267143Y-16892714D01*
X20352857Y-16892714D02*
X20352857Y-16592714D01*
X20324286Y-16635571D01*
X20295714Y-16664143D01*
X20267143Y-16678429D01*
X20567143Y-16864143D02*
X20581428Y-16878429D01*
X20567143Y-16892714D01*
X20552857Y-16878429D01*
X20567143Y-16864143D01*
X20567143Y-16892714D01*
X20767143Y-16592714D02*
X20795714Y-16592714D01*
X20824286Y-16607000D01*
X20838571Y-16621286D01*
X20852857Y-16649857D01*
X20867143Y-16707000D01*
X20867143Y-16778429D01*
X20852857Y-16835572D01*
X20838571Y-16864143D01*
X20824286Y-16878429D01*
X20795714Y-16892714D01*
X20767143Y-16892714D01*
X20738571Y-16878429D01*
X20724286Y-16864143D01*
X20710000Y-16835572D01*
X20695714Y-16778429D01*
X20695714Y-16707000D01*
X20710000Y-16649857D01*
X20724286Y-16621286D01*
X20738571Y-16607000D01*
X20767143Y-16592714D01*
X21052857Y-16592714D02*
X21081428Y-16592714D01*
X21110000Y-16607000D01*
X21124286Y-16621286D01*
X21138571Y-16649857D01*
X21152857Y-16707000D01*
X21152857Y-16778429D01*
X21138571Y-16835572D01*
X21124286Y-16864143D01*
X21110000Y-16878429D01*
X21081428Y-16892714D01*
X21052857Y-16892714D01*
X21024286Y-16878429D01*
X21010000Y-16864143D01*
X20995714Y-16835572D01*
X20981428Y-16778429D01*
X20981428Y-16707000D01*
X20995714Y-16649857D01*
X21010000Y-16621286D01*
X21024286Y-16607000D01*
X21052857Y-16592714D01*
X21281428Y-16892714D02*
X21281428Y-16692714D01*
X21281428Y-16721286D02*
X21295714Y-16707000D01*
X21324286Y-16692714D01*
X21367143Y-16692714D01*
X21395714Y-16707000D01*
X21410000Y-16735571D01*
X21410000Y-16892714D01*
X21410000Y-16735571D02*
X21424286Y-16707000D01*
X21452857Y-16692714D01*
X21495714Y-16692714D01*
X21524286Y-16707000D01*
X21538571Y-16735571D01*
X21538571Y-16892714D01*
X21681428Y-16892714D02*
X21681428Y-16692714D01*
X21681428Y-16721286D02*
X21695714Y-16707000D01*
X21724286Y-16692714D01*
X21767143Y-16692714D01*
X21795714Y-16707000D01*
X21810000Y-16735571D01*
X21810000Y-16892714D01*
X21810000Y-16735571D02*
X21824286Y-16707000D01*
X21852857Y-16692714D01*
X21895714Y-16692714D01*
X21924286Y-16707000D01*
X21938571Y-16735571D01*
X21938571Y-16892714D01*
X22524286Y-16578429D02*
X22267143Y-16964143D01*
X22910000Y-16592714D02*
X22938571Y-16592714D01*
X22967143Y-16607000D01*
X22981428Y-16621286D01*
X22995714Y-16649857D01*
X23010000Y-16707000D01*
X23010000Y-16778429D01*
X22995714Y-16835572D01*
X22981428Y-16864143D01*
X22967143Y-16878429D01*
X22938571Y-16892714D01*
X22910000Y-16892714D01*
X22881428Y-16878429D01*
X22867143Y-16864143D01*
X22852857Y-16835572D01*
X22838571Y-16778429D01*
X22838571Y-16707000D01*
X22852857Y-16649857D01*
X22867143Y-16621286D01*
X22881428Y-16607000D01*
X22910000Y-16592714D01*
X23138571Y-16864143D02*
X23152857Y-16878429D01*
X23138571Y-16892714D01*
X23124286Y-16878429D01*
X23138571Y-16864143D01*
X23138571Y-16892714D01*
X23338571Y-16592714D02*
X23367143Y-16592714D01*
X23395714Y-16607000D01*
X23410000Y-16621286D01*
X23424286Y-16649857D01*
X23438571Y-16707000D01*
X23438571Y-16778429D01*
X23424286Y-16835572D01*
X23410000Y-16864143D01*
X23395714Y-16878429D01*
X23367143Y-16892714D01*
X23338571Y-16892714D01*
X23310000Y-16878429D01*
X23295714Y-16864143D01*
X23281428Y-16835572D01*
X23267143Y-16778429D01*
X23267143Y-16707000D01*
X23281428Y-16649857D01*
X23295714Y-16621286D01*
X23310000Y-16607000D01*
X23338571Y-16592714D01*
X23538571Y-16592714D02*
X23724286Y-16592714D01*
X23624286Y-16707000D01*
X23667143Y-16707000D01*
X23695714Y-16721286D01*
X23710000Y-16735571D01*
X23724286Y-16764143D01*
X23724286Y-16835572D01*
X23710000Y-16864143D01*
X23695714Y-16878429D01*
X23667143Y-16892714D01*
X23581428Y-16892714D01*
X23552857Y-16878429D01*
X23538571Y-16864143D01*
X23867143Y-16892714D02*
X23924286Y-16892714D01*
X23952857Y-16878429D01*
X23967143Y-16864143D01*
X23995714Y-16821286D01*
X24010000Y-16764143D01*
X24010000Y-16649857D01*
X23995714Y-16621286D01*
X23981428Y-16607000D01*
X23952857Y-16592714D01*
X23895714Y-16592714D01*
X23867143Y-16607000D01*
X23852857Y-16621286D01*
X23838571Y-16649857D01*
X23838571Y-16721286D01*
X23852857Y-16749857D01*
X23867143Y-16764143D01*
X23895714Y-16778429D01*
X23952857Y-16778429D01*
X23981428Y-16764143D01*
X23995714Y-16749857D01*
X24010000Y-16721286D01*
X24124286Y-16592714D02*
X24124286Y-16649857D01*
X24238571Y-16592714D02*
X24238571Y-16649857D01*
X24681428Y-17007000D02*
X24667143Y-16992714D01*
X24638571Y-16949857D01*
X24624286Y-16921286D01*
X24610000Y-16878429D01*
X24595714Y-16807000D01*
X24595714Y-16749857D01*
X24610000Y-16678429D01*
X24624286Y-16635571D01*
X24638571Y-16607000D01*
X24667143Y-16564143D01*
X24681428Y-16549857D01*
X24924286Y-16692714D02*
X24924286Y-16892714D01*
X24852857Y-16578429D02*
X24781428Y-16792714D01*
X24967143Y-16792714D01*
X25138571Y-16592714D02*
X25167143Y-16592714D01*
X25195714Y-16607000D01*
X25210000Y-16621286D01*
X25224286Y-16649857D01*
X25238571Y-16707000D01*
X25238571Y-16778429D01*
X25224286Y-16835572D01*
X25210000Y-16864143D01*
X25195714Y-16878429D01*
X25167143Y-16892714D01*
X25138571Y-16892714D01*
X25110000Y-16878429D01*
X25095714Y-16864143D01*
X25081428Y-16835572D01*
X25067143Y-16778429D01*
X25067143Y-16707000D01*
X25081428Y-16649857D01*
X25095714Y-16621286D01*
X25110000Y-16607000D01*
X25138571Y-16592714D01*
X25595714Y-16892714D02*
X25595714Y-16592714D01*
X25724286Y-16892714D02*
X25724286Y-16735571D01*
X25710000Y-16707000D01*
X25681428Y-16692714D01*
X25638571Y-16692714D01*
X25610000Y-16707000D01*
X25595714Y-16721286D01*
X25910000Y-16892714D02*
X25881428Y-16878429D01*
X25867143Y-16864143D01*
X25852857Y-16835572D01*
X25852857Y-16749857D01*
X25867143Y-16721286D01*
X25881428Y-16707000D01*
X25910000Y-16692714D01*
X25952857Y-16692714D01*
X25981428Y-16707000D01*
X25995714Y-16721286D01*
X26010000Y-16749857D01*
X26010000Y-16835572D01*
X25995714Y-16864143D01*
X25981428Y-16878429D01*
X25952857Y-16892714D01*
X25910000Y-16892714D01*
X26181428Y-16892714D02*
X26152857Y-16878429D01*
X26138571Y-16849857D01*
X26138571Y-16592714D01*
X26410000Y-16878429D02*
X26381428Y-16892714D01*
X26324286Y-16892714D01*
X26295714Y-16878429D01*
X26281428Y-16849857D01*
X26281428Y-16735571D01*
X26295714Y-16707000D01*
X26324286Y-16692714D01*
X26381428Y-16692714D01*
X26410000Y-16707000D01*
X26424286Y-16735571D01*
X26424286Y-16764143D01*
X26281428Y-16792714D01*
X26538571Y-16878429D02*
X26567143Y-16892714D01*
X26624286Y-16892714D01*
X26652857Y-16878429D01*
X26667143Y-16849857D01*
X26667143Y-16835572D01*
X26652857Y-16807000D01*
X26624286Y-16792714D01*
X26581428Y-16792714D01*
X26552857Y-16778429D01*
X26538571Y-16749857D01*
X26538571Y-16735571D01*
X26552857Y-16707000D01*
X26581428Y-16692714D01*
X26624286Y-16692714D01*
X26652857Y-16707000D01*
X26767143Y-17007000D02*
X26781428Y-16992714D01*
X26810000Y-16949857D01*
X26824286Y-16921286D01*
X26838571Y-16878429D01*
X26852857Y-16807000D01*
X26852857Y-16749857D01*
X26838571Y-16678429D01*
X26824286Y-16635571D01*
X26810000Y-16607000D01*
X26781428Y-16564143D01*
X26767143Y-16549857D01*
X19980121Y-17188922D02*
X19980121Y-17117079D01*
X19908279Y-17117079D01*
X19908279Y-17188922D01*
X19980121Y-17188922D01*
X20438571Y-17288714D02*
X20267143Y-17288714D01*
X20352857Y-17288714D02*
X20352857Y-16988714D01*
X20324286Y-17031572D01*
X20295714Y-17060143D01*
X20267143Y-17074429D01*
X20567143Y-17260143D02*
X20581428Y-17274429D01*
X20567143Y-17288714D01*
X20552857Y-17274429D01*
X20567143Y-17260143D01*
X20567143Y-17288714D01*
X20767143Y-16988714D02*
X20795714Y-16988714D01*
X20824286Y-17003000D01*
X20838571Y-17017286D01*
X20852857Y-17045857D01*
X20867143Y-17103000D01*
X20867143Y-17174429D01*
X20852857Y-17231572D01*
X20838571Y-17260143D01*
X20824286Y-17274429D01*
X20795714Y-17288714D01*
X20767143Y-17288714D01*
X20738571Y-17274429D01*
X20724286Y-17260143D01*
X20710000Y-17231572D01*
X20695714Y-17174429D01*
X20695714Y-17103000D01*
X20710000Y-17045857D01*
X20724286Y-17017286D01*
X20738571Y-17003000D01*
X20767143Y-16988714D01*
X20981428Y-17017286D02*
X20995714Y-17003000D01*
X21024286Y-16988714D01*
X21095714Y-16988714D01*
X21124286Y-17003000D01*
X21138571Y-17017286D01*
X21152857Y-17045857D01*
X21152857Y-17074429D01*
X21138571Y-17117286D01*
X20967143Y-17288714D01*
X21152857Y-17288714D01*
X21281428Y-17288714D02*
X21281428Y-17088714D01*
X21281428Y-17117286D02*
X21295714Y-17103000D01*
X21324286Y-17088714D01*
X21367143Y-17088714D01*
X21395714Y-17103000D01*
X21410000Y-17131572D01*
X21410000Y-17288714D01*
X21410000Y-17131572D02*
X21424286Y-17103000D01*
X21452857Y-17088714D01*
X21495714Y-17088714D01*
X21524286Y-17103000D01*
X21538571Y-17131572D01*
X21538571Y-17288714D01*
X21681428Y-17288714D02*
X21681428Y-17088714D01*
X21681428Y-17117286D02*
X21695714Y-17103000D01*
X21724286Y-17088714D01*
X21767143Y-17088714D01*
X21795714Y-17103000D01*
X21810000Y-17131572D01*
X21810000Y-17288714D01*
X21810000Y-17131572D02*
X21824286Y-17103000D01*
X21852857Y-17088714D01*
X21895714Y-17088714D01*
X21924286Y-17103000D01*
X21938571Y-17131572D01*
X21938571Y-17288714D01*
X22524286Y-16974429D02*
X22267143Y-17360143D01*
X22910000Y-16988714D02*
X22938571Y-16988714D01*
X22967143Y-17003000D01*
X22981428Y-17017286D01*
X22995714Y-17045857D01*
X23010000Y-17103000D01*
X23010000Y-17174429D01*
X22995714Y-17231572D01*
X22981428Y-17260143D01*
X22967143Y-17274429D01*
X22938571Y-17288714D01*
X22910000Y-17288714D01*
X22881428Y-17274429D01*
X22867143Y-17260143D01*
X22852857Y-17231572D01*
X22838571Y-17174429D01*
X22838571Y-17103000D01*
X22852857Y-17045857D01*
X22867143Y-17017286D01*
X22881428Y-17003000D01*
X22910000Y-16988714D01*
X23138571Y-17260143D02*
X23152857Y-17274429D01*
X23138571Y-17288714D01*
X23124286Y-17274429D01*
X23138571Y-17260143D01*
X23138571Y-17288714D01*
X23338571Y-16988714D02*
X23367143Y-16988714D01*
X23395714Y-17003000D01*
X23410000Y-17017286D01*
X23424286Y-17045857D01*
X23438571Y-17103000D01*
X23438571Y-17174429D01*
X23424286Y-17231572D01*
X23410000Y-17260143D01*
X23395714Y-17274429D01*
X23367143Y-17288714D01*
X23338571Y-17288714D01*
X23310000Y-17274429D01*
X23295714Y-17260143D01*
X23281428Y-17231572D01*
X23267143Y-17174429D01*
X23267143Y-17103000D01*
X23281428Y-17045857D01*
X23295714Y-17017286D01*
X23310000Y-17003000D01*
X23338571Y-16988714D01*
X23695714Y-17088714D02*
X23695714Y-17288714D01*
X23624286Y-16974429D02*
X23552857Y-17188714D01*
X23738571Y-17188714D01*
X23910000Y-16988714D02*
X23938571Y-16988714D01*
X23967143Y-17003000D01*
X23981428Y-17017286D01*
X23995714Y-17045857D01*
X24010000Y-17103000D01*
X24010000Y-17174429D01*
X23995714Y-17231572D01*
X23981428Y-17260143D01*
X23967143Y-17274429D01*
X23938571Y-17288714D01*
X23910000Y-17288714D01*
X23881428Y-17274429D01*
X23867143Y-17260143D01*
X23852857Y-17231572D01*
X23838571Y-17174429D01*
X23838571Y-17103000D01*
X23852857Y-17045857D01*
X23867143Y-17017286D01*
X23881428Y-17003000D01*
X23910000Y-16988714D01*
X24124286Y-16988714D02*
X24124286Y-17045857D01*
X24238571Y-16988714D02*
X24238571Y-17045857D01*
X24681428Y-17403000D02*
X24667143Y-17388714D01*
X24638571Y-17345857D01*
X24624286Y-17317286D01*
X24610000Y-17274429D01*
X24595714Y-17203000D01*
X24595714Y-17145857D01*
X24610000Y-17074429D01*
X24624286Y-17031572D01*
X24638571Y-17003000D01*
X24667143Y-16960143D01*
X24681428Y-16945857D01*
X24952857Y-17288714D02*
X24781428Y-17288714D01*
X24867143Y-17288714D02*
X24867143Y-16988714D01*
X24838571Y-17031572D01*
X24810000Y-17060143D01*
X24781428Y-17074429D01*
X25210000Y-16988714D02*
X25152857Y-16988714D01*
X25124286Y-17003000D01*
X25110000Y-17017286D01*
X25081428Y-17060143D01*
X25067143Y-17117286D01*
X25067143Y-17231572D01*
X25081428Y-17260143D01*
X25095714Y-17274429D01*
X25124286Y-17288714D01*
X25181428Y-17288714D01*
X25210000Y-17274429D01*
X25224286Y-17260143D01*
X25238571Y-17231572D01*
X25238571Y-17160143D01*
X25224286Y-17131572D01*
X25210000Y-17117286D01*
X25181428Y-17103000D01*
X25124286Y-17103000D01*
X25095714Y-17117286D01*
X25081428Y-17131572D01*
X25067143Y-17160143D01*
X25595714Y-17288714D02*
X25595714Y-16988714D01*
X25724286Y-17288714D02*
X25724286Y-17131572D01*
X25710000Y-17103000D01*
X25681428Y-17088714D01*
X25638571Y-17088714D01*
X25610000Y-17103000D01*
X25595714Y-17117286D01*
X25910000Y-17288714D02*
X25881428Y-17274429D01*
X25867143Y-17260143D01*
X25852857Y-17231572D01*
X25852857Y-17145857D01*
X25867143Y-17117286D01*
X25881428Y-17103000D01*
X25910000Y-17088714D01*
X25952857Y-17088714D01*
X25981428Y-17103000D01*
X25995714Y-17117286D01*
X26010000Y-17145857D01*
X26010000Y-17231572D01*
X25995714Y-17260143D01*
X25981428Y-17274429D01*
X25952857Y-17288714D01*
X25910000Y-17288714D01*
X26181428Y-17288714D02*
X26152857Y-17274429D01*
X26138571Y-17245857D01*
X26138571Y-16988714D01*
X26410000Y-17274429D02*
X26381428Y-17288714D01*
X26324286Y-17288714D01*
X26295714Y-17274429D01*
X26281428Y-17245857D01*
X26281428Y-17131572D01*
X26295714Y-17103000D01*
X26324286Y-17088714D01*
X26381428Y-17088714D01*
X26410000Y-17103000D01*
X26424286Y-17131572D01*
X26424286Y-17160143D01*
X26281428Y-17188714D01*
X26538571Y-17274429D02*
X26567143Y-17288714D01*
X26624286Y-17288714D01*
X26652857Y-17274429D01*
X26667143Y-17245857D01*
X26667143Y-17231572D01*
X26652857Y-17203000D01*
X26624286Y-17188714D01*
X26581428Y-17188714D01*
X26552857Y-17174429D01*
X26538571Y-17145857D01*
X26538571Y-17131572D01*
X26552857Y-17103000D01*
X26581428Y-17088714D01*
X26624286Y-17088714D01*
X26652857Y-17103000D01*
X26767143Y-17403000D02*
X26781428Y-17388714D01*
X26810000Y-17345857D01*
X26824286Y-17317286D01*
X26838571Y-17274429D01*
X26852857Y-17203000D01*
X26852857Y-17145857D01*
X26838571Y-17074429D01*
X26824286Y-17031572D01*
X26810000Y-17003000D01*
X26781428Y-16960143D01*
X26767143Y-16945857D01*
X19940136Y-17603864D02*
X19995000Y-17549000D01*
X19940136Y-17494136D01*
X19885272Y-17549000D01*
X19940136Y-17603864D01*
X20438571Y-17684714D02*
X20267143Y-17684714D01*
X20352857Y-17684714D02*
X20352857Y-17384714D01*
X20324286Y-17427572D01*
X20295714Y-17456143D01*
X20267143Y-17470429D01*
X20567143Y-17656143D02*
X20581428Y-17670429D01*
X20567143Y-17684714D01*
X20552857Y-17670429D01*
X20567143Y-17656143D01*
X20567143Y-17684714D01*
X20867143Y-17684714D02*
X20695714Y-17684714D01*
X20781428Y-17684714D02*
X20781428Y-17384714D01*
X20752857Y-17427572D01*
X20724286Y-17456143D01*
X20695714Y-17470429D01*
X21052857Y-17384714D02*
X21081428Y-17384714D01*
X21110000Y-17399000D01*
X21124286Y-17413286D01*
X21138571Y-17441857D01*
X21152857Y-17499000D01*
X21152857Y-17570429D01*
X21138571Y-17627572D01*
X21124286Y-17656143D01*
X21110000Y-17670429D01*
X21081428Y-17684714D01*
X21052857Y-17684714D01*
X21024286Y-17670429D01*
X21010000Y-17656143D01*
X20995714Y-17627572D01*
X20981428Y-17570429D01*
X20981428Y-17499000D01*
X20995714Y-17441857D01*
X21010000Y-17413286D01*
X21024286Y-17399000D01*
X21052857Y-17384714D01*
X21281428Y-17684714D02*
X21281428Y-17484714D01*
X21281428Y-17513286D02*
X21295714Y-17499000D01*
X21324286Y-17484714D01*
X21367143Y-17484714D01*
X21395714Y-17499000D01*
X21410000Y-17527572D01*
X21410000Y-17684714D01*
X21410000Y-17527572D02*
X21424286Y-17499000D01*
X21452857Y-17484714D01*
X21495714Y-17484714D01*
X21524286Y-17499000D01*
X21538571Y-17527572D01*
X21538571Y-17684714D01*
X21681428Y-17684714D02*
X21681428Y-17484714D01*
X21681428Y-17513286D02*
X21695714Y-17499000D01*
X21724286Y-17484714D01*
X21767143Y-17484714D01*
X21795714Y-17499000D01*
X21810000Y-17527572D01*
X21810000Y-17684714D01*
X21810000Y-17527572D02*
X21824286Y-17499000D01*
X21852857Y-17484714D01*
X21895714Y-17484714D01*
X21924286Y-17499000D01*
X21938571Y-17527572D01*
X21938571Y-17684714D01*
X22524286Y-17370429D02*
X22267143Y-17756143D01*
X22910000Y-17384714D02*
X22938571Y-17384714D01*
X22967143Y-17399000D01*
X22981428Y-17413286D01*
X22995714Y-17441857D01*
X23010000Y-17499000D01*
X23010000Y-17570429D01*
X22995714Y-17627572D01*
X22981428Y-17656143D01*
X22967143Y-17670429D01*
X22938571Y-17684714D01*
X22910000Y-17684714D01*
X22881428Y-17670429D01*
X22867143Y-17656143D01*
X22852857Y-17627572D01*
X22838571Y-17570429D01*
X22838571Y-17499000D01*
X22852857Y-17441857D01*
X22867143Y-17413286D01*
X22881428Y-17399000D01*
X22910000Y-17384714D01*
X23138571Y-17656143D02*
X23152857Y-17670429D01*
X23138571Y-17684714D01*
X23124286Y-17670429D01*
X23138571Y-17656143D01*
X23138571Y-17684714D01*
X23338571Y-17384714D02*
X23367143Y-17384714D01*
X23395714Y-17399000D01*
X23410000Y-17413286D01*
X23424286Y-17441857D01*
X23438571Y-17499000D01*
X23438571Y-17570429D01*
X23424286Y-17627572D01*
X23410000Y-17656143D01*
X23395714Y-17670429D01*
X23367143Y-17684714D01*
X23338571Y-17684714D01*
X23310000Y-17670429D01*
X23295714Y-17656143D01*
X23281428Y-17627572D01*
X23267143Y-17570429D01*
X23267143Y-17499000D01*
X23281428Y-17441857D01*
X23295714Y-17413286D01*
X23310000Y-17399000D01*
X23338571Y-17384714D01*
X23695714Y-17484714D02*
X23695714Y-17684714D01*
X23624286Y-17370429D02*
X23552857Y-17584714D01*
X23738571Y-17584714D01*
X23824286Y-17384714D02*
X24010000Y-17384714D01*
X23910000Y-17499000D01*
X23952857Y-17499000D01*
X23981428Y-17513286D01*
X23995714Y-17527572D01*
X24010000Y-17556143D01*
X24010000Y-17627572D01*
X23995714Y-17656143D01*
X23981428Y-17670429D01*
X23952857Y-17684714D01*
X23867143Y-17684714D01*
X23838571Y-17670429D01*
X23824286Y-17656143D01*
X24124286Y-17384714D02*
X24124286Y-17441857D01*
X24238571Y-17384714D02*
X24238571Y-17441857D01*
X24681428Y-17799000D02*
X24667143Y-17784714D01*
X24638571Y-17741857D01*
X24624286Y-17713286D01*
X24610000Y-17670429D01*
X24595714Y-17599000D01*
X24595714Y-17541857D01*
X24610000Y-17470429D01*
X24624286Y-17427572D01*
X24638571Y-17399000D01*
X24667143Y-17356143D01*
X24681428Y-17341857D01*
X24924286Y-17484714D02*
X24924286Y-17684714D01*
X24852857Y-17370429D02*
X24781428Y-17584714D01*
X24967143Y-17584714D01*
X25310000Y-17684714D02*
X25310000Y-17384714D01*
X25438571Y-17684714D02*
X25438571Y-17527572D01*
X25424286Y-17499000D01*
X25395714Y-17484714D01*
X25352857Y-17484714D01*
X25324286Y-17499000D01*
X25310000Y-17513286D01*
X25624286Y-17684714D02*
X25595714Y-17670429D01*
X25581428Y-17656143D01*
X25567143Y-17627572D01*
X25567143Y-17541857D01*
X25581428Y-17513286D01*
X25595714Y-17499000D01*
X25624286Y-17484714D01*
X25667143Y-17484714D01*
X25695714Y-17499000D01*
X25710000Y-17513286D01*
X25724286Y-17541857D01*
X25724286Y-17627572D01*
X25710000Y-17656143D01*
X25695714Y-17670429D01*
X25667143Y-17684714D01*
X25624286Y-17684714D01*
X25895714Y-17684714D02*
X25867143Y-17670429D01*
X25852857Y-17641857D01*
X25852857Y-17384714D01*
X26124286Y-17670429D02*
X26095714Y-17684714D01*
X26038571Y-17684714D01*
X26010000Y-17670429D01*
X25995714Y-17641857D01*
X25995714Y-17527572D01*
X26010000Y-17499000D01*
X26038571Y-17484714D01*
X26095714Y-17484714D01*
X26124286Y-17499000D01*
X26138571Y-17527572D01*
X26138571Y-17556143D01*
X25995714Y-17584714D01*
X26252857Y-17670429D02*
X26281428Y-17684714D01*
X26338571Y-17684714D01*
X26367143Y-17670429D01*
X26381428Y-17641857D01*
X26381428Y-17627572D01*
X26367143Y-17599000D01*
X26338571Y-17584714D01*
X26295714Y-17584714D01*
X26267143Y-17570429D01*
X26252857Y-17541857D01*
X26252857Y-17527572D01*
X26267143Y-17499000D01*
X26295714Y-17484714D01*
X26338571Y-17484714D01*
X26367143Y-17499000D01*
X26481428Y-17799000D02*
X26495714Y-17784714D01*
X26524286Y-17741857D01*
X26538571Y-17713286D01*
X26552857Y-17670429D01*
X26567143Y-17599000D01*
X26567143Y-17541857D01*
X26552857Y-17470429D01*
X26538571Y-17427572D01*
X26524286Y-17399000D01*
X26495714Y-17356143D01*
X26481428Y-17341857D01*
X19745000Y-17820000D02*
X19995000Y-18070000D01*
X19995000Y-17820000D02*
X19745000Y-18070000D01*
X19995000Y-17945000D02*
G75*
G03X19995000Y-17945000I-125000J0D01*
G01*
X20267143Y-17809286D02*
X20281428Y-17795000D01*
X20310000Y-17780714D01*
X20381428Y-17780714D01*
X20410000Y-17795000D01*
X20424286Y-17809286D01*
X20438571Y-17837857D01*
X20438571Y-17866429D01*
X20424286Y-17909286D01*
X20252857Y-18080714D01*
X20438571Y-18080714D01*
X20567143Y-18052143D02*
X20581428Y-18066429D01*
X20567143Y-18080714D01*
X20552857Y-18066429D01*
X20567143Y-18052143D01*
X20567143Y-18080714D01*
X20852857Y-17780714D02*
X20710000Y-17780714D01*
X20695714Y-17923572D01*
X20710000Y-17909286D01*
X20738571Y-17895000D01*
X20810000Y-17895000D01*
X20838571Y-17909286D01*
X20852857Y-17923572D01*
X20867143Y-17952143D01*
X20867143Y-18023572D01*
X20852857Y-18052143D01*
X20838571Y-18066429D01*
X20810000Y-18080714D01*
X20738571Y-18080714D01*
X20710000Y-18066429D01*
X20695714Y-18052143D01*
X21052857Y-17780714D02*
X21081428Y-17780714D01*
X21110000Y-17795000D01*
X21124286Y-17809286D01*
X21138571Y-17837857D01*
X21152857Y-17895000D01*
X21152857Y-17966429D01*
X21138571Y-18023572D01*
X21124286Y-18052143D01*
X21110000Y-18066429D01*
X21081428Y-18080714D01*
X21052857Y-18080714D01*
X21024286Y-18066429D01*
X21010000Y-18052143D01*
X20995714Y-18023572D01*
X20981428Y-17966429D01*
X20981428Y-17895000D01*
X20995714Y-17837857D01*
X21010000Y-17809286D01*
X21024286Y-17795000D01*
X21052857Y-17780714D01*
X21281428Y-18080714D02*
X21281428Y-17880714D01*
X21281428Y-17909286D02*
X21295714Y-17895000D01*
X21324286Y-17880714D01*
X21367143Y-17880714D01*
X21395714Y-17895000D01*
X21410000Y-17923572D01*
X21410000Y-18080714D01*
X21410000Y-17923572D02*
X21424286Y-17895000D01*
X21452857Y-17880714D01*
X21495714Y-17880714D01*
X21524286Y-17895000D01*
X21538571Y-17923572D01*
X21538571Y-18080714D01*
X21681428Y-18080714D02*
X21681428Y-17880714D01*
X21681428Y-17909286D02*
X21695714Y-17895000D01*
X21724286Y-17880714D01*
X21767143Y-17880714D01*
X21795714Y-17895000D01*
X21810000Y-17923572D01*
X21810000Y-18080714D01*
X21810000Y-17923572D02*
X21824286Y-17895000D01*
X21852857Y-17880714D01*
X21895714Y-17880714D01*
X21924286Y-17895000D01*
X21938571Y-17923572D01*
X21938571Y-18080714D01*
X22524286Y-17766429D02*
X22267143Y-18152143D01*
X22910000Y-17780714D02*
X22938571Y-17780714D01*
X22967143Y-17795000D01*
X22981428Y-17809286D01*
X22995714Y-17837857D01*
X23010000Y-17895000D01*
X23010000Y-17966429D01*
X22995714Y-18023572D01*
X22981428Y-18052143D01*
X22967143Y-18066429D01*
X22938571Y-18080714D01*
X22910000Y-18080714D01*
X22881428Y-18066429D01*
X22867143Y-18052143D01*
X22852857Y-18023572D01*
X22838571Y-17966429D01*
X22838571Y-17895000D01*
X22852857Y-17837857D01*
X22867143Y-17809286D01*
X22881428Y-17795000D01*
X22910000Y-17780714D01*
X23138571Y-18052143D02*
X23152857Y-18066429D01*
X23138571Y-18080714D01*
X23124286Y-18066429D01*
X23138571Y-18052143D01*
X23138571Y-18080714D01*
X23338571Y-17780714D02*
X23367143Y-17780714D01*
X23395714Y-17795000D01*
X23410000Y-17809286D01*
X23424286Y-17837857D01*
X23438571Y-17895000D01*
X23438571Y-17966429D01*
X23424286Y-18023572D01*
X23410000Y-18052143D01*
X23395714Y-18066429D01*
X23367143Y-18080714D01*
X23338571Y-18080714D01*
X23310000Y-18066429D01*
X23295714Y-18052143D01*
X23281428Y-18023572D01*
X23267143Y-17966429D01*
X23267143Y-17895000D01*
X23281428Y-17837857D01*
X23295714Y-17809286D01*
X23310000Y-17795000D01*
X23338571Y-17780714D01*
X23581428Y-18080714D02*
X23638571Y-18080714D01*
X23667143Y-18066429D01*
X23681428Y-18052143D01*
X23710000Y-18009286D01*
X23724286Y-17952143D01*
X23724286Y-17837857D01*
X23710000Y-17809286D01*
X23695714Y-17795000D01*
X23667143Y-17780714D01*
X23610000Y-17780714D01*
X23581428Y-17795000D01*
X23567143Y-17809286D01*
X23552857Y-17837857D01*
X23552857Y-17909286D01*
X23567143Y-17937857D01*
X23581428Y-17952143D01*
X23610000Y-17966429D01*
X23667143Y-17966429D01*
X23695714Y-17952143D01*
X23710000Y-17937857D01*
X23724286Y-17909286D01*
X23895714Y-17909286D02*
X23867143Y-17895000D01*
X23852857Y-17880714D01*
X23838571Y-17852143D01*
X23838571Y-17837857D01*
X23852857Y-17809286D01*
X23867143Y-17795000D01*
X23895714Y-17780714D01*
X23952857Y-17780714D01*
X23981428Y-17795000D01*
X23995714Y-17809286D01*
X24010000Y-17837857D01*
X24010000Y-17852143D01*
X23995714Y-17880714D01*
X23981428Y-17895000D01*
X23952857Y-17909286D01*
X23895714Y-17909286D01*
X23867143Y-17923572D01*
X23852857Y-17937857D01*
X23838571Y-17966429D01*
X23838571Y-18023572D01*
X23852857Y-18052143D01*
X23867143Y-18066429D01*
X23895714Y-18080714D01*
X23952857Y-18080714D01*
X23981428Y-18066429D01*
X23995714Y-18052143D01*
X24010000Y-18023572D01*
X24010000Y-17966429D01*
X23995714Y-17937857D01*
X23981428Y-17923572D01*
X23952857Y-17909286D01*
X24124286Y-17780714D02*
X24124286Y-17837857D01*
X24238571Y-17780714D02*
X24238571Y-17837857D01*
X24681428Y-18195000D02*
X24667143Y-18180714D01*
X24638571Y-18137857D01*
X24624286Y-18109286D01*
X24610000Y-18066429D01*
X24595714Y-17995000D01*
X24595714Y-17937857D01*
X24610000Y-17866429D01*
X24624286Y-17823572D01*
X24638571Y-17795000D01*
X24667143Y-17752143D01*
X24681428Y-17737857D01*
X24924286Y-17880714D02*
X24924286Y-18080714D01*
X24852857Y-17766429D02*
X24781428Y-17980714D01*
X24967143Y-17980714D01*
X25310000Y-18080714D02*
X25310000Y-17780714D01*
X25438571Y-18080714D02*
X25438571Y-17923572D01*
X25424286Y-17895000D01*
X25395714Y-17880714D01*
X25352857Y-17880714D01*
X25324286Y-17895000D01*
X25310000Y-17909286D01*
X25624286Y-18080714D02*
X25595714Y-18066429D01*
X25581428Y-18052143D01*
X25567143Y-18023572D01*
X25567143Y-17937857D01*
X25581428Y-17909286D01*
X25595714Y-17895000D01*
X25624286Y-17880714D01*
X25667143Y-17880714D01*
X25695714Y-17895000D01*
X25710000Y-17909286D01*
X25724286Y-17937857D01*
X25724286Y-18023572D01*
X25710000Y-18052143D01*
X25695714Y-18066429D01*
X25667143Y-18080714D01*
X25624286Y-18080714D01*
X25895714Y-18080714D02*
X25867143Y-18066429D01*
X25852857Y-18037857D01*
X25852857Y-17780714D01*
X26124286Y-18066429D02*
X26095714Y-18080714D01*
X26038571Y-18080714D01*
X26010000Y-18066429D01*
X25995714Y-18037857D01*
X25995714Y-17923572D01*
X26010000Y-17895000D01*
X26038571Y-17880714D01*
X26095714Y-17880714D01*
X26124286Y-17895000D01*
X26138571Y-17923572D01*
X26138571Y-17952143D01*
X25995714Y-17980714D01*
X26252857Y-18066429D02*
X26281428Y-18080714D01*
X26338571Y-18080714D01*
X26367143Y-18066429D01*
X26381428Y-18037857D01*
X26381428Y-18023572D01*
X26367143Y-17995000D01*
X26338571Y-17980714D01*
X26295714Y-17980714D01*
X26267143Y-17966429D01*
X26252857Y-17937857D01*
X26252857Y-17923572D01*
X26267143Y-17895000D01*
X26295714Y-17880714D01*
X26338571Y-17880714D01*
X26367143Y-17895000D01*
X26481428Y-18195000D02*
X26495714Y-18180714D01*
X26524286Y-18137857D01*
X26538571Y-18109286D01*
X26552857Y-18066429D01*
X26567143Y-17995000D01*
X26567143Y-17937857D01*
X26552857Y-17866429D01*
X26538571Y-17823572D01*
X26524286Y-17795000D01*
X26495714Y-17752143D01*
X26481428Y-17737857D01*
X27024286Y-18195000D02*
X27010000Y-18180714D01*
X26981428Y-18137857D01*
X26967143Y-18109286D01*
X26952857Y-18066429D01*
X26938571Y-17995000D01*
X26938571Y-17937857D01*
X26952857Y-17866429D01*
X26967143Y-17823572D01*
X26981428Y-17795000D01*
X27010000Y-17752143D01*
X27024286Y-17737857D01*
X27138571Y-17880714D02*
X27138571Y-18080714D01*
X27138571Y-17909286D02*
X27152857Y-17895000D01*
X27181428Y-17880714D01*
X27224286Y-17880714D01*
X27252857Y-17895000D01*
X27267143Y-17923572D01*
X27267143Y-18080714D01*
X27452857Y-18080714D02*
X27424286Y-18066429D01*
X27410000Y-18052143D01*
X27395714Y-18023572D01*
X27395714Y-17937857D01*
X27410000Y-17909286D01*
X27424286Y-17895000D01*
X27452857Y-17880714D01*
X27495714Y-17880714D01*
X27524286Y-17895000D01*
X27538571Y-17909286D01*
X27552857Y-17937857D01*
X27552857Y-18023572D01*
X27538571Y-18052143D01*
X27524286Y-18066429D01*
X27495714Y-18080714D01*
X27452857Y-18080714D01*
X27638571Y-17880714D02*
X27752857Y-17880714D01*
X27681428Y-17780714D02*
X27681428Y-18037857D01*
X27695714Y-18066429D01*
X27724286Y-18080714D01*
X27752857Y-18080714D01*
X28081428Y-17880714D02*
X28081428Y-18180714D01*
X28081428Y-17895000D02*
X28110000Y-17880714D01*
X28167143Y-17880714D01*
X28195714Y-17895000D01*
X28210000Y-17909286D01*
X28224286Y-17937857D01*
X28224286Y-18023572D01*
X28210000Y-18052143D01*
X28195714Y-18066429D01*
X28167143Y-18080714D01*
X28110000Y-18080714D01*
X28081428Y-18066429D01*
X28395714Y-18080714D02*
X28367143Y-18066429D01*
X28352857Y-18037857D01*
X28352857Y-17780714D01*
X28638571Y-18080714D02*
X28638571Y-17923572D01*
X28624286Y-17895000D01*
X28595714Y-17880714D01*
X28538571Y-17880714D01*
X28510000Y-17895000D01*
X28638571Y-18066429D02*
X28610000Y-18080714D01*
X28538571Y-18080714D01*
X28510000Y-18066429D01*
X28495714Y-18037857D01*
X28495714Y-18009286D01*
X28510000Y-17980714D01*
X28538571Y-17966429D01*
X28610000Y-17966429D01*
X28638571Y-17952143D01*
X28738571Y-17880714D02*
X28852857Y-17880714D01*
X28781428Y-17780714D02*
X28781428Y-18037857D01*
X28795714Y-18066429D01*
X28824286Y-18080714D01*
X28852857Y-18080714D01*
X29067143Y-18066429D02*
X29038571Y-18080714D01*
X28981428Y-18080714D01*
X28952857Y-18066429D01*
X28938571Y-18037857D01*
X28938571Y-17923572D01*
X28952857Y-17895000D01*
X28981428Y-17880714D01*
X29038571Y-17880714D01*
X29067143Y-17895000D01*
X29081428Y-17923572D01*
X29081428Y-17952143D01*
X28938571Y-17980714D01*
X29338571Y-18080714D02*
X29338571Y-17780714D01*
X29338571Y-18066429D02*
X29310000Y-18080714D01*
X29252857Y-18080714D01*
X29224286Y-18066429D01*
X29210000Y-18052143D01*
X29195714Y-18023572D01*
X29195714Y-17937857D01*
X29210000Y-17909286D01*
X29224286Y-17895000D01*
X29252857Y-17880714D01*
X29310000Y-17880714D01*
X29338571Y-17895000D01*
X29452857Y-18195000D02*
X29467143Y-18180714D01*
X29495714Y-18137857D01*
X29510000Y-18109286D01*
X29524286Y-18066429D01*
X29538571Y-17995000D01*
X29538571Y-17937857D01*
X29524286Y-17866429D01*
X29510000Y-17823572D01*
X29495714Y-17795000D01*
X29467143Y-17752143D01*
X29452857Y-17737857D01*
X19725000Y-18206000D02*
X19995000Y-18476000D01*
X19995000Y-18206000D02*
X19725000Y-18476000D01*
X19860000Y-18206000D02*
X19860000Y-18476000D01*
X19725000Y-18341000D02*
X19995000Y-18341000D01*
X20267143Y-18205286D02*
X20281428Y-18191000D01*
X20310000Y-18176714D01*
X20381428Y-18176714D01*
X20410000Y-18191000D01*
X20424286Y-18205286D01*
X20438571Y-18233857D01*
X20438571Y-18262429D01*
X20424286Y-18305286D01*
X20252857Y-18476714D01*
X20438571Y-18476714D01*
X20567143Y-18448143D02*
X20581428Y-18462429D01*
X20567143Y-18476714D01*
X20552857Y-18462429D01*
X20567143Y-18448143D01*
X20567143Y-18476714D01*
X20681428Y-18176714D02*
X20881428Y-18176714D01*
X20752857Y-18476714D01*
X21052857Y-18176714D02*
X21081428Y-18176714D01*
X21110000Y-18191000D01*
X21124286Y-18205286D01*
X21138571Y-18233857D01*
X21152857Y-18291000D01*
X21152857Y-18362429D01*
X21138571Y-18419572D01*
X21124286Y-18448143D01*
X21110000Y-18462429D01*
X21081428Y-18476714D01*
X21052857Y-18476714D01*
X21024286Y-18462429D01*
X21010000Y-18448143D01*
X20995714Y-18419572D01*
X20981428Y-18362429D01*
X20981428Y-18291000D01*
X20995714Y-18233857D01*
X21010000Y-18205286D01*
X21024286Y-18191000D01*
X21052857Y-18176714D01*
X21281428Y-18476714D02*
X21281428Y-18276714D01*
X21281428Y-18305286D02*
X21295714Y-18291000D01*
X21324286Y-18276714D01*
X21367143Y-18276714D01*
X21395714Y-18291000D01*
X21410000Y-18319572D01*
X21410000Y-18476714D01*
X21410000Y-18319572D02*
X21424286Y-18291000D01*
X21452857Y-18276714D01*
X21495714Y-18276714D01*
X21524286Y-18291000D01*
X21538571Y-18319572D01*
X21538571Y-18476714D01*
X21681428Y-18476714D02*
X21681428Y-18276714D01*
X21681428Y-18305286D02*
X21695714Y-18291000D01*
X21724286Y-18276714D01*
X21767143Y-18276714D01*
X21795714Y-18291000D01*
X21810000Y-18319572D01*
X21810000Y-18476714D01*
X21810000Y-18319572D02*
X21824286Y-18291000D01*
X21852857Y-18276714D01*
X21895714Y-18276714D01*
X21924286Y-18291000D01*
X21938571Y-18319572D01*
X21938571Y-18476714D01*
X22524286Y-18162429D02*
X22267143Y-18548143D01*
X22910000Y-18176714D02*
X22938571Y-18176714D01*
X22967143Y-18191000D01*
X22981428Y-18205286D01*
X22995714Y-18233857D01*
X23010000Y-18291000D01*
X23010000Y-18362429D01*
X22995714Y-18419572D01*
X22981428Y-18448143D01*
X22967143Y-18462429D01*
X22938571Y-18476714D01*
X22910000Y-18476714D01*
X22881428Y-18462429D01*
X22867143Y-18448143D01*
X22852857Y-18419572D01*
X22838571Y-18362429D01*
X22838571Y-18291000D01*
X22852857Y-18233857D01*
X22867143Y-18205286D01*
X22881428Y-18191000D01*
X22910000Y-18176714D01*
X23138571Y-18448143D02*
X23152857Y-18462429D01*
X23138571Y-18476714D01*
X23124286Y-18462429D01*
X23138571Y-18448143D01*
X23138571Y-18476714D01*
X23438571Y-18476714D02*
X23267143Y-18476714D01*
X23352857Y-18476714D02*
X23352857Y-18176714D01*
X23324286Y-18219572D01*
X23295714Y-18248143D01*
X23267143Y-18262429D01*
X23624286Y-18176714D02*
X23652857Y-18176714D01*
X23681428Y-18191000D01*
X23695714Y-18205286D01*
X23710000Y-18233857D01*
X23724286Y-18291000D01*
X23724286Y-18362429D01*
X23710000Y-18419572D01*
X23695714Y-18448143D01*
X23681428Y-18462429D01*
X23652857Y-18476714D01*
X23624286Y-18476714D01*
X23595714Y-18462429D01*
X23581428Y-18448143D01*
X23567143Y-18419572D01*
X23552857Y-18362429D01*
X23552857Y-18291000D01*
X23567143Y-18233857D01*
X23581428Y-18205286D01*
X23595714Y-18191000D01*
X23624286Y-18176714D01*
X23981428Y-18176714D02*
X23924286Y-18176714D01*
X23895714Y-18191000D01*
X23881428Y-18205286D01*
X23852857Y-18248143D01*
X23838571Y-18305286D01*
X23838571Y-18419572D01*
X23852857Y-18448143D01*
X23867143Y-18462429D01*
X23895714Y-18476714D01*
X23952857Y-18476714D01*
X23981428Y-18462429D01*
X23995714Y-18448143D01*
X24010000Y-18419572D01*
X24010000Y-18348143D01*
X23995714Y-18319572D01*
X23981428Y-18305286D01*
X23952857Y-18291000D01*
X23895714Y-18291000D01*
X23867143Y-18305286D01*
X23852857Y-18319572D01*
X23838571Y-18348143D01*
X24124286Y-18176714D02*
X24124286Y-18233857D01*
X24238571Y-18176714D02*
X24238571Y-18233857D01*
X24681428Y-18591000D02*
X24667143Y-18576714D01*
X24638571Y-18533857D01*
X24624286Y-18505286D01*
X24610000Y-18462429D01*
X24595714Y-18391000D01*
X24595714Y-18333857D01*
X24610000Y-18262429D01*
X24624286Y-18219572D01*
X24638571Y-18191000D01*
X24667143Y-18148143D01*
X24681428Y-18133857D01*
X24924286Y-18276714D02*
X24924286Y-18476714D01*
X24852857Y-18162429D02*
X24781428Y-18376714D01*
X24967143Y-18376714D01*
X25310000Y-18476714D02*
X25310000Y-18176714D01*
X25438571Y-18476714D02*
X25438571Y-18319572D01*
X25424286Y-18291000D01*
X25395714Y-18276714D01*
X25352857Y-18276714D01*
X25324286Y-18291000D01*
X25310000Y-18305286D01*
X25624286Y-18476714D02*
X25595714Y-18462429D01*
X25581428Y-18448143D01*
X25567143Y-18419572D01*
X25567143Y-18333857D01*
X25581428Y-18305286D01*
X25595714Y-18291000D01*
X25624286Y-18276714D01*
X25667143Y-18276714D01*
X25695714Y-18291000D01*
X25710000Y-18305286D01*
X25724286Y-18333857D01*
X25724286Y-18419572D01*
X25710000Y-18448143D01*
X25695714Y-18462429D01*
X25667143Y-18476714D01*
X25624286Y-18476714D01*
X25895714Y-18476714D02*
X25867143Y-18462429D01*
X25852857Y-18433857D01*
X25852857Y-18176714D01*
X26124286Y-18462429D02*
X26095714Y-18476714D01*
X26038571Y-18476714D01*
X26010000Y-18462429D01*
X25995714Y-18433857D01*
X25995714Y-18319572D01*
X26010000Y-18291000D01*
X26038571Y-18276714D01*
X26095714Y-18276714D01*
X26124286Y-18291000D01*
X26138571Y-18319572D01*
X26138571Y-18348143D01*
X25995714Y-18376714D01*
X26252857Y-18462429D02*
X26281428Y-18476714D01*
X26338571Y-18476714D01*
X26367143Y-18462429D01*
X26381428Y-18433857D01*
X26381428Y-18419572D01*
X26367143Y-18391000D01*
X26338571Y-18376714D01*
X26295714Y-18376714D01*
X26267143Y-18362429D01*
X26252857Y-18333857D01*
X26252857Y-18319572D01*
X26267143Y-18291000D01*
X26295714Y-18276714D01*
X26338571Y-18276714D01*
X26367143Y-18291000D01*
X26481428Y-18591000D02*
X26495714Y-18576714D01*
X26524286Y-18533857D01*
X26538571Y-18505286D01*
X26552857Y-18462429D01*
X26567143Y-18391000D01*
X26567143Y-18333857D01*
X26552857Y-18262429D01*
X26538571Y-18219572D01*
X26524286Y-18191000D01*
X26495714Y-18148143D01*
X26481428Y-18133857D01*
X27024286Y-18591000D02*
X27010000Y-18576714D01*
X26981428Y-18533857D01*
X26967143Y-18505286D01*
X26952857Y-18462429D01*
X26938571Y-18391000D01*
X26938571Y-18333857D01*
X26952857Y-18262429D01*
X26967143Y-18219572D01*
X26981428Y-18191000D01*
X27010000Y-18148143D01*
X27024286Y-18133857D01*
X27138571Y-18276714D02*
X27138571Y-18476714D01*
X27138571Y-18305286D02*
X27152857Y-18291000D01*
X27181428Y-18276714D01*
X27224286Y-18276714D01*
X27252857Y-18291000D01*
X27267143Y-18319572D01*
X27267143Y-18476714D01*
X27452857Y-18476714D02*
X27424286Y-18462429D01*
X27410000Y-18448143D01*
X27395714Y-18419572D01*
X27395714Y-18333857D01*
X27410000Y-18305286D01*
X27424286Y-18291000D01*
X27452857Y-18276714D01*
X27495714Y-18276714D01*
X27524286Y-18291000D01*
X27538571Y-18305286D01*
X27552857Y-18333857D01*
X27552857Y-18419572D01*
X27538571Y-18448143D01*
X27524286Y-18462429D01*
X27495714Y-18476714D01*
X27452857Y-18476714D01*
X27638571Y-18276714D02*
X27752857Y-18276714D01*
X27681428Y-18176714D02*
X27681428Y-18433857D01*
X27695714Y-18462429D01*
X27724286Y-18476714D01*
X27752857Y-18476714D01*
X28081428Y-18276714D02*
X28081428Y-18576714D01*
X28081428Y-18291000D02*
X28110000Y-18276714D01*
X28167143Y-18276714D01*
X28195714Y-18291000D01*
X28210000Y-18305286D01*
X28224286Y-18333857D01*
X28224286Y-18419572D01*
X28210000Y-18448143D01*
X28195714Y-18462429D01*
X28167143Y-18476714D01*
X28110000Y-18476714D01*
X28081428Y-18462429D01*
X28395714Y-18476714D02*
X28367143Y-18462429D01*
X28352857Y-18433857D01*
X28352857Y-18176714D01*
X28638571Y-18476714D02*
X28638571Y-18319572D01*
X28624286Y-18291000D01*
X28595714Y-18276714D01*
X28538571Y-18276714D01*
X28510000Y-18291000D01*
X28638571Y-18462429D02*
X28610000Y-18476714D01*
X28538571Y-18476714D01*
X28510000Y-18462429D01*
X28495714Y-18433857D01*
X28495714Y-18405286D01*
X28510000Y-18376714D01*
X28538571Y-18362429D01*
X28610000Y-18362429D01*
X28638571Y-18348143D01*
X28738571Y-18276714D02*
X28852857Y-18276714D01*
X28781428Y-18176714D02*
X28781428Y-18433857D01*
X28795714Y-18462429D01*
X28824286Y-18476714D01*
X28852857Y-18476714D01*
X29067143Y-18462429D02*
X29038571Y-18476714D01*
X28981428Y-18476714D01*
X28952857Y-18462429D01*
X28938571Y-18433857D01*
X28938571Y-18319572D01*
X28952857Y-18291000D01*
X28981428Y-18276714D01*
X29038571Y-18276714D01*
X29067143Y-18291000D01*
X29081428Y-18319572D01*
X29081428Y-18348143D01*
X28938571Y-18376714D01*
X29338571Y-18476714D02*
X29338571Y-18176714D01*
X29338571Y-18462429D02*
X29310000Y-18476714D01*
X29252857Y-18476714D01*
X29224286Y-18462429D01*
X29210000Y-18448143D01*
X29195714Y-18419572D01*
X29195714Y-18333857D01*
X29210000Y-18305286D01*
X29224286Y-18291000D01*
X29252857Y-18276714D01*
X29310000Y-18276714D01*
X29338571Y-18291000D01*
X29452857Y-18591000D02*
X29467143Y-18576714D01*
X29495714Y-18533857D01*
X29510000Y-18505286D01*
X29524286Y-18462429D01*
X29538571Y-18391000D01*
X29538571Y-18333857D01*
X29524286Y-18262429D01*
X29510000Y-18219572D01*
X29495714Y-18191000D01*
X29467143Y-18148143D01*
X29452857Y-18133857D01*
M02*
