M48
;DRILL file {KiCad 5.0.0-fee4fd1~66~ubuntu18.04.1} date Thu Oct 11 08:48:30 2018
;FORMAT={3:3/ absolute / metric / keep zeros}
FMAT,2
METRIC,TZ
T1C0.600
T2C0.700
T3C1.000
T4C1.016
T5C1.097
T6C2.700
%
G90
G05
M71
T1
X200617Y-104023
X200617Y-109046
X200617Y-114224
X201067Y-099310
X201067Y-119310
X201067Y-144310
X204385Y-148781
X205486Y-129020
X207671Y-101156
X208045Y-111779
X208941Y-117539
X209144Y-108369
X209385Y-148781
X210414Y-125540
X210922Y-140627
X213005Y-118352
X213282Y-109119
X214385Y-148781
X215062Y-118326
X215397Y-109255
X215723Y-134506
X216205Y-137681
X216579Y-116469
X216909Y-108459
X217755Y-122136
X219279Y-140297
X219385Y-148781
X220244Y-128562
X220549Y-110325
X220904Y-103645
X224385Y-148781
X226162Y-133515
X228219Y-101867
X229385Y-148781
X230226Y-104610
X231826Y-141415
X231877Y-137529
X233553Y-102553
X234385Y-148781
X239385Y-148781
X239472Y-133592
X241402Y-106541
X243180Y-136182
X244385Y-148781
X244516Y-140139
X244755Y-104331
X245026Y-138208
X246020Y-138726
X246081Y-137128
X246482Y-111646
X247041Y-126759
X247122Y-137495
X248907Y-100281
X249385Y-148781
X249973Y-099997
X250050Y-101859
X251068Y-102379
X251720Y-131164
X251994Y-125514
X252735Y-140182
X252902Y-129279
X253056Y-128187
X254153Y-135319
X254385Y-148781
X254610Y-112687
X255372Y-119926
X256388Y-135700
X256490Y-140856
X256807Y-116409
X257582Y-122720
X257614Y-129647
X257887Y-137148
X259376Y-134972
X259385Y-148781
X259826Y-140940
X260219Y-139909
X260477Y-125616
X261341Y-139154
X262641Y-134953
X263012Y-133177
X263017Y-136817
X263754Y-128867
T2
X206883Y-110381
X209296Y-104026
X212090Y-103416
X214249Y-120206
X242511Y-102762
X249306Y-139245
X252197Y-106464
X255270Y-126073
X257178Y-132431
X257277Y-106363
X262157Y-131597
X231819Y-146081
X233819Y-146081
X235819Y-146081
X260427Y-108979
X262427Y-108979
X253467Y-103416
X255467Y-103416
X253448Y-108979
X255448Y-108979
X212700Y-124016
X212700Y-126016
X260427Y-114542
X262427Y-114542
X260427Y-103416
X262427Y-103416
T3
X208370Y-096230
X208370Y-098770
X210910Y-096230
X210910Y-098770
X213450Y-096230
X213450Y-098770
X215990Y-096230
X215990Y-098770
X218530Y-096230
X218530Y-098770
X221070Y-096230
X221070Y-098770
X223610Y-096230
X223610Y-098770
X226150Y-096230
X226150Y-098770
X228690Y-096230
X228690Y-098770
X231230Y-096230
X231230Y-098770
X233770Y-096230
X233770Y-098770
X236310Y-096230
X236310Y-098770
X238850Y-096230
X238850Y-098770
X241390Y-096230
X241390Y-098770
X243930Y-096230
X243930Y-098770
X246470Y-096230
X246470Y-098770
X249010Y-096230
X249010Y-098770
X251550Y-096230
X251550Y-098770
X254090Y-096230
X254090Y-098770
X256630Y-096230
X256630Y-098770
T4
X203581Y-131255
X206121Y-131255
X203581Y-134862
X206121Y-134862
X203658Y-120765
X203658Y-123305
X203658Y-125845
X254483Y-114854
X254483Y-117394
X246253Y-142634
X246253Y-145174
X218313Y-145555
X220853Y-145555
X223393Y-145555
X203581Y-138392
X206121Y-138392
T5
X203426Y-111542
X203426Y-114082
X203426Y-105492
X203426Y-108032
T6
X203500Y-146500
X261500Y-097500
X220745Y-107118
X220745Y-132118
X245745Y-107118
X245745Y-132118
X203500Y-097500
X261500Y-146500
T0
M30
