G04 #@! TF.GenerationSoftware,KiCad,Pcbnew,5.0.0-fee4fd1~66~ubuntu18.04.1*
G04 #@! TF.CreationDate,2018-10-08T20:34:26+02:00*
G04 #@! TF.ProjectId,rasle,7261736C652E6B696361645F70636200,rev?*
G04 #@! TF.SameCoordinates,Original*
G04 #@! TF.FileFunction,Copper,L1,Top,Signal*
G04 #@! TF.FilePolarity,Positive*
%FSLAX46Y46*%
G04 Gerber Fmt 4.6, Leading zero omitted, Abs format (unit mm)*
G04 Created by KiCad (PCBNEW 5.0.0-fee4fd1~66~ubuntu18.04.1) date Mon Oct  8 20:34:26 2018*
%MOMM*%
%LPD*%
G01*
G04 APERTURE LIST*
G04 #@! TA.AperFunction,SMDPad,CuDef*
%ADD10R,2.000000X1.700000*%
G04 #@! TD*
G04 #@! TA.AperFunction,SMDPad,CuDef*
%ADD11R,0.500000X0.900000*%
G04 #@! TD*
G04 #@! TA.AperFunction,SMDPad,CuDef*
%ADD12R,0.650000X1.060000*%
G04 #@! TD*
G04 #@! TA.AperFunction,ComponentPad*
%ADD13O,1.700000X1.200000*%
G04 #@! TD*
G04 #@! TA.AperFunction,ComponentPad*
%ADD14R,1.700000X1.200000*%
G04 #@! TD*
G04 #@! TA.AperFunction,SMDPad,CuDef*
%ADD15R,1.000000X1.250000*%
G04 #@! TD*
G04 #@! TA.AperFunction,ComponentPad*
%ADD16R,2.032000X1.727200*%
G04 #@! TD*
G04 #@! TA.AperFunction,ComponentPad*
%ADD17O,2.032000X1.727200*%
G04 #@! TD*
G04 #@! TA.AperFunction,ComponentPad*
%ADD18O,1.200000X1.700000*%
G04 #@! TD*
G04 #@! TA.AperFunction,ComponentPad*
%ADD19R,1.200000X1.700000*%
G04 #@! TD*
G04 #@! TA.AperFunction,ComponentPad*
%ADD20O,1.727200X2.032000*%
G04 #@! TD*
G04 #@! TA.AperFunction,ComponentPad*
%ADD21R,1.727200X2.032000*%
G04 #@! TD*
G04 #@! TA.AperFunction,SMDPad,CuDef*
%ADD22C,0.550000*%
G04 #@! TD*
G04 #@! TA.AperFunction,Conductor*
%ADD23C,0.150000*%
G04 #@! TD*
G04 #@! TA.AperFunction,SMDPad,CuDef*
%ADD24C,0.750000*%
G04 #@! TD*
G04 #@! TA.AperFunction,SMDPad,CuDef*
%ADD25R,0.800100X0.800100*%
G04 #@! TD*
G04 #@! TA.AperFunction,ComponentPad*
%ADD26O,2.032000X2.032000*%
G04 #@! TD*
G04 #@! TA.AperFunction,ComponentPad*
%ADD27R,2.032000X2.032000*%
G04 #@! TD*
G04 #@! TA.AperFunction,SMDPad,CuDef*
%ADD28R,0.900000X0.500000*%
G04 #@! TD*
G04 #@! TA.AperFunction,SMDPad,CuDef*
%ADD29R,1.250000X1.000000*%
G04 #@! TD*
G04 #@! TA.AperFunction,ComponentPad*
%ADD30R,1.700000X1.700000*%
G04 #@! TD*
G04 #@! TA.AperFunction,ComponentPad*
%ADD31O,1.700000X1.700000*%
G04 #@! TD*
G04 #@! TA.AperFunction,SMDPad,CuDef*
%ADD32R,1.500000X1.250000*%
G04 #@! TD*
G04 #@! TA.AperFunction,SMDPad,CuDef*
%ADD33R,1.300000X0.700000*%
G04 #@! TD*
G04 #@! TA.AperFunction,SMDPad,CuDef*
%ADD34R,0.900000X0.900000*%
G04 #@! TD*
G04 #@! TA.AperFunction,SMDPad,CuDef*
%ADD35O,0.300000X0.750000*%
G04 #@! TD*
G04 #@! TA.AperFunction,SMDPad,CuDef*
%ADD36O,0.750000X0.300000*%
G04 #@! TD*
G04 #@! TA.AperFunction,SMDPad,CuDef*
%ADD37R,0.750000X0.800000*%
G04 #@! TD*
G04 #@! TA.AperFunction,ComponentPad*
%ADD38R,1.998980X1.998980*%
G04 #@! TD*
G04 #@! TA.AperFunction,ComponentPad*
%ADD39O,1.998980X1.998980*%
G04 #@! TD*
G04 #@! TA.AperFunction,ViaPad*
%ADD40C,1.000000*%
G04 #@! TD*
G04 #@! TA.AperFunction,ViaPad*
%ADD41C,0.900000*%
G04 #@! TD*
G04 #@! TA.AperFunction,Conductor*
%ADD42C,0.500000*%
G04 #@! TD*
G04 #@! TA.AperFunction,Conductor*
%ADD43C,0.508000*%
G04 #@! TD*
G04 #@! TA.AperFunction,Conductor*
%ADD44C,0.254000*%
G04 #@! TD*
G04 #@! TA.AperFunction,Conductor*
%ADD45C,0.762000*%
G04 #@! TD*
G04 #@! TA.AperFunction,Conductor*
%ADD46C,0.304800*%
G04 #@! TD*
G04 #@! TA.AperFunction,Conductor*
%ADD47C,0.203200*%
G04 #@! TD*
G04 #@! TA.AperFunction,Conductor*
%ADD48C,0.200000*%
G04 #@! TD*
G04 APERTURE END LIST*
D10*
G04 #@! TO.P,J16,1*
G04 #@! TO.N,GND*
X223517360Y-102400400D03*
G04 #@! TO.P,J16,2*
G04 #@! TO.N,+BATT*
X219517360Y-102400400D03*
G04 #@! TD*
D11*
G04 #@! TO.P,R8,2*
G04 #@! TO.N,/FAN*
X228891800Y-137249200D03*
G04 #@! TO.P,R8,1*
G04 #@! TO.N,GND*
X230391800Y-137249200D03*
G04 #@! TD*
G04 #@! TO.P,R4,2*
G04 #@! TO.N,/PWM1*
X228891800Y-140551200D03*
G04 #@! TO.P,R4,1*
G04 #@! TO.N,GND*
X230391800Y-140551200D03*
G04 #@! TD*
D12*
G04 #@! TO.P,U4,1*
G04 #@! TO.N,N/C*
X222728000Y-140094000D03*
G04 #@! TO.P,U4,2*
G04 #@! TO.N,/WS2812_DATA*
X221778000Y-140094000D03*
G04 #@! TO.P,U4,3*
G04 #@! TO.N,GND*
X220828000Y-140094000D03*
G04 #@! TO.P,U4,4*
G04 #@! TO.N,Net-(J4-Pad2)*
X220828000Y-142294000D03*
G04 #@! TO.P,U4,5*
G04 #@! TO.N,+5V*
X222728000Y-142294000D03*
G04 #@! TD*
D13*
G04 #@! TO.P,J2,2*
G04 #@! TO.N,Net-(J2-Pad2)*
X212700000Y-126015800D03*
D14*
G04 #@! TO.P,J2,1*
G04 #@! TO.N,+5V*
X212700000Y-124015800D03*
G04 #@! TD*
D15*
G04 #@! TO.P,C4,2*
G04 #@! TO.N,GND*
X209312400Y-111722200D03*
G04 #@! TO.P,C4,1*
G04 #@! TO.N,+5V*
X211312400Y-111722200D03*
G04 #@! TD*
D16*
G04 #@! TO.P,J1,1*
G04 #@! TO.N,+12V*
X203657600Y-125844600D03*
D17*
G04 #@! TO.P,J1,2*
G04 #@! TO.N,GND*
X203657600Y-123304600D03*
G04 #@! TO.P,J1,3*
G04 #@! TO.N,+5V*
X203657600Y-120764600D03*
G04 #@! TD*
D18*
G04 #@! TO.P,J11,2*
G04 #@! TO.N,GND*
X262426600Y-114541600D03*
D19*
G04 #@! TO.P,J11,1*
G04 #@! TO.N,/BTN_PWR*
X260426600Y-114541600D03*
G04 #@! TD*
D18*
G04 #@! TO.P,J10,2*
G04 #@! TO.N,GND*
X255448200Y-108979000D03*
D19*
G04 #@! TO.P,J10,1*
G04 #@! TO.N,/BUTTON4*
X253448200Y-108979000D03*
G04 #@! TD*
D18*
G04 #@! TO.P,J7,2*
G04 #@! TO.N,GND*
X262426600Y-103416400D03*
D19*
G04 #@! TO.P,J7,1*
G04 #@! TO.N,/BUTTON1*
X260426600Y-103416400D03*
G04 #@! TD*
D20*
G04 #@! TO.P,J4,3*
G04 #@! TO.N,GND*
X223393400Y-145555000D03*
G04 #@! TO.P,J4,2*
G04 #@! TO.N,Net-(J4-Pad2)*
X220853400Y-145555000D03*
D21*
G04 #@! TO.P,J4,1*
G04 #@! TO.N,+5V*
X218313400Y-145555000D03*
G04 #@! TD*
D22*
G04 #@! TO.P,U1,1*
G04 #@! TO.N,/PWM1*
X251726851Y-135794947D03*
D23*
G04 #@! TD*
G04 #@! TO.N,/PWM1*
G04 #@! TO.C,U1*
G36*
X251355620Y-136555087D02*
X250966711Y-136166178D01*
X252098082Y-135034807D01*
X252486991Y-135423716D01*
X251355620Y-136555087D01*
X251355620Y-136555087D01*
G37*
D22*
G04 #@! TO.P,U1,2*
G04 #@! TO.N,Net-(U1-Pad2)*
X252292537Y-136360632D03*
D23*
G04 #@! TD*
G04 #@! TO.N,Net-(U1-Pad2)*
G04 #@! TO.C,U1*
G36*
X251921306Y-137120772D02*
X251532397Y-136731863D01*
X252663768Y-135600492D01*
X253052677Y-135989401D01*
X251921306Y-137120772D01*
X251921306Y-137120772D01*
G37*
D22*
G04 #@! TO.P,U1,3*
G04 #@! TO.N,GND*
X252858222Y-136926318D03*
D23*
G04 #@! TD*
G04 #@! TO.N,GND*
G04 #@! TO.C,U1*
G36*
X252486991Y-137686458D02*
X252098082Y-137297549D01*
X253229453Y-136166178D01*
X253618362Y-136555087D01*
X252486991Y-137686458D01*
X252486991Y-137686458D01*
G37*
D22*
G04 #@! TO.P,U1,4*
G04 #@! TO.N,+3V3*
X253423907Y-137492003D03*
D23*
G04 #@! TD*
G04 #@! TO.N,+3V3*
G04 #@! TO.C,U1*
G36*
X253052676Y-138252143D02*
X252663767Y-137863234D01*
X253795138Y-136731863D01*
X254184047Y-137120772D01*
X253052676Y-138252143D01*
X253052676Y-138252143D01*
G37*
D22*
G04 #@! TO.P,U1,5*
G04 #@! TO.N,GND*
X253989593Y-138057689D03*
D23*
G04 #@! TD*
G04 #@! TO.N,GND*
G04 #@! TO.C,U1*
G36*
X253618362Y-138817829D02*
X253229453Y-138428920D01*
X254360824Y-137297549D01*
X254749733Y-137686458D01*
X253618362Y-138817829D01*
X253618362Y-138817829D01*
G37*
D22*
G04 #@! TO.P,U1,6*
G04 #@! TO.N,+3V3*
X254555278Y-138623374D03*
D23*
G04 #@! TD*
G04 #@! TO.N,+3V3*
G04 #@! TO.C,U1*
G36*
X254184047Y-139383514D02*
X253795138Y-138994605D01*
X254926509Y-137863234D01*
X255315418Y-138252143D01*
X254184047Y-139383514D01*
X254184047Y-139383514D01*
G37*
D22*
G04 #@! TO.P,U1,7*
G04 #@! TO.N,Net-(C14-Pad2)*
X255120964Y-139189059D03*
D23*
G04 #@! TD*
G04 #@! TO.N,Net-(C14-Pad2)*
G04 #@! TO.C,U1*
G36*
X254749733Y-139949199D02*
X254360824Y-139560290D01*
X255492195Y-138428919D01*
X255881104Y-138817828D01*
X254749733Y-139949199D01*
X254749733Y-139949199D01*
G37*
D22*
G04 #@! TO.P,U1,8*
G04 #@! TO.N,Net-(C15-Pad2)*
X255686649Y-139754745D03*
D23*
G04 #@! TD*
G04 #@! TO.N,Net-(C15-Pad2)*
G04 #@! TO.C,U1*
G36*
X255315418Y-140514885D02*
X254926509Y-140125976D01*
X256057880Y-138994605D01*
X256446789Y-139383514D01*
X255315418Y-140514885D01*
X255315418Y-140514885D01*
G37*
D22*
G04 #@! TO.P,U1,9*
G04 #@! TO.N,/PWM2*
X257737259Y-139754745D03*
D23*
G04 #@! TD*
G04 #@! TO.N,/PWM2*
G04 #@! TO.C,U1*
G36*
X258497399Y-140125976D02*
X258108490Y-140514885D01*
X256977119Y-139383514D01*
X257366028Y-138994605D01*
X258497399Y-140125976D01*
X258497399Y-140125976D01*
G37*
D22*
G04 #@! TO.P,U1,10*
G04 #@! TO.N,/PWM3*
X258302944Y-139189059D03*
D23*
G04 #@! TD*
G04 #@! TO.N,/PWM3*
G04 #@! TO.C,U1*
G36*
X259063084Y-139560290D02*
X258674175Y-139949199D01*
X257542804Y-138817828D01*
X257931713Y-138428919D01*
X259063084Y-139560290D01*
X259063084Y-139560290D01*
G37*
D22*
G04 #@! TO.P,U1,11*
G04 #@! TO.N,/WS2812_DATA*
X258868630Y-138623374D03*
D23*
G04 #@! TD*
G04 #@! TO.N,/WS2812_DATA*
G04 #@! TO.C,U1*
G36*
X259628770Y-138994605D02*
X259239861Y-139383514D01*
X258108490Y-138252143D01*
X258497399Y-137863234D01*
X259628770Y-138994605D01*
X259628770Y-138994605D01*
G37*
D22*
G04 #@! TO.P,U1,12*
G04 #@! TO.N,Net-(U1-Pad12)*
X259434315Y-138057689D03*
D23*
G04 #@! TD*
G04 #@! TO.N,Net-(U1-Pad12)*
G04 #@! TO.C,U1*
G36*
X260194455Y-138428920D02*
X259805546Y-138817829D01*
X258674175Y-137686458D01*
X259063084Y-137297549D01*
X260194455Y-138428920D01*
X260194455Y-138428920D01*
G37*
D22*
G04 #@! TO.P,U1,13*
G04 #@! TO.N,/FAN*
X260000001Y-137492003D03*
D23*
G04 #@! TD*
G04 #@! TO.N,/FAN*
G04 #@! TO.C,U1*
G36*
X260760141Y-137863234D02*
X260371232Y-138252143D01*
X259239861Y-137120772D01*
X259628770Y-136731863D01*
X260760141Y-137863234D01*
X260760141Y-137863234D01*
G37*
D22*
G04 #@! TO.P,U1,14*
G04 #@! TO.N,Net-(U1-Pad14)*
X260565686Y-136926318D03*
D23*
G04 #@! TD*
G04 #@! TO.N,Net-(U1-Pad14)*
G04 #@! TO.C,U1*
G36*
X261325826Y-137297549D02*
X260936917Y-137686458D01*
X259805546Y-136555087D01*
X260194455Y-136166178D01*
X261325826Y-137297549D01*
X261325826Y-137297549D01*
G37*
D22*
G04 #@! TO.P,U1,15*
G04 #@! TO.N,/GPIO10(SPI0_MOSI)*
X261131371Y-136360632D03*
D23*
G04 #@! TD*
G04 #@! TO.N,/GPIO10(SPI0_MOSI)*
G04 #@! TO.C,U1*
G36*
X261891511Y-136731863D02*
X261502602Y-137120772D01*
X260371231Y-135989401D01*
X260760140Y-135600492D01*
X261891511Y-136731863D01*
X261891511Y-136731863D01*
G37*
D22*
G04 #@! TO.P,U1,16*
G04 #@! TO.N,/GPIO9(SPI0_MISO)*
X261697057Y-135794947D03*
D23*
G04 #@! TD*
G04 #@! TO.N,/GPIO9(SPI0_MISO)*
G04 #@! TO.C,U1*
G36*
X262457197Y-136166178D02*
X262068288Y-136555087D01*
X260936917Y-135423716D01*
X261325826Y-135034807D01*
X262457197Y-136166178D01*
X262457197Y-136166178D01*
G37*
D22*
G04 #@! TO.P,U1,17*
G04 #@! TO.N,/GPIO11(SPI0_SCK)*
X261697057Y-133744337D03*
D23*
G04 #@! TD*
G04 #@! TO.N,/GPIO11(SPI0_SCK)*
G04 #@! TO.C,U1*
G36*
X261325826Y-134504477D02*
X260936917Y-134115568D01*
X262068288Y-132984197D01*
X262457197Y-133373106D01*
X261325826Y-134504477D01*
X261325826Y-134504477D01*
G37*
D22*
G04 #@! TO.P,U1,18*
G04 #@! TO.N,+3V3*
X261131371Y-133178652D03*
D23*
G04 #@! TD*
G04 #@! TO.N,+3V3*
G04 #@! TO.C,U1*
G36*
X260760140Y-133938792D02*
X260371231Y-133549883D01*
X261502602Y-132418512D01*
X261891511Y-132807421D01*
X260760140Y-133938792D01*
X260760140Y-133938792D01*
G37*
D22*
G04 #@! TO.P,U1,19*
G04 #@! TO.N,Net-(U1-Pad19)*
X260565686Y-132612966D03*
D23*
G04 #@! TD*
G04 #@! TO.N,Net-(U1-Pad19)*
G04 #@! TO.C,U1*
G36*
X260194455Y-133373106D02*
X259805546Y-132984197D01*
X260936917Y-131852826D01*
X261325826Y-132241735D01*
X260194455Y-133373106D01*
X260194455Y-133373106D01*
G37*
D22*
G04 #@! TO.P,U1,20*
G04 #@! TO.N,+3V3*
X260000001Y-132047281D03*
D23*
G04 #@! TD*
G04 #@! TO.N,+3V3*
G04 #@! TO.C,U1*
G36*
X259628770Y-132807421D02*
X259239861Y-132418512D01*
X260371232Y-131287141D01*
X260760141Y-131676050D01*
X259628770Y-132807421D01*
X259628770Y-132807421D01*
G37*
D22*
G04 #@! TO.P,U1,21*
G04 #@! TO.N,GND*
X259434315Y-131481595D03*
D23*
G04 #@! TD*
G04 #@! TO.N,GND*
G04 #@! TO.C,U1*
G36*
X259063084Y-132241735D02*
X258674175Y-131852826D01*
X259805546Y-130721455D01*
X260194455Y-131110364D01*
X259063084Y-132241735D01*
X259063084Y-132241735D01*
G37*
D22*
G04 #@! TO.P,U1,22*
G04 #@! TO.N,Net-(R21-Pad1)*
X258868630Y-130915910D03*
D23*
G04 #@! TD*
G04 #@! TO.N,Net-(R21-Pad1)*
G04 #@! TO.C,U1*
G36*
X258497399Y-131676050D02*
X258108490Y-131287141D01*
X259239861Y-130155770D01*
X259628770Y-130544679D01*
X258497399Y-131676050D01*
X258497399Y-131676050D01*
G37*
D22*
G04 #@! TO.P,U1,23*
G04 #@! TO.N,/BTN_PWR*
X258302944Y-130350225D03*
D23*
G04 #@! TD*
G04 #@! TO.N,/BTN_PWR*
G04 #@! TO.C,U1*
G36*
X257931713Y-131110365D02*
X257542804Y-130721456D01*
X258674175Y-129590085D01*
X259063084Y-129978994D01*
X257931713Y-131110365D01*
X257931713Y-131110365D01*
G37*
D22*
G04 #@! TO.P,U1,24*
G04 #@! TO.N,/POWER*
X257737259Y-129784539D03*
D23*
G04 #@! TD*
G04 #@! TO.N,/POWER*
G04 #@! TO.C,U1*
G36*
X257366028Y-130544679D02*
X256977119Y-130155770D01*
X258108490Y-129024399D01*
X258497399Y-129413308D01*
X257366028Y-130544679D01*
X257366028Y-130544679D01*
G37*
D22*
G04 #@! TO.P,U1,25*
G04 #@! TO.N,/GPIO23(GEN4)*
X255686649Y-129784539D03*
D23*
G04 #@! TD*
G04 #@! TO.N,/GPIO23(GEN4)*
G04 #@! TO.C,U1*
G36*
X256446789Y-130155770D02*
X256057880Y-130544679D01*
X254926509Y-129413308D01*
X255315418Y-129024399D01*
X256446789Y-130155770D01*
X256446789Y-130155770D01*
G37*
D22*
G04 #@! TO.P,U1,26*
G04 #@! TO.N,/GPIO24(GEN5)*
X255120964Y-130350225D03*
D23*
G04 #@! TD*
G04 #@! TO.N,/GPIO24(GEN5)*
G04 #@! TO.C,U1*
G36*
X255881104Y-130721456D02*
X255492195Y-131110365D01*
X254360824Y-129978994D01*
X254749733Y-129590085D01*
X255881104Y-130721456D01*
X255881104Y-130721456D01*
G37*
D22*
G04 #@! TO.P,U1,27*
G04 #@! TO.N,/ID_SD*
X254555278Y-130915910D03*
D23*
G04 #@! TD*
G04 #@! TO.N,/ID_SD*
G04 #@! TO.C,U1*
G36*
X255315418Y-131287141D02*
X254926509Y-131676050D01*
X253795138Y-130544679D01*
X254184047Y-130155770D01*
X255315418Y-131287141D01*
X255315418Y-131287141D01*
G37*
D22*
G04 #@! TO.P,U1,28*
G04 #@! TO.N,/ID_SC*
X253989593Y-131481595D03*
D23*
G04 #@! TD*
G04 #@! TO.N,/ID_SC*
G04 #@! TO.C,U1*
G36*
X254749733Y-131852826D02*
X254360824Y-132241735D01*
X253229453Y-131110364D01*
X253618362Y-130721455D01*
X254749733Y-131852826D01*
X254749733Y-131852826D01*
G37*
D22*
G04 #@! TO.P,U1,29*
G04 #@! TO.N,/RESET_ATMEGA*
X253423907Y-132047281D03*
D23*
G04 #@! TD*
G04 #@! TO.N,/RESET_ATMEGA*
G04 #@! TO.C,U1*
G36*
X254184047Y-132418512D02*
X253795138Y-132807421D01*
X252663767Y-131676050D01*
X253052676Y-131287141D01*
X254184047Y-132418512D01*
X254184047Y-132418512D01*
G37*
D22*
G04 #@! TO.P,U1,30*
G04 #@! TO.N,/GPIO14(TXD0)*
X252858222Y-132612966D03*
D23*
G04 #@! TD*
G04 #@! TO.N,/GPIO14(TXD0)*
G04 #@! TO.C,U1*
G36*
X253618362Y-132984197D02*
X253229453Y-133373106D01*
X252098082Y-132241735D01*
X252486991Y-131852826D01*
X253618362Y-132984197D01*
X253618362Y-132984197D01*
G37*
D22*
G04 #@! TO.P,U1,31*
G04 #@! TO.N,/GPIO15(RXD0)*
X252292537Y-133178652D03*
D23*
G04 #@! TD*
G04 #@! TO.N,/GPIO15(RXD0)*
G04 #@! TO.C,U1*
G36*
X253052677Y-133549883D02*
X252663768Y-133938792D01*
X251532397Y-132807421D01*
X251921306Y-132418512D01*
X253052677Y-133549883D01*
X253052677Y-133549883D01*
G37*
D22*
G04 #@! TO.P,U1,32*
G04 #@! TO.N,Net-(U1-Pad32)*
X251726851Y-133744337D03*
D23*
G04 #@! TD*
G04 #@! TO.N,Net-(U1-Pad32)*
G04 #@! TO.C,U1*
G36*
X252486991Y-134115568D02*
X252098082Y-134504477D01*
X250966711Y-133373106D01*
X251355620Y-132984197D01*
X252486991Y-134115568D01*
X252486991Y-134115568D01*
G37*
D24*
G04 #@! TO.P,C11,2*
G04 #@! TO.N,GND*
X260879250Y-129713550D03*
D23*
G04 #@! TD*
G04 #@! TO.N,GND*
G04 #@! TO.C,C11*
G36*
X261427258Y-129731228D02*
X260896928Y-130261558D01*
X260331242Y-129695872D01*
X260861572Y-129165542D01*
X261427258Y-129731228D01*
X261427258Y-129731228D01*
G37*
D24*
G04 #@! TO.P,C11,1*
G04 #@! TO.N,+3V3*
X261939910Y-130774210D03*
D23*
G04 #@! TD*
G04 #@! TO.N,+3V3*
G04 #@! TO.C,C11*
G36*
X262487918Y-130791888D02*
X261957588Y-131322218D01*
X261391902Y-130756532D01*
X261922232Y-130226202D01*
X262487918Y-130791888D01*
X262487918Y-130791888D01*
G37*
D24*
G04 #@! TO.P,C12,2*
G04 #@! TO.N,GND*
X249891740Y-137712540D03*
D23*
G04 #@! TD*
G04 #@! TO.N,GND*
G04 #@! TO.C,C12*
G36*
X250439748Y-137730218D02*
X249909418Y-138260548D01*
X249343732Y-137694862D01*
X249874062Y-137164532D01*
X250439748Y-137730218D01*
X250439748Y-137730218D01*
G37*
D24*
G04 #@! TO.P,C12,1*
G04 #@! TO.N,+3V3*
X250952400Y-138773200D03*
D23*
G04 #@! TD*
G04 #@! TO.N,+3V3*
G04 #@! TO.C,C12*
G36*
X251500408Y-138790878D02*
X250970078Y-139321208D01*
X250404392Y-138755522D01*
X250934722Y-138225192D01*
X251500408Y-138790878D01*
X251500408Y-138790878D01*
G37*
D25*
G04 #@! TO.P,Q3,1*
G04 #@! TO.N,Net-(Q3-Pad1)*
X208575000Y-145057160D03*
G04 #@! TO.P,Q3,2*
G04 #@! TO.N,GND*
X210475000Y-145057160D03*
G04 #@! TO.P,Q3,3*
G04 #@! TO.N,Net-(J6-Pad2)*
X209525000Y-143058180D03*
G04 #@! TD*
D26*
G04 #@! TO.P,J6,2*
G04 #@! TO.N,Net-(J6-Pad2)*
X206121400Y-138392200D03*
D27*
G04 #@! TO.P,J6,1*
G04 #@! TO.N,+12V*
X203581400Y-138392200D03*
G04 #@! TD*
D26*
G04 #@! TO.P,J3,2*
G04 #@! TO.N,Net-(J3-Pad2)*
X206121400Y-134836200D03*
D27*
G04 #@! TO.P,J3,1*
G04 #@! TO.N,+12V*
X203581400Y-134836200D03*
G04 #@! TD*
D26*
G04 #@! TO.P,J5,2*
G04 #@! TO.N,Net-(J5-Pad2)*
X206121400Y-131280200D03*
D27*
G04 #@! TO.P,J5,1*
G04 #@! TO.N,+12V*
X203581400Y-131280200D03*
G04 #@! TD*
D25*
G04 #@! TO.P,Q1,1*
G04 #@! TO.N,Net-(Q1-Pad1)*
X213624560Y-139596200D03*
G04 #@! TO.P,Q1,2*
G04 #@! TO.N,GND*
X213624560Y-137696200D03*
G04 #@! TO.P,Q1,3*
G04 #@! TO.N,Net-(J3-Pad2)*
X211625580Y-138646200D03*
G04 #@! TD*
D11*
G04 #@! TO.P,R3,2*
G04 #@! TO.N,Net-(Q3-Pad1)*
X226263600Y-142202200D03*
G04 #@! TO.P,R3,1*
G04 #@! TO.N,/PWM3*
X227763600Y-142202200D03*
G04 #@! TD*
G04 #@! TO.P,R1,2*
G04 #@! TO.N,Net-(Q1-Pad1)*
X226250200Y-140551200D03*
G04 #@! TO.P,R1,1*
G04 #@! TO.N,/PWM1*
X227750200Y-140551200D03*
G04 #@! TD*
G04 #@! TO.P,R2,2*
G04 #@! TO.N,Net-(Q2-Pad1)*
X226250200Y-138900200D03*
G04 #@! TO.P,R2,1*
G04 #@! TO.N,/PWM2*
X227750200Y-138900200D03*
G04 #@! TD*
G04 #@! TO.P,R5,2*
G04 #@! TO.N,/PWM2*
X228891800Y-138900200D03*
G04 #@! TO.P,R5,1*
G04 #@! TO.N,GND*
X230391800Y-138900200D03*
G04 #@! TD*
G04 #@! TO.P,R6,2*
G04 #@! TO.N,/PWM3*
X228917200Y-142202200D03*
G04 #@! TO.P,R6,1*
G04 #@! TO.N,GND*
X230417200Y-142202200D03*
G04 #@! TD*
G04 #@! TO.P,R7,2*
G04 #@! TO.N,Net-(Q4-Pad1)*
X226250200Y-137249200D03*
G04 #@! TO.P,R7,1*
G04 #@! TO.N,/FAN*
X227750200Y-137249200D03*
G04 #@! TD*
D28*
G04 #@! TO.P,R9,2*
G04 #@! TO.N,Net-(R9-Pad2)*
X217170400Y-105080800D03*
G04 #@! TO.P,R9,1*
G04 #@! TO.N,+5V*
X217170400Y-103580800D03*
G04 #@! TD*
G04 #@! TO.P,R10,2*
G04 #@! TO.N,Net-(R10-Pad2)*
X216535400Y-114885200D03*
G04 #@! TO.P,R10,1*
G04 #@! TO.N,+5V*
X216535400Y-113385200D03*
G04 #@! TD*
G04 #@! TO.P,R18,2*
G04 #@! TO.N,+3V3*
X252527200Y-142378600D03*
G04 #@! TO.P,R18,1*
G04 #@! TO.N,/RESET_ATMEGA*
X252527200Y-143878600D03*
G04 #@! TD*
D29*
G04 #@! TO.P,C10,1*
G04 #@! TO.N,/RESET_ATMEGA*
X249479200Y-143462800D03*
G04 #@! TO.P,C10,2*
G04 #@! TO.N,GND*
X249479200Y-145462800D03*
G04 #@! TD*
D30*
G04 #@! TO.P,P1,1*
G04 #@! TO.N,+3V3*
X208370000Y-98770000D03*
D31*
G04 #@! TO.P,P1,2*
G04 #@! TO.N,+5V*
X208370000Y-96230000D03*
G04 #@! TO.P,P1,3*
G04 #@! TO.N,/GPIO2(SDA1)*
X210910000Y-98770000D03*
G04 #@! TO.P,P1,4*
G04 #@! TO.N,+5V*
X210910000Y-96230000D03*
G04 #@! TO.P,P1,5*
G04 #@! TO.N,/GPIO3(SCL1)*
X213450000Y-98770000D03*
G04 #@! TO.P,P1,6*
G04 #@! TO.N,GND*
X213450000Y-96230000D03*
G04 #@! TO.P,P1,7*
G04 #@! TO.N,/GPIO4(GCLK)*
X215990000Y-98770000D03*
G04 #@! TO.P,P1,8*
G04 #@! TO.N,/GPIO14(TXD0)*
X215990000Y-96230000D03*
G04 #@! TO.P,P1,9*
G04 #@! TO.N,GND*
X218530000Y-98770000D03*
G04 #@! TO.P,P1,10*
G04 #@! TO.N,/GPIO15(RXD0)*
X218530000Y-96230000D03*
G04 #@! TO.P,P1,11*
G04 #@! TO.N,/GPIO17(GEN0)*
X221070000Y-98770000D03*
G04 #@! TO.P,P1,12*
G04 #@! TO.N,/BCLK*
X221070000Y-96230000D03*
G04 #@! TO.P,P1,13*
G04 #@! TO.N,/GPIO27(GEN2)*
X223610000Y-98770000D03*
G04 #@! TO.P,P1,14*
G04 #@! TO.N,GND*
X223610000Y-96230000D03*
G04 #@! TO.P,P1,15*
G04 #@! TO.N,/GPIO22(GEN3)*
X226150000Y-98770000D03*
G04 #@! TO.P,P1,16*
G04 #@! TO.N,/GPIO23(GEN4)*
X226150000Y-96230000D03*
G04 #@! TO.P,P1,17*
G04 #@! TO.N,+3V3*
X228690000Y-98770000D03*
G04 #@! TO.P,P1,18*
G04 #@! TO.N,/GPIO24(GEN5)*
X228690000Y-96230000D03*
G04 #@! TO.P,P1,19*
G04 #@! TO.N,/GPIO10(SPI0_MOSI)*
X231230000Y-98770000D03*
G04 #@! TO.P,P1,20*
G04 #@! TO.N,GND*
X231230000Y-96230000D03*
G04 #@! TO.P,P1,21*
G04 #@! TO.N,/GPIO9(SPI0_MISO)*
X233770000Y-98770000D03*
G04 #@! TO.P,P1,22*
G04 #@! TO.N,/GPIO25(GEN6)*
X233770000Y-96230000D03*
G04 #@! TO.P,P1,23*
G04 #@! TO.N,/GPIO11(SPI0_SCK)*
X236310000Y-98770000D03*
G04 #@! TO.P,P1,24*
G04 #@! TO.N,/GPIO8(SPI0_CE_N)*
X236310000Y-96230000D03*
G04 #@! TO.P,P1,25*
G04 #@! TO.N,GND*
X238850000Y-98770000D03*
G04 #@! TO.P,P1,26*
G04 #@! TO.N,/GPIO7(SPI1_CE_N)*
X238850000Y-96230000D03*
G04 #@! TO.P,P1,27*
G04 #@! TO.N,/ID_SD*
X241390000Y-98770000D03*
G04 #@! TO.P,P1,28*
G04 #@! TO.N,/ID_SC*
X241390000Y-96230000D03*
G04 #@! TO.P,P1,29*
G04 #@! TO.N,/BUTTON4*
X243930000Y-98770000D03*
G04 #@! TO.P,P1,30*
G04 #@! TO.N,GND*
X243930000Y-96230000D03*
G04 #@! TO.P,P1,31*
G04 #@! TO.N,/BUTTON3*
X246470000Y-98770000D03*
G04 #@! TO.P,P1,32*
G04 #@! TO.N,/GPIO12(PWM0)*
X246470000Y-96230000D03*
G04 #@! TO.P,P1,33*
G04 #@! TO.N,/GPIO13(PWM1)*
X249010000Y-98770000D03*
G04 #@! TO.P,P1,34*
G04 #@! TO.N,GND*
X249010000Y-96230000D03*
G04 #@! TO.P,P1,35*
G04 #@! TO.N,/GPIO19(SPI1_MISO)*
X251550000Y-98770000D03*
G04 #@! TO.P,P1,36*
G04 #@! TO.N,/BUTTON2*
X251550000Y-96230000D03*
G04 #@! TO.P,P1,37*
G04 #@! TO.N,/BUTTON1*
X254090000Y-98770000D03*
G04 #@! TO.P,P1,38*
G04 #@! TO.N,/GPIO20(SPI1_MOSI)*
X254090000Y-96230000D03*
G04 #@! TO.P,P1,39*
G04 #@! TO.N,GND*
X256630000Y-98770000D03*
G04 #@! TO.P,P1,40*
G04 #@! TO.N,/DIN*
X256630000Y-96230000D03*
G04 #@! TD*
D15*
G04 #@! TO.P,C3,1*
G04 #@! TO.N,+5V*
X211287000Y-101968600D03*
G04 #@! TO.P,C3,2*
G04 #@! TO.N,GND*
X209287000Y-101968600D03*
G04 #@! TD*
D32*
G04 #@! TO.P,C1,1*
G04 #@! TO.N,+5V*
X213228000Y-111722200D03*
G04 #@! TO.P,C1,2*
G04 #@! TO.N,GND*
X215728000Y-111722200D03*
G04 #@! TD*
G04 #@! TO.P,C2,2*
G04 #@! TO.N,GND*
X215733400Y-101968600D03*
G04 #@! TO.P,C2,1*
G04 #@! TO.N,+5V*
X213233400Y-101968600D03*
G04 #@! TD*
D19*
G04 #@! TO.P,J8,1*
G04 #@! TO.N,/BUTTON2*
X260426600Y-108979000D03*
D18*
G04 #@! TO.P,J8,2*
G04 #@! TO.N,GND*
X262426600Y-108979000D03*
G04 #@! TD*
D19*
G04 #@! TO.P,J9,1*
G04 #@! TO.N,/BUTTON3*
X253467000Y-103416400D03*
D18*
G04 #@! TO.P,J9,2*
G04 #@! TO.N,GND*
X255467000Y-103416400D03*
G04 #@! TD*
D19*
G04 #@! TO.P,J12,1*
G04 #@! TO.N,+5V*
X237547800Y-146063000D03*
D18*
G04 #@! TO.P,J12,2*
G04 #@! TO.N,/POWER*
X239547800Y-146063000D03*
G04 #@! TO.P,J12,3*
G04 #@! TO.N,GND*
X241547800Y-146063000D03*
G04 #@! TD*
D25*
G04 #@! TO.P,Q2,1*
G04 #@! TO.N,Net-(Q2-Pad1)*
X213624560Y-135938600D03*
G04 #@! TO.P,Q2,2*
G04 #@! TO.N,GND*
X213624560Y-134038600D03*
G04 #@! TO.P,Q2,3*
G04 #@! TO.N,Net-(J5-Pad2)*
X211625580Y-134988600D03*
G04 #@! TD*
G04 #@! TO.P,Q4,1*
G04 #@! TO.N,Net-(Q4-Pad1)*
X213599160Y-131188800D03*
G04 #@! TO.P,Q4,2*
G04 #@! TO.N,GND*
X213599160Y-129288800D03*
G04 #@! TO.P,Q4,3*
G04 #@! TO.N,Net-(J2-Pad2)*
X211600180Y-130238800D03*
G04 #@! TD*
D33*
G04 #@! TO.P,R21,1*
G04 #@! TO.N,Net-(R21-Pad1)*
X254889400Y-123937060D03*
G04 #@! TO.P,R21,2*
G04 #@! TO.N,GND*
X254889400Y-122037060D03*
G04 #@! TD*
D27*
G04 #@! TO.P,TH1,1*
G04 #@! TO.N,+3V3*
X254483000Y-114854020D03*
D26*
G04 #@! TO.P,TH1,2*
G04 #@! TO.N,Net-(R21-Pad1)*
X254483000Y-117394020D03*
G04 #@! TD*
D34*
G04 #@! TO.P,U2,17*
G04 #@! TO.N,Net-(U2-Pad17)*
X214521600Y-106685800D03*
X214521600Y-105785800D03*
X213621600Y-106685800D03*
X213621600Y-105785800D03*
D35*
G04 #@! TO.P,U2,16*
G04 #@! TO.N,/BCLK*
X214821600Y-107710800D03*
G04 #@! TO.P,U2,15*
G04 #@! TO.N,GND*
X214321600Y-107710800D03*
G04 #@! TO.P,U2,14*
G04 #@! TO.N,/GPIO19(SPI1_MISO)*
X213821600Y-107710800D03*
G04 #@! TO.P,U2,13*
G04 #@! TO.N,Net-(U2-Pad13)*
X213321600Y-107710800D03*
D36*
G04 #@! TO.P,U2,12*
G04 #@! TO.N,Net-(U2-Pad12)*
X212596600Y-106985800D03*
G04 #@! TO.P,U2,11*
G04 #@! TO.N,GND*
X212596600Y-106485800D03*
G04 #@! TO.P,U2,10*
G04 #@! TO.N,Net-(L1-Pad2)*
X212596600Y-105985800D03*
G04 #@! TO.P,U2,9*
G04 #@! TO.N,Net-(L3-Pad2)*
X212596600Y-105485800D03*
D35*
G04 #@! TO.P,U2,8*
G04 #@! TO.N,+5V*
X213321600Y-104760800D03*
G04 #@! TO.P,U2,7*
X213821600Y-104760800D03*
G04 #@! TO.P,U2,6*
G04 #@! TO.N,Net-(U2-Pad6)*
X214321600Y-104760800D03*
G04 #@! TO.P,U2,5*
G04 #@! TO.N,Net-(U2-Pad5)*
X214821600Y-104760800D03*
D36*
G04 #@! TO.P,U2,4*
G04 #@! TO.N,Net-(R9-Pad2)*
X215546600Y-105485800D03*
G04 #@! TO.P,U2,3*
G04 #@! TO.N,GND*
X215546600Y-105985800D03*
G04 #@! TO.P,U2,2*
G04 #@! TO.N,Net-(U2-Pad2)*
X215546600Y-106485800D03*
G04 #@! TO.P,U2,1*
G04 #@! TO.N,/DIN*
X215546600Y-106985800D03*
G04 #@! TD*
G04 #@! TO.P,U3,1*
G04 #@! TO.N,/DIN*
X214835400Y-116434600D03*
G04 #@! TO.P,U3,2*
G04 #@! TO.N,Net-(U3-Pad2)*
X214835400Y-115934600D03*
G04 #@! TO.P,U3,3*
G04 #@! TO.N,GND*
X214835400Y-115434600D03*
G04 #@! TO.P,U3,4*
G04 #@! TO.N,Net-(R10-Pad2)*
X214835400Y-114934600D03*
D35*
G04 #@! TO.P,U3,5*
G04 #@! TO.N,Net-(U3-Pad5)*
X214110400Y-114209600D03*
G04 #@! TO.P,U3,6*
G04 #@! TO.N,Net-(U3-Pad6)*
X213610400Y-114209600D03*
G04 #@! TO.P,U3,7*
G04 #@! TO.N,+5V*
X213110400Y-114209600D03*
G04 #@! TO.P,U3,8*
X212610400Y-114209600D03*
D36*
G04 #@! TO.P,U3,9*
G04 #@! TO.N,Net-(L4-Pad2)*
X211885400Y-114934600D03*
G04 #@! TO.P,U3,10*
G04 #@! TO.N,Net-(L2-Pad2)*
X211885400Y-115434600D03*
G04 #@! TO.P,U3,11*
G04 #@! TO.N,GND*
X211885400Y-115934600D03*
G04 #@! TO.P,U3,12*
G04 #@! TO.N,Net-(U3-Pad12)*
X211885400Y-116434600D03*
D35*
G04 #@! TO.P,U3,13*
G04 #@! TO.N,Net-(U3-Pad13)*
X212610400Y-117159600D03*
G04 #@! TO.P,U3,14*
G04 #@! TO.N,/GPIO19(SPI1_MISO)*
X213110400Y-117159600D03*
G04 #@! TO.P,U3,15*
G04 #@! TO.N,GND*
X213610400Y-117159600D03*
G04 #@! TO.P,U3,16*
G04 #@! TO.N,/BCLK*
X214110400Y-117159600D03*
D34*
G04 #@! TO.P,U3,17*
G04 #@! TO.N,Net-(U3-Pad17)*
X212910400Y-115234600D03*
X212910400Y-116134600D03*
X213810400Y-115234600D03*
X213810400Y-116134600D03*
G04 #@! TD*
D37*
G04 #@! TO.P,C16,2*
G04 #@! TO.N,GND*
X207670800Y-108523200D03*
G04 #@! TO.P,C16,1*
G04 #@! TO.N,Net-(C16-Pad1)*
X207670800Y-107023200D03*
G04 #@! TD*
G04 #@! TO.P,C17,2*
G04 #@! TO.N,GND*
X207645400Y-117603000D03*
G04 #@! TO.P,C17,1*
G04 #@! TO.N,Net-(C17-Pad1)*
X207645400Y-116103000D03*
G04 #@! TD*
G04 #@! TO.P,C18,1*
G04 #@! TO.N,Net-(C18-Pad1)*
X207670800Y-105524600D03*
G04 #@! TO.P,C18,2*
G04 #@! TO.N,GND*
X207670800Y-104024600D03*
G04 #@! TD*
G04 #@! TO.P,C19,1*
G04 #@! TO.N,Net-(C19-Pad1)*
X207645400Y-114605800D03*
G04 #@! TO.P,C19,2*
G04 #@! TO.N,GND*
X207645400Y-113105800D03*
G04 #@! TD*
D11*
G04 #@! TO.P,L1,1*
G04 #@! TO.N,Net-(C16-Pad1)*
X209181400Y-107175600D03*
G04 #@! TO.P,L1,2*
G04 #@! TO.N,Net-(L1-Pad2)*
X210681400Y-107175600D03*
G04 #@! TD*
G04 #@! TO.P,L2,1*
G04 #@! TO.N,Net-(C17-Pad1)*
X209029000Y-116294200D03*
G04 #@! TO.P,L2,2*
G04 #@! TO.N,Net-(L2-Pad2)*
X210529000Y-116294200D03*
G04 #@! TD*
G04 #@! TO.P,L3,2*
G04 #@! TO.N,Net-(L3-Pad2)*
X210681400Y-105524600D03*
G04 #@! TO.P,L3,1*
G04 #@! TO.N,Net-(C18-Pad1)*
X209181400Y-105524600D03*
G04 #@! TD*
G04 #@! TO.P,L4,2*
G04 #@! TO.N,Net-(L4-Pad2)*
X210529000Y-114617800D03*
G04 #@! TO.P,L4,1*
G04 #@! TO.N,Net-(C19-Pad1)*
X209029000Y-114617800D03*
G04 #@! TD*
D38*
G04 #@! TO.P,J14,1*
G04 #@! TO.N,Net-(C18-Pad1)*
X203426319Y-105491921D03*
D39*
G04 #@! TO.P,J14,2*
G04 #@! TO.N,Net-(C16-Pad1)*
X203426319Y-108031921D03*
G04 #@! TD*
G04 #@! TO.P,J15,2*
G04 #@! TO.N,Net-(C17-Pad1)*
X203426319Y-114081921D03*
D38*
G04 #@! TO.P,J15,1*
G04 #@! TO.N,Net-(C19-Pad1)*
X203426319Y-111541921D03*
G04 #@! TD*
D27*
G04 #@! TO.P,J13,1*
G04 #@! TO.N,/RESET_ATMEGA*
X246253400Y-145174000D03*
D26*
G04 #@! TO.P,J13,2*
G04 #@! TO.N,/GPIO4(GCLK)*
X246253400Y-142634000D03*
G04 #@! TD*
D12*
G04 #@! TO.P,U5,1*
G04 #@! TO.N,/ID_SC*
X241640800Y-100792400D03*
G04 #@! TO.P,U5,2*
G04 #@! TO.N,GND*
X240690800Y-100792400D03*
G04 #@! TO.P,U5,3*
G04 #@! TO.N,/ID_SD*
X239740800Y-100792400D03*
G04 #@! TO.P,U5,4*
G04 #@! TO.N,+3V3*
X239740800Y-102992400D03*
G04 #@! TO.P,U5,5*
G04 #@! TO.N,GND*
X241640800Y-102992400D03*
G04 #@! TD*
D11*
G04 #@! TO.P,R16,1*
G04 #@! TO.N,+3V3*
X236474400Y-100851000D03*
G04 #@! TO.P,R16,2*
G04 #@! TO.N,/ID_SD*
X237974400Y-100851000D03*
G04 #@! TD*
G04 #@! TO.P,R17,2*
G04 #@! TO.N,/ID_SC*
X243369800Y-100825600D03*
G04 #@! TO.P,R17,1*
G04 #@! TO.N,+3V3*
X244869800Y-100825600D03*
G04 #@! TD*
D40*
G04 #@! TO.N,+3V3*
X262156688Y-131597453D03*
X257277000Y-106362800D03*
X252197000Y-106464400D03*
X254442006Y-127414253D03*
X217043400Y-118021400D03*
X204267200Y-117945200D03*
G04 #@! TO.N,+5V*
X212090400Y-103416400D03*
D41*
G04 #@! TO.N,GND*
X216205200Y-137681000D03*
X215722600Y-134506000D03*
X210922000Y-140627400D03*
X219278600Y-140297200D03*
X208940800Y-117538800D03*
X209144000Y-108369400D03*
X231826200Y-141414800D03*
X231877000Y-137528600D03*
D40*
X249305593Y-139245144D03*
X257178206Y-132431157D03*
D41*
X256388000Y-135699800D03*
X257886600Y-137147600D03*
X254152800Y-135318800D03*
X259385200Y-148780800D03*
X254385200Y-148780800D03*
X249385200Y-148780800D03*
X244385200Y-148780800D03*
X239385200Y-148780800D03*
X234385200Y-148780800D03*
X229385200Y-148780800D03*
X224385200Y-148780800D03*
X219385200Y-148780800D03*
X214385200Y-148780800D03*
X209385200Y-148780800D03*
X204385200Y-148780800D03*
X201066800Y-144310400D03*
X201066800Y-119310400D03*
X201066800Y-99310400D03*
D40*
X242511479Y-102762445D03*
D41*
X233553400Y-102552800D03*
X244754800Y-104330800D03*
X228219400Y-101867000D03*
X220904200Y-103645000D03*
X217754600Y-122136200D03*
X220243800Y-128562400D03*
X226162000Y-133515400D03*
X239471600Y-133591600D03*
X247040800Y-126759000D03*
X246482000Y-111646000D03*
X241402000Y-106540600D03*
X230226000Y-104610200D03*
X220548600Y-110325200D03*
X263779400Y-128791000D03*
X259588400Y-124625400D03*
X257581800Y-122720400D03*
X256591200Y-116192600D03*
X254610000Y-112687400D03*
X210414000Y-125539800D03*
X205486400Y-129019600D03*
X200616790Y-114223626D03*
X200616790Y-104023130D03*
X200616790Y-109046026D03*
D40*
X214249400Y-120205800D03*
D41*
X208044610Y-111778644D03*
D40*
X209296400Y-104026000D03*
D41*
X207670800Y-101155800D03*
G04 #@! TO.N,/ID_SD*
X251067574Y-102379321D03*
X250678174Y-100065509D03*
G04 #@! TO.N,/ID_SC*
X248488600Y-100266800D03*
X250050492Y-101859323D03*
G04 #@! TO.N,/GPIO4(GCLK)*
X243180000Y-136182400D03*
G04 #@! TO.N,/GPIO24(GEN5)*
X252909727Y-129071263D03*
G04 #@! TO.N,/GPIO10(SPI0_MOSI)*
X263017400Y-136817400D03*
G04 #@! TO.N,/GPIO9(SPI0_MISO)*
X262641480Y-134953040D03*
G04 #@! TO.N,/GPIO11(SPI0_SCK)*
X263011610Y-133177196D03*
G04 #@! TO.N,/GPIO19(SPI1_MISO)*
X213004800Y-118351600D03*
X213281809Y-109118770D03*
G04 #@! TO.N,/DIN*
X216909210Y-108459205D03*
X216579010Y-116552171D03*
G04 #@! TO.N,/BCLK*
X215396890Y-109254574D03*
X215062200Y-118326200D03*
G04 #@! TO.N,/WS2812_DATA*
X261341000Y-139154200D03*
X245096727Y-138181220D03*
G04 #@! TO.N,/PWM2*
X259849721Y-140877999D03*
X247657590Y-138046385D03*
G04 #@! TO.N,/PWM3*
X246134810Y-138554665D03*
X260223400Y-139840000D03*
G04 #@! TO.N,/POWER*
X257614441Y-129647410D03*
X243556153Y-139377289D03*
G04 #@! TO.N,/FAN*
X259376082Y-134972318D03*
X246949656Y-137200274D03*
G04 #@! TO.N,/BTN_PWR*
X256768012Y-127324990D03*
X256739217Y-125343022D03*
G04 #@! TO.N,/GPIO23(GEN4)*
X252808449Y-127972709D03*
G04 #@! TO.N,Net-(C14-Pad2)*
X252735262Y-140182249D03*
G04 #@! TO.N,Net-(C15-Pad2)*
X256489600Y-140856000D03*
G04 #@! TO.N,/RESET_ATMEGA*
X251720306Y-131163910D03*
G04 #@! TO.N,+BATT*
X217607280Y-101821280D03*
G04 #@! TD*
D42*
G04 #@! TO.N,+3V3*
X208370000Y-98770000D02*
X209066000Y-98770000D01*
D43*
X261273072Y-130774210D02*
X261939910Y-130774210D01*
X260000001Y-132047281D02*
X261273072Y-130774210D01*
X261939910Y-132370113D02*
X261131371Y-133178652D01*
X252142710Y-138773200D02*
X253423907Y-137492003D01*
X250952400Y-138773200D02*
X252142710Y-138773200D01*
X251305953Y-139126753D02*
X250952400Y-138773200D01*
X253903613Y-139275039D02*
X251454239Y-139275039D01*
X251454239Y-139275039D02*
X251305953Y-139126753D01*
X254555278Y-138623374D02*
X253903613Y-139275039D01*
X261939910Y-130774210D02*
X261939910Y-132118400D01*
X261939910Y-132118400D02*
X261939910Y-132370113D01*
X261939910Y-132118400D02*
X262156688Y-131901622D01*
X262156688Y-131901622D02*
X262156688Y-131597453D01*
X250952400Y-140803800D02*
X250952400Y-138773200D01*
X262863794Y-131597453D02*
X263957200Y-132690859D01*
X262156688Y-131597453D02*
X262863794Y-131597453D01*
X263957200Y-132690859D02*
X263957200Y-138849400D01*
X260428000Y-142378600D02*
X256488200Y-142378600D01*
X263957200Y-138849400D02*
X260428000Y-142378600D01*
X255372000Y-141262400D02*
X251411000Y-141262400D01*
X256488200Y-142378600D02*
X255372000Y-141262400D01*
X251411000Y-141262400D02*
X250952400Y-140803800D01*
X252527200Y-142378600D02*
X251411000Y-141262400D01*
X256468294Y-106464400D02*
X252197000Y-106464400D01*
X256569894Y-106362800D02*
X256468294Y-106464400D01*
X257277000Y-106362800D02*
X256569894Y-106362800D01*
X239740800Y-102787400D02*
X240717544Y-101810656D01*
X240717544Y-101810656D02*
X242071270Y-101810656D01*
X239740800Y-102992400D02*
X239740800Y-102787400D01*
X242071270Y-101810656D02*
X242109739Y-101772187D01*
X236474400Y-100851000D02*
X236474400Y-101051000D01*
X237232400Y-101809000D02*
X238762400Y-101809000D01*
X238921990Y-101968590D02*
X239740800Y-102787400D01*
X238762400Y-101809000D02*
X238921990Y-101968590D01*
X236474400Y-101051000D02*
X237232400Y-101809000D01*
X234896732Y-100063590D02*
X235686990Y-100063590D01*
X235686990Y-100063590D02*
X236474400Y-100851000D01*
X230020379Y-100077200D02*
X234883122Y-100077200D01*
X228713177Y-98770000D02*
X230020379Y-100077200D01*
X234883122Y-100077200D02*
X234896732Y-100063590D01*
X228690000Y-98770000D02*
X228713177Y-98770000D01*
X242109739Y-101772187D02*
X244450000Y-101772187D01*
X244869800Y-100825600D02*
X244869800Y-101709387D01*
X244450000Y-101772187D02*
X244932600Y-101772187D01*
X244869800Y-101709387D02*
X244932600Y-101772187D01*
X253942007Y-126914254D02*
X254442006Y-127414253D01*
X252197000Y-125169247D02*
X253942007Y-126914254D01*
X252197000Y-106464400D02*
X252197000Y-125169247D01*
X249615034Y-100952121D02*
X250485950Y-100952121D01*
X252197000Y-105757294D02*
X252197000Y-106464400D01*
X244932600Y-101772187D02*
X248794970Y-101772187D01*
X252197000Y-101467152D02*
X252197000Y-105757294D01*
X250485950Y-100952121D02*
X250791229Y-101257400D01*
X251987248Y-101257400D02*
X252197000Y-101467152D01*
X248794970Y-101772187D02*
X249615034Y-100952121D01*
X250791229Y-101257400D02*
X251987248Y-101257400D01*
X217043400Y-119875600D02*
X217043400Y-118021400D01*
X209702800Y-119316800D02*
X212166600Y-121780600D01*
X215138400Y-121780600D02*
X217043400Y-119875600D01*
X212166600Y-121780600D02*
X215138400Y-121780600D01*
X204267200Y-117945200D02*
X205638800Y-119316800D01*
X205638800Y-119316800D02*
X209702800Y-119316800D01*
D44*
G04 #@! TO.N,+5V*
X213321600Y-104760800D02*
X213721590Y-104760800D01*
D42*
X213321600Y-102056800D02*
X213233400Y-101968600D01*
X213030200Y-112847200D02*
X212750800Y-113126600D01*
X213030200Y-111722200D02*
X213030200Y-112847200D01*
X212527000Y-113341800D02*
X212527000Y-114216800D01*
X212742200Y-113126600D02*
X212527000Y-113341800D01*
X212750800Y-113126600D02*
X212742200Y-113126600D01*
X212527000Y-114216800D02*
X212926990Y-114216800D01*
X213335000Y-103580800D02*
X217170400Y-103580800D01*
X213321600Y-103594200D02*
X213335000Y-103580800D01*
X213321600Y-104760800D02*
X213321600Y-103594200D01*
X213321600Y-103594200D02*
X213321600Y-102056800D01*
X211074400Y-111722200D02*
X211861800Y-111722200D01*
X211861800Y-111722200D02*
X213030200Y-111722200D01*
X212293600Y-101968600D02*
X213233400Y-101968600D01*
X212242800Y-101917800D02*
X212293600Y-101968600D01*
X212166600Y-101994000D02*
X212242800Y-101917800D01*
X211464800Y-101994000D02*
X212166600Y-101994000D01*
D45*
X219939000Y-147333000D02*
X218313400Y-145707400D01*
X223815312Y-147333000D02*
X219939000Y-147333000D01*
X224841210Y-146307102D02*
X223815312Y-147333000D01*
X218313400Y-145707400D02*
X218313400Y-145555000D01*
X222728000Y-142499000D02*
X224841210Y-144612210D01*
X222728000Y-142294000D02*
X222728000Y-142499000D01*
X225095210Y-146063000D02*
X237547800Y-146063000D01*
X224841210Y-144612210D02*
X224841210Y-145809000D01*
X224841210Y-145809000D02*
X225095210Y-146063000D01*
X224841210Y-145809000D02*
X224841210Y-146307102D01*
D42*
X215870400Y-112847200D02*
X216408400Y-113385200D01*
X213030200Y-112847200D02*
X215870400Y-112847200D01*
D45*
X209245600Y-120764600D02*
X212700000Y-124219000D01*
X203657600Y-120764600D02*
X209245600Y-120764600D01*
D42*
X212242800Y-102556894D02*
X212242800Y-101917800D01*
X212090400Y-102709294D02*
X212242800Y-102556894D01*
X212090400Y-103416400D02*
X212090400Y-102709294D01*
G04 #@! TO.N,GND*
X238811200Y-98808800D02*
X238850000Y-98770000D01*
D43*
X254641257Y-137406025D02*
X254625988Y-137421294D01*
X254625988Y-137421294D02*
X253989593Y-138057689D01*
X254641257Y-136931387D02*
X254641257Y-137406025D01*
X253509887Y-136274653D02*
X253984523Y-136274653D01*
X252858222Y-136926318D02*
X253509887Y-136274653D01*
X252206558Y-137577982D02*
X251230382Y-137577982D01*
X252858222Y-136926318D02*
X252206558Y-137577982D01*
X251095824Y-137712540D02*
X249891740Y-137712540D01*
X251230382Y-137577982D02*
X251095824Y-137712540D01*
X254406800Y-136509110D02*
X254406800Y-136696930D01*
X259434315Y-131481595D02*
X254406800Y-136509110D01*
X253984523Y-136274653D02*
X254406800Y-136696930D01*
X254406800Y-136696930D02*
X254641257Y-136931387D01*
X260879250Y-130036660D02*
X260879250Y-129713550D01*
X259434315Y-131481595D02*
X260879250Y-130036660D01*
D44*
X211967600Y-106485800D02*
X211480800Y-106972600D01*
X212596600Y-106485800D02*
X211967600Y-106485800D01*
X211480800Y-106972600D02*
X211480800Y-107683600D01*
D46*
X211480800Y-107683600D02*
X210769600Y-108394800D01*
X210769600Y-108394800D02*
X210744200Y-108369400D01*
X213970000Y-119393000D02*
X213868400Y-119494600D01*
X215670638Y-115441800D02*
X215735638Y-115506800D01*
D44*
X214752000Y-115441800D02*
X215670638Y-115441800D01*
D46*
X215735638Y-115506800D02*
X217551400Y-115506800D01*
D44*
X213610400Y-117788600D02*
X214046200Y-118224400D01*
X213610400Y-117159600D02*
X213610400Y-117788600D01*
X214046200Y-118224400D02*
X214046200Y-119037400D01*
X211109201Y-116306680D02*
X211109201Y-117757999D01*
X211885400Y-115934600D02*
X211865610Y-115954390D01*
X211865610Y-115954390D02*
X211461491Y-115954390D01*
X211461491Y-115954390D02*
X211109201Y-116306680D01*
X210890002Y-117538800D02*
X208940800Y-117538800D01*
X211109201Y-117757999D02*
X210890002Y-117538800D01*
D43*
X240690800Y-100064438D02*
X240690800Y-100792400D01*
X239699999Y-99619999D02*
X240246361Y-99619999D01*
X240246361Y-99619999D02*
X240690800Y-100064438D01*
X238850000Y-98770000D02*
X239699999Y-99619999D01*
X242511479Y-102954721D02*
X242511479Y-102762445D01*
X241640800Y-102992400D02*
X242473800Y-102992400D01*
X242473800Y-102992400D02*
X242511479Y-102954721D01*
D44*
X216175600Y-105985800D02*
X216273200Y-106083400D01*
X215546600Y-105985800D02*
X216175600Y-105985800D01*
X216273200Y-106083400D02*
X217881600Y-106083400D01*
D46*
X217881600Y-106083400D02*
X218592800Y-106794600D01*
D44*
X214321600Y-108429902D02*
X214343801Y-108452103D01*
X214321600Y-108339800D02*
X214321600Y-108429902D01*
X214343801Y-108452103D02*
X214343801Y-109201097D01*
X214343801Y-109201097D02*
X214321600Y-109223298D01*
X214321600Y-109223298D02*
X214321600Y-110067200D01*
X214321600Y-107710800D02*
X214321600Y-108339800D01*
D47*
G04 #@! TO.N,/ID_SD*
X239740800Y-100792400D02*
X239212600Y-100792400D01*
X237695199Y-99274999D02*
X237695199Y-97826801D01*
X239212600Y-100792400D02*
X237695199Y-99274999D01*
X240540001Y-97920001D02*
X241390000Y-98770000D01*
X240235199Y-97615199D02*
X240540001Y-97920001D01*
X237695199Y-97826801D02*
X237906801Y-97615199D01*
X239682200Y-100851000D02*
X239740800Y-100792400D01*
X237974400Y-100851000D02*
X239682200Y-100851000D01*
X237906801Y-97615199D02*
X240081200Y-97615199D01*
X240081200Y-97615199D02*
X240235199Y-97615199D01*
X251384200Y-102695947D02*
X251067574Y-102379321D01*
X253050515Y-130279515D02*
X251384200Y-128613200D01*
X254555278Y-130915910D02*
X253918883Y-130279515D01*
X253918883Y-130279515D02*
X253050515Y-130279515D01*
X251384200Y-128613200D02*
X251384200Y-102695947D01*
X243606093Y-97615199D02*
X249564305Y-97615199D01*
X241944305Y-95075199D02*
X242775199Y-95906093D01*
X242775199Y-95906093D02*
X242775199Y-96784305D01*
X250164801Y-98215695D02*
X250164801Y-99552136D01*
X242775199Y-96784305D02*
X243606093Y-97615199D01*
X240081200Y-95829694D02*
X240835695Y-95075199D01*
X240835695Y-95075199D02*
X241944305Y-95075199D01*
X250164801Y-99552136D02*
X250228175Y-99615510D01*
X240081200Y-97615199D02*
X240081200Y-95829694D01*
X250228175Y-99615510D02*
X250678174Y-100065509D01*
X249564305Y-97615199D02*
X250164801Y-98215695D01*
G04 #@! TO.N,/ID_SC*
X242239999Y-97079999D02*
X241390000Y-96230000D01*
X242544801Y-97384801D02*
X242239999Y-97079999D01*
X242169000Y-100792400D02*
X242544801Y-100416599D01*
X241640800Y-100792400D02*
X242169000Y-100792400D01*
X242916600Y-100825600D02*
X243369800Y-100825600D01*
X242544801Y-100453801D02*
X242916600Y-100825600D01*
X242544801Y-100416599D02*
X242544801Y-100453801D01*
X242583802Y-99924801D02*
X242544801Y-99885800D01*
X247852204Y-100266800D02*
X247510205Y-99924801D01*
X247510205Y-99924801D02*
X242583802Y-99924801D01*
X248488600Y-100266800D02*
X247852204Y-100266800D01*
X242544801Y-100416599D02*
X242544801Y-99885800D01*
X242544801Y-99885800D02*
X242544801Y-97384801D01*
X252584250Y-130845200D02*
X252052014Y-130312964D01*
X250850822Y-103340955D02*
X250050492Y-102540625D01*
X253989593Y-131481595D02*
X253353198Y-130845200D01*
X250050492Y-102495719D02*
X250050492Y-101859323D01*
X252052014Y-130068414D02*
X250850822Y-128867222D01*
X250050492Y-102540625D02*
X250050492Y-102495719D01*
X252052014Y-130312964D02*
X252052014Y-130068414D01*
X253353198Y-130845200D02*
X252584250Y-130845200D01*
X250850822Y-128867222D02*
X250850822Y-103340955D01*
G04 #@! TO.N,/GPIO4(GCLK)*
X219014599Y-97615199D02*
X217144801Y-97615199D01*
X219915199Y-99324305D02*
X219915199Y-98515799D01*
X216839999Y-97920001D02*
X215990000Y-98770000D01*
X228752800Y-100749400D02*
X221340294Y-100749400D01*
X250152682Y-129893335D02*
X249479200Y-129219853D01*
X229464000Y-101460600D02*
X228752800Y-100749400D01*
X248327136Y-136039064D02*
X250152682Y-134213518D01*
X250152682Y-134213518D02*
X250152682Y-129893335D01*
X219915199Y-98515799D02*
X219014599Y-97615199D01*
X246480138Y-136039064D02*
X248327136Y-136039064D01*
X246336802Y-136182400D02*
X246480138Y-136039064D01*
X249479200Y-129219853D02*
X249479200Y-103873600D01*
X249479200Y-103873600D02*
X248844200Y-103238600D01*
X248844200Y-103238600D02*
X244323000Y-103238600D01*
X244323000Y-103238600D02*
X242799000Y-104762600D01*
X217144801Y-97615199D02*
X216839999Y-97920001D01*
X242799000Y-104762600D02*
X239065200Y-104762600D01*
X234264600Y-101460600D02*
X229464000Y-101460600D01*
X239065200Y-104762600D02*
X237642800Y-103340200D01*
X243180000Y-136182400D02*
X246336802Y-136182400D01*
X237642800Y-103340200D02*
X236144200Y-103340200D01*
X221340294Y-100749400D02*
X219915199Y-99324305D01*
X236144200Y-103340200D02*
X234264600Y-101460600D01*
D48*
G04 #@! TO.N,/GPIO14(TXD0)*
X215990000Y-96230000D02*
X217140001Y-95079999D01*
D47*
X252221827Y-131976571D02*
X252858222Y-132612966D01*
X250444411Y-103654460D02*
X250444411Y-129035562D01*
X250965504Y-131526216D02*
X251358000Y-131918712D01*
X222326600Y-95542400D02*
X222326600Y-96655706D01*
X228135694Y-99924800D02*
X229077701Y-99924800D01*
X227381200Y-99170306D02*
X228135694Y-99924800D01*
X244081102Y-102330996D02*
X249120947Y-102330996D01*
X249120947Y-102330996D02*
X250444411Y-103654460D01*
X250444411Y-129035562D02*
X250965504Y-129556655D01*
X236902136Y-102527378D02*
X237979480Y-102527378D01*
X222326600Y-96655706D02*
X223143694Y-97472800D01*
X239343103Y-103891002D02*
X242521096Y-103891002D01*
X227076400Y-97472800D02*
X227381200Y-97777600D01*
X237979480Y-102527378D02*
X239343103Y-103891002D01*
X242521096Y-103891002D02*
X244081102Y-102330996D01*
X227381200Y-97777600D02*
X227381200Y-99170306D01*
X235010769Y-100636011D02*
X236902136Y-102527378D01*
X223143694Y-97472800D02*
X227076400Y-97472800D01*
X229077701Y-99924800D02*
X229788912Y-100636011D01*
X221717000Y-94932800D02*
X222326600Y-95542400D01*
X217297400Y-94932800D02*
X221717000Y-94932800D01*
X217150201Y-95079999D02*
X217297400Y-94932800D01*
X229788912Y-100636011D02*
X235010769Y-100636011D01*
X252163968Y-131918712D02*
X252221827Y-131976571D01*
X217140001Y-95079999D02*
X217150201Y-95079999D01*
X251358000Y-131918712D02*
X252163968Y-131918712D01*
X250965504Y-129556655D02*
X250965504Y-131526216D01*
G04 #@! TO.N,/GPIO15(RXD0)*
X250559093Y-129724995D02*
X250559093Y-131694556D01*
X218530000Y-96230000D02*
X219379999Y-97079999D01*
X237811140Y-102933789D02*
X239233540Y-104356189D01*
X219379999Y-97079999D02*
X219379999Y-97091599D01*
X219379999Y-97091599D02*
X219812000Y-97523600D01*
X236702989Y-102933789D02*
X237811140Y-102933789D01*
X219812000Y-97523600D02*
X221525602Y-97523600D01*
X248952607Y-102737407D02*
X250038000Y-103822800D01*
X250038000Y-103822800D02*
X250038000Y-129203902D01*
X228909361Y-100331211D02*
X229620572Y-101042422D01*
X222455199Y-98453197D02*
X222455199Y-99557199D01*
X250038000Y-129203902D02*
X250559093Y-129724995D01*
X251656142Y-132542257D02*
X252292537Y-133178652D01*
X250559093Y-131694556D02*
X251406794Y-132542257D01*
X251406794Y-132542257D02*
X251656142Y-132542257D01*
X242630661Y-104356189D02*
X244249443Y-102737407D01*
X244249443Y-102737407D02*
X248952607Y-102737407D01*
X239233540Y-104356189D02*
X242630661Y-104356189D01*
X221525602Y-97523600D02*
X222455199Y-98453197D01*
X222455199Y-99557199D02*
X223229211Y-100331211D01*
X234811622Y-101042422D02*
X236702989Y-102933789D01*
X229620572Y-101042422D02*
X234811622Y-101042422D01*
X223229211Y-100331211D02*
X228909361Y-100331211D01*
G04 #@! TO.N,/GPIO24(GEN5)*
X253546123Y-129071263D02*
X252909727Y-129071263D01*
X253842002Y-129071263D02*
X253546123Y-129071263D01*
X255120964Y-130350225D02*
X253842002Y-129071263D01*
G04 #@! TO.N,/GPIO10(SPI0_MOSI)*
X261767766Y-136997027D02*
X261131371Y-136360632D01*
X262201377Y-136997027D02*
X261767766Y-136997027D01*
X262381004Y-136817400D02*
X262201377Y-136997027D01*
X263017400Y-136817400D02*
X262381004Y-136817400D01*
G04 #@! TO.N,/GPIO9(SPI0_MISO)*
X262641480Y-134953040D02*
X262538964Y-134953040D01*
X262538964Y-134953040D02*
X261697057Y-135794947D01*
G04 #@! TO.N,/GPIO11(SPI0_SCK)*
X261697057Y-133744337D02*
X262444469Y-133744337D01*
X262561611Y-133627195D02*
X263011610Y-133177196D01*
X262444469Y-133744337D02*
X262561611Y-133627195D01*
G04 #@! TO.N,/GPIO19(SPI1_MISO)*
X213110400Y-118246000D02*
X213004800Y-118351600D01*
X213110400Y-117159600D02*
X213110400Y-118246000D01*
D48*
X213821600Y-108568600D02*
X213563600Y-108826600D01*
X213821600Y-107710800D02*
X213821600Y-108568600D01*
D47*
X213563600Y-108826600D02*
X213281809Y-109108391D01*
X213281809Y-109108391D02*
X213281809Y-109118770D01*
D48*
G04 #@! TO.N,/DIN*
X215546600Y-106985800D02*
X216701200Y-106985800D01*
X216701200Y-106985800D02*
X216868250Y-107152850D01*
D47*
X216868250Y-107152850D02*
X216909210Y-107193810D01*
X216909210Y-107193810D02*
X216909210Y-107822809D01*
X216909210Y-107822809D02*
X216909210Y-108459205D01*
D48*
X214752000Y-116441800D02*
X214862371Y-116552171D01*
X215942614Y-116552171D02*
X216579010Y-116552171D01*
X214862371Y-116552171D02*
X215942614Y-116552171D01*
G04 #@! TO.N,/BCLK*
X215062200Y-118326200D02*
X215062200Y-118202000D01*
D47*
X214110400Y-117374400D02*
X215062200Y-118326200D01*
X214110400Y-117159600D02*
X214110400Y-117374400D01*
D48*
X214946891Y-108804575D02*
X215396890Y-109254574D01*
X214821600Y-108679284D02*
X214946891Y-108804575D01*
X214821600Y-107710800D02*
X214821600Y-108679284D01*
D45*
G04 #@! TO.N,+12V*
X203657600Y-131381800D02*
X203606800Y-131432600D01*
X203657600Y-125844600D02*
X203657600Y-131381800D01*
X203606800Y-131432600D02*
X203606800Y-134861600D01*
X203606800Y-134861600D02*
X203606800Y-138316000D01*
D43*
G04 #@! TO.N,Net-(J3-Pad2)*
X211625580Y-138042950D02*
X211625580Y-138646200D01*
X208444230Y-134861600D02*
X211625580Y-138042950D01*
X206146800Y-134861600D02*
X208444230Y-134861600D01*
G04 #@! TO.N,Net-(J5-Pad2)*
X211625580Y-134385350D02*
X211625580Y-134988600D01*
X208672830Y-131432600D02*
X211625580Y-134385350D01*
X206146800Y-131432600D02*
X208672830Y-131432600D01*
G04 #@! TO.N,Net-(J6-Pad2)*
X209525000Y-142454930D02*
X209525000Y-143058180D01*
X209525000Y-141694200D02*
X209525000Y-142454930D01*
X206146800Y-138316000D02*
X209525000Y-141694200D01*
G04 #@! TO.N,Net-(J2-Pad2)*
X212450000Y-126219000D02*
X212700000Y-126219000D01*
X211600180Y-127068820D02*
X212450000Y-126219000D01*
X211600180Y-130238800D02*
X211600180Y-127068820D01*
D47*
G04 #@! TO.N,/WS2812_DATA*
X259367895Y-139122639D02*
X258868630Y-138623374D01*
X259931805Y-139122639D02*
X259367895Y-139122639D01*
X260302424Y-138752020D02*
X259931805Y-139122639D01*
X260704604Y-139154200D02*
X260302424Y-138752020D01*
X261341000Y-139154200D02*
X260704604Y-139154200D01*
X221778000Y-139640358D02*
X221778000Y-140094000D01*
X222159159Y-139259199D02*
X221778000Y-139640358D01*
X224815800Y-140365442D02*
X224815800Y-140136842D01*
X229667200Y-142700842D02*
X229667200Y-141703558D01*
X229981358Y-143015000D02*
X229667200Y-142700842D01*
X223938157Y-139259199D02*
X222159159Y-139259199D01*
X245071950Y-138156443D02*
X241889840Y-138156443D01*
X241889840Y-138156443D02*
X240864988Y-137131591D01*
X240864988Y-137131591D02*
X238598609Y-137131591D01*
X229411041Y-141447399D02*
X225897757Y-141447399D01*
X229667200Y-141703558D02*
X229411041Y-141447399D01*
X245096727Y-138181220D02*
X245071950Y-138156443D01*
X238598609Y-137131591D02*
X232715200Y-143015000D01*
X224815800Y-140136842D02*
X223938157Y-139259199D01*
X225897757Y-141447399D02*
X224815800Y-140365442D01*
X232715200Y-143015000D02*
X229981358Y-143015000D01*
G04 #@! TO.N,/PWM1*
X251237942Y-135794947D02*
X251726851Y-135794947D01*
X246917762Y-138218448D02*
X246917762Y-138410445D01*
X246593334Y-137955086D02*
X246654400Y-137955086D01*
X244301828Y-137750024D02*
X244650219Y-137401633D01*
X244650219Y-137401633D02*
X246039881Y-137401633D01*
X242159771Y-137750024D02*
X244301828Y-137750024D01*
X249485653Y-135794947D02*
X251237942Y-135794947D01*
X247310258Y-138802941D02*
X248034868Y-138802941D01*
X246039881Y-137401633D02*
X246593334Y-137955086D01*
X248034868Y-138802941D02*
X248427364Y-138410445D01*
X238351122Y-136725180D02*
X241134927Y-136725180D01*
X248427364Y-136853236D02*
X249485653Y-135794947D01*
X246654400Y-137955086D02*
X246917762Y-138218448D01*
X241134927Y-136725180D02*
X242159771Y-137750024D01*
X246917762Y-138410445D02*
X247310258Y-138802941D01*
X248427364Y-138410445D02*
X248427364Y-136853236D01*
X235421301Y-139655001D02*
X235769702Y-139306600D01*
X229587999Y-139655001D02*
X235421301Y-139655001D01*
X228891800Y-140551200D02*
X228891800Y-140351200D01*
X228891800Y-140351200D02*
X229587999Y-139655001D01*
X235769702Y-139306600D02*
X238351122Y-136725180D01*
X227750200Y-140551200D02*
X228891800Y-140551200D01*
G04 #@! TO.N,/PWM2*
X227750200Y-138874800D02*
X228815600Y-138874800D01*
X257737259Y-139754745D02*
X258860513Y-140877999D01*
X258860513Y-140877999D02*
X259213325Y-140877999D01*
X259213325Y-140877999D02*
X259849721Y-140877999D01*
X246648478Y-136445474D02*
X247589978Y-136445474D01*
X242817694Y-136937202D02*
X243965148Y-136937202D01*
X227195399Y-136555359D02*
X227838400Y-135912358D01*
X248020953Y-136876449D02*
X248020953Y-137683022D01*
X227838400Y-135912358D02*
X241792850Y-135912358D01*
X247589978Y-136445474D02*
X248020953Y-136876449D01*
X244313539Y-136588811D02*
X246505141Y-136588811D01*
X241792850Y-135912358D02*
X242817694Y-136937202D01*
X248020953Y-137683022D02*
X247657590Y-138046385D01*
X243965148Y-136937202D02*
X244313539Y-136588811D01*
X227195399Y-137943041D02*
X227195399Y-136555359D01*
X246505141Y-136588811D02*
X246648478Y-136445474D01*
X227750200Y-138700200D02*
X227750200Y-138900200D01*
X227195399Y-138145399D02*
X227750200Y-138700200D01*
X227195399Y-137943041D02*
X227195399Y-138145399D01*
G04 #@! TO.N,/PWM3*
X227763600Y-142202200D02*
X228917200Y-142202200D01*
X245684811Y-139004664D02*
X246134810Y-138554665D01*
X236805081Y-143421411D02*
X241663646Y-138562846D01*
X244383759Y-138562846D02*
X244825577Y-139004664D01*
X260223400Y-139840000D02*
X258953885Y-139840000D01*
X258953885Y-139840000D02*
X258302944Y-139189059D01*
X244825577Y-139004664D02*
X245684811Y-139004664D01*
X241663646Y-138562846D02*
X244383759Y-138562846D01*
X229483211Y-143421411D02*
X229794200Y-143421411D01*
X228917200Y-142855400D02*
X229483211Y-143421411D01*
X228917200Y-142202200D02*
X228917200Y-142855400D01*
X229794200Y-143421411D02*
X236805081Y-143421411D01*
G04 #@! TO.N,/POWER*
X257737259Y-129784539D02*
X257614441Y-129661721D01*
X257614441Y-129661721D02*
X257614441Y-129647410D01*
X239547800Y-143385642D02*
X243106154Y-139827288D01*
X239547800Y-146063000D02*
X239547800Y-143385642D01*
X243106154Y-139827288D02*
X243556153Y-139377289D01*
G04 #@! TO.N,Net-(Q1-Pad1)*
X221990819Y-138852788D02*
X221584408Y-139259199D01*
X214564811Y-139259199D02*
X214227810Y-139596200D01*
X214227810Y-139596200D02*
X213624560Y-139596200D01*
X224327188Y-138852788D02*
X221990819Y-138852788D01*
X221584408Y-139259199D02*
X214564811Y-139259199D01*
X226250200Y-140351200D02*
X226250200Y-140551200D01*
X225637400Y-139738400D02*
X226250200Y-140351200D01*
X225212800Y-139738400D02*
X225637400Y-139738400D01*
X225212800Y-139738400D02*
X224327188Y-138852788D01*
G04 #@! TO.N,Net-(Q2-Pad1)*
X218044200Y-135938600D02*
X213624560Y-135938600D01*
X225143800Y-138221600D02*
X220327200Y-138221600D01*
X220327200Y-138221600D02*
X218044200Y-135938600D01*
X226250200Y-138874800D02*
X225797000Y-138874800D01*
X225797000Y-138874800D02*
X225143800Y-138221600D01*
G04 #@! TO.N,Net-(Q3-Pad1)*
X212776211Y-141459199D02*
X209178250Y-145057160D01*
X225822400Y-141999000D02*
X225282599Y-141459199D01*
X209178250Y-145057160D02*
X208575000Y-145057160D01*
X225282599Y-141459199D02*
X212776211Y-141459199D01*
X226275600Y-141999000D02*
X225822400Y-141999000D01*
G04 #@! TO.N,Net-(Q4-Pad1)*
X220210818Y-137249200D02*
X217119600Y-134157982D01*
X226250200Y-137249200D02*
X220210818Y-137249200D01*
X217119600Y-134157982D02*
X217119600Y-132931200D01*
X215377200Y-131188800D02*
X213599160Y-131188800D01*
X217119600Y-132931200D02*
X215377200Y-131188800D01*
G04 #@! TO.N,/FAN*
X227750200Y-137249200D02*
X228981400Y-137249200D01*
X259363606Y-136855608D02*
X259363606Y-134984794D01*
X260000001Y-137492003D02*
X259363606Y-136855608D01*
X259363606Y-134984794D02*
X259376082Y-134972318D01*
X246744604Y-136995222D02*
X246949656Y-137200274D01*
X228981400Y-137249200D02*
X228981400Y-137049200D01*
X242649354Y-137343613D02*
X244133488Y-137343613D01*
X244133488Y-137343613D02*
X244481879Y-136995222D01*
X241624510Y-136318769D02*
X242649354Y-137343613D01*
X229711831Y-136318769D02*
X241624510Y-136318769D01*
X228981400Y-137049200D02*
X229711831Y-136318769D01*
X244481879Y-136995222D02*
X246744604Y-136995222D01*
D48*
G04 #@! TO.N,Net-(R9-Pad2)*
X216765400Y-105485800D02*
X217170400Y-105080800D01*
X215546600Y-105485800D02*
X216765400Y-105485800D01*
G04 #@! TO.N,Net-(R10-Pad2)*
X216351800Y-114941800D02*
X216408400Y-114885200D01*
X214752000Y-114941800D02*
X216351800Y-114941800D01*
D47*
G04 #@! TO.N,/BTN_PWR*
X257354284Y-127774989D02*
X257218011Y-127774989D01*
X258302944Y-130350225D02*
X258939339Y-129713830D01*
X258939339Y-129360044D02*
X257354284Y-127774989D01*
X258939339Y-129713830D02*
X258939339Y-129360044D01*
X257218011Y-127774989D02*
X256768012Y-127324990D01*
X260340240Y-121741999D02*
X257189216Y-124893023D01*
X257189216Y-124893023D02*
X256739217Y-125343022D01*
X260340240Y-113741500D02*
X260340240Y-121741999D01*
G04 #@! TO.N,/GPIO23(GEN4)*
X253963397Y-128061287D02*
X253533423Y-128061287D01*
X253444845Y-127972709D02*
X252808449Y-127972709D01*
X253533423Y-128061287D02*
X253444845Y-127972709D01*
X255686649Y-129784539D02*
X253963397Y-128061287D01*
G04 #@! TO.N,Net-(R21-Pad1)*
X253467001Y-118410019D02*
X254483000Y-117394020D01*
X253467001Y-123367861D02*
X253467001Y-118410019D01*
X254036200Y-123937060D02*
X253467001Y-123367861D01*
X254889400Y-123937060D02*
X254036200Y-123937060D01*
X259505025Y-128970297D02*
X259505025Y-130279515D01*
X259505025Y-130279515D02*
X258868630Y-130915910D01*
X257104917Y-126570189D02*
X259505025Y-128970297D01*
X254889400Y-125706589D02*
X255753000Y-126570189D01*
X254889400Y-123937060D02*
X254889400Y-125706589D01*
X255753000Y-126570189D02*
X257104917Y-126570189D01*
G04 #@! TO.N,Net-(J4-Pad2)*
X220828000Y-145529600D02*
X220853400Y-145555000D01*
X220828000Y-142294000D02*
X220828000Y-145529600D01*
G04 #@! TO.N,Net-(C14-Pad2)*
X252874322Y-140043189D02*
X252735262Y-140182249D01*
X255120964Y-139189059D02*
X254266834Y-140043189D01*
X254266834Y-140043189D02*
X252874322Y-140043189D01*
G04 #@! TO.N,Net-(C15-Pad2)*
X255686649Y-139754745D02*
X255686649Y-140053049D01*
X255686649Y-140053049D02*
X256489600Y-140856000D01*
D46*
G04 #@! TO.N,Net-(C16-Pad1)*
X204575440Y-106882800D02*
X207670800Y-106882800D01*
X203426319Y-108031921D02*
X204575440Y-106882800D01*
D47*
X209029000Y-107023200D02*
X209181400Y-107175600D01*
D46*
X207670800Y-107023200D02*
X209029000Y-107023200D01*
G04 #@! TO.N,Net-(C17-Pad1)*
X205294998Y-115950600D02*
X207543800Y-115950600D01*
X203426319Y-114081921D02*
X205294998Y-115950600D01*
D47*
X208837800Y-116103000D02*
X209029000Y-116294200D01*
D46*
X207645400Y-116103000D02*
X208837800Y-116103000D01*
G04 #@! TO.N,Net-(C18-Pad1)*
X203458998Y-105524600D02*
X203426319Y-105491921D01*
X207670800Y-105524600D02*
X203458998Y-105524600D01*
X207670800Y-105524600D02*
X209181400Y-105524600D01*
G04 #@! TO.N,Net-(C19-Pad1)*
X206490198Y-114605800D02*
X203426319Y-111541921D01*
X207645400Y-114605800D02*
X206490198Y-114605800D01*
D47*
X209017000Y-114605800D02*
X209029000Y-114617800D01*
D46*
X207645400Y-114605800D02*
X209017000Y-114605800D01*
D47*
G04 #@! TO.N,Net-(L1-Pad2)*
X210681400Y-107175600D02*
X210681400Y-106975600D01*
X212553810Y-106028590D02*
X212596600Y-105985800D01*
X211778218Y-106028590D02*
X212553810Y-106028590D01*
X211571008Y-106235800D02*
X211778218Y-106028590D01*
X211421200Y-106235800D02*
X211571008Y-106235800D01*
X210681400Y-106975600D02*
X211421200Y-106235800D01*
D44*
G04 #@! TO.N,Net-(L2-Pad2)*
X211885400Y-115434600D02*
X211307200Y-115434600D01*
X210529000Y-116212800D02*
X210529000Y-116294200D01*
X211307200Y-115434600D02*
X210529000Y-116212800D01*
D47*
G04 #@! TO.N,Net-(L3-Pad2)*
X212557800Y-105524600D02*
X212596600Y-105485800D01*
X210681400Y-105524600D02*
X212557800Y-105524600D01*
D44*
G04 #@! TO.N,Net-(L4-Pad2)*
X211568600Y-114617800D02*
X211885400Y-114934600D01*
X210529000Y-114617800D02*
X211568600Y-114617800D01*
D47*
G04 #@! TO.N,/RESET_ATMEGA*
X248651000Y-144166000D02*
X249354200Y-143462800D01*
X248651000Y-144291000D02*
X248651000Y-144166000D01*
X247768000Y-145174000D02*
X248651000Y-144291000D01*
X249354200Y-143462800D02*
X249479200Y-143462800D01*
X246253400Y-145174000D02*
X247768000Y-145174000D01*
X252111400Y-143462800D02*
X252527200Y-143878600D01*
X249479200Y-143462800D02*
X252111400Y-143462800D01*
X252787512Y-131410886D02*
X251967282Y-131410886D01*
X251967282Y-131410886D02*
X251720306Y-131163910D01*
X253423907Y-132047281D02*
X252787512Y-131410886D01*
G04 #@! TO.N,+BATT*
X218186400Y-102400400D02*
X219517360Y-102400400D01*
X217607280Y-101821280D02*
X218186400Y-102400400D01*
G04 #@! TD*
D44*
G04 #@! TO.N,GND*
G36*
X216385897Y-94794656D02*
X216136256Y-94745000D01*
X215843744Y-94745000D01*
X215410582Y-94831161D01*
X214919375Y-95159375D01*
X214706157Y-95478478D01*
X214645183Y-95348642D01*
X214216924Y-94958355D01*
X213806890Y-94788524D01*
X213577000Y-94909845D01*
X213577000Y-96103000D01*
X213597000Y-96103000D01*
X213597000Y-96357000D01*
X213577000Y-96357000D01*
X213577000Y-96377000D01*
X213323000Y-96377000D01*
X213323000Y-96357000D01*
X213303000Y-96357000D01*
X213303000Y-96103000D01*
X213323000Y-96103000D01*
X213323000Y-94909845D01*
X213093110Y-94788524D01*
X212683076Y-94958355D01*
X212254817Y-95348642D01*
X212193843Y-95478478D01*
X211980625Y-95159375D01*
X211489418Y-94831161D01*
X211056256Y-94745000D01*
X210763744Y-94745000D01*
X210330582Y-94831161D01*
X209839375Y-95159375D01*
X209640000Y-95457761D01*
X209440625Y-95159375D01*
X208949418Y-94831161D01*
X208516256Y-94745000D01*
X208223744Y-94745000D01*
X207790582Y-94831161D01*
X207299375Y-95159375D01*
X206971161Y-95650582D01*
X206855908Y-96230000D01*
X206971161Y-96809418D01*
X207299375Y-97300625D01*
X207317619Y-97312816D01*
X207272235Y-97321843D01*
X207062191Y-97462191D01*
X206921843Y-97672235D01*
X206872560Y-97920000D01*
X206872560Y-99620000D01*
X206921843Y-99867765D01*
X207062191Y-100077809D01*
X207272235Y-100218157D01*
X207520000Y-100267440D01*
X209220000Y-100267440D01*
X209467765Y-100218157D01*
X209677809Y-100077809D01*
X209818157Y-99867765D01*
X209827184Y-99822381D01*
X209839375Y-99840625D01*
X210330582Y-100168839D01*
X210763744Y-100255000D01*
X211056256Y-100255000D01*
X211489418Y-100168839D01*
X211980625Y-99840625D01*
X212180000Y-99542239D01*
X212379375Y-99840625D01*
X212870582Y-100168839D01*
X213303744Y-100255000D01*
X213596256Y-100255000D01*
X214029418Y-100168839D01*
X214520625Y-99840625D01*
X214720000Y-99542239D01*
X214919375Y-99840625D01*
X215410582Y-100168839D01*
X215843744Y-100255000D01*
X216136256Y-100255000D01*
X216569418Y-100168839D01*
X217060625Y-99840625D01*
X217273843Y-99521522D01*
X217334817Y-99651358D01*
X217763076Y-100041645D01*
X218173110Y-100211476D01*
X218403000Y-100090155D01*
X218403000Y-98897000D01*
X218383000Y-98897000D01*
X218383000Y-98643000D01*
X218403000Y-98643000D01*
X218403000Y-98623000D01*
X218657000Y-98623000D01*
X218657000Y-98643000D01*
X218677000Y-98643000D01*
X218677000Y-98897000D01*
X218657000Y-98897000D01*
X218657000Y-100090155D01*
X218886890Y-100211476D01*
X219296924Y-100041645D01*
X219450694Y-99901509D01*
X220452144Y-100902960D01*
X218517360Y-100902960D01*
X218272155Y-100951734D01*
X218221883Y-100901462D01*
X217823100Y-100736280D01*
X217391460Y-100736280D01*
X216992677Y-100901462D01*
X216965982Y-100928157D01*
X216843098Y-100805273D01*
X216609709Y-100708600D01*
X216019150Y-100708600D01*
X215860400Y-100867350D01*
X215860400Y-101841600D01*
X215880400Y-101841600D01*
X215880400Y-102095600D01*
X215860400Y-102095600D01*
X215860400Y-102115600D01*
X215606400Y-102115600D01*
X215606400Y-102095600D01*
X215586400Y-102095600D01*
X215586400Y-101841600D01*
X215606400Y-101841600D01*
X215606400Y-100867350D01*
X215447650Y-100708600D01*
X214857091Y-100708600D01*
X214623702Y-100805273D01*
X214482054Y-100946920D01*
X214441209Y-100885791D01*
X214231165Y-100745443D01*
X213983400Y-100696160D01*
X212483400Y-100696160D01*
X212235635Y-100745443D01*
X212135200Y-100812552D01*
X212034765Y-100745443D01*
X211787000Y-100696160D01*
X210787000Y-100696160D01*
X210539235Y-100745443D01*
X210329191Y-100885791D01*
X210288346Y-100946920D01*
X210146698Y-100805273D01*
X209913309Y-100708600D01*
X209572750Y-100708600D01*
X209414000Y-100867350D01*
X209414000Y-101841600D01*
X209434000Y-101841600D01*
X209434000Y-102095600D01*
X209414000Y-102095600D01*
X209414000Y-103069850D01*
X209572750Y-103228600D01*
X209913309Y-103228600D01*
X210146698Y-103131927D01*
X210288346Y-102990280D01*
X210329191Y-103051409D01*
X210539235Y-103191757D01*
X210787000Y-103241040D01*
X210955400Y-103241040D01*
X210955400Y-103642166D01*
X211128193Y-104059326D01*
X211447474Y-104378607D01*
X211864634Y-104551400D01*
X212316166Y-104551400D01*
X212436600Y-104501515D01*
X212436600Y-104700800D01*
X212294284Y-104700800D01*
X212065308Y-104746346D01*
X212002969Y-104788000D01*
X211503608Y-104788000D01*
X211389209Y-104616791D01*
X211179165Y-104476443D01*
X210931400Y-104427160D01*
X210431400Y-104427160D01*
X210183635Y-104476443D01*
X209973591Y-104616791D01*
X209931400Y-104679934D01*
X209889209Y-104616791D01*
X209679165Y-104476443D01*
X209431400Y-104427160D01*
X208931400Y-104427160D01*
X208683635Y-104476443D01*
X208680800Y-104478337D01*
X208680800Y-104310350D01*
X208522050Y-104151600D01*
X207797800Y-104151600D01*
X207797800Y-104171600D01*
X207543800Y-104171600D01*
X207543800Y-104151600D01*
X206819550Y-104151600D01*
X206660800Y-104310350D01*
X206660800Y-104550909D01*
X206737964Y-104737200D01*
X205073249Y-104737200D01*
X205073249Y-104492431D01*
X205023966Y-104244666D01*
X204883618Y-104034622D01*
X204673574Y-103894274D01*
X204425809Y-103844991D01*
X202426829Y-103844991D01*
X202179064Y-103894274D01*
X201969020Y-104034622D01*
X201828672Y-104244666D01*
X201779389Y-104492431D01*
X201779389Y-106491411D01*
X201828672Y-106739176D01*
X201969020Y-106949220D01*
X202117626Y-107048516D01*
X201886664Y-107394175D01*
X201759808Y-108031921D01*
X201886664Y-108669667D01*
X202247918Y-109210322D01*
X202788573Y-109571576D01*
X203265339Y-109666411D01*
X203587299Y-109666411D01*
X204064065Y-109571576D01*
X204604720Y-109210322D01*
X204872908Y-108808950D01*
X206660800Y-108808950D01*
X206660800Y-109049509D01*
X206757473Y-109282898D01*
X206936101Y-109461527D01*
X207169490Y-109558200D01*
X207385050Y-109558200D01*
X207543800Y-109399450D01*
X207543800Y-108650200D01*
X207797800Y-108650200D01*
X207797800Y-109399450D01*
X207956550Y-109558200D01*
X208172110Y-109558200D01*
X208405499Y-109461527D01*
X208584127Y-109282898D01*
X208680800Y-109049509D01*
X208680800Y-108808950D01*
X208522050Y-108650200D01*
X207797800Y-108650200D01*
X207543800Y-108650200D01*
X206819550Y-108650200D01*
X206660800Y-108808950D01*
X204872908Y-108808950D01*
X204965974Y-108669667D01*
X205092830Y-108031921D01*
X205020879Y-107670200D01*
X206697491Y-107670200D01*
X206697643Y-107670965D01*
X206758673Y-107762302D01*
X206757473Y-107763502D01*
X206660800Y-107996891D01*
X206660800Y-108237450D01*
X206819550Y-108396200D01*
X207543800Y-108396200D01*
X207543800Y-108376200D01*
X207797800Y-108376200D01*
X207797800Y-108396200D01*
X208522050Y-108396200D01*
X208680800Y-108237450D01*
X208680800Y-108221863D01*
X208683635Y-108223757D01*
X208931400Y-108273040D01*
X209431400Y-108273040D01*
X209679165Y-108223757D01*
X209889209Y-108083409D01*
X209931400Y-108020266D01*
X209973591Y-108083409D01*
X210183635Y-108223757D01*
X210431400Y-108273040D01*
X210931400Y-108273040D01*
X211179165Y-108223757D01*
X211389209Y-108083409D01*
X211529557Y-107873365D01*
X211578840Y-107625600D01*
X211578840Y-107119870D01*
X211594729Y-107103981D01*
X211632146Y-107292092D01*
X211805647Y-107551753D01*
X212065308Y-107725254D01*
X212294284Y-107770800D01*
X212536600Y-107770800D01*
X212536600Y-108013115D01*
X212582146Y-108242091D01*
X212598937Y-108267221D01*
X212361991Y-108504167D01*
X212196809Y-108902950D01*
X212196809Y-109334590D01*
X212361991Y-109733373D01*
X212667206Y-110038588D01*
X213065989Y-110203770D01*
X213497629Y-110203770D01*
X213896412Y-110038588D01*
X214201627Y-109733373D01*
X214311890Y-109467176D01*
X214311890Y-109470394D01*
X214477072Y-109869177D01*
X214782287Y-110174392D01*
X215181070Y-110339574D01*
X215612710Y-110339574D01*
X216011493Y-110174392D01*
X216316708Y-109869177D01*
X216481890Y-109470394D01*
X216481890Y-109456598D01*
X216693390Y-109544205D01*
X217125030Y-109544205D01*
X217523813Y-109379023D01*
X217829028Y-109073808D01*
X217994210Y-108675025D01*
X217994210Y-108243385D01*
X217829028Y-107844602D01*
X217645810Y-107661384D01*
X217645810Y-107266350D01*
X217660239Y-107193809D01*
X217645810Y-107121267D01*
X217645810Y-107121266D01*
X217603071Y-106906403D01*
X217494189Y-106743450D01*
X218860400Y-106743450D01*
X218860400Y-107493350D01*
X219147374Y-108186167D01*
X219677633Y-108716426D01*
X220370450Y-109003400D01*
X221120350Y-109003400D01*
X221813167Y-108716426D01*
X222343426Y-108186167D01*
X222630400Y-107493350D01*
X222630400Y-106743450D01*
X222343426Y-106050633D01*
X221813167Y-105520374D01*
X221120350Y-105233400D01*
X220370450Y-105233400D01*
X219677633Y-105520374D01*
X219147374Y-106050633D01*
X218860400Y-106743450D01*
X217494189Y-106743450D01*
X217440268Y-106662752D01*
X217378768Y-106621659D01*
X217337808Y-106580699D01*
X217330988Y-106576142D01*
X217272111Y-106517265D01*
X217231105Y-106455895D01*
X216987983Y-106293446D01*
X216773588Y-106250800D01*
X216773584Y-106250800D01*
X216701200Y-106236402D01*
X216628816Y-106250800D01*
X216525235Y-106250800D01*
X216523279Y-106240967D01*
X216526150Y-106220800D01*
X216693016Y-106220800D01*
X216765400Y-106235198D01*
X216837784Y-106220800D01*
X216837788Y-106220800D01*
X217052183Y-106178154D01*
X217295305Y-106015705D01*
X217320338Y-105978240D01*
X217620400Y-105978240D01*
X217868165Y-105928957D01*
X218078209Y-105788609D01*
X218218557Y-105578565D01*
X218267840Y-105330800D01*
X218267840Y-104830800D01*
X218218557Y-104583035D01*
X218078209Y-104372991D01*
X218015066Y-104330800D01*
X218078209Y-104288609D01*
X218218557Y-104078565D01*
X218264928Y-103845439D01*
X218269595Y-103848557D01*
X218517360Y-103897840D01*
X220517360Y-103897840D01*
X220765125Y-103848557D01*
X220975169Y-103708209D01*
X221115517Y-103498165D01*
X221164800Y-103250400D01*
X221164800Y-102686150D01*
X221882360Y-102686150D01*
X221882360Y-103376710D01*
X221979033Y-103610099D01*
X222157662Y-103788727D01*
X222391051Y-103885400D01*
X223231610Y-103885400D01*
X223390360Y-103726650D01*
X223390360Y-102527400D01*
X223644360Y-102527400D01*
X223644360Y-103726650D01*
X223803110Y-103885400D01*
X224643669Y-103885400D01*
X224877058Y-103788727D01*
X225055687Y-103610099D01*
X225152360Y-103376710D01*
X225152360Y-102686150D01*
X224993610Y-102527400D01*
X223644360Y-102527400D01*
X223390360Y-102527400D01*
X222041110Y-102527400D01*
X221882360Y-102686150D01*
X221164800Y-102686150D01*
X221164800Y-101550400D01*
X221147221Y-101462025D01*
X221267750Y-101486000D01*
X221267753Y-101486000D01*
X221340294Y-101500429D01*
X221412834Y-101486000D01*
X221882360Y-101486000D01*
X221882360Y-102114650D01*
X222041110Y-102273400D01*
X223390360Y-102273400D01*
X223390360Y-102253400D01*
X223644360Y-102253400D01*
X223644360Y-102273400D01*
X224993610Y-102273400D01*
X225152360Y-102114650D01*
X225152360Y-101486000D01*
X228447691Y-101486000D01*
X228891850Y-101930160D01*
X228932942Y-101991658D01*
X228994439Y-102032749D01*
X228994441Y-102032751D01*
X229091598Y-102097669D01*
X229176593Y-102154461D01*
X229391456Y-102197200D01*
X229391459Y-102197200D01*
X229464000Y-102211629D01*
X229536540Y-102197200D01*
X233959491Y-102197200D01*
X235572050Y-103809760D01*
X235613142Y-103871258D01*
X235674639Y-103912349D01*
X235674641Y-103912351D01*
X235776198Y-103980209D01*
X235856793Y-104034061D01*
X236071656Y-104076800D01*
X236071659Y-104076800D01*
X236144200Y-104091229D01*
X236216740Y-104076800D01*
X237337691Y-104076800D01*
X238493049Y-105232158D01*
X238534142Y-105293658D01*
X238777793Y-105456461D01*
X238992656Y-105499200D01*
X238992660Y-105499200D01*
X239065199Y-105513629D01*
X239137738Y-105499200D01*
X242726460Y-105499200D01*
X242799000Y-105513629D01*
X242871540Y-105499200D01*
X242871544Y-105499200D01*
X243086407Y-105456461D01*
X243330058Y-105293658D01*
X243371151Y-105232158D01*
X244628109Y-103975200D01*
X248539091Y-103975200D01*
X248742601Y-104178711D01*
X248742600Y-129147313D01*
X248728171Y-129219853D01*
X248742600Y-129292393D01*
X248742600Y-129292396D01*
X248771481Y-129437588D01*
X248785339Y-129507259D01*
X248890176Y-129664158D01*
X248948142Y-129750911D01*
X249009642Y-129792004D01*
X249416083Y-130198445D01*
X249416082Y-133908408D01*
X248022027Y-135302464D01*
X246552678Y-135302464D01*
X246480138Y-135288035D01*
X246407598Y-135302464D01*
X246407594Y-135302464D01*
X246192731Y-135345203D01*
X246042178Y-135445800D01*
X243977821Y-135445800D01*
X243794603Y-135262582D01*
X243395820Y-135097400D01*
X242964180Y-135097400D01*
X242565397Y-135262582D01*
X242375090Y-135452889D01*
X242365001Y-135442800D01*
X242323908Y-135381300D01*
X242080257Y-135218497D01*
X241865394Y-135175758D01*
X241865390Y-135175758D01*
X241792850Y-135161329D01*
X241720310Y-135175758D01*
X227910940Y-135175758D01*
X227838400Y-135161329D01*
X227765859Y-135175758D01*
X227765856Y-135175758D01*
X227550993Y-135218497D01*
X227368841Y-135340207D01*
X227368839Y-135340209D01*
X227307342Y-135381300D01*
X227266250Y-135442798D01*
X226725839Y-135983210D01*
X226664342Y-136024301D01*
X226623251Y-136085798D01*
X226623248Y-136085801D01*
X226569911Y-136165626D01*
X226500200Y-136151760D01*
X226000200Y-136151760D01*
X225752435Y-136201043D01*
X225542391Y-136341391D01*
X225427992Y-136512600D01*
X220515927Y-136512600D01*
X217856200Y-133852873D01*
X217856200Y-133003740D01*
X217870629Y-132931200D01*
X217856200Y-132858659D01*
X217856200Y-132858656D01*
X217813461Y-132643793D01*
X217792600Y-132612573D01*
X217691751Y-132461641D01*
X217691749Y-132461639D01*
X217650658Y-132400142D01*
X217589160Y-132359050D01*
X216973560Y-131743450D01*
X218860400Y-131743450D01*
X218860400Y-132493350D01*
X219147374Y-133186167D01*
X219677633Y-133716426D01*
X220370450Y-134003400D01*
X221120350Y-134003400D01*
X221813167Y-133716426D01*
X222343426Y-133186167D01*
X222630400Y-132493350D01*
X222630400Y-131743450D01*
X222343426Y-131050633D01*
X221813167Y-130520374D01*
X221120350Y-130233400D01*
X220370450Y-130233400D01*
X219677633Y-130520374D01*
X219147374Y-131050633D01*
X218860400Y-131743450D01*
X216973560Y-131743450D01*
X215949351Y-130719242D01*
X215908258Y-130657742D01*
X215664607Y-130494939D01*
X215449744Y-130452200D01*
X215449740Y-130452200D01*
X215377200Y-130437771D01*
X215304660Y-130452200D01*
X214538042Y-130452200D01*
X214457019Y-130330941D01*
X214323609Y-130241799D01*
X214358909Y-130227177D01*
X214537537Y-130048548D01*
X214634210Y-129815159D01*
X214634210Y-129574550D01*
X214475460Y-129415800D01*
X213726160Y-129415800D01*
X213726160Y-129435800D01*
X213472160Y-129435800D01*
X213472160Y-129415800D01*
X212722860Y-129415800D01*
X212578075Y-129560585D01*
X212489180Y-129427546D01*
X212489180Y-128762441D01*
X212564110Y-128762441D01*
X212564110Y-129003050D01*
X212722860Y-129161800D01*
X213472160Y-129161800D01*
X213472160Y-128412500D01*
X213726160Y-128412500D01*
X213726160Y-129161800D01*
X214475460Y-129161800D01*
X214634210Y-129003050D01*
X214634210Y-128762441D01*
X214537537Y-128529052D01*
X214358909Y-128350423D01*
X214125520Y-128253750D01*
X213884910Y-128253750D01*
X213726160Y-128412500D01*
X213472160Y-128412500D01*
X213313410Y-128253750D01*
X213072800Y-128253750D01*
X212839411Y-128350423D01*
X212660783Y-128529052D01*
X212564110Y-128762441D01*
X212489180Y-128762441D01*
X212489180Y-127437055D01*
X212675436Y-127250800D01*
X213071636Y-127250800D01*
X213431873Y-127179144D01*
X213840385Y-126906185D01*
X214113344Y-126497673D01*
X214209195Y-126015800D01*
X214113344Y-125533927D01*
X213868131Y-125166940D01*
X214007809Y-125073609D01*
X214148157Y-124863565D01*
X214197440Y-124615800D01*
X214197440Y-123415800D01*
X214148157Y-123168035D01*
X214007809Y-122957991D01*
X213797765Y-122817643D01*
X213550000Y-122768360D01*
X212686201Y-122768360D01*
X212587441Y-122669600D01*
X215050845Y-122669600D01*
X215138400Y-122687016D01*
X215225955Y-122669600D01*
X215225956Y-122669600D01*
X215485270Y-122618019D01*
X215779333Y-122421533D01*
X215828931Y-122347304D01*
X217610107Y-120566129D01*
X217684333Y-120516533D01*
X217880819Y-120222470D01*
X217932400Y-119963156D01*
X217932400Y-119963155D01*
X217949816Y-119875600D01*
X217932400Y-119788045D01*
X217932400Y-118852376D01*
X218570925Y-118852376D01*
X218572290Y-120416441D01*
X218739851Y-121971505D01*
X219071711Y-123499958D01*
X219564111Y-124984493D01*
X220211476Y-126408297D01*
X221006475Y-127755248D01*
X221940105Y-129010093D01*
X223001794Y-130158622D01*
X224179519Y-131187828D01*
X225459943Y-132086057D01*
X226828567Y-132843137D01*
X228269892Y-133450494D01*
X229767596Y-133901252D01*
X231304720Y-134190306D01*
X232863856Y-134314381D01*
X234427349Y-134272075D01*
X235977494Y-134063864D01*
X237496737Y-133692108D01*
X238967873Y-133161015D01*
X240374244Y-132476601D01*
X241545256Y-131743450D01*
X243860400Y-131743450D01*
X243860400Y-132493350D01*
X244147374Y-133186167D01*
X244677633Y-133716426D01*
X245370450Y-134003400D01*
X246120350Y-134003400D01*
X246813167Y-133716426D01*
X247343426Y-133186167D01*
X247630400Y-132493350D01*
X247630400Y-131743450D01*
X247343426Y-131050633D01*
X246813167Y-130520374D01*
X246120350Y-130233400D01*
X245370450Y-130233400D01*
X244677633Y-130520374D01*
X244147374Y-131050633D01*
X243860400Y-131743450D01*
X241545256Y-131743450D01*
X241699923Y-131646616D01*
X242929898Y-130680457D01*
X244050241Y-129589067D01*
X245048265Y-128384805D01*
X245912669Y-127081306D01*
X246633663Y-125693334D01*
X247203083Y-124236604D01*
X247614481Y-122727613D01*
X247863198Y-121183450D01*
X247946418Y-119621600D01*
X247946396Y-119595947D01*
X247860450Y-118034245D01*
X247609038Y-116490518D01*
X247195007Y-114982248D01*
X246623045Y-113526514D01*
X245899630Y-112139802D01*
X245032952Y-110837814D01*
X244032828Y-109635295D01*
X242910582Y-108545862D01*
X241678922Y-107581852D01*
X240351797Y-106754182D01*
X240329647Y-106743450D01*
X243860400Y-106743450D01*
X243860400Y-107493350D01*
X244147374Y-108186167D01*
X244677633Y-108716426D01*
X245370450Y-109003400D01*
X246120350Y-109003400D01*
X246813167Y-108716426D01*
X247343426Y-108186167D01*
X247630400Y-107493350D01*
X247630400Y-106743450D01*
X247343426Y-106050633D01*
X246813167Y-105520374D01*
X246120350Y-105233400D01*
X245370450Y-105233400D01*
X244677633Y-105520374D01*
X244147374Y-106050633D01*
X243860400Y-106743450D01*
X240329647Y-106743450D01*
X238944234Y-106072223D01*
X237472173Y-105543699D01*
X235952283Y-105174595D01*
X234401778Y-104969090D01*
X232838213Y-104929512D01*
X231279295Y-105056309D01*
X229742679Y-105348045D01*
X228245763Y-105801416D01*
X226805501Y-106411289D01*
X225438200Y-107170756D01*
X224159346Y-108071218D01*
X222983419Y-109102478D01*
X221923737Y-110252858D01*
X220992298Y-111509331D01*
X220199651Y-112857667D01*
X219554772Y-114282600D01*
X219064963Y-115767991D01*
X218735772Y-117297022D01*
X218570925Y-118852376D01*
X217932400Y-118852376D01*
X217932400Y-118737533D01*
X218005607Y-118664326D01*
X218178400Y-118247166D01*
X218178400Y-117795634D01*
X218005607Y-117378474D01*
X217686326Y-117059193D01*
X217564322Y-117008657D01*
X217664010Y-116767991D01*
X217664010Y-116336351D01*
X217498828Y-115937568D01*
X217270003Y-115708743D01*
X217443209Y-115593009D01*
X217583557Y-115382965D01*
X217632840Y-115135200D01*
X217632840Y-114635200D01*
X217583557Y-114387435D01*
X217443209Y-114177391D01*
X217380066Y-114135200D01*
X217443209Y-114093009D01*
X217583557Y-113882965D01*
X217632840Y-113635200D01*
X217632840Y-113135200D01*
X217583557Y-112887435D01*
X217443209Y-112677391D01*
X217233165Y-112537043D01*
X217097834Y-112510124D01*
X217113000Y-112473510D01*
X217113000Y-112007950D01*
X216954250Y-111849200D01*
X215855000Y-111849200D01*
X215855000Y-111869200D01*
X215601000Y-111869200D01*
X215601000Y-111849200D01*
X215581000Y-111849200D01*
X215581000Y-111595200D01*
X215601000Y-111595200D01*
X215601000Y-110620950D01*
X215855000Y-110620950D01*
X215855000Y-111595200D01*
X216954250Y-111595200D01*
X217113000Y-111436450D01*
X217113000Y-110970890D01*
X217016327Y-110737501D01*
X216837698Y-110558873D01*
X216604309Y-110462200D01*
X216013750Y-110462200D01*
X215855000Y-110620950D01*
X215601000Y-110620950D01*
X215442250Y-110462200D01*
X214851691Y-110462200D01*
X214618302Y-110558873D01*
X214476654Y-110700520D01*
X214435809Y-110639391D01*
X214225765Y-110499043D01*
X213978000Y-110449760D01*
X212478000Y-110449760D01*
X212230235Y-110499043D01*
X212145200Y-110555862D01*
X212060165Y-110499043D01*
X211812400Y-110449760D01*
X210812400Y-110449760D01*
X210564635Y-110499043D01*
X210354591Y-110639391D01*
X210313746Y-110700520D01*
X210172098Y-110558873D01*
X209938709Y-110462200D01*
X209598150Y-110462200D01*
X209439400Y-110620950D01*
X209439400Y-111595200D01*
X209459400Y-111595200D01*
X209459400Y-111849200D01*
X209439400Y-111849200D01*
X209439400Y-112823450D01*
X209598150Y-112982200D01*
X209938709Y-112982200D01*
X210172098Y-112885527D01*
X210313746Y-112743880D01*
X210354591Y-112805009D01*
X210564635Y-112945357D01*
X210812400Y-112994640D01*
X211694585Y-112994640D01*
X211693348Y-112996491D01*
X211642000Y-113254636D01*
X211642000Y-113254639D01*
X211624663Y-113341800D01*
X211642000Y-113428961D01*
X211642001Y-113855473D01*
X211568600Y-113840873D01*
X211493557Y-113855800D01*
X211334236Y-113855800D01*
X211236809Y-113709991D01*
X211026765Y-113569643D01*
X210779000Y-113520360D01*
X210279000Y-113520360D01*
X210031235Y-113569643D01*
X209821191Y-113709991D01*
X209779000Y-113773134D01*
X209736809Y-113709991D01*
X209526765Y-113569643D01*
X209279000Y-113520360D01*
X208779000Y-113520360D01*
X208655400Y-113544945D01*
X208655400Y-113391550D01*
X208496650Y-113232800D01*
X207772400Y-113232800D01*
X207772400Y-113252800D01*
X207518400Y-113252800D01*
X207518400Y-113232800D01*
X206794150Y-113232800D01*
X206635400Y-113391550D01*
X206635400Y-113632109D01*
X206639177Y-113641227D01*
X205577441Y-112579491D01*
X206635400Y-112579491D01*
X206635400Y-112820050D01*
X206794150Y-112978800D01*
X207518400Y-112978800D01*
X207518400Y-112229550D01*
X207772400Y-112229550D01*
X207772400Y-112978800D01*
X208496650Y-112978800D01*
X208549732Y-112925718D01*
X208686091Y-112982200D01*
X209026650Y-112982200D01*
X209185400Y-112823450D01*
X209185400Y-111849200D01*
X208336150Y-111849200D01*
X208177400Y-112007950D01*
X208177400Y-112083512D01*
X208146710Y-112070800D01*
X207931150Y-112070800D01*
X207772400Y-112229550D01*
X207518400Y-112229550D01*
X207359650Y-112070800D01*
X207144090Y-112070800D01*
X206910701Y-112167473D01*
X206732073Y-112346102D01*
X206635400Y-112579491D01*
X205577441Y-112579491D01*
X205073249Y-112075300D01*
X205073249Y-110970890D01*
X208177400Y-110970890D01*
X208177400Y-111436450D01*
X208336150Y-111595200D01*
X209185400Y-111595200D01*
X209185400Y-110620950D01*
X209026650Y-110462200D01*
X208686091Y-110462200D01*
X208452702Y-110558873D01*
X208274073Y-110737501D01*
X208177400Y-110970890D01*
X205073249Y-110970890D01*
X205073249Y-110542431D01*
X205023966Y-110294666D01*
X204883618Y-110084622D01*
X204673574Y-109944274D01*
X204425809Y-109894991D01*
X202426829Y-109894991D01*
X202179064Y-109944274D01*
X201969020Y-110084622D01*
X201828672Y-110294666D01*
X201779389Y-110542431D01*
X201779389Y-112541411D01*
X201828672Y-112789176D01*
X201969020Y-112999220D01*
X202117626Y-113098516D01*
X201886664Y-113444175D01*
X201759808Y-114081921D01*
X201886664Y-114719667D01*
X202247918Y-115260322D01*
X202788573Y-115621576D01*
X203265339Y-115716411D01*
X203587299Y-115716411D01*
X203887536Y-115656690D01*
X204683384Y-116452538D01*
X204727314Y-116518284D01*
X204987770Y-116692315D01*
X205217446Y-116738000D01*
X205294997Y-116753426D01*
X205372548Y-116738000D01*
X206669704Y-116738000D01*
X206672243Y-116750765D01*
X206733273Y-116842102D01*
X206732073Y-116843302D01*
X206635400Y-117076691D01*
X206635400Y-117317250D01*
X206794150Y-117476000D01*
X207518400Y-117476000D01*
X207518400Y-117456000D01*
X207772400Y-117456000D01*
X207772400Y-117476000D01*
X208496650Y-117476000D01*
X208613858Y-117358792D01*
X208779000Y-117391640D01*
X209279000Y-117391640D01*
X209526765Y-117342357D01*
X209736809Y-117202009D01*
X209779000Y-117138866D01*
X209821191Y-117202009D01*
X210031235Y-117342357D01*
X210279000Y-117391640D01*
X210779000Y-117391640D01*
X211026765Y-117342357D01*
X211236809Y-117202009D01*
X211285928Y-117128497D01*
X211354108Y-117174054D01*
X211583084Y-117219600D01*
X211825400Y-117219600D01*
X211825400Y-117461915D01*
X211870946Y-117690891D01*
X212014863Y-117906278D01*
X211919800Y-118135780D01*
X211919800Y-118567420D01*
X212084982Y-118966203D01*
X212390197Y-119271418D01*
X212788980Y-119436600D01*
X213220620Y-119436600D01*
X213619403Y-119271418D01*
X213924618Y-118966203D01*
X214038761Y-118690640D01*
X214142382Y-118940803D01*
X214447597Y-119246018D01*
X214846380Y-119411200D01*
X215278020Y-119411200D01*
X215676803Y-119246018D01*
X215982018Y-118940803D01*
X216092044Y-118675177D01*
X216154401Y-118737534D01*
X216154400Y-119507364D01*
X214770165Y-120891600D01*
X212534836Y-120891600D01*
X210393331Y-118750096D01*
X210343733Y-118675867D01*
X210049670Y-118479381D01*
X209790356Y-118427800D01*
X209790355Y-118427800D01*
X209702800Y-118410384D01*
X209615245Y-118427800D01*
X208493625Y-118427800D01*
X208558727Y-118362698D01*
X208655400Y-118129309D01*
X208655400Y-117888750D01*
X208496650Y-117730000D01*
X207772400Y-117730000D01*
X207772400Y-117750000D01*
X207518400Y-117750000D01*
X207518400Y-117730000D01*
X206794150Y-117730000D01*
X206635400Y-117888750D01*
X206635400Y-118129309D01*
X206732073Y-118362698D01*
X206797175Y-118427800D01*
X206007036Y-118427800D01*
X205402200Y-117822965D01*
X205402200Y-117719434D01*
X205229407Y-117302274D01*
X204910126Y-116982993D01*
X204492966Y-116810200D01*
X204041434Y-116810200D01*
X203624274Y-116982993D01*
X203304993Y-117302274D01*
X203132200Y-117719434D01*
X203132200Y-118170966D01*
X203304993Y-118588126D01*
X203624274Y-118907407D01*
X204041434Y-119080200D01*
X204144965Y-119080200D01*
X204464008Y-119399243D01*
X204394725Y-119352950D01*
X203957598Y-119266000D01*
X203357602Y-119266000D01*
X202920475Y-119352950D01*
X202424770Y-119684170D01*
X202093550Y-120179875D01*
X201977241Y-120764600D01*
X202093550Y-121349325D01*
X202424770Y-121845030D01*
X202714332Y-122038510D01*
X202306868Y-122402564D01*
X202052891Y-122929809D01*
X202050242Y-122945574D01*
X202171383Y-123177600D01*
X203530600Y-123177600D01*
X203530600Y-123157600D01*
X203784600Y-123157600D01*
X203784600Y-123177600D01*
X205143817Y-123177600D01*
X205264958Y-122945574D01*
X205262309Y-122929809D01*
X205008332Y-122402564D01*
X204600868Y-122038510D01*
X204890430Y-121845030D01*
X204933481Y-121780600D01*
X208824760Y-121780600D01*
X211202560Y-124158401D01*
X211202560Y-124615800D01*
X211251843Y-124863565D01*
X211392191Y-125073609D01*
X211531869Y-125166940D01*
X211286656Y-125533927D01*
X211190805Y-126015800D01*
X211224843Y-126186921D01*
X211033474Y-126378291D01*
X210959248Y-126427887D01*
X210909652Y-126502113D01*
X210909651Y-126502114D01*
X210762762Y-126721950D01*
X210693764Y-127068820D01*
X210711181Y-127156379D01*
X210711180Y-129427546D01*
X210601973Y-129590985D01*
X210552690Y-129838750D01*
X210552690Y-130638850D01*
X210601973Y-130886615D01*
X210742321Y-131096659D01*
X210952365Y-131237007D01*
X211200130Y-131286290D01*
X212000230Y-131286290D01*
X212247995Y-131237007D01*
X212458039Y-131096659D01*
X212551670Y-130956531D01*
X212551670Y-131588850D01*
X212600953Y-131836615D01*
X212741301Y-132046659D01*
X212951345Y-132187007D01*
X213199110Y-132236290D01*
X213999210Y-132236290D01*
X214246975Y-132187007D01*
X214457019Y-132046659D01*
X214538042Y-131925400D01*
X215072091Y-131925400D01*
X216383001Y-133236311D01*
X216383000Y-134085441D01*
X216368571Y-134157982D01*
X216383000Y-134230522D01*
X216383000Y-134230525D01*
X216425739Y-134445388D01*
X216588542Y-134689040D01*
X216650042Y-134730133D01*
X217121909Y-135202000D01*
X214563442Y-135202000D01*
X214482419Y-135080741D01*
X214349009Y-134991599D01*
X214384309Y-134976977D01*
X214562937Y-134798348D01*
X214659610Y-134564959D01*
X214659610Y-134324350D01*
X214500860Y-134165600D01*
X213751560Y-134165600D01*
X213751560Y-134185600D01*
X213497560Y-134185600D01*
X213497560Y-134165600D01*
X212748260Y-134165600D01*
X212603475Y-134310385D01*
X212483439Y-134130741D01*
X212481031Y-134129132D01*
X212462999Y-134038480D01*
X212266513Y-133744417D01*
X212192287Y-133694821D01*
X212009707Y-133512241D01*
X212589510Y-133512241D01*
X212589510Y-133752850D01*
X212748260Y-133911600D01*
X213497560Y-133911600D01*
X213497560Y-133162300D01*
X213751560Y-133162300D01*
X213751560Y-133911600D01*
X214500860Y-133911600D01*
X214659610Y-133752850D01*
X214659610Y-133512241D01*
X214562937Y-133278852D01*
X214384309Y-133100223D01*
X214150920Y-133003550D01*
X213910310Y-133003550D01*
X213751560Y-133162300D01*
X213497560Y-133162300D01*
X213338810Y-133003550D01*
X213098200Y-133003550D01*
X212864811Y-133100223D01*
X212686183Y-133278852D01*
X212589510Y-133512241D01*
X212009707Y-133512241D01*
X209363361Y-130865896D01*
X209313763Y-130791667D01*
X209019700Y-130595181D01*
X208760386Y-130543600D01*
X208760385Y-130543600D01*
X208672830Y-130526184D01*
X208585275Y-130543600D01*
X207614860Y-130543600D01*
X207311705Y-130089895D01*
X206765588Y-129724992D01*
X206284009Y-129629200D01*
X205958791Y-129629200D01*
X205477212Y-129724992D01*
X205147863Y-129945056D01*
X205055209Y-129806391D01*
X204845165Y-129666043D01*
X204673600Y-129631917D01*
X204673600Y-127355640D01*
X204921365Y-127306357D01*
X205131409Y-127166009D01*
X205271757Y-126955965D01*
X205321040Y-126708200D01*
X205321040Y-124981000D01*
X205271757Y-124733235D01*
X205131409Y-124523191D01*
X204921365Y-124382843D01*
X204831190Y-124364906D01*
X205008332Y-124206636D01*
X205262309Y-123679391D01*
X205264958Y-123663626D01*
X205143817Y-123431600D01*
X203784600Y-123431600D01*
X203784600Y-123451600D01*
X203530600Y-123451600D01*
X203530600Y-123431600D01*
X202171383Y-123431600D01*
X202050242Y-123663626D01*
X202052891Y-123679391D01*
X202306868Y-124206636D01*
X202484010Y-124364906D01*
X202393835Y-124382843D01*
X202183791Y-124523191D01*
X202043443Y-124733235D01*
X201994160Y-124981000D01*
X201994160Y-126708200D01*
X202043443Y-126955965D01*
X202183791Y-127166009D01*
X202393835Y-127306357D01*
X202641600Y-127355640D01*
X202641601Y-129616760D01*
X202565400Y-129616760D01*
X202317635Y-129666043D01*
X202107591Y-129806391D01*
X201967243Y-130016435D01*
X201917960Y-130264200D01*
X201917960Y-132296200D01*
X201967243Y-132543965D01*
X202107591Y-132754009D01*
X202317635Y-132894357D01*
X202565400Y-132943640D01*
X202590800Y-132943640D01*
X202590801Y-133172760D01*
X202565400Y-133172760D01*
X202317635Y-133222043D01*
X202107591Y-133362391D01*
X201967243Y-133572435D01*
X201917960Y-133820200D01*
X201917960Y-135852200D01*
X201967243Y-136099965D01*
X202107591Y-136310009D01*
X202317635Y-136450357D01*
X202565400Y-136499640D01*
X202590800Y-136499640D01*
X202590801Y-136728760D01*
X202565400Y-136728760D01*
X202317635Y-136778043D01*
X202107591Y-136918391D01*
X201967243Y-137128435D01*
X201917960Y-137376200D01*
X201917960Y-139408200D01*
X201967243Y-139655965D01*
X202107591Y-139866009D01*
X202317635Y-140006357D01*
X202565400Y-140055640D01*
X204597400Y-140055640D01*
X204845165Y-140006357D01*
X205055209Y-139866009D01*
X205147863Y-139727344D01*
X205477212Y-139947408D01*
X205958791Y-140043200D01*
X206284009Y-140043200D01*
X206561557Y-139987992D01*
X208636000Y-142062436D01*
X208636000Y-142246926D01*
X208526793Y-142410365D01*
X208477510Y-142658130D01*
X208477510Y-143458230D01*
X208526793Y-143705995D01*
X208667141Y-143916039D01*
X208807269Y-144009670D01*
X208174950Y-144009670D01*
X207927185Y-144058953D01*
X207717141Y-144199301D01*
X207576793Y-144409345D01*
X207527510Y-144657110D01*
X207527510Y-145457210D01*
X207576793Y-145704975D01*
X207717141Y-145915019D01*
X207927185Y-146055367D01*
X208174950Y-146104650D01*
X208975050Y-146104650D01*
X209222815Y-146055367D01*
X209432859Y-145915019D01*
X209522001Y-145781609D01*
X209536623Y-145816909D01*
X209715252Y-145995537D01*
X209948641Y-146092210D01*
X210189250Y-146092210D01*
X210348000Y-145933460D01*
X210348000Y-145184160D01*
X210602000Y-145184160D01*
X210602000Y-145933460D01*
X210760750Y-146092210D01*
X211001359Y-146092210D01*
X211234748Y-145995537D01*
X211413377Y-145816909D01*
X211510050Y-145583520D01*
X211510050Y-145342910D01*
X211351300Y-145184160D01*
X210602000Y-145184160D01*
X210348000Y-145184160D01*
X210328000Y-145184160D01*
X210328000Y-144949119D01*
X210346959Y-144930160D01*
X210348000Y-144930160D01*
X210348000Y-144929119D01*
X210366959Y-144910160D01*
X210602000Y-144910160D01*
X210602000Y-144930160D01*
X211351300Y-144930160D01*
X211510050Y-144771410D01*
X211510050Y-144530800D01*
X211413377Y-144297411D01*
X211234748Y-144118783D01*
X211180717Y-144096403D01*
X213081321Y-142195799D01*
X219855560Y-142195799D01*
X219855560Y-142824000D01*
X219904843Y-143071765D01*
X220045191Y-143281809D01*
X220091400Y-143312685D01*
X220091401Y-144109401D01*
X219780332Y-144317251D01*
X219775157Y-144291235D01*
X219634809Y-144081191D01*
X219424765Y-143940843D01*
X219177000Y-143891560D01*
X217449800Y-143891560D01*
X217202035Y-143940843D01*
X216991991Y-144081191D01*
X216851643Y-144291235D01*
X216802360Y-144539000D01*
X216802360Y-146571000D01*
X216851643Y-146818765D01*
X216991991Y-147028809D01*
X217202035Y-147169157D01*
X217449800Y-147218440D01*
X218387600Y-147218440D01*
X219149822Y-147980663D01*
X219206505Y-148065495D01*
X219542577Y-148290051D01*
X219838935Y-148349000D01*
X219838936Y-148349000D01*
X219939000Y-148368904D01*
X220039064Y-148349000D01*
X223715249Y-148349000D01*
X223815312Y-148368904D01*
X223915375Y-148349000D01*
X223915377Y-148349000D01*
X224211735Y-148290051D01*
X224547807Y-148065495D01*
X224604491Y-147980661D01*
X225488873Y-147096280D01*
X225514734Y-147079000D01*
X236333379Y-147079000D01*
X236349643Y-147160765D01*
X236489991Y-147370809D01*
X236700035Y-147511157D01*
X236947800Y-147560440D01*
X238147800Y-147560440D01*
X238395565Y-147511157D01*
X238605609Y-147370809D01*
X238698940Y-147231130D01*
X239065928Y-147476344D01*
X239547800Y-147572195D01*
X240029673Y-147476344D01*
X240438185Y-147203385D01*
X240555040Y-147028498D01*
X240718675Y-147244933D01*
X241138424Y-147491286D01*
X241230191Y-147506462D01*
X241420800Y-147381731D01*
X241420800Y-146190000D01*
X241674800Y-146190000D01*
X241674800Y-147381731D01*
X241865409Y-147506462D01*
X241957176Y-147491286D01*
X242376925Y-147244933D01*
X242670447Y-146856701D01*
X242793056Y-146385696D01*
X242630347Y-146190000D01*
X241674800Y-146190000D01*
X241420800Y-146190000D01*
X241400800Y-146190000D01*
X241400800Y-145936000D01*
X241420800Y-145936000D01*
X241420800Y-144744269D01*
X241674800Y-144744269D01*
X241674800Y-145936000D01*
X242630347Y-145936000D01*
X242793056Y-145740304D01*
X242670447Y-145269299D01*
X242376925Y-144881067D01*
X241957176Y-144634714D01*
X241865409Y-144619538D01*
X241674800Y-144744269D01*
X241420800Y-144744269D01*
X241230191Y-144619538D01*
X241138424Y-144634714D01*
X240718675Y-144881067D01*
X240555040Y-145097501D01*
X240438185Y-144922615D01*
X240284400Y-144819859D01*
X240284400Y-143690751D01*
X243512862Y-140462289D01*
X243771973Y-140462289D01*
X244170756Y-140297107D01*
X244475971Y-139991892D01*
X244592973Y-139709426D01*
X244753033Y-139741264D01*
X244753036Y-139741264D01*
X244825576Y-139755693D01*
X244898117Y-139741264D01*
X245612271Y-139741264D01*
X245684811Y-139755693D01*
X245757351Y-139741264D01*
X245757355Y-139741264D01*
X245972218Y-139698525D01*
X246060308Y-139639665D01*
X246350630Y-139639665D01*
X246749413Y-139474483D01*
X246845558Y-139378338D01*
X247022851Y-139496802D01*
X247237714Y-139539541D01*
X247237717Y-139539541D01*
X247310257Y-139553970D01*
X247382798Y-139539541D01*
X247962328Y-139539541D01*
X248034868Y-139553970D01*
X248107408Y-139539541D01*
X248107412Y-139539541D01*
X248322275Y-139496802D01*
X248565926Y-139333999D01*
X248607019Y-139272499D01*
X248896922Y-138982596D01*
X248958422Y-138941503D01*
X249121225Y-138697852D01*
X249163964Y-138482989D01*
X249163964Y-138482986D01*
X249178393Y-138410446D01*
X249163964Y-138337905D01*
X249163964Y-138224662D01*
X249200013Y-138224662D01*
X249712135Y-137712540D01*
X249697993Y-137698398D01*
X249877598Y-137518793D01*
X249891740Y-137532935D01*
X250403862Y-137020813D01*
X250403862Y-136796306D01*
X250233761Y-136626205D01*
X250005234Y-136531547D01*
X250447135Y-136531547D01*
X250508902Y-136623987D01*
X250897811Y-137012896D01*
X251003782Y-137083704D01*
X251074588Y-137189672D01*
X251463497Y-137578581D01*
X251551538Y-137637408D01*
X251559755Y-137657247D01*
X251641468Y-137738960D01*
X251774245Y-137738960D01*
X251850754Y-137754178D01*
X251753720Y-137851212D01*
X251780592Y-137878084D01*
X251774475Y-137884200D01*
X251509348Y-137884200D01*
X251392531Y-137767383D01*
X251182487Y-137627035D01*
X251074747Y-137605604D01*
X251074747Y-137603908D01*
X250978075Y-137370519D01*
X250807974Y-137200418D01*
X250583467Y-137200418D01*
X250071345Y-137712540D01*
X250085488Y-137726683D01*
X249905883Y-137906288D01*
X249891740Y-137892145D01*
X249379618Y-138404267D01*
X249379618Y-138628774D01*
X249549719Y-138798875D01*
X249783108Y-138895547D01*
X249784804Y-138895547D01*
X249806235Y-139003287D01*
X249946583Y-139213331D01*
X250063401Y-139330149D01*
X250063400Y-140716245D01*
X250045984Y-140803800D01*
X250063400Y-140891355D01*
X250114981Y-141150669D01*
X250311467Y-141444733D01*
X250385696Y-141494331D01*
X250720469Y-141829104D01*
X250770067Y-141903333D01*
X250844296Y-141952931D01*
X251429760Y-142538396D01*
X251429760Y-142628600D01*
X251449174Y-142726200D01*
X250704578Y-142726200D01*
X250702357Y-142715035D01*
X250562009Y-142504991D01*
X250351965Y-142364643D01*
X250104200Y-142315360D01*
X248854200Y-142315360D01*
X248606435Y-142364643D01*
X248396391Y-142504991D01*
X248256043Y-142715035D01*
X248206760Y-142962800D01*
X248206760Y-143568531D01*
X248181442Y-143593849D01*
X248119942Y-143634942D01*
X247957139Y-143878593D01*
X247941109Y-143959181D01*
X247887881Y-144012410D01*
X247867557Y-143910235D01*
X247727209Y-143700191D01*
X247588544Y-143607537D01*
X247808608Y-143278188D01*
X247936745Y-142634000D01*
X247808608Y-141989812D01*
X247443705Y-141443695D01*
X246897588Y-141078792D01*
X246416009Y-140983000D01*
X246090791Y-140983000D01*
X245609212Y-141078792D01*
X245063095Y-141443695D01*
X244698192Y-141989812D01*
X244570055Y-142634000D01*
X244698192Y-143278188D01*
X244918256Y-143607537D01*
X244779591Y-143700191D01*
X244639243Y-143910235D01*
X244589960Y-144158000D01*
X244589960Y-146190000D01*
X244639243Y-146437765D01*
X244779591Y-146647809D01*
X244989635Y-146788157D01*
X245237400Y-146837440D01*
X247269400Y-146837440D01*
X247517165Y-146788157D01*
X247727209Y-146647809D01*
X247867557Y-146437765D01*
X247916840Y-146190000D01*
X247916840Y-145895424D01*
X248055407Y-145867861D01*
X248219200Y-145758418D01*
X248219200Y-146089109D01*
X248315873Y-146322498D01*
X248494501Y-146501127D01*
X248727890Y-146597800D01*
X249193450Y-146597800D01*
X249352200Y-146439050D01*
X249352200Y-145589800D01*
X249606200Y-145589800D01*
X249606200Y-146439050D01*
X249764950Y-146597800D01*
X250230510Y-146597800D01*
X250463899Y-146501127D01*
X250642527Y-146322498D01*
X250732551Y-146105159D01*
X259515000Y-146105159D01*
X259515000Y-146894841D01*
X259817199Y-147624412D01*
X260375588Y-148182801D01*
X261105159Y-148485000D01*
X261894841Y-148485000D01*
X262624412Y-148182801D01*
X263182801Y-147624412D01*
X263485000Y-146894841D01*
X263485000Y-146105159D01*
X263182801Y-145375588D01*
X262624412Y-144817199D01*
X261894841Y-144515000D01*
X261105159Y-144515000D01*
X260375588Y-144817199D01*
X259817199Y-145375588D01*
X259515000Y-146105159D01*
X250732551Y-146105159D01*
X250739200Y-146089109D01*
X250739200Y-145748550D01*
X250580450Y-145589800D01*
X249606200Y-145589800D01*
X249352200Y-145589800D01*
X249332200Y-145589800D01*
X249332200Y-145335800D01*
X249352200Y-145335800D01*
X249352200Y-145315800D01*
X249606200Y-145315800D01*
X249606200Y-145335800D01*
X250580450Y-145335800D01*
X250739200Y-145177050D01*
X250739200Y-144836491D01*
X250642527Y-144603102D01*
X250500880Y-144461454D01*
X250562009Y-144420609D01*
X250702357Y-144210565D01*
X250704578Y-144199400D01*
X251443843Y-144199400D01*
X251479043Y-144376365D01*
X251619391Y-144586409D01*
X251829435Y-144726757D01*
X252077200Y-144776040D01*
X252977200Y-144776040D01*
X253224965Y-144726757D01*
X253435009Y-144586409D01*
X253575357Y-144376365D01*
X253624640Y-144128600D01*
X253624640Y-143628600D01*
X253575357Y-143380835D01*
X253435009Y-143170791D01*
X253371866Y-143128600D01*
X253435009Y-143086409D01*
X253575357Y-142876365D01*
X253624640Y-142628600D01*
X253624640Y-142151400D01*
X255003765Y-142151400D01*
X255797671Y-142945306D01*
X255847267Y-143019533D01*
X256141330Y-143216019D01*
X256400644Y-143267600D01*
X256488199Y-143285016D01*
X256575754Y-143267600D01*
X260340445Y-143267600D01*
X260428000Y-143285016D01*
X260515555Y-143267600D01*
X260515556Y-143267600D01*
X260774870Y-143216019D01*
X261068933Y-143019533D01*
X261118531Y-142945304D01*
X264315000Y-139748836D01*
X264315000Y-146960206D01*
X264248395Y-147531494D01*
X264065819Y-148034483D01*
X263772427Y-148481980D01*
X263383961Y-148849977D01*
X262921253Y-149118739D01*
X262400153Y-149276565D01*
X261969495Y-149315000D01*
X203039794Y-149315000D01*
X202468506Y-149248395D01*
X201965517Y-149065819D01*
X201518020Y-148772427D01*
X201150023Y-148383961D01*
X200881261Y-147921253D01*
X200723435Y-147400153D01*
X200685000Y-146969495D01*
X200685000Y-146105159D01*
X201515000Y-146105159D01*
X201515000Y-146894841D01*
X201817199Y-147624412D01*
X202375588Y-148182801D01*
X203105159Y-148485000D01*
X203894841Y-148485000D01*
X204624412Y-148182801D01*
X205182801Y-147624412D01*
X205485000Y-146894841D01*
X205485000Y-146105159D01*
X205182801Y-145375588D01*
X204624412Y-144817199D01*
X203894841Y-144515000D01*
X203105159Y-144515000D01*
X202375588Y-144817199D01*
X201817199Y-145375588D01*
X201515000Y-146105159D01*
X200685000Y-146105159D01*
X200685000Y-103498291D01*
X206660800Y-103498291D01*
X206660800Y-103738850D01*
X206819550Y-103897600D01*
X207543800Y-103897600D01*
X207543800Y-103148350D01*
X207797800Y-103148350D01*
X207797800Y-103897600D01*
X208522050Y-103897600D01*
X208680800Y-103738850D01*
X208680800Y-103498291D01*
X208584127Y-103264902D01*
X208468018Y-103148792D01*
X208660691Y-103228600D01*
X209001250Y-103228600D01*
X209160000Y-103069850D01*
X209160000Y-102095600D01*
X208310750Y-102095600D01*
X208152000Y-102254350D01*
X208152000Y-102719910D01*
X208248673Y-102953299D01*
X208364782Y-103069408D01*
X208172110Y-102989600D01*
X207956550Y-102989600D01*
X207797800Y-103148350D01*
X207543800Y-103148350D01*
X207385050Y-102989600D01*
X207169490Y-102989600D01*
X206936101Y-103086273D01*
X206757473Y-103264902D01*
X206660800Y-103498291D01*
X200685000Y-103498291D01*
X200685000Y-101217290D01*
X208152000Y-101217290D01*
X208152000Y-101682850D01*
X208310750Y-101841600D01*
X209160000Y-101841600D01*
X209160000Y-100867350D01*
X209001250Y-100708600D01*
X208660691Y-100708600D01*
X208427302Y-100805273D01*
X208248673Y-100983901D01*
X208152000Y-101217290D01*
X200685000Y-101217290D01*
X200685000Y-97105159D01*
X201515000Y-97105159D01*
X201515000Y-97894841D01*
X201817199Y-98624412D01*
X202375588Y-99182801D01*
X203105159Y-99485000D01*
X203894841Y-99485000D01*
X204624412Y-99182801D01*
X205182801Y-98624412D01*
X205485000Y-97894841D01*
X205485000Y-97105159D01*
X205182801Y-96375588D01*
X204624412Y-95817199D01*
X203894841Y-95515000D01*
X203105159Y-95515000D01*
X202375588Y-95817199D01*
X201817199Y-96375588D01*
X201515000Y-97105159D01*
X200685000Y-97105159D01*
X200685000Y-97039793D01*
X200751605Y-96468506D01*
X200934182Y-95965515D01*
X201227572Y-95518021D01*
X201616039Y-95150023D01*
X202078745Y-94881262D01*
X202599847Y-94723435D01*
X203030505Y-94685000D01*
X216495553Y-94685000D01*
X216385897Y-94794656D01*
X216385897Y-94794656D01*
G37*
X216385897Y-94794656D02*
X216136256Y-94745000D01*
X215843744Y-94745000D01*
X215410582Y-94831161D01*
X214919375Y-95159375D01*
X214706157Y-95478478D01*
X214645183Y-95348642D01*
X214216924Y-94958355D01*
X213806890Y-94788524D01*
X213577000Y-94909845D01*
X213577000Y-96103000D01*
X213597000Y-96103000D01*
X213597000Y-96357000D01*
X213577000Y-96357000D01*
X213577000Y-96377000D01*
X213323000Y-96377000D01*
X213323000Y-96357000D01*
X213303000Y-96357000D01*
X213303000Y-96103000D01*
X213323000Y-96103000D01*
X213323000Y-94909845D01*
X213093110Y-94788524D01*
X212683076Y-94958355D01*
X212254817Y-95348642D01*
X212193843Y-95478478D01*
X211980625Y-95159375D01*
X211489418Y-94831161D01*
X211056256Y-94745000D01*
X210763744Y-94745000D01*
X210330582Y-94831161D01*
X209839375Y-95159375D01*
X209640000Y-95457761D01*
X209440625Y-95159375D01*
X208949418Y-94831161D01*
X208516256Y-94745000D01*
X208223744Y-94745000D01*
X207790582Y-94831161D01*
X207299375Y-95159375D01*
X206971161Y-95650582D01*
X206855908Y-96230000D01*
X206971161Y-96809418D01*
X207299375Y-97300625D01*
X207317619Y-97312816D01*
X207272235Y-97321843D01*
X207062191Y-97462191D01*
X206921843Y-97672235D01*
X206872560Y-97920000D01*
X206872560Y-99620000D01*
X206921843Y-99867765D01*
X207062191Y-100077809D01*
X207272235Y-100218157D01*
X207520000Y-100267440D01*
X209220000Y-100267440D01*
X209467765Y-100218157D01*
X209677809Y-100077809D01*
X209818157Y-99867765D01*
X209827184Y-99822381D01*
X209839375Y-99840625D01*
X210330582Y-100168839D01*
X210763744Y-100255000D01*
X211056256Y-100255000D01*
X211489418Y-100168839D01*
X211980625Y-99840625D01*
X212180000Y-99542239D01*
X212379375Y-99840625D01*
X212870582Y-100168839D01*
X213303744Y-100255000D01*
X213596256Y-100255000D01*
X214029418Y-100168839D01*
X214520625Y-99840625D01*
X214720000Y-99542239D01*
X214919375Y-99840625D01*
X215410582Y-100168839D01*
X215843744Y-100255000D01*
X216136256Y-100255000D01*
X216569418Y-100168839D01*
X217060625Y-99840625D01*
X217273843Y-99521522D01*
X217334817Y-99651358D01*
X217763076Y-100041645D01*
X218173110Y-100211476D01*
X218403000Y-100090155D01*
X218403000Y-98897000D01*
X218383000Y-98897000D01*
X218383000Y-98643000D01*
X218403000Y-98643000D01*
X218403000Y-98623000D01*
X218657000Y-98623000D01*
X218657000Y-98643000D01*
X218677000Y-98643000D01*
X218677000Y-98897000D01*
X218657000Y-98897000D01*
X218657000Y-100090155D01*
X218886890Y-100211476D01*
X219296924Y-100041645D01*
X219450694Y-99901509D01*
X220452144Y-100902960D01*
X218517360Y-100902960D01*
X218272155Y-100951734D01*
X218221883Y-100901462D01*
X217823100Y-100736280D01*
X217391460Y-100736280D01*
X216992677Y-100901462D01*
X216965982Y-100928157D01*
X216843098Y-100805273D01*
X216609709Y-100708600D01*
X216019150Y-100708600D01*
X215860400Y-100867350D01*
X215860400Y-101841600D01*
X215880400Y-101841600D01*
X215880400Y-102095600D01*
X215860400Y-102095600D01*
X215860400Y-102115600D01*
X215606400Y-102115600D01*
X215606400Y-102095600D01*
X215586400Y-102095600D01*
X215586400Y-101841600D01*
X215606400Y-101841600D01*
X215606400Y-100867350D01*
X215447650Y-100708600D01*
X214857091Y-100708600D01*
X214623702Y-100805273D01*
X214482054Y-100946920D01*
X214441209Y-100885791D01*
X214231165Y-100745443D01*
X213983400Y-100696160D01*
X212483400Y-100696160D01*
X212235635Y-100745443D01*
X212135200Y-100812552D01*
X212034765Y-100745443D01*
X211787000Y-100696160D01*
X210787000Y-100696160D01*
X210539235Y-100745443D01*
X210329191Y-100885791D01*
X210288346Y-100946920D01*
X210146698Y-100805273D01*
X209913309Y-100708600D01*
X209572750Y-100708600D01*
X209414000Y-100867350D01*
X209414000Y-101841600D01*
X209434000Y-101841600D01*
X209434000Y-102095600D01*
X209414000Y-102095600D01*
X209414000Y-103069850D01*
X209572750Y-103228600D01*
X209913309Y-103228600D01*
X210146698Y-103131927D01*
X210288346Y-102990280D01*
X210329191Y-103051409D01*
X210539235Y-103191757D01*
X210787000Y-103241040D01*
X210955400Y-103241040D01*
X210955400Y-103642166D01*
X211128193Y-104059326D01*
X211447474Y-104378607D01*
X211864634Y-104551400D01*
X212316166Y-104551400D01*
X212436600Y-104501515D01*
X212436600Y-104700800D01*
X212294284Y-104700800D01*
X212065308Y-104746346D01*
X212002969Y-104788000D01*
X211503608Y-104788000D01*
X211389209Y-104616791D01*
X211179165Y-104476443D01*
X210931400Y-104427160D01*
X210431400Y-104427160D01*
X210183635Y-104476443D01*
X209973591Y-104616791D01*
X209931400Y-104679934D01*
X209889209Y-104616791D01*
X209679165Y-104476443D01*
X209431400Y-104427160D01*
X208931400Y-104427160D01*
X208683635Y-104476443D01*
X208680800Y-104478337D01*
X208680800Y-104310350D01*
X208522050Y-104151600D01*
X207797800Y-104151600D01*
X207797800Y-104171600D01*
X207543800Y-104171600D01*
X207543800Y-104151600D01*
X206819550Y-104151600D01*
X206660800Y-104310350D01*
X206660800Y-104550909D01*
X206737964Y-104737200D01*
X205073249Y-104737200D01*
X205073249Y-104492431D01*
X205023966Y-104244666D01*
X204883618Y-104034622D01*
X204673574Y-103894274D01*
X204425809Y-103844991D01*
X202426829Y-103844991D01*
X202179064Y-103894274D01*
X201969020Y-104034622D01*
X201828672Y-104244666D01*
X201779389Y-104492431D01*
X201779389Y-106491411D01*
X201828672Y-106739176D01*
X201969020Y-106949220D01*
X202117626Y-107048516D01*
X201886664Y-107394175D01*
X201759808Y-108031921D01*
X201886664Y-108669667D01*
X202247918Y-109210322D01*
X202788573Y-109571576D01*
X203265339Y-109666411D01*
X203587299Y-109666411D01*
X204064065Y-109571576D01*
X204604720Y-109210322D01*
X204872908Y-108808950D01*
X206660800Y-108808950D01*
X206660800Y-109049509D01*
X206757473Y-109282898D01*
X206936101Y-109461527D01*
X207169490Y-109558200D01*
X207385050Y-109558200D01*
X207543800Y-109399450D01*
X207543800Y-108650200D01*
X207797800Y-108650200D01*
X207797800Y-109399450D01*
X207956550Y-109558200D01*
X208172110Y-109558200D01*
X208405499Y-109461527D01*
X208584127Y-109282898D01*
X208680800Y-109049509D01*
X208680800Y-108808950D01*
X208522050Y-108650200D01*
X207797800Y-108650200D01*
X207543800Y-108650200D01*
X206819550Y-108650200D01*
X206660800Y-108808950D01*
X204872908Y-108808950D01*
X204965974Y-108669667D01*
X205092830Y-108031921D01*
X205020879Y-107670200D01*
X206697491Y-107670200D01*
X206697643Y-107670965D01*
X206758673Y-107762302D01*
X206757473Y-107763502D01*
X206660800Y-107996891D01*
X206660800Y-108237450D01*
X206819550Y-108396200D01*
X207543800Y-108396200D01*
X207543800Y-108376200D01*
X207797800Y-108376200D01*
X207797800Y-108396200D01*
X208522050Y-108396200D01*
X208680800Y-108237450D01*
X208680800Y-108221863D01*
X208683635Y-108223757D01*
X208931400Y-108273040D01*
X209431400Y-108273040D01*
X209679165Y-108223757D01*
X209889209Y-108083409D01*
X209931400Y-108020266D01*
X209973591Y-108083409D01*
X210183635Y-108223757D01*
X210431400Y-108273040D01*
X210931400Y-108273040D01*
X211179165Y-108223757D01*
X211389209Y-108083409D01*
X211529557Y-107873365D01*
X211578840Y-107625600D01*
X211578840Y-107119870D01*
X211594729Y-107103981D01*
X211632146Y-107292092D01*
X211805647Y-107551753D01*
X212065308Y-107725254D01*
X212294284Y-107770800D01*
X212536600Y-107770800D01*
X212536600Y-108013115D01*
X212582146Y-108242091D01*
X212598937Y-108267221D01*
X212361991Y-108504167D01*
X212196809Y-108902950D01*
X212196809Y-109334590D01*
X212361991Y-109733373D01*
X212667206Y-110038588D01*
X213065989Y-110203770D01*
X213497629Y-110203770D01*
X213896412Y-110038588D01*
X214201627Y-109733373D01*
X214311890Y-109467176D01*
X214311890Y-109470394D01*
X214477072Y-109869177D01*
X214782287Y-110174392D01*
X215181070Y-110339574D01*
X215612710Y-110339574D01*
X216011493Y-110174392D01*
X216316708Y-109869177D01*
X216481890Y-109470394D01*
X216481890Y-109456598D01*
X216693390Y-109544205D01*
X217125030Y-109544205D01*
X217523813Y-109379023D01*
X217829028Y-109073808D01*
X217994210Y-108675025D01*
X217994210Y-108243385D01*
X217829028Y-107844602D01*
X217645810Y-107661384D01*
X217645810Y-107266350D01*
X217660239Y-107193809D01*
X217645810Y-107121267D01*
X217645810Y-107121266D01*
X217603071Y-106906403D01*
X217494189Y-106743450D01*
X218860400Y-106743450D01*
X218860400Y-107493350D01*
X219147374Y-108186167D01*
X219677633Y-108716426D01*
X220370450Y-109003400D01*
X221120350Y-109003400D01*
X221813167Y-108716426D01*
X222343426Y-108186167D01*
X222630400Y-107493350D01*
X222630400Y-106743450D01*
X222343426Y-106050633D01*
X221813167Y-105520374D01*
X221120350Y-105233400D01*
X220370450Y-105233400D01*
X219677633Y-105520374D01*
X219147374Y-106050633D01*
X218860400Y-106743450D01*
X217494189Y-106743450D01*
X217440268Y-106662752D01*
X217378768Y-106621659D01*
X217337808Y-106580699D01*
X217330988Y-106576142D01*
X217272111Y-106517265D01*
X217231105Y-106455895D01*
X216987983Y-106293446D01*
X216773588Y-106250800D01*
X216773584Y-106250800D01*
X216701200Y-106236402D01*
X216628816Y-106250800D01*
X216525235Y-106250800D01*
X216523279Y-106240967D01*
X216526150Y-106220800D01*
X216693016Y-106220800D01*
X216765400Y-106235198D01*
X216837784Y-106220800D01*
X216837788Y-106220800D01*
X217052183Y-106178154D01*
X217295305Y-106015705D01*
X217320338Y-105978240D01*
X217620400Y-105978240D01*
X217868165Y-105928957D01*
X218078209Y-105788609D01*
X218218557Y-105578565D01*
X218267840Y-105330800D01*
X218267840Y-104830800D01*
X218218557Y-104583035D01*
X218078209Y-104372991D01*
X218015066Y-104330800D01*
X218078209Y-104288609D01*
X218218557Y-104078565D01*
X218264928Y-103845439D01*
X218269595Y-103848557D01*
X218517360Y-103897840D01*
X220517360Y-103897840D01*
X220765125Y-103848557D01*
X220975169Y-103708209D01*
X221115517Y-103498165D01*
X221164800Y-103250400D01*
X221164800Y-102686150D01*
X221882360Y-102686150D01*
X221882360Y-103376710D01*
X221979033Y-103610099D01*
X222157662Y-103788727D01*
X222391051Y-103885400D01*
X223231610Y-103885400D01*
X223390360Y-103726650D01*
X223390360Y-102527400D01*
X223644360Y-102527400D01*
X223644360Y-103726650D01*
X223803110Y-103885400D01*
X224643669Y-103885400D01*
X224877058Y-103788727D01*
X225055687Y-103610099D01*
X225152360Y-103376710D01*
X225152360Y-102686150D01*
X224993610Y-102527400D01*
X223644360Y-102527400D01*
X223390360Y-102527400D01*
X222041110Y-102527400D01*
X221882360Y-102686150D01*
X221164800Y-102686150D01*
X221164800Y-101550400D01*
X221147221Y-101462025D01*
X221267750Y-101486000D01*
X221267753Y-101486000D01*
X221340294Y-101500429D01*
X221412834Y-101486000D01*
X221882360Y-101486000D01*
X221882360Y-102114650D01*
X222041110Y-102273400D01*
X223390360Y-102273400D01*
X223390360Y-102253400D01*
X223644360Y-102253400D01*
X223644360Y-102273400D01*
X224993610Y-102273400D01*
X225152360Y-102114650D01*
X225152360Y-101486000D01*
X228447691Y-101486000D01*
X228891850Y-101930160D01*
X228932942Y-101991658D01*
X228994439Y-102032749D01*
X228994441Y-102032751D01*
X229091598Y-102097669D01*
X229176593Y-102154461D01*
X229391456Y-102197200D01*
X229391459Y-102197200D01*
X229464000Y-102211629D01*
X229536540Y-102197200D01*
X233959491Y-102197200D01*
X235572050Y-103809760D01*
X235613142Y-103871258D01*
X235674639Y-103912349D01*
X235674641Y-103912351D01*
X235776198Y-103980209D01*
X235856793Y-104034061D01*
X236071656Y-104076800D01*
X236071659Y-104076800D01*
X236144200Y-104091229D01*
X236216740Y-104076800D01*
X237337691Y-104076800D01*
X238493049Y-105232158D01*
X238534142Y-105293658D01*
X238777793Y-105456461D01*
X238992656Y-105499200D01*
X238992660Y-105499200D01*
X239065199Y-105513629D01*
X239137738Y-105499200D01*
X242726460Y-105499200D01*
X242799000Y-105513629D01*
X242871540Y-105499200D01*
X242871544Y-105499200D01*
X243086407Y-105456461D01*
X243330058Y-105293658D01*
X243371151Y-105232158D01*
X244628109Y-103975200D01*
X248539091Y-103975200D01*
X248742601Y-104178711D01*
X248742600Y-129147313D01*
X248728171Y-129219853D01*
X248742600Y-129292393D01*
X248742600Y-129292396D01*
X248771481Y-129437588D01*
X248785339Y-129507259D01*
X248890176Y-129664158D01*
X248948142Y-129750911D01*
X249009642Y-129792004D01*
X249416083Y-130198445D01*
X249416082Y-133908408D01*
X248022027Y-135302464D01*
X246552678Y-135302464D01*
X246480138Y-135288035D01*
X246407598Y-135302464D01*
X246407594Y-135302464D01*
X246192731Y-135345203D01*
X246042178Y-135445800D01*
X243977821Y-135445800D01*
X243794603Y-135262582D01*
X243395820Y-135097400D01*
X242964180Y-135097400D01*
X242565397Y-135262582D01*
X242375090Y-135452889D01*
X242365001Y-135442800D01*
X242323908Y-135381300D01*
X242080257Y-135218497D01*
X241865394Y-135175758D01*
X241865390Y-135175758D01*
X241792850Y-135161329D01*
X241720310Y-135175758D01*
X227910940Y-135175758D01*
X227838400Y-135161329D01*
X227765859Y-135175758D01*
X227765856Y-135175758D01*
X227550993Y-135218497D01*
X227368841Y-135340207D01*
X227368839Y-135340209D01*
X227307342Y-135381300D01*
X227266250Y-135442798D01*
X226725839Y-135983210D01*
X226664342Y-136024301D01*
X226623251Y-136085798D01*
X226623248Y-136085801D01*
X226569911Y-136165626D01*
X226500200Y-136151760D01*
X226000200Y-136151760D01*
X225752435Y-136201043D01*
X225542391Y-136341391D01*
X225427992Y-136512600D01*
X220515927Y-136512600D01*
X217856200Y-133852873D01*
X217856200Y-133003740D01*
X217870629Y-132931200D01*
X217856200Y-132858659D01*
X217856200Y-132858656D01*
X217813461Y-132643793D01*
X217792600Y-132612573D01*
X217691751Y-132461641D01*
X217691749Y-132461639D01*
X217650658Y-132400142D01*
X217589160Y-132359050D01*
X216973560Y-131743450D01*
X218860400Y-131743450D01*
X218860400Y-132493350D01*
X219147374Y-133186167D01*
X219677633Y-133716426D01*
X220370450Y-134003400D01*
X221120350Y-134003400D01*
X221813167Y-133716426D01*
X222343426Y-133186167D01*
X222630400Y-132493350D01*
X222630400Y-131743450D01*
X222343426Y-131050633D01*
X221813167Y-130520374D01*
X221120350Y-130233400D01*
X220370450Y-130233400D01*
X219677633Y-130520374D01*
X219147374Y-131050633D01*
X218860400Y-131743450D01*
X216973560Y-131743450D01*
X215949351Y-130719242D01*
X215908258Y-130657742D01*
X215664607Y-130494939D01*
X215449744Y-130452200D01*
X215449740Y-130452200D01*
X215377200Y-130437771D01*
X215304660Y-130452200D01*
X214538042Y-130452200D01*
X214457019Y-130330941D01*
X214323609Y-130241799D01*
X214358909Y-130227177D01*
X214537537Y-130048548D01*
X214634210Y-129815159D01*
X214634210Y-129574550D01*
X214475460Y-129415800D01*
X213726160Y-129415800D01*
X213726160Y-129435800D01*
X213472160Y-129435800D01*
X213472160Y-129415800D01*
X212722860Y-129415800D01*
X212578075Y-129560585D01*
X212489180Y-129427546D01*
X212489180Y-128762441D01*
X212564110Y-128762441D01*
X212564110Y-129003050D01*
X212722860Y-129161800D01*
X213472160Y-129161800D01*
X213472160Y-128412500D01*
X213726160Y-128412500D01*
X213726160Y-129161800D01*
X214475460Y-129161800D01*
X214634210Y-129003050D01*
X214634210Y-128762441D01*
X214537537Y-128529052D01*
X214358909Y-128350423D01*
X214125520Y-128253750D01*
X213884910Y-128253750D01*
X213726160Y-128412500D01*
X213472160Y-128412500D01*
X213313410Y-128253750D01*
X213072800Y-128253750D01*
X212839411Y-128350423D01*
X212660783Y-128529052D01*
X212564110Y-128762441D01*
X212489180Y-128762441D01*
X212489180Y-127437055D01*
X212675436Y-127250800D01*
X213071636Y-127250800D01*
X213431873Y-127179144D01*
X213840385Y-126906185D01*
X214113344Y-126497673D01*
X214209195Y-126015800D01*
X214113344Y-125533927D01*
X213868131Y-125166940D01*
X214007809Y-125073609D01*
X214148157Y-124863565D01*
X214197440Y-124615800D01*
X214197440Y-123415800D01*
X214148157Y-123168035D01*
X214007809Y-122957991D01*
X213797765Y-122817643D01*
X213550000Y-122768360D01*
X212686201Y-122768360D01*
X212587441Y-122669600D01*
X215050845Y-122669600D01*
X215138400Y-122687016D01*
X215225955Y-122669600D01*
X215225956Y-122669600D01*
X215485270Y-122618019D01*
X215779333Y-122421533D01*
X215828931Y-122347304D01*
X217610107Y-120566129D01*
X217684333Y-120516533D01*
X217880819Y-120222470D01*
X217932400Y-119963156D01*
X217932400Y-119963155D01*
X217949816Y-119875600D01*
X217932400Y-119788045D01*
X217932400Y-118852376D01*
X218570925Y-118852376D01*
X218572290Y-120416441D01*
X218739851Y-121971505D01*
X219071711Y-123499958D01*
X219564111Y-124984493D01*
X220211476Y-126408297D01*
X221006475Y-127755248D01*
X221940105Y-129010093D01*
X223001794Y-130158622D01*
X224179519Y-131187828D01*
X225459943Y-132086057D01*
X226828567Y-132843137D01*
X228269892Y-133450494D01*
X229767596Y-133901252D01*
X231304720Y-134190306D01*
X232863856Y-134314381D01*
X234427349Y-134272075D01*
X235977494Y-134063864D01*
X237496737Y-133692108D01*
X238967873Y-133161015D01*
X240374244Y-132476601D01*
X241545256Y-131743450D01*
X243860400Y-131743450D01*
X243860400Y-132493350D01*
X244147374Y-133186167D01*
X244677633Y-133716426D01*
X245370450Y-134003400D01*
X246120350Y-134003400D01*
X246813167Y-133716426D01*
X247343426Y-133186167D01*
X247630400Y-132493350D01*
X247630400Y-131743450D01*
X247343426Y-131050633D01*
X246813167Y-130520374D01*
X246120350Y-130233400D01*
X245370450Y-130233400D01*
X244677633Y-130520374D01*
X244147374Y-131050633D01*
X243860400Y-131743450D01*
X241545256Y-131743450D01*
X241699923Y-131646616D01*
X242929898Y-130680457D01*
X244050241Y-129589067D01*
X245048265Y-128384805D01*
X245912669Y-127081306D01*
X246633663Y-125693334D01*
X247203083Y-124236604D01*
X247614481Y-122727613D01*
X247863198Y-121183450D01*
X247946418Y-119621600D01*
X247946396Y-119595947D01*
X247860450Y-118034245D01*
X247609038Y-116490518D01*
X247195007Y-114982248D01*
X246623045Y-113526514D01*
X245899630Y-112139802D01*
X245032952Y-110837814D01*
X244032828Y-109635295D01*
X242910582Y-108545862D01*
X241678922Y-107581852D01*
X240351797Y-106754182D01*
X240329647Y-106743450D01*
X243860400Y-106743450D01*
X243860400Y-107493350D01*
X244147374Y-108186167D01*
X244677633Y-108716426D01*
X245370450Y-109003400D01*
X246120350Y-109003400D01*
X246813167Y-108716426D01*
X247343426Y-108186167D01*
X247630400Y-107493350D01*
X247630400Y-106743450D01*
X247343426Y-106050633D01*
X246813167Y-105520374D01*
X246120350Y-105233400D01*
X245370450Y-105233400D01*
X244677633Y-105520374D01*
X244147374Y-106050633D01*
X243860400Y-106743450D01*
X240329647Y-106743450D01*
X238944234Y-106072223D01*
X237472173Y-105543699D01*
X235952283Y-105174595D01*
X234401778Y-104969090D01*
X232838213Y-104929512D01*
X231279295Y-105056309D01*
X229742679Y-105348045D01*
X228245763Y-105801416D01*
X226805501Y-106411289D01*
X225438200Y-107170756D01*
X224159346Y-108071218D01*
X222983419Y-109102478D01*
X221923737Y-110252858D01*
X220992298Y-111509331D01*
X220199651Y-112857667D01*
X219554772Y-114282600D01*
X219064963Y-115767991D01*
X218735772Y-117297022D01*
X218570925Y-118852376D01*
X217932400Y-118852376D01*
X217932400Y-118737533D01*
X218005607Y-118664326D01*
X218178400Y-118247166D01*
X218178400Y-117795634D01*
X218005607Y-117378474D01*
X217686326Y-117059193D01*
X217564322Y-117008657D01*
X217664010Y-116767991D01*
X217664010Y-116336351D01*
X217498828Y-115937568D01*
X217270003Y-115708743D01*
X217443209Y-115593009D01*
X217583557Y-115382965D01*
X217632840Y-115135200D01*
X217632840Y-114635200D01*
X217583557Y-114387435D01*
X217443209Y-114177391D01*
X217380066Y-114135200D01*
X217443209Y-114093009D01*
X217583557Y-113882965D01*
X217632840Y-113635200D01*
X217632840Y-113135200D01*
X217583557Y-112887435D01*
X217443209Y-112677391D01*
X217233165Y-112537043D01*
X217097834Y-112510124D01*
X217113000Y-112473510D01*
X217113000Y-112007950D01*
X216954250Y-111849200D01*
X215855000Y-111849200D01*
X215855000Y-111869200D01*
X215601000Y-111869200D01*
X215601000Y-111849200D01*
X215581000Y-111849200D01*
X215581000Y-111595200D01*
X215601000Y-111595200D01*
X215601000Y-110620950D01*
X215855000Y-110620950D01*
X215855000Y-111595200D01*
X216954250Y-111595200D01*
X217113000Y-111436450D01*
X217113000Y-110970890D01*
X217016327Y-110737501D01*
X216837698Y-110558873D01*
X216604309Y-110462200D01*
X216013750Y-110462200D01*
X215855000Y-110620950D01*
X215601000Y-110620950D01*
X215442250Y-110462200D01*
X214851691Y-110462200D01*
X214618302Y-110558873D01*
X214476654Y-110700520D01*
X214435809Y-110639391D01*
X214225765Y-110499043D01*
X213978000Y-110449760D01*
X212478000Y-110449760D01*
X212230235Y-110499043D01*
X212145200Y-110555862D01*
X212060165Y-110499043D01*
X211812400Y-110449760D01*
X210812400Y-110449760D01*
X210564635Y-110499043D01*
X210354591Y-110639391D01*
X210313746Y-110700520D01*
X210172098Y-110558873D01*
X209938709Y-110462200D01*
X209598150Y-110462200D01*
X209439400Y-110620950D01*
X209439400Y-111595200D01*
X209459400Y-111595200D01*
X209459400Y-111849200D01*
X209439400Y-111849200D01*
X209439400Y-112823450D01*
X209598150Y-112982200D01*
X209938709Y-112982200D01*
X210172098Y-112885527D01*
X210313746Y-112743880D01*
X210354591Y-112805009D01*
X210564635Y-112945357D01*
X210812400Y-112994640D01*
X211694585Y-112994640D01*
X211693348Y-112996491D01*
X211642000Y-113254636D01*
X211642000Y-113254639D01*
X211624663Y-113341800D01*
X211642000Y-113428961D01*
X211642001Y-113855473D01*
X211568600Y-113840873D01*
X211493557Y-113855800D01*
X211334236Y-113855800D01*
X211236809Y-113709991D01*
X211026765Y-113569643D01*
X210779000Y-113520360D01*
X210279000Y-113520360D01*
X210031235Y-113569643D01*
X209821191Y-113709991D01*
X209779000Y-113773134D01*
X209736809Y-113709991D01*
X209526765Y-113569643D01*
X209279000Y-113520360D01*
X208779000Y-113520360D01*
X208655400Y-113544945D01*
X208655400Y-113391550D01*
X208496650Y-113232800D01*
X207772400Y-113232800D01*
X207772400Y-113252800D01*
X207518400Y-113252800D01*
X207518400Y-113232800D01*
X206794150Y-113232800D01*
X206635400Y-113391550D01*
X206635400Y-113632109D01*
X206639177Y-113641227D01*
X205577441Y-112579491D01*
X206635400Y-112579491D01*
X206635400Y-112820050D01*
X206794150Y-112978800D01*
X207518400Y-112978800D01*
X207518400Y-112229550D01*
X207772400Y-112229550D01*
X207772400Y-112978800D01*
X208496650Y-112978800D01*
X208549732Y-112925718D01*
X208686091Y-112982200D01*
X209026650Y-112982200D01*
X209185400Y-112823450D01*
X209185400Y-111849200D01*
X208336150Y-111849200D01*
X208177400Y-112007950D01*
X208177400Y-112083512D01*
X208146710Y-112070800D01*
X207931150Y-112070800D01*
X207772400Y-112229550D01*
X207518400Y-112229550D01*
X207359650Y-112070800D01*
X207144090Y-112070800D01*
X206910701Y-112167473D01*
X206732073Y-112346102D01*
X206635400Y-112579491D01*
X205577441Y-112579491D01*
X205073249Y-112075300D01*
X205073249Y-110970890D01*
X208177400Y-110970890D01*
X208177400Y-111436450D01*
X208336150Y-111595200D01*
X209185400Y-111595200D01*
X209185400Y-110620950D01*
X209026650Y-110462200D01*
X208686091Y-110462200D01*
X208452702Y-110558873D01*
X208274073Y-110737501D01*
X208177400Y-110970890D01*
X205073249Y-110970890D01*
X205073249Y-110542431D01*
X205023966Y-110294666D01*
X204883618Y-110084622D01*
X204673574Y-109944274D01*
X204425809Y-109894991D01*
X202426829Y-109894991D01*
X202179064Y-109944274D01*
X201969020Y-110084622D01*
X201828672Y-110294666D01*
X201779389Y-110542431D01*
X201779389Y-112541411D01*
X201828672Y-112789176D01*
X201969020Y-112999220D01*
X202117626Y-113098516D01*
X201886664Y-113444175D01*
X201759808Y-114081921D01*
X201886664Y-114719667D01*
X202247918Y-115260322D01*
X202788573Y-115621576D01*
X203265339Y-115716411D01*
X203587299Y-115716411D01*
X203887536Y-115656690D01*
X204683384Y-116452538D01*
X204727314Y-116518284D01*
X204987770Y-116692315D01*
X205217446Y-116738000D01*
X205294997Y-116753426D01*
X205372548Y-116738000D01*
X206669704Y-116738000D01*
X206672243Y-116750765D01*
X206733273Y-116842102D01*
X206732073Y-116843302D01*
X206635400Y-117076691D01*
X206635400Y-117317250D01*
X206794150Y-117476000D01*
X207518400Y-117476000D01*
X207518400Y-117456000D01*
X207772400Y-117456000D01*
X207772400Y-117476000D01*
X208496650Y-117476000D01*
X208613858Y-117358792D01*
X208779000Y-117391640D01*
X209279000Y-117391640D01*
X209526765Y-117342357D01*
X209736809Y-117202009D01*
X209779000Y-117138866D01*
X209821191Y-117202009D01*
X210031235Y-117342357D01*
X210279000Y-117391640D01*
X210779000Y-117391640D01*
X211026765Y-117342357D01*
X211236809Y-117202009D01*
X211285928Y-117128497D01*
X211354108Y-117174054D01*
X211583084Y-117219600D01*
X211825400Y-117219600D01*
X211825400Y-117461915D01*
X211870946Y-117690891D01*
X212014863Y-117906278D01*
X211919800Y-118135780D01*
X211919800Y-118567420D01*
X212084982Y-118966203D01*
X212390197Y-119271418D01*
X212788980Y-119436600D01*
X213220620Y-119436600D01*
X213619403Y-119271418D01*
X213924618Y-118966203D01*
X214038761Y-118690640D01*
X214142382Y-118940803D01*
X214447597Y-119246018D01*
X214846380Y-119411200D01*
X215278020Y-119411200D01*
X215676803Y-119246018D01*
X215982018Y-118940803D01*
X216092044Y-118675177D01*
X216154401Y-118737534D01*
X216154400Y-119507364D01*
X214770165Y-120891600D01*
X212534836Y-120891600D01*
X210393331Y-118750096D01*
X210343733Y-118675867D01*
X210049670Y-118479381D01*
X209790356Y-118427800D01*
X209790355Y-118427800D01*
X209702800Y-118410384D01*
X209615245Y-118427800D01*
X208493625Y-118427800D01*
X208558727Y-118362698D01*
X208655400Y-118129309D01*
X208655400Y-117888750D01*
X208496650Y-117730000D01*
X207772400Y-117730000D01*
X207772400Y-117750000D01*
X207518400Y-117750000D01*
X207518400Y-117730000D01*
X206794150Y-117730000D01*
X206635400Y-117888750D01*
X206635400Y-118129309D01*
X206732073Y-118362698D01*
X206797175Y-118427800D01*
X206007036Y-118427800D01*
X205402200Y-117822965D01*
X205402200Y-117719434D01*
X205229407Y-117302274D01*
X204910126Y-116982993D01*
X204492966Y-116810200D01*
X204041434Y-116810200D01*
X203624274Y-116982993D01*
X203304993Y-117302274D01*
X203132200Y-117719434D01*
X203132200Y-118170966D01*
X203304993Y-118588126D01*
X203624274Y-118907407D01*
X204041434Y-119080200D01*
X204144965Y-119080200D01*
X204464008Y-119399243D01*
X204394725Y-119352950D01*
X203957598Y-119266000D01*
X203357602Y-119266000D01*
X202920475Y-119352950D01*
X202424770Y-119684170D01*
X202093550Y-120179875D01*
X201977241Y-120764600D01*
X202093550Y-121349325D01*
X202424770Y-121845030D01*
X202714332Y-122038510D01*
X202306868Y-122402564D01*
X202052891Y-122929809D01*
X202050242Y-122945574D01*
X202171383Y-123177600D01*
X203530600Y-123177600D01*
X203530600Y-123157600D01*
X203784600Y-123157600D01*
X203784600Y-123177600D01*
X205143817Y-123177600D01*
X205264958Y-122945574D01*
X205262309Y-122929809D01*
X205008332Y-122402564D01*
X204600868Y-122038510D01*
X204890430Y-121845030D01*
X204933481Y-121780600D01*
X208824760Y-121780600D01*
X211202560Y-124158401D01*
X211202560Y-124615800D01*
X211251843Y-124863565D01*
X211392191Y-125073609D01*
X211531869Y-125166940D01*
X211286656Y-125533927D01*
X211190805Y-126015800D01*
X211224843Y-126186921D01*
X211033474Y-126378291D01*
X210959248Y-126427887D01*
X210909652Y-126502113D01*
X210909651Y-126502114D01*
X210762762Y-126721950D01*
X210693764Y-127068820D01*
X210711181Y-127156379D01*
X210711180Y-129427546D01*
X210601973Y-129590985D01*
X210552690Y-129838750D01*
X210552690Y-130638850D01*
X210601973Y-130886615D01*
X210742321Y-131096659D01*
X210952365Y-131237007D01*
X211200130Y-131286290D01*
X212000230Y-131286290D01*
X212247995Y-131237007D01*
X212458039Y-131096659D01*
X212551670Y-130956531D01*
X212551670Y-131588850D01*
X212600953Y-131836615D01*
X212741301Y-132046659D01*
X212951345Y-132187007D01*
X213199110Y-132236290D01*
X213999210Y-132236290D01*
X214246975Y-132187007D01*
X214457019Y-132046659D01*
X214538042Y-131925400D01*
X215072091Y-131925400D01*
X216383001Y-133236311D01*
X216383000Y-134085441D01*
X216368571Y-134157982D01*
X216383000Y-134230522D01*
X216383000Y-134230525D01*
X216425739Y-134445388D01*
X216588542Y-134689040D01*
X216650042Y-134730133D01*
X217121909Y-135202000D01*
X214563442Y-135202000D01*
X214482419Y-135080741D01*
X214349009Y-134991599D01*
X214384309Y-134976977D01*
X214562937Y-134798348D01*
X214659610Y-134564959D01*
X214659610Y-134324350D01*
X214500860Y-134165600D01*
X213751560Y-134165600D01*
X213751560Y-134185600D01*
X213497560Y-134185600D01*
X213497560Y-134165600D01*
X212748260Y-134165600D01*
X212603475Y-134310385D01*
X212483439Y-134130741D01*
X212481031Y-134129132D01*
X212462999Y-134038480D01*
X212266513Y-133744417D01*
X212192287Y-133694821D01*
X212009707Y-133512241D01*
X212589510Y-133512241D01*
X212589510Y-133752850D01*
X212748260Y-133911600D01*
X213497560Y-133911600D01*
X213497560Y-133162300D01*
X213751560Y-133162300D01*
X213751560Y-133911600D01*
X214500860Y-133911600D01*
X214659610Y-133752850D01*
X214659610Y-133512241D01*
X214562937Y-133278852D01*
X214384309Y-133100223D01*
X214150920Y-133003550D01*
X213910310Y-133003550D01*
X213751560Y-133162300D01*
X213497560Y-133162300D01*
X213338810Y-133003550D01*
X213098200Y-133003550D01*
X212864811Y-133100223D01*
X212686183Y-133278852D01*
X212589510Y-133512241D01*
X212009707Y-133512241D01*
X209363361Y-130865896D01*
X209313763Y-130791667D01*
X209019700Y-130595181D01*
X208760386Y-130543600D01*
X208760385Y-130543600D01*
X208672830Y-130526184D01*
X208585275Y-130543600D01*
X207614860Y-130543600D01*
X207311705Y-130089895D01*
X206765588Y-129724992D01*
X206284009Y-129629200D01*
X205958791Y-129629200D01*
X205477212Y-129724992D01*
X205147863Y-129945056D01*
X205055209Y-129806391D01*
X204845165Y-129666043D01*
X204673600Y-129631917D01*
X204673600Y-127355640D01*
X204921365Y-127306357D01*
X205131409Y-127166009D01*
X205271757Y-126955965D01*
X205321040Y-126708200D01*
X205321040Y-124981000D01*
X205271757Y-124733235D01*
X205131409Y-124523191D01*
X204921365Y-124382843D01*
X204831190Y-124364906D01*
X205008332Y-124206636D01*
X205262309Y-123679391D01*
X205264958Y-123663626D01*
X205143817Y-123431600D01*
X203784600Y-123431600D01*
X203784600Y-123451600D01*
X203530600Y-123451600D01*
X203530600Y-123431600D01*
X202171383Y-123431600D01*
X202050242Y-123663626D01*
X202052891Y-123679391D01*
X202306868Y-124206636D01*
X202484010Y-124364906D01*
X202393835Y-124382843D01*
X202183791Y-124523191D01*
X202043443Y-124733235D01*
X201994160Y-124981000D01*
X201994160Y-126708200D01*
X202043443Y-126955965D01*
X202183791Y-127166009D01*
X202393835Y-127306357D01*
X202641600Y-127355640D01*
X202641601Y-129616760D01*
X202565400Y-129616760D01*
X202317635Y-129666043D01*
X202107591Y-129806391D01*
X201967243Y-130016435D01*
X201917960Y-130264200D01*
X201917960Y-132296200D01*
X201967243Y-132543965D01*
X202107591Y-132754009D01*
X202317635Y-132894357D01*
X202565400Y-132943640D01*
X202590800Y-132943640D01*
X202590801Y-133172760D01*
X202565400Y-133172760D01*
X202317635Y-133222043D01*
X202107591Y-133362391D01*
X201967243Y-133572435D01*
X201917960Y-133820200D01*
X201917960Y-135852200D01*
X201967243Y-136099965D01*
X202107591Y-136310009D01*
X202317635Y-136450357D01*
X202565400Y-136499640D01*
X202590800Y-136499640D01*
X202590801Y-136728760D01*
X202565400Y-136728760D01*
X202317635Y-136778043D01*
X202107591Y-136918391D01*
X201967243Y-137128435D01*
X201917960Y-137376200D01*
X201917960Y-139408200D01*
X201967243Y-139655965D01*
X202107591Y-139866009D01*
X202317635Y-140006357D01*
X202565400Y-140055640D01*
X204597400Y-140055640D01*
X204845165Y-140006357D01*
X205055209Y-139866009D01*
X205147863Y-139727344D01*
X205477212Y-139947408D01*
X205958791Y-140043200D01*
X206284009Y-140043200D01*
X206561557Y-139987992D01*
X208636000Y-142062436D01*
X208636000Y-142246926D01*
X208526793Y-142410365D01*
X208477510Y-142658130D01*
X208477510Y-143458230D01*
X208526793Y-143705995D01*
X208667141Y-143916039D01*
X208807269Y-144009670D01*
X208174950Y-144009670D01*
X207927185Y-144058953D01*
X207717141Y-144199301D01*
X207576793Y-144409345D01*
X207527510Y-144657110D01*
X207527510Y-145457210D01*
X207576793Y-145704975D01*
X207717141Y-145915019D01*
X207927185Y-146055367D01*
X208174950Y-146104650D01*
X208975050Y-146104650D01*
X209222815Y-146055367D01*
X209432859Y-145915019D01*
X209522001Y-145781609D01*
X209536623Y-145816909D01*
X209715252Y-145995537D01*
X209948641Y-146092210D01*
X210189250Y-146092210D01*
X210348000Y-145933460D01*
X210348000Y-145184160D01*
X210602000Y-145184160D01*
X210602000Y-145933460D01*
X210760750Y-146092210D01*
X211001359Y-146092210D01*
X211234748Y-145995537D01*
X211413377Y-145816909D01*
X211510050Y-145583520D01*
X211510050Y-145342910D01*
X211351300Y-145184160D01*
X210602000Y-145184160D01*
X210348000Y-145184160D01*
X210328000Y-145184160D01*
X210328000Y-144949119D01*
X210346959Y-144930160D01*
X210348000Y-144930160D01*
X210348000Y-144929119D01*
X210366959Y-144910160D01*
X210602000Y-144910160D01*
X210602000Y-144930160D01*
X211351300Y-144930160D01*
X211510050Y-144771410D01*
X211510050Y-144530800D01*
X211413377Y-144297411D01*
X211234748Y-144118783D01*
X211180717Y-144096403D01*
X213081321Y-142195799D01*
X219855560Y-142195799D01*
X219855560Y-142824000D01*
X219904843Y-143071765D01*
X220045191Y-143281809D01*
X220091400Y-143312685D01*
X220091401Y-144109401D01*
X219780332Y-144317251D01*
X219775157Y-144291235D01*
X219634809Y-144081191D01*
X219424765Y-143940843D01*
X219177000Y-143891560D01*
X217449800Y-143891560D01*
X217202035Y-143940843D01*
X216991991Y-144081191D01*
X216851643Y-144291235D01*
X216802360Y-144539000D01*
X216802360Y-146571000D01*
X216851643Y-146818765D01*
X216991991Y-147028809D01*
X217202035Y-147169157D01*
X217449800Y-147218440D01*
X218387600Y-147218440D01*
X219149822Y-147980663D01*
X219206505Y-148065495D01*
X219542577Y-148290051D01*
X219838935Y-148349000D01*
X219838936Y-148349000D01*
X219939000Y-148368904D01*
X220039064Y-148349000D01*
X223715249Y-148349000D01*
X223815312Y-148368904D01*
X223915375Y-148349000D01*
X223915377Y-148349000D01*
X224211735Y-148290051D01*
X224547807Y-148065495D01*
X224604491Y-147980661D01*
X225488873Y-147096280D01*
X225514734Y-147079000D01*
X236333379Y-147079000D01*
X236349643Y-147160765D01*
X236489991Y-147370809D01*
X236700035Y-147511157D01*
X236947800Y-147560440D01*
X238147800Y-147560440D01*
X238395565Y-147511157D01*
X238605609Y-147370809D01*
X238698940Y-147231130D01*
X239065928Y-147476344D01*
X239547800Y-147572195D01*
X240029673Y-147476344D01*
X240438185Y-147203385D01*
X240555040Y-147028498D01*
X240718675Y-147244933D01*
X241138424Y-147491286D01*
X241230191Y-147506462D01*
X241420800Y-147381731D01*
X241420800Y-146190000D01*
X241674800Y-146190000D01*
X241674800Y-147381731D01*
X241865409Y-147506462D01*
X241957176Y-147491286D01*
X242376925Y-147244933D01*
X242670447Y-146856701D01*
X242793056Y-146385696D01*
X242630347Y-146190000D01*
X241674800Y-146190000D01*
X241420800Y-146190000D01*
X241400800Y-146190000D01*
X241400800Y-145936000D01*
X241420800Y-145936000D01*
X241420800Y-144744269D01*
X241674800Y-144744269D01*
X241674800Y-145936000D01*
X242630347Y-145936000D01*
X242793056Y-145740304D01*
X242670447Y-145269299D01*
X242376925Y-144881067D01*
X241957176Y-144634714D01*
X241865409Y-144619538D01*
X241674800Y-144744269D01*
X241420800Y-144744269D01*
X241230191Y-144619538D01*
X241138424Y-144634714D01*
X240718675Y-144881067D01*
X240555040Y-145097501D01*
X240438185Y-144922615D01*
X240284400Y-144819859D01*
X240284400Y-143690751D01*
X243512862Y-140462289D01*
X243771973Y-140462289D01*
X244170756Y-140297107D01*
X244475971Y-139991892D01*
X244592973Y-139709426D01*
X244753033Y-139741264D01*
X244753036Y-139741264D01*
X244825576Y-139755693D01*
X244898117Y-139741264D01*
X245612271Y-139741264D01*
X245684811Y-139755693D01*
X245757351Y-139741264D01*
X245757355Y-139741264D01*
X245972218Y-139698525D01*
X246060308Y-139639665D01*
X246350630Y-139639665D01*
X246749413Y-139474483D01*
X246845558Y-139378338D01*
X247022851Y-139496802D01*
X247237714Y-139539541D01*
X247237717Y-139539541D01*
X247310257Y-139553970D01*
X247382798Y-139539541D01*
X247962328Y-139539541D01*
X248034868Y-139553970D01*
X248107408Y-139539541D01*
X248107412Y-139539541D01*
X248322275Y-139496802D01*
X248565926Y-139333999D01*
X248607019Y-139272499D01*
X248896922Y-138982596D01*
X248958422Y-138941503D01*
X249121225Y-138697852D01*
X249163964Y-138482989D01*
X249163964Y-138482986D01*
X249178393Y-138410446D01*
X249163964Y-138337905D01*
X249163964Y-138224662D01*
X249200013Y-138224662D01*
X249712135Y-137712540D01*
X249697993Y-137698398D01*
X249877598Y-137518793D01*
X249891740Y-137532935D01*
X250403862Y-137020813D01*
X250403862Y-136796306D01*
X250233761Y-136626205D01*
X250005234Y-136531547D01*
X250447135Y-136531547D01*
X250508902Y-136623987D01*
X250897811Y-137012896D01*
X251003782Y-137083704D01*
X251074588Y-137189672D01*
X251463497Y-137578581D01*
X251551538Y-137637408D01*
X251559755Y-137657247D01*
X251641468Y-137738960D01*
X251774245Y-137738960D01*
X251850754Y-137754178D01*
X251753720Y-137851212D01*
X251780592Y-137878084D01*
X251774475Y-137884200D01*
X251509348Y-137884200D01*
X251392531Y-137767383D01*
X251182487Y-137627035D01*
X251074747Y-137605604D01*
X251074747Y-137603908D01*
X250978075Y-137370519D01*
X250807974Y-137200418D01*
X250583467Y-137200418D01*
X250071345Y-137712540D01*
X250085488Y-137726683D01*
X249905883Y-137906288D01*
X249891740Y-137892145D01*
X249379618Y-138404267D01*
X249379618Y-138628774D01*
X249549719Y-138798875D01*
X249783108Y-138895547D01*
X249784804Y-138895547D01*
X249806235Y-139003287D01*
X249946583Y-139213331D01*
X250063401Y-139330149D01*
X250063400Y-140716245D01*
X250045984Y-140803800D01*
X250063400Y-140891355D01*
X250114981Y-141150669D01*
X250311467Y-141444733D01*
X250385696Y-141494331D01*
X250720469Y-141829104D01*
X250770067Y-141903333D01*
X250844296Y-141952931D01*
X251429760Y-142538396D01*
X251429760Y-142628600D01*
X251449174Y-142726200D01*
X250704578Y-142726200D01*
X250702357Y-142715035D01*
X250562009Y-142504991D01*
X250351965Y-142364643D01*
X250104200Y-142315360D01*
X248854200Y-142315360D01*
X248606435Y-142364643D01*
X248396391Y-142504991D01*
X248256043Y-142715035D01*
X248206760Y-142962800D01*
X248206760Y-143568531D01*
X248181442Y-143593849D01*
X248119942Y-143634942D01*
X247957139Y-143878593D01*
X247941109Y-143959181D01*
X247887881Y-144012410D01*
X247867557Y-143910235D01*
X247727209Y-143700191D01*
X247588544Y-143607537D01*
X247808608Y-143278188D01*
X247936745Y-142634000D01*
X247808608Y-141989812D01*
X247443705Y-141443695D01*
X246897588Y-141078792D01*
X246416009Y-140983000D01*
X246090791Y-140983000D01*
X245609212Y-141078792D01*
X245063095Y-141443695D01*
X244698192Y-141989812D01*
X244570055Y-142634000D01*
X244698192Y-143278188D01*
X244918256Y-143607537D01*
X244779591Y-143700191D01*
X244639243Y-143910235D01*
X244589960Y-144158000D01*
X244589960Y-146190000D01*
X244639243Y-146437765D01*
X244779591Y-146647809D01*
X244989635Y-146788157D01*
X245237400Y-146837440D01*
X247269400Y-146837440D01*
X247517165Y-146788157D01*
X247727209Y-146647809D01*
X247867557Y-146437765D01*
X247916840Y-146190000D01*
X247916840Y-145895424D01*
X248055407Y-145867861D01*
X248219200Y-145758418D01*
X248219200Y-146089109D01*
X248315873Y-146322498D01*
X248494501Y-146501127D01*
X248727890Y-146597800D01*
X249193450Y-146597800D01*
X249352200Y-146439050D01*
X249352200Y-145589800D01*
X249606200Y-145589800D01*
X249606200Y-146439050D01*
X249764950Y-146597800D01*
X250230510Y-146597800D01*
X250463899Y-146501127D01*
X250642527Y-146322498D01*
X250732551Y-146105159D01*
X259515000Y-146105159D01*
X259515000Y-146894841D01*
X259817199Y-147624412D01*
X260375588Y-148182801D01*
X261105159Y-148485000D01*
X261894841Y-148485000D01*
X262624412Y-148182801D01*
X263182801Y-147624412D01*
X263485000Y-146894841D01*
X263485000Y-146105159D01*
X263182801Y-145375588D01*
X262624412Y-144817199D01*
X261894841Y-144515000D01*
X261105159Y-144515000D01*
X260375588Y-144817199D01*
X259817199Y-145375588D01*
X259515000Y-146105159D01*
X250732551Y-146105159D01*
X250739200Y-146089109D01*
X250739200Y-145748550D01*
X250580450Y-145589800D01*
X249606200Y-145589800D01*
X249352200Y-145589800D01*
X249332200Y-145589800D01*
X249332200Y-145335800D01*
X249352200Y-145335800D01*
X249352200Y-145315800D01*
X249606200Y-145315800D01*
X249606200Y-145335800D01*
X250580450Y-145335800D01*
X250739200Y-145177050D01*
X250739200Y-144836491D01*
X250642527Y-144603102D01*
X250500880Y-144461454D01*
X250562009Y-144420609D01*
X250702357Y-144210565D01*
X250704578Y-144199400D01*
X251443843Y-144199400D01*
X251479043Y-144376365D01*
X251619391Y-144586409D01*
X251829435Y-144726757D01*
X252077200Y-144776040D01*
X252977200Y-144776040D01*
X253224965Y-144726757D01*
X253435009Y-144586409D01*
X253575357Y-144376365D01*
X253624640Y-144128600D01*
X253624640Y-143628600D01*
X253575357Y-143380835D01*
X253435009Y-143170791D01*
X253371866Y-143128600D01*
X253435009Y-143086409D01*
X253575357Y-142876365D01*
X253624640Y-142628600D01*
X253624640Y-142151400D01*
X255003765Y-142151400D01*
X255797671Y-142945306D01*
X255847267Y-143019533D01*
X256141330Y-143216019D01*
X256400644Y-143267600D01*
X256488199Y-143285016D01*
X256575754Y-143267600D01*
X260340445Y-143267600D01*
X260428000Y-143285016D01*
X260515555Y-143267600D01*
X260515556Y-143267600D01*
X260774870Y-143216019D01*
X261068933Y-143019533D01*
X261118531Y-142945304D01*
X264315000Y-139748836D01*
X264315000Y-146960206D01*
X264248395Y-147531494D01*
X264065819Y-148034483D01*
X263772427Y-148481980D01*
X263383961Y-148849977D01*
X262921253Y-149118739D01*
X262400153Y-149276565D01*
X261969495Y-149315000D01*
X203039794Y-149315000D01*
X202468506Y-149248395D01*
X201965517Y-149065819D01*
X201518020Y-148772427D01*
X201150023Y-148383961D01*
X200881261Y-147921253D01*
X200723435Y-147400153D01*
X200685000Y-146969495D01*
X200685000Y-146105159D01*
X201515000Y-146105159D01*
X201515000Y-146894841D01*
X201817199Y-147624412D01*
X202375588Y-148182801D01*
X203105159Y-148485000D01*
X203894841Y-148485000D01*
X204624412Y-148182801D01*
X205182801Y-147624412D01*
X205485000Y-146894841D01*
X205485000Y-146105159D01*
X205182801Y-145375588D01*
X204624412Y-144817199D01*
X203894841Y-144515000D01*
X203105159Y-144515000D01*
X202375588Y-144817199D01*
X201817199Y-145375588D01*
X201515000Y-146105159D01*
X200685000Y-146105159D01*
X200685000Y-103498291D01*
X206660800Y-103498291D01*
X206660800Y-103738850D01*
X206819550Y-103897600D01*
X207543800Y-103897600D01*
X207543800Y-103148350D01*
X207797800Y-103148350D01*
X207797800Y-103897600D01*
X208522050Y-103897600D01*
X208680800Y-103738850D01*
X208680800Y-103498291D01*
X208584127Y-103264902D01*
X208468018Y-103148792D01*
X208660691Y-103228600D01*
X209001250Y-103228600D01*
X209160000Y-103069850D01*
X209160000Y-102095600D01*
X208310750Y-102095600D01*
X208152000Y-102254350D01*
X208152000Y-102719910D01*
X208248673Y-102953299D01*
X208364782Y-103069408D01*
X208172110Y-102989600D01*
X207956550Y-102989600D01*
X207797800Y-103148350D01*
X207543800Y-103148350D01*
X207385050Y-102989600D01*
X207169490Y-102989600D01*
X206936101Y-103086273D01*
X206757473Y-103264902D01*
X206660800Y-103498291D01*
X200685000Y-103498291D01*
X200685000Y-101217290D01*
X208152000Y-101217290D01*
X208152000Y-101682850D01*
X208310750Y-101841600D01*
X209160000Y-101841600D01*
X209160000Y-100867350D01*
X209001250Y-100708600D01*
X208660691Y-100708600D01*
X208427302Y-100805273D01*
X208248673Y-100983901D01*
X208152000Y-101217290D01*
X200685000Y-101217290D01*
X200685000Y-97105159D01*
X201515000Y-97105159D01*
X201515000Y-97894841D01*
X201817199Y-98624412D01*
X202375588Y-99182801D01*
X203105159Y-99485000D01*
X203894841Y-99485000D01*
X204624412Y-99182801D01*
X205182801Y-98624412D01*
X205485000Y-97894841D01*
X205485000Y-97105159D01*
X205182801Y-96375588D01*
X204624412Y-95817199D01*
X203894841Y-95515000D01*
X203105159Y-95515000D01*
X202375588Y-95817199D01*
X201817199Y-96375588D01*
X201515000Y-97105159D01*
X200685000Y-97105159D01*
X200685000Y-97039793D01*
X200751605Y-96468506D01*
X200934182Y-95965515D01*
X201227572Y-95518021D01*
X201616039Y-95150023D01*
X202078745Y-94881262D01*
X202599847Y-94723435D01*
X203030505Y-94685000D01*
X216495553Y-94685000D01*
X216385897Y-94794656D01*
G36*
X223520400Y-145428000D02*
X223540400Y-145428000D01*
X223540400Y-145682000D01*
X223520400Y-145682000D01*
X223520400Y-145702000D01*
X223266400Y-145702000D01*
X223266400Y-145682000D01*
X223246400Y-145682000D01*
X223246400Y-145428000D01*
X223266400Y-145428000D01*
X223266400Y-145408000D01*
X223520400Y-145408000D01*
X223520400Y-145428000D01*
X223520400Y-145428000D01*
G37*
X223520400Y-145428000D02*
X223540400Y-145428000D01*
X223540400Y-145682000D01*
X223520400Y-145682000D01*
X223520400Y-145702000D01*
X223266400Y-145702000D01*
X223266400Y-145682000D01*
X223246400Y-145682000D01*
X223246400Y-145428000D01*
X223266400Y-145428000D01*
X223266400Y-145408000D01*
X223520400Y-145408000D01*
X223520400Y-145428000D01*
G36*
X210578090Y-138252696D02*
X210578090Y-139046250D01*
X210627373Y-139294015D01*
X210767721Y-139504059D01*
X210977765Y-139644407D01*
X211225530Y-139693690D01*
X212025630Y-139693690D01*
X212273395Y-139644407D01*
X212483439Y-139504059D01*
X212577070Y-139363931D01*
X212577070Y-139996250D01*
X212626353Y-140244015D01*
X212766701Y-140454059D01*
X212976745Y-140594407D01*
X213224510Y-140643690D01*
X214024610Y-140643690D01*
X214272375Y-140594407D01*
X214482419Y-140454059D01*
X214622767Y-140244015D01*
X214628689Y-140214241D01*
X214758868Y-140127258D01*
X214799962Y-140065757D01*
X214869920Y-139995799D01*
X220805560Y-139995799D01*
X220805560Y-140241000D01*
X220701000Y-140241000D01*
X220701000Y-140221000D01*
X220026750Y-140221000D01*
X219868000Y-140379750D01*
X219868000Y-140722599D01*
X212848751Y-140722599D01*
X212776210Y-140708170D01*
X212703670Y-140722599D01*
X212703667Y-140722599D01*
X212516555Y-140759818D01*
X212488804Y-140765338D01*
X212306652Y-140887048D01*
X212306650Y-140887050D01*
X212245153Y-140928141D01*
X212204062Y-140989638D01*
X210566365Y-142627336D01*
X210523207Y-142410365D01*
X210414000Y-142246926D01*
X210414000Y-141781750D01*
X210431415Y-141694199D01*
X210414000Y-141606648D01*
X210414000Y-141606644D01*
X210362419Y-141347330D01*
X210165933Y-141053267D01*
X210091707Y-141003671D01*
X207750905Y-138662870D01*
X207804745Y-138392200D01*
X207676608Y-137748012D01*
X207311705Y-137201895D01*
X206765588Y-136836992D01*
X206284009Y-136741200D01*
X205958791Y-136741200D01*
X205477212Y-136836992D01*
X205147863Y-137057056D01*
X205055209Y-136918391D01*
X204845165Y-136778043D01*
X204622800Y-136733812D01*
X204622800Y-136494588D01*
X204845165Y-136450357D01*
X205055209Y-136310009D01*
X205147863Y-136171344D01*
X205477212Y-136391408D01*
X205958791Y-136487200D01*
X206284009Y-136487200D01*
X206765588Y-136391408D01*
X207311705Y-136026505D01*
X207496058Y-135750600D01*
X208075995Y-135750600D01*
X210578090Y-138252696D01*
X210578090Y-138252696D01*
G37*
X210578090Y-138252696D02*
X210578090Y-139046250D01*
X210627373Y-139294015D01*
X210767721Y-139504059D01*
X210977765Y-139644407D01*
X211225530Y-139693690D01*
X212025630Y-139693690D01*
X212273395Y-139644407D01*
X212483439Y-139504059D01*
X212577070Y-139363931D01*
X212577070Y-139996250D01*
X212626353Y-140244015D01*
X212766701Y-140454059D01*
X212976745Y-140594407D01*
X213224510Y-140643690D01*
X214024610Y-140643690D01*
X214272375Y-140594407D01*
X214482419Y-140454059D01*
X214622767Y-140244015D01*
X214628689Y-140214241D01*
X214758868Y-140127258D01*
X214799962Y-140065757D01*
X214869920Y-139995799D01*
X220805560Y-139995799D01*
X220805560Y-140241000D01*
X220701000Y-140241000D01*
X220701000Y-140221000D01*
X220026750Y-140221000D01*
X219868000Y-140379750D01*
X219868000Y-140722599D01*
X212848751Y-140722599D01*
X212776210Y-140708170D01*
X212703670Y-140722599D01*
X212703667Y-140722599D01*
X212516555Y-140759818D01*
X212488804Y-140765338D01*
X212306652Y-140887048D01*
X212306650Y-140887050D01*
X212245153Y-140928141D01*
X212204062Y-140989638D01*
X210566365Y-142627336D01*
X210523207Y-142410365D01*
X210414000Y-142246926D01*
X210414000Y-141781750D01*
X210431415Y-141694199D01*
X210414000Y-141606648D01*
X210414000Y-141606644D01*
X210362419Y-141347330D01*
X210165933Y-141053267D01*
X210091707Y-141003671D01*
X207750905Y-138662870D01*
X207804745Y-138392200D01*
X207676608Y-137748012D01*
X207311705Y-137201895D01*
X206765588Y-136836992D01*
X206284009Y-136741200D01*
X205958791Y-136741200D01*
X205477212Y-136836992D01*
X205147863Y-137057056D01*
X205055209Y-136918391D01*
X204845165Y-136778043D01*
X204622800Y-136733812D01*
X204622800Y-136494588D01*
X204845165Y-136450357D01*
X205055209Y-136310009D01*
X205147863Y-136171344D01*
X205477212Y-136391408D01*
X205958791Y-136487200D01*
X206284009Y-136487200D01*
X206765588Y-136391408D01*
X207311705Y-136026505D01*
X207496058Y-135750600D01*
X208075995Y-135750600D01*
X210578090Y-138252696D01*
G36*
X232410091Y-142278400D02*
X230403800Y-142278400D01*
X230403800Y-141776098D01*
X230418229Y-141703558D01*
X230404831Y-141636200D01*
X230518802Y-141636200D01*
X230518802Y-141479452D01*
X230542200Y-141502850D01*
X230542200Y-142075200D01*
X231143450Y-142075200D01*
X231302200Y-141916450D01*
X231302200Y-141625890D01*
X231205527Y-141392501D01*
X231177026Y-141364000D01*
X231180127Y-141360899D01*
X231276800Y-141127510D01*
X231276800Y-140836950D01*
X231118050Y-140678200D01*
X230516800Y-140678200D01*
X230516800Y-140698200D01*
X230266800Y-140698200D01*
X230266800Y-140678200D01*
X230244800Y-140678200D01*
X230244800Y-140424200D01*
X230266800Y-140424200D01*
X230266800Y-140404200D01*
X230516800Y-140404200D01*
X230516800Y-140424200D01*
X231118050Y-140424200D01*
X231150649Y-140391601D01*
X234296890Y-140391601D01*
X232410091Y-142278400D01*
X232410091Y-142278400D01*
G37*
X232410091Y-142278400D02*
X230403800Y-142278400D01*
X230403800Y-141776098D01*
X230418229Y-141703558D01*
X230404831Y-141636200D01*
X230518802Y-141636200D01*
X230518802Y-141479452D01*
X230542200Y-141502850D01*
X230542200Y-142075200D01*
X231143450Y-142075200D01*
X231302200Y-141916450D01*
X231302200Y-141625890D01*
X231205527Y-141392501D01*
X231177026Y-141364000D01*
X231180127Y-141360899D01*
X231276800Y-141127510D01*
X231276800Y-140836950D01*
X231118050Y-140678200D01*
X230516800Y-140678200D01*
X230516800Y-140698200D01*
X230266800Y-140698200D01*
X230266800Y-140678200D01*
X230244800Y-140678200D01*
X230244800Y-140424200D01*
X230266800Y-140424200D01*
X230266800Y-140404200D01*
X230516800Y-140404200D01*
X230516800Y-140424200D01*
X231118050Y-140424200D01*
X231150649Y-140391601D01*
X234296890Y-140391601D01*
X232410091Y-142278400D01*
G36*
X235197551Y-138837042D02*
X235197549Y-138837044D01*
X235116193Y-138918401D01*
X230244800Y-138918401D01*
X230244800Y-138773200D01*
X230266800Y-138773200D01*
X230266800Y-137376200D01*
X230516800Y-137376200D01*
X230516800Y-138773200D01*
X231118050Y-138773200D01*
X231276800Y-138614450D01*
X231276800Y-138323890D01*
X231180127Y-138090501D01*
X231164326Y-138074700D01*
X231180127Y-138058899D01*
X231276800Y-137825510D01*
X231276800Y-137534950D01*
X231118050Y-137376200D01*
X230516800Y-137376200D01*
X230266800Y-137376200D01*
X230244800Y-137376200D01*
X230244800Y-137122200D01*
X230266800Y-137122200D01*
X230266800Y-137102200D01*
X230516800Y-137102200D01*
X230516800Y-137122200D01*
X231118050Y-137122200D01*
X231184881Y-137055369D01*
X236979223Y-137055369D01*
X235197551Y-138837042D01*
X235197551Y-138837042D01*
G37*
X235197551Y-138837042D02*
X235197549Y-138837044D01*
X235116193Y-138918401D01*
X230244800Y-138918401D01*
X230244800Y-138773200D01*
X230266800Y-138773200D01*
X230266800Y-137376200D01*
X230516800Y-137376200D01*
X230516800Y-138773200D01*
X231118050Y-138773200D01*
X231276800Y-138614450D01*
X231276800Y-138323890D01*
X231180127Y-138090501D01*
X231164326Y-138074700D01*
X231180127Y-138058899D01*
X231276800Y-137825510D01*
X231276800Y-137534950D01*
X231118050Y-137376200D01*
X230516800Y-137376200D01*
X230266800Y-137376200D01*
X230244800Y-137376200D01*
X230244800Y-137122200D01*
X230266800Y-137122200D01*
X230266800Y-137102200D01*
X230516800Y-137102200D01*
X230516800Y-137122200D01*
X231118050Y-137122200D01*
X231184881Y-137055369D01*
X236979223Y-137055369D01*
X235197551Y-138837042D01*
G36*
X256908219Y-131002488D02*
X257014187Y-131073294D01*
X257084995Y-131179265D01*
X257473904Y-131568174D01*
X257579875Y-131638982D01*
X257650681Y-131744950D01*
X258039590Y-132133859D01*
X258127631Y-132192687D01*
X258135848Y-132212524D01*
X258217561Y-132294237D01*
X258350333Y-132294237D01*
X258497399Y-132323490D01*
X258616015Y-132299896D01*
X258592421Y-132418512D01*
X258621673Y-132565573D01*
X258621673Y-132698349D01*
X258703386Y-132780062D01*
X258723224Y-132788279D01*
X258782052Y-132876321D01*
X259170961Y-133265230D01*
X259276930Y-133336037D01*
X259347737Y-133442006D01*
X259736646Y-133830915D01*
X259842614Y-133901721D01*
X259913422Y-134007692D01*
X259935281Y-134029551D01*
X259591902Y-133887318D01*
X259160262Y-133887318D01*
X258761479Y-134052500D01*
X258456264Y-134357715D01*
X258291082Y-134756498D01*
X258291082Y-135188138D01*
X258456264Y-135586921D01*
X258627007Y-135757664D01*
X258627006Y-136783067D01*
X258617336Y-136831681D01*
X258605275Y-136839740D01*
X258216366Y-137228649D01*
X258145559Y-137334618D01*
X258039590Y-137405425D01*
X257650681Y-137794334D01*
X257579875Y-137900302D01*
X257473904Y-137971110D01*
X257084995Y-138360019D01*
X257014187Y-138465990D01*
X256908219Y-138536796D01*
X256711954Y-138733061D01*
X256515689Y-138536796D01*
X256409721Y-138465990D01*
X256338913Y-138360019D01*
X255950004Y-137971110D01*
X255844033Y-137900302D01*
X255773227Y-137794334D01*
X255384318Y-137405425D01*
X255296277Y-137346597D01*
X255288060Y-137326760D01*
X255206347Y-137245047D01*
X255073575Y-137245047D01*
X254926509Y-137215794D01*
X254807893Y-137239388D01*
X254831487Y-137120772D01*
X254802235Y-136973711D01*
X254802235Y-136840935D01*
X254852182Y-136890881D01*
X254720522Y-136759222D01*
X254700684Y-136751005D01*
X254641856Y-136662963D01*
X254252947Y-136274054D01*
X254164906Y-136215226D01*
X254156689Y-136195389D01*
X254074976Y-136113676D01*
X253942204Y-136113676D01*
X253795138Y-136084423D01*
X253676523Y-136108017D01*
X253700117Y-135989401D01*
X253670864Y-135842335D01*
X253670864Y-135709564D01*
X253767780Y-135806479D01*
X253589151Y-135627851D01*
X253569315Y-135619634D01*
X253510486Y-135531592D01*
X253121577Y-135142683D01*
X253015606Y-135071875D01*
X252944800Y-134965907D01*
X252748535Y-134769642D01*
X252944800Y-134573377D01*
X253015606Y-134467409D01*
X253121577Y-134396601D01*
X253510486Y-134007692D01*
X253581294Y-133901721D01*
X253687262Y-133830915D01*
X254076171Y-133442006D01*
X254146978Y-133336037D01*
X254252947Y-133265230D01*
X254641856Y-132876321D01*
X254712663Y-132770351D01*
X254818633Y-132699544D01*
X255207542Y-132310635D01*
X255278349Y-132204666D01*
X255384318Y-132133859D01*
X255773227Y-131744950D01*
X255844033Y-131638982D01*
X255950004Y-131568174D01*
X256338913Y-131179265D01*
X256409721Y-131073294D01*
X256515689Y-131002488D01*
X256711954Y-130806223D01*
X256908219Y-131002488D01*
X256908219Y-131002488D01*
G37*
X256908219Y-131002488D02*
X257014187Y-131073294D01*
X257084995Y-131179265D01*
X257473904Y-131568174D01*
X257579875Y-131638982D01*
X257650681Y-131744950D01*
X258039590Y-132133859D01*
X258127631Y-132192687D01*
X258135848Y-132212524D01*
X258217561Y-132294237D01*
X258350333Y-132294237D01*
X258497399Y-132323490D01*
X258616015Y-132299896D01*
X258592421Y-132418512D01*
X258621673Y-132565573D01*
X258621673Y-132698349D01*
X258703386Y-132780062D01*
X258723224Y-132788279D01*
X258782052Y-132876321D01*
X259170961Y-133265230D01*
X259276930Y-133336037D01*
X259347737Y-133442006D01*
X259736646Y-133830915D01*
X259842614Y-133901721D01*
X259913422Y-134007692D01*
X259935281Y-134029551D01*
X259591902Y-133887318D01*
X259160262Y-133887318D01*
X258761479Y-134052500D01*
X258456264Y-134357715D01*
X258291082Y-134756498D01*
X258291082Y-135188138D01*
X258456264Y-135586921D01*
X258627007Y-135757664D01*
X258627006Y-136783067D01*
X258617336Y-136831681D01*
X258605275Y-136839740D01*
X258216366Y-137228649D01*
X258145559Y-137334618D01*
X258039590Y-137405425D01*
X257650681Y-137794334D01*
X257579875Y-137900302D01*
X257473904Y-137971110D01*
X257084995Y-138360019D01*
X257014187Y-138465990D01*
X256908219Y-138536796D01*
X256711954Y-138733061D01*
X256515689Y-138536796D01*
X256409721Y-138465990D01*
X256338913Y-138360019D01*
X255950004Y-137971110D01*
X255844033Y-137900302D01*
X255773227Y-137794334D01*
X255384318Y-137405425D01*
X255296277Y-137346597D01*
X255288060Y-137326760D01*
X255206347Y-137245047D01*
X255073575Y-137245047D01*
X254926509Y-137215794D01*
X254807893Y-137239388D01*
X254831487Y-137120772D01*
X254802235Y-136973711D01*
X254802235Y-136840935D01*
X254852182Y-136890881D01*
X254720522Y-136759222D01*
X254700684Y-136751005D01*
X254641856Y-136662963D01*
X254252947Y-136274054D01*
X254164906Y-136215226D01*
X254156689Y-136195389D01*
X254074976Y-136113676D01*
X253942204Y-136113676D01*
X253795138Y-136084423D01*
X253676523Y-136108017D01*
X253700117Y-135989401D01*
X253670864Y-135842335D01*
X253670864Y-135709564D01*
X253767780Y-135806479D01*
X253589151Y-135627851D01*
X253569315Y-135619634D01*
X253510486Y-135531592D01*
X253121577Y-135142683D01*
X253015606Y-135071875D01*
X252944800Y-134965907D01*
X252748535Y-134769642D01*
X252944800Y-134573377D01*
X253015606Y-134467409D01*
X253121577Y-134396601D01*
X253510486Y-134007692D01*
X253581294Y-133901721D01*
X253687262Y-133830915D01*
X254076171Y-133442006D01*
X254146978Y-133336037D01*
X254252947Y-133265230D01*
X254641856Y-132876321D01*
X254712663Y-132770351D01*
X254818633Y-132699544D01*
X255207542Y-132310635D01*
X255278349Y-132204666D01*
X255384318Y-132133859D01*
X255773227Y-131744950D01*
X255844033Y-131638982D01*
X255950004Y-131568174D01*
X256338913Y-131179265D01*
X256409721Y-131073294D01*
X256515689Y-131002488D01*
X256711954Y-130806223D01*
X256908219Y-131002488D01*
G36*
X210578090Y-134595096D02*
X210578090Y-135388650D01*
X210627373Y-135636415D01*
X210767721Y-135846459D01*
X210977765Y-135986807D01*
X211225530Y-136036090D01*
X212025630Y-136036090D01*
X212273395Y-135986807D01*
X212483439Y-135846459D01*
X212577070Y-135706331D01*
X212577070Y-136338650D01*
X212626353Y-136586415D01*
X212766701Y-136796459D01*
X212802353Y-136820281D01*
X212686183Y-136936452D01*
X212589510Y-137169841D01*
X212589510Y-137410450D01*
X212748260Y-137569200D01*
X213497560Y-137569200D01*
X213497560Y-137549200D01*
X213751560Y-137549200D01*
X213751560Y-137569200D01*
X214500860Y-137569200D01*
X214659610Y-137410450D01*
X214659610Y-137169841D01*
X214562937Y-136936452D01*
X214446767Y-136820281D01*
X214482419Y-136796459D01*
X214563442Y-136675200D01*
X217739091Y-136675200D01*
X219586489Y-138522599D01*
X214637349Y-138522599D01*
X214564810Y-138508170D01*
X214497283Y-138521602D01*
X214562937Y-138455948D01*
X214659610Y-138222559D01*
X214659610Y-137981950D01*
X214500860Y-137823200D01*
X213751560Y-137823200D01*
X213751560Y-137843200D01*
X213497560Y-137843200D01*
X213497560Y-137823200D01*
X212748260Y-137823200D01*
X212603475Y-137967985D01*
X212483439Y-137788341D01*
X212481031Y-137786732D01*
X212462999Y-137696080D01*
X212266513Y-137402017D01*
X212192287Y-137352421D01*
X209134761Y-134294896D01*
X209085163Y-134220667D01*
X208791100Y-134024181D01*
X208531786Y-133972600D01*
X208531785Y-133972600D01*
X208444230Y-133955184D01*
X208356675Y-133972600D01*
X207530002Y-133972600D01*
X207311705Y-133645895D01*
X206765588Y-133280992D01*
X206284009Y-133185200D01*
X205958791Y-133185200D01*
X205477212Y-133280992D01*
X205147863Y-133501056D01*
X205055209Y-133362391D01*
X204845165Y-133222043D01*
X204622800Y-133177812D01*
X204622800Y-132938588D01*
X204845165Y-132894357D01*
X205055209Y-132754009D01*
X205147863Y-132615344D01*
X205477212Y-132835408D01*
X205958791Y-132931200D01*
X206284009Y-132931200D01*
X206765588Y-132835408D01*
X207311705Y-132470505D01*
X207411200Y-132321600D01*
X208304595Y-132321600D01*
X210578090Y-134595096D01*
X210578090Y-134595096D01*
G37*
X210578090Y-134595096D02*
X210578090Y-135388650D01*
X210627373Y-135636415D01*
X210767721Y-135846459D01*
X210977765Y-135986807D01*
X211225530Y-136036090D01*
X212025630Y-136036090D01*
X212273395Y-135986807D01*
X212483439Y-135846459D01*
X212577070Y-135706331D01*
X212577070Y-136338650D01*
X212626353Y-136586415D01*
X212766701Y-136796459D01*
X212802353Y-136820281D01*
X212686183Y-136936452D01*
X212589510Y-137169841D01*
X212589510Y-137410450D01*
X212748260Y-137569200D01*
X213497560Y-137569200D01*
X213497560Y-137549200D01*
X213751560Y-137549200D01*
X213751560Y-137569200D01*
X214500860Y-137569200D01*
X214659610Y-137410450D01*
X214659610Y-137169841D01*
X214562937Y-136936452D01*
X214446767Y-136820281D01*
X214482419Y-136796459D01*
X214563442Y-136675200D01*
X217739091Y-136675200D01*
X219586489Y-138522599D01*
X214637349Y-138522599D01*
X214564810Y-138508170D01*
X214497283Y-138521602D01*
X214562937Y-138455948D01*
X214659610Y-138222559D01*
X214659610Y-137981950D01*
X214500860Y-137823200D01*
X213751560Y-137823200D01*
X213751560Y-137843200D01*
X213497560Y-137843200D01*
X213497560Y-137823200D01*
X212748260Y-137823200D01*
X212603475Y-137967985D01*
X212483439Y-137788341D01*
X212481031Y-137786732D01*
X212462999Y-137696080D01*
X212266513Y-137402017D01*
X212192287Y-137352421D01*
X209134761Y-134294896D01*
X209085163Y-134220667D01*
X208791100Y-134024181D01*
X208531786Y-133972600D01*
X208531785Y-133972600D01*
X208444230Y-133955184D01*
X208356675Y-133972600D01*
X207530002Y-133972600D01*
X207311705Y-133645895D01*
X206765588Y-133280992D01*
X206284009Y-133185200D01*
X205958791Y-133185200D01*
X205477212Y-133280992D01*
X205147863Y-133501056D01*
X205055209Y-133362391D01*
X204845165Y-133222043D01*
X204622800Y-133177812D01*
X204622800Y-132938588D01*
X204845165Y-132894357D01*
X205055209Y-132754009D01*
X205147863Y-132615344D01*
X205477212Y-132835408D01*
X205958791Y-132931200D01*
X206284009Y-132931200D01*
X206765588Y-132835408D01*
X207311705Y-132470505D01*
X207411200Y-132321600D01*
X208304595Y-132321600D01*
X210578090Y-134595096D01*
G36*
X262531494Y-94751605D02*
X263034485Y-94934182D01*
X263481979Y-95227572D01*
X263849977Y-95616039D01*
X264118738Y-96078745D01*
X264276565Y-96599847D01*
X264315001Y-97030517D01*
X264315000Y-131791424D01*
X263554325Y-131030749D01*
X263504727Y-130956520D01*
X263210664Y-130760034D01*
X263125659Y-130743125D01*
X263086075Y-130544123D01*
X262945727Y-130334079D01*
X262380041Y-129768393D01*
X262169997Y-129628045D01*
X262062257Y-129606614D01*
X262062257Y-129604918D01*
X261965585Y-129371529D01*
X261795484Y-129201428D01*
X261570977Y-129201428D01*
X261058855Y-129713550D01*
X261072998Y-129727693D01*
X260893393Y-129907298D01*
X260879250Y-129893155D01*
X260865108Y-129907298D01*
X260685503Y-129727693D01*
X260699645Y-129713550D01*
X260685503Y-129699408D01*
X260865108Y-129519803D01*
X260879250Y-129533945D01*
X261391372Y-129021823D01*
X261391372Y-128797316D01*
X261221271Y-128627215D01*
X260987882Y-128530543D01*
X260735263Y-128530542D01*
X260501874Y-128627215D01*
X260349450Y-128779639D01*
X260349450Y-129004143D01*
X260241269Y-128895962D01*
X260198886Y-128682890D01*
X260161685Y-128627215D01*
X260077176Y-128500738D01*
X260077174Y-128500736D01*
X260036083Y-128439239D01*
X259974586Y-128398148D01*
X257677067Y-126100630D01*
X257635975Y-126039131D01*
X257600939Y-126015721D01*
X257659035Y-125957625D01*
X257824217Y-125558842D01*
X257824217Y-125299731D01*
X260809800Y-122314148D01*
X260871298Y-122273057D01*
X260912389Y-122211560D01*
X260912391Y-122211558D01*
X261034101Y-122029406D01*
X261045618Y-121971505D01*
X261076840Y-121814543D01*
X261076840Y-121814540D01*
X261091269Y-121741999D01*
X261076840Y-121669459D01*
X261076840Y-116029047D01*
X261274365Y-115989757D01*
X261484409Y-115849409D01*
X261582103Y-115703201D01*
X261597475Y-115723533D01*
X262017224Y-115969886D01*
X262108991Y-115985062D01*
X262299600Y-115860331D01*
X262299600Y-114668600D01*
X262553600Y-114668600D01*
X262553600Y-115860331D01*
X262744209Y-115985062D01*
X262835976Y-115969886D01*
X263255725Y-115723533D01*
X263549247Y-115335301D01*
X263671856Y-114864296D01*
X263509147Y-114668600D01*
X262553600Y-114668600D01*
X262299600Y-114668600D01*
X262279600Y-114668600D01*
X262279600Y-114414600D01*
X262299600Y-114414600D01*
X262299600Y-113222869D01*
X262553600Y-113222869D01*
X262553600Y-114414600D01*
X263509147Y-114414600D01*
X263671856Y-114218904D01*
X263549247Y-113747899D01*
X263255725Y-113359667D01*
X262835976Y-113113314D01*
X262744209Y-113098138D01*
X262553600Y-113222869D01*
X262299600Y-113222869D01*
X262108991Y-113098138D01*
X262017224Y-113113314D01*
X261597475Y-113359667D01*
X261582103Y-113379999D01*
X261484409Y-113233791D01*
X261274365Y-113093443D01*
X261026600Y-113044160D01*
X260610156Y-113044160D01*
X260340240Y-112990470D01*
X260070323Y-113044160D01*
X259826600Y-113044160D01*
X259578835Y-113093443D01*
X259368791Y-113233791D01*
X259228443Y-113443835D01*
X259179160Y-113691600D01*
X259179160Y-115391600D01*
X259228443Y-115639365D01*
X259368791Y-115849409D01*
X259578835Y-115989757D01*
X259603640Y-115994691D01*
X259603641Y-121436888D01*
X256782508Y-124258022D01*
X256523397Y-124258022D01*
X256162915Y-124407339D01*
X256186840Y-124287060D01*
X256186840Y-123587060D01*
X256137557Y-123339295D01*
X255997209Y-123129251D01*
X255787165Y-122988903D01*
X255759191Y-122983339D01*
X255899099Y-122925387D01*
X256077727Y-122746758D01*
X256174400Y-122513369D01*
X256174400Y-122322810D01*
X256015650Y-122164060D01*
X255016400Y-122164060D01*
X255016400Y-122184060D01*
X254762400Y-122184060D01*
X254762400Y-122164060D01*
X254742400Y-122164060D01*
X254742400Y-121910060D01*
X254762400Y-121910060D01*
X254762400Y-121210810D01*
X255016400Y-121210810D01*
X255016400Y-121910060D01*
X256015650Y-121910060D01*
X256174400Y-121751310D01*
X256174400Y-121560751D01*
X256077727Y-121327362D01*
X255899099Y-121148733D01*
X255665710Y-121052060D01*
X255175150Y-121052060D01*
X255016400Y-121210810D01*
X254762400Y-121210810D01*
X254603650Y-121052060D01*
X254203601Y-121052060D01*
X254203601Y-119021789D01*
X254320391Y-119045020D01*
X254645609Y-119045020D01*
X255127188Y-118949228D01*
X255673305Y-118584325D01*
X256038208Y-118038208D01*
X256166345Y-117394020D01*
X256038208Y-116749832D01*
X255818144Y-116420483D01*
X255956809Y-116327829D01*
X256097157Y-116117785D01*
X256146440Y-115870020D01*
X256146440Y-113838020D01*
X256097157Y-113590255D01*
X255956809Y-113380211D01*
X255746765Y-113239863D01*
X255499000Y-113190580D01*
X253467000Y-113190580D01*
X253219235Y-113239863D01*
X253086000Y-113328888D01*
X253086000Y-110476440D01*
X254048200Y-110476440D01*
X254295965Y-110427157D01*
X254506009Y-110286809D01*
X254603703Y-110140601D01*
X254619075Y-110160933D01*
X255038824Y-110407286D01*
X255130591Y-110422462D01*
X255321200Y-110297731D01*
X255321200Y-109106000D01*
X255575200Y-109106000D01*
X255575200Y-110297731D01*
X255765809Y-110422462D01*
X255857576Y-110407286D01*
X256277325Y-110160933D01*
X256570847Y-109772701D01*
X256693456Y-109301696D01*
X256530747Y-109106000D01*
X255575200Y-109106000D01*
X255321200Y-109106000D01*
X255301200Y-109106000D01*
X255301200Y-108852000D01*
X255321200Y-108852000D01*
X255321200Y-107660269D01*
X255575200Y-107660269D01*
X255575200Y-108852000D01*
X256530747Y-108852000D01*
X256693456Y-108656304D01*
X256570847Y-108185299D01*
X256528283Y-108129000D01*
X259179160Y-108129000D01*
X259179160Y-109829000D01*
X259228443Y-110076765D01*
X259368791Y-110286809D01*
X259578835Y-110427157D01*
X259826600Y-110476440D01*
X261026600Y-110476440D01*
X261274365Y-110427157D01*
X261484409Y-110286809D01*
X261582103Y-110140601D01*
X261597475Y-110160933D01*
X262017224Y-110407286D01*
X262108991Y-110422462D01*
X262299600Y-110297731D01*
X262299600Y-109106000D01*
X262553600Y-109106000D01*
X262553600Y-110297731D01*
X262744209Y-110422462D01*
X262835976Y-110407286D01*
X263255725Y-110160933D01*
X263549247Y-109772701D01*
X263671856Y-109301696D01*
X263509147Y-109106000D01*
X262553600Y-109106000D01*
X262299600Y-109106000D01*
X262279600Y-109106000D01*
X262279600Y-108852000D01*
X262299600Y-108852000D01*
X262299600Y-107660269D01*
X262553600Y-107660269D01*
X262553600Y-108852000D01*
X263509147Y-108852000D01*
X263671856Y-108656304D01*
X263549247Y-108185299D01*
X263255725Y-107797067D01*
X262835976Y-107550714D01*
X262744209Y-107535538D01*
X262553600Y-107660269D01*
X262299600Y-107660269D01*
X262108991Y-107535538D01*
X262017224Y-107550714D01*
X261597475Y-107797067D01*
X261582103Y-107817399D01*
X261484409Y-107671191D01*
X261274365Y-107530843D01*
X261026600Y-107481560D01*
X259826600Y-107481560D01*
X259578835Y-107530843D01*
X259368791Y-107671191D01*
X259228443Y-107881235D01*
X259179160Y-108129000D01*
X256528283Y-108129000D01*
X256277325Y-107797067D01*
X255857576Y-107550714D01*
X255765809Y-107535538D01*
X255575200Y-107660269D01*
X255321200Y-107660269D01*
X255130591Y-107535538D01*
X255038824Y-107550714D01*
X254619075Y-107797067D01*
X254603703Y-107817399D01*
X254506009Y-107671191D01*
X254295965Y-107530843D01*
X254048200Y-107481560D01*
X253086000Y-107481560D01*
X253086000Y-107353400D01*
X256380739Y-107353400D01*
X256468294Y-107370816D01*
X256555849Y-107353400D01*
X256555850Y-107353400D01*
X256655005Y-107333677D01*
X257051234Y-107497800D01*
X257502766Y-107497800D01*
X257919926Y-107325007D01*
X258239207Y-107005726D01*
X258412000Y-106588566D01*
X258412000Y-106137034D01*
X258239207Y-105719874D01*
X257919926Y-105400593D01*
X257502766Y-105227800D01*
X257051234Y-105227800D01*
X256634074Y-105400593D01*
X256576891Y-105457776D01*
X256569893Y-105456384D01*
X256482339Y-105473800D01*
X256482338Y-105473800D01*
X256223024Y-105525381D01*
X256148165Y-105575400D01*
X253086000Y-105575400D01*
X253086000Y-104913840D01*
X254067000Y-104913840D01*
X254314765Y-104864557D01*
X254524809Y-104724209D01*
X254622503Y-104578001D01*
X254637875Y-104598333D01*
X255057624Y-104844686D01*
X255149391Y-104859862D01*
X255340000Y-104735131D01*
X255340000Y-103543400D01*
X255594000Y-103543400D01*
X255594000Y-104735131D01*
X255784609Y-104859862D01*
X255876376Y-104844686D01*
X256296125Y-104598333D01*
X256589647Y-104210101D01*
X256712256Y-103739096D01*
X256549547Y-103543400D01*
X255594000Y-103543400D01*
X255340000Y-103543400D01*
X255320000Y-103543400D01*
X255320000Y-103289400D01*
X255340000Y-103289400D01*
X255340000Y-102097669D01*
X255594000Y-102097669D01*
X255594000Y-103289400D01*
X256549547Y-103289400D01*
X256712256Y-103093704D01*
X256589647Y-102622699D01*
X256547083Y-102566400D01*
X259179160Y-102566400D01*
X259179160Y-104266400D01*
X259228443Y-104514165D01*
X259368791Y-104724209D01*
X259578835Y-104864557D01*
X259826600Y-104913840D01*
X261026600Y-104913840D01*
X261274365Y-104864557D01*
X261484409Y-104724209D01*
X261582103Y-104578001D01*
X261597475Y-104598333D01*
X262017224Y-104844686D01*
X262108991Y-104859862D01*
X262299600Y-104735131D01*
X262299600Y-103543400D01*
X262553600Y-103543400D01*
X262553600Y-104735131D01*
X262744209Y-104859862D01*
X262835976Y-104844686D01*
X263255725Y-104598333D01*
X263549247Y-104210101D01*
X263671856Y-103739096D01*
X263509147Y-103543400D01*
X262553600Y-103543400D01*
X262299600Y-103543400D01*
X262279600Y-103543400D01*
X262279600Y-103289400D01*
X262299600Y-103289400D01*
X262299600Y-102097669D01*
X262553600Y-102097669D01*
X262553600Y-103289400D01*
X263509147Y-103289400D01*
X263671856Y-103093704D01*
X263549247Y-102622699D01*
X263255725Y-102234467D01*
X262835976Y-101988114D01*
X262744209Y-101972938D01*
X262553600Y-102097669D01*
X262299600Y-102097669D01*
X262108991Y-101972938D01*
X262017224Y-101988114D01*
X261597475Y-102234467D01*
X261582103Y-102254799D01*
X261484409Y-102108591D01*
X261274365Y-101968243D01*
X261026600Y-101918960D01*
X259826600Y-101918960D01*
X259578835Y-101968243D01*
X259368791Y-102108591D01*
X259228443Y-102318635D01*
X259179160Y-102566400D01*
X256547083Y-102566400D01*
X256296125Y-102234467D01*
X255876376Y-101988114D01*
X255784609Y-101972938D01*
X255594000Y-102097669D01*
X255340000Y-102097669D01*
X255149391Y-101972938D01*
X255057624Y-101988114D01*
X254637875Y-102234467D01*
X254622503Y-102254799D01*
X254524809Y-102108591D01*
X254314765Y-101968243D01*
X254067000Y-101918960D01*
X253086000Y-101918960D01*
X253086000Y-101554706D01*
X253103416Y-101467151D01*
X253086000Y-101379596D01*
X253034419Y-101120282D01*
X252837933Y-100826219D01*
X252763704Y-100776621D01*
X252677779Y-100690696D01*
X252628181Y-100616467D01*
X252334118Y-100419981D01*
X252074804Y-100368400D01*
X252074803Y-100368400D01*
X251987248Y-100350984D01*
X251899693Y-100368400D01*
X251727108Y-100368400D01*
X251763174Y-100281329D01*
X251763174Y-100241689D01*
X252129418Y-100168839D01*
X252620625Y-99840625D01*
X252820000Y-99542239D01*
X253019375Y-99840625D01*
X253510582Y-100168839D01*
X253943744Y-100255000D01*
X254236256Y-100255000D01*
X254669418Y-100168839D01*
X255160625Y-99840625D01*
X255373843Y-99521522D01*
X255434817Y-99651358D01*
X255863076Y-100041645D01*
X256273110Y-100211476D01*
X256503000Y-100090155D01*
X256503000Y-98897000D01*
X256757000Y-98897000D01*
X256757000Y-100090155D01*
X256986890Y-100211476D01*
X257396924Y-100041645D01*
X257825183Y-99651358D01*
X258071486Y-99126892D01*
X257950819Y-98897000D01*
X256757000Y-98897000D01*
X256503000Y-98897000D01*
X256483000Y-98897000D01*
X256483000Y-98643000D01*
X256503000Y-98643000D01*
X256503000Y-98623000D01*
X256757000Y-98623000D01*
X256757000Y-98643000D01*
X257950819Y-98643000D01*
X258071486Y-98413108D01*
X257825183Y-97888642D01*
X257400214Y-97501353D01*
X257700625Y-97300625D01*
X257831231Y-97105159D01*
X259515000Y-97105159D01*
X259515000Y-97894841D01*
X259817199Y-98624412D01*
X260375588Y-99182801D01*
X261105159Y-99485000D01*
X261894841Y-99485000D01*
X262624412Y-99182801D01*
X263182801Y-98624412D01*
X263485000Y-97894841D01*
X263485000Y-97105159D01*
X263182801Y-96375588D01*
X262624412Y-95817199D01*
X261894841Y-95515000D01*
X261105159Y-95515000D01*
X260375588Y-95817199D01*
X259817199Y-96375588D01*
X259515000Y-97105159D01*
X257831231Y-97105159D01*
X258028839Y-96809418D01*
X258144092Y-96230000D01*
X258028839Y-95650582D01*
X257700625Y-95159375D01*
X257209418Y-94831161D01*
X256776256Y-94745000D01*
X256483744Y-94745000D01*
X256050582Y-94831161D01*
X255559375Y-95159375D01*
X255360000Y-95457761D01*
X255160625Y-95159375D01*
X254669418Y-94831161D01*
X254236256Y-94745000D01*
X253943744Y-94745000D01*
X253510582Y-94831161D01*
X253019375Y-95159375D01*
X252820000Y-95457761D01*
X252620625Y-95159375D01*
X252129418Y-94831161D01*
X251696256Y-94745000D01*
X251403744Y-94745000D01*
X250970582Y-94831161D01*
X250479375Y-95159375D01*
X250266157Y-95478478D01*
X250205183Y-95348642D01*
X249776924Y-94958355D01*
X249366890Y-94788524D01*
X249137000Y-94909845D01*
X249137000Y-96103000D01*
X249157000Y-96103000D01*
X249157000Y-96357000D01*
X249137000Y-96357000D01*
X249137000Y-96377000D01*
X248883000Y-96377000D01*
X248883000Y-96357000D01*
X248863000Y-96357000D01*
X248863000Y-96103000D01*
X248883000Y-96103000D01*
X248883000Y-94909845D01*
X248653110Y-94788524D01*
X248243076Y-94958355D01*
X247814817Y-95348642D01*
X247753843Y-95478478D01*
X247540625Y-95159375D01*
X247049418Y-94831161D01*
X246616256Y-94745000D01*
X246323744Y-94745000D01*
X245890582Y-94831161D01*
X245399375Y-95159375D01*
X245186157Y-95478478D01*
X245125183Y-95348642D01*
X244696924Y-94958355D01*
X244286890Y-94788524D01*
X244057000Y-94909845D01*
X244057000Y-96103000D01*
X244077000Y-96103000D01*
X244077000Y-96357000D01*
X244057000Y-96357000D01*
X244057000Y-96377000D01*
X243803000Y-96377000D01*
X243803000Y-96357000D01*
X243783000Y-96357000D01*
X243783000Y-96103000D01*
X243803000Y-96103000D01*
X243803000Y-94909845D01*
X243573110Y-94788524D01*
X243163076Y-94958355D01*
X243009306Y-95098491D01*
X242595815Y-94685000D01*
X261960207Y-94685000D01*
X262531494Y-94751605D01*
X262531494Y-94751605D01*
G37*
X262531494Y-94751605D02*
X263034485Y-94934182D01*
X263481979Y-95227572D01*
X263849977Y-95616039D01*
X264118738Y-96078745D01*
X264276565Y-96599847D01*
X264315001Y-97030517D01*
X264315000Y-131791424D01*
X263554325Y-131030749D01*
X263504727Y-130956520D01*
X263210664Y-130760034D01*
X263125659Y-130743125D01*
X263086075Y-130544123D01*
X262945727Y-130334079D01*
X262380041Y-129768393D01*
X262169997Y-129628045D01*
X262062257Y-129606614D01*
X262062257Y-129604918D01*
X261965585Y-129371529D01*
X261795484Y-129201428D01*
X261570977Y-129201428D01*
X261058855Y-129713550D01*
X261072998Y-129727693D01*
X260893393Y-129907298D01*
X260879250Y-129893155D01*
X260865108Y-129907298D01*
X260685503Y-129727693D01*
X260699645Y-129713550D01*
X260685503Y-129699408D01*
X260865108Y-129519803D01*
X260879250Y-129533945D01*
X261391372Y-129021823D01*
X261391372Y-128797316D01*
X261221271Y-128627215D01*
X260987882Y-128530543D01*
X260735263Y-128530542D01*
X260501874Y-128627215D01*
X260349450Y-128779639D01*
X260349450Y-129004143D01*
X260241269Y-128895962D01*
X260198886Y-128682890D01*
X260161685Y-128627215D01*
X260077176Y-128500738D01*
X260077174Y-128500736D01*
X260036083Y-128439239D01*
X259974586Y-128398148D01*
X257677067Y-126100630D01*
X257635975Y-126039131D01*
X257600939Y-126015721D01*
X257659035Y-125957625D01*
X257824217Y-125558842D01*
X257824217Y-125299731D01*
X260809800Y-122314148D01*
X260871298Y-122273057D01*
X260912389Y-122211560D01*
X260912391Y-122211558D01*
X261034101Y-122029406D01*
X261045618Y-121971505D01*
X261076840Y-121814543D01*
X261076840Y-121814540D01*
X261091269Y-121741999D01*
X261076840Y-121669459D01*
X261076840Y-116029047D01*
X261274365Y-115989757D01*
X261484409Y-115849409D01*
X261582103Y-115703201D01*
X261597475Y-115723533D01*
X262017224Y-115969886D01*
X262108991Y-115985062D01*
X262299600Y-115860331D01*
X262299600Y-114668600D01*
X262553600Y-114668600D01*
X262553600Y-115860331D01*
X262744209Y-115985062D01*
X262835976Y-115969886D01*
X263255725Y-115723533D01*
X263549247Y-115335301D01*
X263671856Y-114864296D01*
X263509147Y-114668600D01*
X262553600Y-114668600D01*
X262299600Y-114668600D01*
X262279600Y-114668600D01*
X262279600Y-114414600D01*
X262299600Y-114414600D01*
X262299600Y-113222869D01*
X262553600Y-113222869D01*
X262553600Y-114414600D01*
X263509147Y-114414600D01*
X263671856Y-114218904D01*
X263549247Y-113747899D01*
X263255725Y-113359667D01*
X262835976Y-113113314D01*
X262744209Y-113098138D01*
X262553600Y-113222869D01*
X262299600Y-113222869D01*
X262108991Y-113098138D01*
X262017224Y-113113314D01*
X261597475Y-113359667D01*
X261582103Y-113379999D01*
X261484409Y-113233791D01*
X261274365Y-113093443D01*
X261026600Y-113044160D01*
X260610156Y-113044160D01*
X260340240Y-112990470D01*
X260070323Y-113044160D01*
X259826600Y-113044160D01*
X259578835Y-113093443D01*
X259368791Y-113233791D01*
X259228443Y-113443835D01*
X259179160Y-113691600D01*
X259179160Y-115391600D01*
X259228443Y-115639365D01*
X259368791Y-115849409D01*
X259578835Y-115989757D01*
X259603640Y-115994691D01*
X259603641Y-121436888D01*
X256782508Y-124258022D01*
X256523397Y-124258022D01*
X256162915Y-124407339D01*
X256186840Y-124287060D01*
X256186840Y-123587060D01*
X256137557Y-123339295D01*
X255997209Y-123129251D01*
X255787165Y-122988903D01*
X255759191Y-122983339D01*
X255899099Y-122925387D01*
X256077727Y-122746758D01*
X256174400Y-122513369D01*
X256174400Y-122322810D01*
X256015650Y-122164060D01*
X255016400Y-122164060D01*
X255016400Y-122184060D01*
X254762400Y-122184060D01*
X254762400Y-122164060D01*
X254742400Y-122164060D01*
X254742400Y-121910060D01*
X254762400Y-121910060D01*
X254762400Y-121210810D01*
X255016400Y-121210810D01*
X255016400Y-121910060D01*
X256015650Y-121910060D01*
X256174400Y-121751310D01*
X256174400Y-121560751D01*
X256077727Y-121327362D01*
X255899099Y-121148733D01*
X255665710Y-121052060D01*
X255175150Y-121052060D01*
X255016400Y-121210810D01*
X254762400Y-121210810D01*
X254603650Y-121052060D01*
X254203601Y-121052060D01*
X254203601Y-119021789D01*
X254320391Y-119045020D01*
X254645609Y-119045020D01*
X255127188Y-118949228D01*
X255673305Y-118584325D01*
X256038208Y-118038208D01*
X256166345Y-117394020D01*
X256038208Y-116749832D01*
X255818144Y-116420483D01*
X255956809Y-116327829D01*
X256097157Y-116117785D01*
X256146440Y-115870020D01*
X256146440Y-113838020D01*
X256097157Y-113590255D01*
X255956809Y-113380211D01*
X255746765Y-113239863D01*
X255499000Y-113190580D01*
X253467000Y-113190580D01*
X253219235Y-113239863D01*
X253086000Y-113328888D01*
X253086000Y-110476440D01*
X254048200Y-110476440D01*
X254295965Y-110427157D01*
X254506009Y-110286809D01*
X254603703Y-110140601D01*
X254619075Y-110160933D01*
X255038824Y-110407286D01*
X255130591Y-110422462D01*
X255321200Y-110297731D01*
X255321200Y-109106000D01*
X255575200Y-109106000D01*
X255575200Y-110297731D01*
X255765809Y-110422462D01*
X255857576Y-110407286D01*
X256277325Y-110160933D01*
X256570847Y-109772701D01*
X256693456Y-109301696D01*
X256530747Y-109106000D01*
X255575200Y-109106000D01*
X255321200Y-109106000D01*
X255301200Y-109106000D01*
X255301200Y-108852000D01*
X255321200Y-108852000D01*
X255321200Y-107660269D01*
X255575200Y-107660269D01*
X255575200Y-108852000D01*
X256530747Y-108852000D01*
X256693456Y-108656304D01*
X256570847Y-108185299D01*
X256528283Y-108129000D01*
X259179160Y-108129000D01*
X259179160Y-109829000D01*
X259228443Y-110076765D01*
X259368791Y-110286809D01*
X259578835Y-110427157D01*
X259826600Y-110476440D01*
X261026600Y-110476440D01*
X261274365Y-110427157D01*
X261484409Y-110286809D01*
X261582103Y-110140601D01*
X261597475Y-110160933D01*
X262017224Y-110407286D01*
X262108991Y-110422462D01*
X262299600Y-110297731D01*
X262299600Y-109106000D01*
X262553600Y-109106000D01*
X262553600Y-110297731D01*
X262744209Y-110422462D01*
X262835976Y-110407286D01*
X263255725Y-110160933D01*
X263549247Y-109772701D01*
X263671856Y-109301696D01*
X263509147Y-109106000D01*
X262553600Y-109106000D01*
X262299600Y-109106000D01*
X262279600Y-109106000D01*
X262279600Y-108852000D01*
X262299600Y-108852000D01*
X262299600Y-107660269D01*
X262553600Y-107660269D01*
X262553600Y-108852000D01*
X263509147Y-108852000D01*
X263671856Y-108656304D01*
X263549247Y-108185299D01*
X263255725Y-107797067D01*
X262835976Y-107550714D01*
X262744209Y-107535538D01*
X262553600Y-107660269D01*
X262299600Y-107660269D01*
X262108991Y-107535538D01*
X262017224Y-107550714D01*
X261597475Y-107797067D01*
X261582103Y-107817399D01*
X261484409Y-107671191D01*
X261274365Y-107530843D01*
X261026600Y-107481560D01*
X259826600Y-107481560D01*
X259578835Y-107530843D01*
X259368791Y-107671191D01*
X259228443Y-107881235D01*
X259179160Y-108129000D01*
X256528283Y-108129000D01*
X256277325Y-107797067D01*
X255857576Y-107550714D01*
X255765809Y-107535538D01*
X255575200Y-107660269D01*
X255321200Y-107660269D01*
X255130591Y-107535538D01*
X255038824Y-107550714D01*
X254619075Y-107797067D01*
X254603703Y-107817399D01*
X254506009Y-107671191D01*
X254295965Y-107530843D01*
X254048200Y-107481560D01*
X253086000Y-107481560D01*
X253086000Y-107353400D01*
X256380739Y-107353400D01*
X256468294Y-107370816D01*
X256555849Y-107353400D01*
X256555850Y-107353400D01*
X256655005Y-107333677D01*
X257051234Y-107497800D01*
X257502766Y-107497800D01*
X257919926Y-107325007D01*
X258239207Y-107005726D01*
X258412000Y-106588566D01*
X258412000Y-106137034D01*
X258239207Y-105719874D01*
X257919926Y-105400593D01*
X257502766Y-105227800D01*
X257051234Y-105227800D01*
X256634074Y-105400593D01*
X256576891Y-105457776D01*
X256569893Y-105456384D01*
X256482339Y-105473800D01*
X256482338Y-105473800D01*
X256223024Y-105525381D01*
X256148165Y-105575400D01*
X253086000Y-105575400D01*
X253086000Y-104913840D01*
X254067000Y-104913840D01*
X254314765Y-104864557D01*
X254524809Y-104724209D01*
X254622503Y-104578001D01*
X254637875Y-104598333D01*
X255057624Y-104844686D01*
X255149391Y-104859862D01*
X255340000Y-104735131D01*
X255340000Y-103543400D01*
X255594000Y-103543400D01*
X255594000Y-104735131D01*
X255784609Y-104859862D01*
X255876376Y-104844686D01*
X256296125Y-104598333D01*
X256589647Y-104210101D01*
X256712256Y-103739096D01*
X256549547Y-103543400D01*
X255594000Y-103543400D01*
X255340000Y-103543400D01*
X255320000Y-103543400D01*
X255320000Y-103289400D01*
X255340000Y-103289400D01*
X255340000Y-102097669D01*
X255594000Y-102097669D01*
X255594000Y-103289400D01*
X256549547Y-103289400D01*
X256712256Y-103093704D01*
X256589647Y-102622699D01*
X256547083Y-102566400D01*
X259179160Y-102566400D01*
X259179160Y-104266400D01*
X259228443Y-104514165D01*
X259368791Y-104724209D01*
X259578835Y-104864557D01*
X259826600Y-104913840D01*
X261026600Y-104913840D01*
X261274365Y-104864557D01*
X261484409Y-104724209D01*
X261582103Y-104578001D01*
X261597475Y-104598333D01*
X262017224Y-104844686D01*
X262108991Y-104859862D01*
X262299600Y-104735131D01*
X262299600Y-103543400D01*
X262553600Y-103543400D01*
X262553600Y-104735131D01*
X262744209Y-104859862D01*
X262835976Y-104844686D01*
X263255725Y-104598333D01*
X263549247Y-104210101D01*
X263671856Y-103739096D01*
X263509147Y-103543400D01*
X262553600Y-103543400D01*
X262299600Y-103543400D01*
X262279600Y-103543400D01*
X262279600Y-103289400D01*
X262299600Y-103289400D01*
X262299600Y-102097669D01*
X262553600Y-102097669D01*
X262553600Y-103289400D01*
X263509147Y-103289400D01*
X263671856Y-103093704D01*
X263549247Y-102622699D01*
X263255725Y-102234467D01*
X262835976Y-101988114D01*
X262744209Y-101972938D01*
X262553600Y-102097669D01*
X262299600Y-102097669D01*
X262108991Y-101972938D01*
X262017224Y-101988114D01*
X261597475Y-102234467D01*
X261582103Y-102254799D01*
X261484409Y-102108591D01*
X261274365Y-101968243D01*
X261026600Y-101918960D01*
X259826600Y-101918960D01*
X259578835Y-101968243D01*
X259368791Y-102108591D01*
X259228443Y-102318635D01*
X259179160Y-102566400D01*
X256547083Y-102566400D01*
X256296125Y-102234467D01*
X255876376Y-101988114D01*
X255784609Y-101972938D01*
X255594000Y-102097669D01*
X255340000Y-102097669D01*
X255149391Y-101972938D01*
X255057624Y-101988114D01*
X254637875Y-102234467D01*
X254622503Y-102254799D01*
X254524809Y-102108591D01*
X254314765Y-101968243D01*
X254067000Y-101918960D01*
X253086000Y-101918960D01*
X253086000Y-101554706D01*
X253103416Y-101467151D01*
X253086000Y-101379596D01*
X253034419Y-101120282D01*
X252837933Y-100826219D01*
X252763704Y-100776621D01*
X252677779Y-100690696D01*
X252628181Y-100616467D01*
X252334118Y-100419981D01*
X252074804Y-100368400D01*
X252074803Y-100368400D01*
X251987248Y-100350984D01*
X251899693Y-100368400D01*
X251727108Y-100368400D01*
X251763174Y-100281329D01*
X251763174Y-100241689D01*
X252129418Y-100168839D01*
X252620625Y-99840625D01*
X252820000Y-99542239D01*
X253019375Y-99840625D01*
X253510582Y-100168839D01*
X253943744Y-100255000D01*
X254236256Y-100255000D01*
X254669418Y-100168839D01*
X255160625Y-99840625D01*
X255373843Y-99521522D01*
X255434817Y-99651358D01*
X255863076Y-100041645D01*
X256273110Y-100211476D01*
X256503000Y-100090155D01*
X256503000Y-98897000D01*
X256757000Y-98897000D01*
X256757000Y-100090155D01*
X256986890Y-100211476D01*
X257396924Y-100041645D01*
X257825183Y-99651358D01*
X258071486Y-99126892D01*
X257950819Y-98897000D01*
X256757000Y-98897000D01*
X256503000Y-98897000D01*
X256483000Y-98897000D01*
X256483000Y-98643000D01*
X256503000Y-98643000D01*
X256503000Y-98623000D01*
X256757000Y-98623000D01*
X256757000Y-98643000D01*
X257950819Y-98643000D01*
X258071486Y-98413108D01*
X257825183Y-97888642D01*
X257400214Y-97501353D01*
X257700625Y-97300625D01*
X257831231Y-97105159D01*
X259515000Y-97105159D01*
X259515000Y-97894841D01*
X259817199Y-98624412D01*
X260375588Y-99182801D01*
X261105159Y-99485000D01*
X261894841Y-99485000D01*
X262624412Y-99182801D01*
X263182801Y-98624412D01*
X263485000Y-97894841D01*
X263485000Y-97105159D01*
X263182801Y-96375588D01*
X262624412Y-95817199D01*
X261894841Y-95515000D01*
X261105159Y-95515000D01*
X260375588Y-95817199D01*
X259817199Y-96375588D01*
X259515000Y-97105159D01*
X257831231Y-97105159D01*
X258028839Y-96809418D01*
X258144092Y-96230000D01*
X258028839Y-95650582D01*
X257700625Y-95159375D01*
X257209418Y-94831161D01*
X256776256Y-94745000D01*
X256483744Y-94745000D01*
X256050582Y-94831161D01*
X255559375Y-95159375D01*
X255360000Y-95457761D01*
X255160625Y-95159375D01*
X254669418Y-94831161D01*
X254236256Y-94745000D01*
X253943744Y-94745000D01*
X253510582Y-94831161D01*
X253019375Y-95159375D01*
X252820000Y-95457761D01*
X252620625Y-95159375D01*
X252129418Y-94831161D01*
X251696256Y-94745000D01*
X251403744Y-94745000D01*
X250970582Y-94831161D01*
X250479375Y-95159375D01*
X250266157Y-95478478D01*
X250205183Y-95348642D01*
X249776924Y-94958355D01*
X249366890Y-94788524D01*
X249137000Y-94909845D01*
X249137000Y-96103000D01*
X249157000Y-96103000D01*
X249157000Y-96357000D01*
X249137000Y-96357000D01*
X249137000Y-96377000D01*
X248883000Y-96377000D01*
X248883000Y-96357000D01*
X248863000Y-96357000D01*
X248863000Y-96103000D01*
X248883000Y-96103000D01*
X248883000Y-94909845D01*
X248653110Y-94788524D01*
X248243076Y-94958355D01*
X247814817Y-95348642D01*
X247753843Y-95478478D01*
X247540625Y-95159375D01*
X247049418Y-94831161D01*
X246616256Y-94745000D01*
X246323744Y-94745000D01*
X245890582Y-94831161D01*
X245399375Y-95159375D01*
X245186157Y-95478478D01*
X245125183Y-95348642D01*
X244696924Y-94958355D01*
X244286890Y-94788524D01*
X244057000Y-94909845D01*
X244057000Y-96103000D01*
X244077000Y-96103000D01*
X244077000Y-96357000D01*
X244057000Y-96357000D01*
X244057000Y-96377000D01*
X243803000Y-96377000D01*
X243803000Y-96357000D01*
X243783000Y-96357000D01*
X243783000Y-96103000D01*
X243803000Y-96103000D01*
X243803000Y-94909845D01*
X243573110Y-94788524D01*
X243163076Y-94958355D01*
X243009306Y-95098491D01*
X242595815Y-94685000D01*
X261960207Y-94685000D01*
X262531494Y-94751605D01*
G36*
X215837635Y-115733357D02*
X215859128Y-115737632D01*
X215827826Y-115768934D01*
X215818161Y-115720345D01*
X215837635Y-115733357D01*
X215837635Y-115733357D01*
G37*
X215837635Y-115733357D02*
X215859128Y-115737632D01*
X215827826Y-115768934D01*
X215818161Y-115720345D01*
X215837635Y-115733357D01*
G36*
X241767800Y-102865400D02*
X241787800Y-102865400D01*
X241787800Y-103119400D01*
X241767800Y-103119400D01*
X241767800Y-103139400D01*
X241513800Y-103139400D01*
X241513800Y-103119400D01*
X241493800Y-103119400D01*
X241493800Y-102865400D01*
X241513800Y-102865400D01*
X241513800Y-102845400D01*
X241767800Y-102845400D01*
X241767800Y-102865400D01*
X241767800Y-102865400D01*
G37*
X241767800Y-102865400D02*
X241787800Y-102865400D01*
X241787800Y-103119400D01*
X241767800Y-103119400D01*
X241767800Y-103139400D01*
X241513800Y-103139400D01*
X241513800Y-103119400D01*
X241493800Y-103119400D01*
X241493800Y-102865400D01*
X241513800Y-102865400D01*
X241513800Y-102845400D01*
X241767800Y-102845400D01*
X241767800Y-102865400D01*
G36*
X242504991Y-102865398D02*
X242442052Y-102865398D01*
X242600800Y-102706650D01*
X242600800Y-102661187D01*
X242709202Y-102661187D01*
X242504991Y-102865398D01*
X242504991Y-102865398D01*
G37*
X242504991Y-102865398D02*
X242442052Y-102865398D01*
X242600800Y-102706650D01*
X242600800Y-102661187D01*
X242709202Y-102661187D01*
X242504991Y-102865398D01*
G36*
X240184346Y-99638540D02*
X240065800Y-99614960D01*
X240062276Y-99614960D01*
X240106157Y-99521522D01*
X240184346Y-99638540D01*
X240184346Y-99638540D01*
G37*
X240184346Y-99638540D02*
X240065800Y-99614960D01*
X240062276Y-99614960D01*
X240106157Y-99521522D01*
X240184346Y-99638540D01*
G36*
X238977000Y-98643000D02*
X238997000Y-98643000D01*
X238997000Y-98897000D01*
X238977000Y-98897000D01*
X238977000Y-98917000D01*
X238723000Y-98917000D01*
X238723000Y-98897000D01*
X238703000Y-98897000D01*
X238703000Y-98643000D01*
X238723000Y-98643000D01*
X238723000Y-98623000D01*
X238977000Y-98623000D01*
X238977000Y-98643000D01*
X238977000Y-98643000D01*
G37*
X238977000Y-98643000D02*
X238997000Y-98643000D01*
X238997000Y-98897000D01*
X238977000Y-98897000D01*
X238977000Y-98917000D01*
X238723000Y-98917000D01*
X238723000Y-98897000D01*
X238703000Y-98897000D01*
X238703000Y-98643000D01*
X238723000Y-98643000D01*
X238723000Y-98623000D01*
X238977000Y-98623000D01*
X238977000Y-98643000D01*
G36*
X239794250Y-95074934D02*
X239429418Y-94831161D01*
X238996256Y-94745000D01*
X238703744Y-94745000D01*
X238270582Y-94831161D01*
X237779375Y-95159375D01*
X237580000Y-95457761D01*
X237380625Y-95159375D01*
X236889418Y-94831161D01*
X236456256Y-94745000D01*
X236163744Y-94745000D01*
X235730582Y-94831161D01*
X235239375Y-95159375D01*
X235040000Y-95457761D01*
X234840625Y-95159375D01*
X234349418Y-94831161D01*
X233916256Y-94745000D01*
X233623744Y-94745000D01*
X233190582Y-94831161D01*
X232699375Y-95159375D01*
X232486157Y-95478478D01*
X232425183Y-95348642D01*
X231996924Y-94958355D01*
X231586890Y-94788524D01*
X231357000Y-94909845D01*
X231357000Y-96103000D01*
X231377000Y-96103000D01*
X231377000Y-96357000D01*
X231357000Y-96357000D01*
X231357000Y-96377000D01*
X231103000Y-96377000D01*
X231103000Y-96357000D01*
X231083000Y-96357000D01*
X231083000Y-96103000D01*
X231103000Y-96103000D01*
X231103000Y-94909845D01*
X230873110Y-94788524D01*
X230463076Y-94958355D01*
X230034817Y-95348642D01*
X229973843Y-95478478D01*
X229760625Y-95159375D01*
X229269418Y-94831161D01*
X228836256Y-94745000D01*
X228543744Y-94745000D01*
X228110582Y-94831161D01*
X227619375Y-95159375D01*
X227420000Y-95457761D01*
X227220625Y-95159375D01*
X226729418Y-94831161D01*
X226296256Y-94745000D01*
X226003744Y-94745000D01*
X225570582Y-94831161D01*
X225079375Y-95159375D01*
X224866157Y-95478478D01*
X224805183Y-95348642D01*
X224376924Y-94958355D01*
X223966890Y-94788524D01*
X223737000Y-94909845D01*
X223737000Y-96103000D01*
X223757000Y-96103000D01*
X223757000Y-96357000D01*
X223737000Y-96357000D01*
X223737000Y-96377000D01*
X223483000Y-96377000D01*
X223483000Y-96357000D01*
X223463000Y-96357000D01*
X223463000Y-96103000D01*
X223483000Y-96103000D01*
X223483000Y-94909845D01*
X223253110Y-94788524D01*
X222843076Y-94958355D01*
X222815698Y-94983305D01*
X222796161Y-94970251D01*
X222510909Y-94685000D01*
X240184184Y-94685000D01*
X239794250Y-95074934D01*
X239794250Y-95074934D01*
G37*
X239794250Y-95074934D02*
X239429418Y-94831161D01*
X238996256Y-94745000D01*
X238703744Y-94745000D01*
X238270582Y-94831161D01*
X237779375Y-95159375D01*
X237580000Y-95457761D01*
X237380625Y-95159375D01*
X236889418Y-94831161D01*
X236456256Y-94745000D01*
X236163744Y-94745000D01*
X235730582Y-94831161D01*
X235239375Y-95159375D01*
X235040000Y-95457761D01*
X234840625Y-95159375D01*
X234349418Y-94831161D01*
X233916256Y-94745000D01*
X233623744Y-94745000D01*
X233190582Y-94831161D01*
X232699375Y-95159375D01*
X232486157Y-95478478D01*
X232425183Y-95348642D01*
X231996924Y-94958355D01*
X231586890Y-94788524D01*
X231357000Y-94909845D01*
X231357000Y-96103000D01*
X231377000Y-96103000D01*
X231377000Y-96357000D01*
X231357000Y-96357000D01*
X231357000Y-96377000D01*
X231103000Y-96377000D01*
X231103000Y-96357000D01*
X231083000Y-96357000D01*
X231083000Y-96103000D01*
X231103000Y-96103000D01*
X231103000Y-94909845D01*
X230873110Y-94788524D01*
X230463076Y-94958355D01*
X230034817Y-95348642D01*
X229973843Y-95478478D01*
X229760625Y-95159375D01*
X229269418Y-94831161D01*
X228836256Y-94745000D01*
X228543744Y-94745000D01*
X228110582Y-94831161D01*
X227619375Y-95159375D01*
X227420000Y-95457761D01*
X227220625Y-95159375D01*
X226729418Y-94831161D01*
X226296256Y-94745000D01*
X226003744Y-94745000D01*
X225570582Y-94831161D01*
X225079375Y-95159375D01*
X224866157Y-95478478D01*
X224805183Y-95348642D01*
X224376924Y-94958355D01*
X223966890Y-94788524D01*
X223737000Y-94909845D01*
X223737000Y-96103000D01*
X223757000Y-96103000D01*
X223757000Y-96357000D01*
X223737000Y-96357000D01*
X223737000Y-96377000D01*
X223483000Y-96377000D01*
X223483000Y-96357000D01*
X223463000Y-96357000D01*
X223463000Y-96103000D01*
X223483000Y-96103000D01*
X223483000Y-94909845D01*
X223253110Y-94788524D01*
X222843076Y-94958355D01*
X222815698Y-94983305D01*
X222796161Y-94970251D01*
X222510909Y-94685000D01*
X240184184Y-94685000D01*
X239794250Y-95074934D01*
G04 #@! TD*
M02*
