G04 #@! TF.GenerationSoftware,KiCad,Pcbnew,5.0.0-fee4fd1~66~ubuntu18.04.1*
G04 #@! TF.CreationDate,2018-10-05T21:53:21+02:00*
G04 #@! TF.ProjectId,rasle,7261736C652E6B696361645F70636200,rev?*
G04 #@! TF.SameCoordinates,Original*
G04 #@! TF.FileFunction,Copper,L2,Bot,Signal*
G04 #@! TF.FilePolarity,Positive*
%FSLAX46Y46*%
G04 Gerber Fmt 4.6, Leading zero omitted, Abs format (unit mm)*
G04 Created by KiCad (PCBNEW 5.0.0-fee4fd1~66~ubuntu18.04.1) date Fri Oct  5 21:53:21 2018*
%MOMM*%
%LPD*%
G01*
G04 APERTURE LIST*
G04 #@! TA.AperFunction,ComponentPad*
%ADD10O,1.700000X1.200000*%
G04 #@! TD*
G04 #@! TA.AperFunction,ComponentPad*
%ADD11R,1.700000X1.200000*%
G04 #@! TD*
G04 #@! TA.AperFunction,ComponentPad*
%ADD12R,2.032000X1.727200*%
G04 #@! TD*
G04 #@! TA.AperFunction,ComponentPad*
%ADD13O,2.032000X1.727200*%
G04 #@! TD*
G04 #@! TA.AperFunction,SMDPad,CuDef*
%ADD14R,1.000000X1.250000*%
G04 #@! TD*
G04 #@! TA.AperFunction,ComponentPad*
%ADD15O,1.200000X1.700000*%
G04 #@! TD*
G04 #@! TA.AperFunction,ComponentPad*
%ADD16R,1.200000X1.700000*%
G04 #@! TD*
G04 #@! TA.AperFunction,ComponentPad*
%ADD17O,1.727200X2.032000*%
G04 #@! TD*
G04 #@! TA.AperFunction,ComponentPad*
%ADD18R,1.727200X2.032000*%
G04 #@! TD*
G04 #@! TA.AperFunction,SMDPad,CuDef*
%ADD19C,0.750000*%
G04 #@! TD*
G04 #@! TA.AperFunction,Conductor*
%ADD20C,0.150000*%
G04 #@! TD*
G04 #@! TA.AperFunction,SMDPad,CuDef*
%ADD21R,0.900000X0.500000*%
G04 #@! TD*
G04 #@! TA.AperFunction,SMDPad,CuDef*
%ADD22C,1.500000*%
G04 #@! TD*
G04 #@! TA.AperFunction,ComponentPad*
%ADD23O,2.032000X2.032000*%
G04 #@! TD*
G04 #@! TA.AperFunction,ComponentPad*
%ADD24R,2.032000X2.032000*%
G04 #@! TD*
G04 #@! TA.AperFunction,ComponentPad*
%ADD25R,1.700000X1.700000*%
G04 #@! TD*
G04 #@! TA.AperFunction,ComponentPad*
%ADD26O,1.700000X1.700000*%
G04 #@! TD*
G04 #@! TA.AperFunction,ComponentPad*
%ADD27R,1.998980X1.998980*%
G04 #@! TD*
G04 #@! TA.AperFunction,ComponentPad*
%ADD28O,1.998980X1.998980*%
G04 #@! TD*
G04 #@! TA.AperFunction,ViaPad*
%ADD29C,1.000000*%
G04 #@! TD*
G04 #@! TA.AperFunction,ViaPad*
%ADD30C,0.900000*%
G04 #@! TD*
G04 #@! TA.AperFunction,Conductor*
%ADD31C,0.500000*%
G04 #@! TD*
G04 #@! TA.AperFunction,Conductor*
%ADD32C,0.508000*%
G04 #@! TD*
G04 #@! TA.AperFunction,Conductor*
%ADD33C,1.000000*%
G04 #@! TD*
G04 #@! TA.AperFunction,Conductor*
%ADD34C,1.016000*%
G04 #@! TD*
G04 #@! TA.AperFunction,Conductor*
%ADD35C,0.762000*%
G04 #@! TD*
G04 #@! TA.AperFunction,Conductor*
%ADD36C,0.203200*%
G04 #@! TD*
G04 #@! TA.AperFunction,Conductor*
%ADD37C,0.200000*%
G04 #@! TD*
G04 #@! TA.AperFunction,Conductor*
%ADD38C,0.254000*%
G04 #@! TD*
G04 APERTURE END LIST*
D10*
G04 #@! TO.P,J2,2*
G04 #@! TO.N,Net-(J2-Pad2)*
X212700000Y-126015800D03*
D11*
G04 #@! TO.P,J2,1*
G04 #@! TO.N,+5V*
X212700000Y-124015800D03*
G04 #@! TD*
D12*
G04 #@! TO.P,J1,1*
G04 #@! TO.N,+12V*
X203657600Y-125844600D03*
D13*
G04 #@! TO.P,J1,2*
G04 #@! TO.N,GND*
X203657600Y-123304600D03*
G04 #@! TO.P,J1,3*
G04 #@! TO.N,+5V*
X203657600Y-120764600D03*
G04 #@! TD*
D14*
G04 #@! TO.P,C8,2*
G04 #@! TO.N,GND*
X255559200Y-111138000D03*
G04 #@! TO.P,C8,1*
G04 #@! TO.N,/BUTTON4*
X253559200Y-111138000D03*
G04 #@! TD*
D15*
G04 #@! TO.P,J11,2*
G04 #@! TO.N,GND*
X262426600Y-114541600D03*
D16*
G04 #@! TO.P,J11,1*
G04 #@! TO.N,/BTN_PWR*
X260426600Y-114541600D03*
G04 #@! TD*
D15*
G04 #@! TO.P,J10,2*
G04 #@! TO.N,GND*
X255448200Y-108979000D03*
D16*
G04 #@! TO.P,J10,1*
G04 #@! TO.N,/BUTTON4*
X253448200Y-108979000D03*
G04 #@! TD*
D15*
G04 #@! TO.P,J7,2*
G04 #@! TO.N,GND*
X262426600Y-103416400D03*
D16*
G04 #@! TO.P,J7,1*
G04 #@! TO.N,/BUTTON1*
X260426600Y-103416400D03*
G04 #@! TD*
D17*
G04 #@! TO.P,J4,3*
G04 #@! TO.N,GND*
X223393400Y-145555000D03*
G04 #@! TO.P,J4,2*
G04 #@! TO.N,Net-(J4-Pad2)*
X220853400Y-145555000D03*
D18*
G04 #@! TO.P,J4,1*
G04 #@! TO.N,+5V*
X218313400Y-145555000D03*
G04 #@! TD*
D19*
G04 #@! TO.P,C14,2*
G04 #@! TO.N,Net-(C14-Pad2)*
X254991000Y-136157000D03*
D20*
G04 #@! TD*
G04 #@! TO.N,Net-(C14-Pad2)*
G04 #@! TO.C,C14*
G36*
X255539008Y-136174678D02*
X255008678Y-136705008D01*
X254442992Y-136139322D01*
X254973322Y-135608992D01*
X255539008Y-136174678D01*
X255539008Y-136174678D01*
G37*
D19*
G04 #@! TO.P,C14,1*
G04 #@! TO.N,GND*
X256051660Y-137217660D03*
D20*
G04 #@! TD*
G04 #@! TO.N,GND*
G04 #@! TO.C,C14*
G36*
X256599668Y-137235338D02*
X256069338Y-137765668D01*
X255503652Y-137199982D01*
X256033982Y-136669652D01*
X256599668Y-137235338D01*
X256599668Y-137235338D01*
G37*
D19*
G04 #@! TO.P,C15,2*
G04 #@! TO.N,Net-(C15-Pad2)*
X258162930Y-139328930D03*
D20*
G04 #@! TD*
G04 #@! TO.N,Net-(C15-Pad2)*
G04 #@! TO.C,C15*
G36*
X257614922Y-139311252D02*
X258145252Y-138780922D01*
X258710938Y-139346608D01*
X258180608Y-139876938D01*
X257614922Y-139311252D01*
X257614922Y-139311252D01*
G37*
D19*
G04 #@! TO.P,C15,1*
G04 #@! TO.N,GND*
X257102270Y-138268270D03*
D20*
G04 #@! TD*
G04 #@! TO.N,GND*
G04 #@! TO.C,C15*
G36*
X256554262Y-138250592D02*
X257084592Y-137720262D01*
X257650278Y-138285948D01*
X257119948Y-138816278D01*
X256554262Y-138250592D01*
X256554262Y-138250592D01*
G37*
D21*
G04 #@! TO.P,R11,2*
G04 #@! TO.N,/BUTTON1*
X258206640Y-103684940D03*
G04 #@! TO.P,R11,1*
G04 #@! TO.N,+3V3*
X258206640Y-105184940D03*
G04 #@! TD*
D14*
G04 #@! TO.P,C9,1*
G04 #@! TO.N,/BTN_PWR*
X260330840Y-116251020D03*
G04 #@! TO.P,C9,2*
G04 #@! TO.N,GND*
X262330840Y-116251020D03*
G04 #@! TD*
D21*
G04 #@! TO.P,R14,2*
G04 #@! TO.N,/BUTTON4*
X251389280Y-108723160D03*
G04 #@! TO.P,R14,1*
G04 #@! TO.N,+3V3*
X251389280Y-107223160D03*
G04 #@! TD*
D22*
G04 #@! TO.P,Y1,2*
G04 #@! TO.N,Net-(C15-Pad2)*
X256526640Y-140702540D03*
D20*
G04 #@! TD*
G04 #@! TO.N,Net-(C15-Pad2)*
G04 #@! TO.C,Y1*
G36*
X255359914Y-140808606D02*
X256632706Y-139535814D01*
X257693366Y-140596474D01*
X256420574Y-141869266D01*
X255359914Y-140808606D01*
X255359914Y-140808606D01*
G37*
D22*
G04 #@! TO.P,Y1,1*
G04 #@! TO.N,Net-(C14-Pad2)*
X254405320Y-138581220D03*
D20*
G04 #@! TD*
G04 #@! TO.N,Net-(C14-Pad2)*
G04 #@! TO.C,Y1*
G36*
X253238594Y-138687286D02*
X254511386Y-137414494D01*
X255572046Y-138475154D01*
X254299254Y-139747946D01*
X253238594Y-138687286D01*
X253238594Y-138687286D01*
G37*
D23*
G04 #@! TO.P,J6,2*
G04 #@! TO.N,Net-(J6-Pad2)*
X206121400Y-138392200D03*
D24*
G04 #@! TO.P,J6,1*
G04 #@! TO.N,+12V*
X203581400Y-138392200D03*
G04 #@! TD*
D23*
G04 #@! TO.P,J3,2*
G04 #@! TO.N,Net-(J3-Pad2)*
X206121400Y-134836200D03*
D24*
G04 #@! TO.P,J3,1*
G04 #@! TO.N,+12V*
X203581400Y-134836200D03*
G04 #@! TD*
D23*
G04 #@! TO.P,J5,2*
G04 #@! TO.N,Net-(J5-Pad2)*
X206121400Y-131280200D03*
D24*
G04 #@! TO.P,J5,1*
G04 #@! TO.N,+12V*
X203581400Y-131280200D03*
G04 #@! TD*
D21*
G04 #@! TO.P,R12,2*
G04 #@! TO.N,/BUTTON2*
X258206640Y-108728240D03*
G04 #@! TO.P,R12,1*
G04 #@! TO.N,+3V3*
X258206640Y-107228240D03*
G04 #@! TD*
G04 #@! TO.P,R13,2*
G04 #@! TO.N,/BUTTON3*
X251401980Y-103705260D03*
G04 #@! TO.P,R13,1*
G04 #@! TO.N,+3V3*
X251401980Y-105205260D03*
G04 #@! TD*
G04 #@! TO.P,R15,2*
G04 #@! TO.N,/BTN_PWR*
X258049160Y-113717240D03*
G04 #@! TO.P,R15,1*
G04 #@! TO.N,+3V3*
X258049160Y-115217240D03*
G04 #@! TD*
D25*
G04 #@! TO.P,P1,1*
G04 #@! TO.N,+3V3*
X208370000Y-98770000D03*
D26*
G04 #@! TO.P,P1,2*
G04 #@! TO.N,+5V*
X208370000Y-96230000D03*
G04 #@! TO.P,P1,3*
G04 #@! TO.N,/GPIO2(SDA1)*
X210910000Y-98770000D03*
G04 #@! TO.P,P1,4*
G04 #@! TO.N,+5V*
X210910000Y-96230000D03*
G04 #@! TO.P,P1,5*
G04 #@! TO.N,/GPIO3(SCL1)*
X213450000Y-98770000D03*
G04 #@! TO.P,P1,6*
G04 #@! TO.N,GND*
X213450000Y-96230000D03*
G04 #@! TO.P,P1,7*
G04 #@! TO.N,/GPIO4(GCLK)*
X215990000Y-98770000D03*
G04 #@! TO.P,P1,8*
G04 #@! TO.N,/GPIO14(TXD0)*
X215990000Y-96230000D03*
G04 #@! TO.P,P1,9*
G04 #@! TO.N,GND*
X218530000Y-98770000D03*
G04 #@! TO.P,P1,10*
G04 #@! TO.N,/GPIO15(RXD0)*
X218530000Y-96230000D03*
G04 #@! TO.P,P1,11*
G04 #@! TO.N,/GPIO17(GEN0)*
X221070000Y-98770000D03*
G04 #@! TO.P,P1,12*
G04 #@! TO.N,/BCLK*
X221070000Y-96230000D03*
G04 #@! TO.P,P1,13*
G04 #@! TO.N,/GPIO27(GEN2)*
X223610000Y-98770000D03*
G04 #@! TO.P,P1,14*
G04 #@! TO.N,GND*
X223610000Y-96230000D03*
G04 #@! TO.P,P1,15*
G04 #@! TO.N,/GPIO22(GEN3)*
X226150000Y-98770000D03*
G04 #@! TO.P,P1,16*
G04 #@! TO.N,/GPIO23(GEN4)*
X226150000Y-96230000D03*
G04 #@! TO.P,P1,17*
G04 #@! TO.N,+3V3*
X228690000Y-98770000D03*
G04 #@! TO.P,P1,18*
G04 #@! TO.N,/GPIO24(GEN5)*
X228690000Y-96230000D03*
G04 #@! TO.P,P1,19*
G04 #@! TO.N,/GPIO10(SPI0_MOSI)*
X231230000Y-98770000D03*
G04 #@! TO.P,P1,20*
G04 #@! TO.N,GND*
X231230000Y-96230000D03*
G04 #@! TO.P,P1,21*
G04 #@! TO.N,/GPIO9(SPI0_MISO)*
X233770000Y-98770000D03*
G04 #@! TO.P,P1,22*
G04 #@! TO.N,/GPIO25(GEN6)*
X233770000Y-96230000D03*
G04 #@! TO.P,P1,23*
G04 #@! TO.N,/GPIO11(SPI0_SCK)*
X236310000Y-98770000D03*
G04 #@! TO.P,P1,24*
G04 #@! TO.N,/GPIO8(SPI0_CE_N)*
X236310000Y-96230000D03*
G04 #@! TO.P,P1,25*
G04 #@! TO.N,GND*
X238850000Y-98770000D03*
G04 #@! TO.P,P1,26*
G04 #@! TO.N,/GPIO7(SPI1_CE_N)*
X238850000Y-96230000D03*
G04 #@! TO.P,P1,27*
G04 #@! TO.N,/ID_SD*
X241390000Y-98770000D03*
G04 #@! TO.P,P1,28*
G04 #@! TO.N,/ID_SC*
X241390000Y-96230000D03*
G04 #@! TO.P,P1,29*
G04 #@! TO.N,/BUTTON4*
X243930000Y-98770000D03*
G04 #@! TO.P,P1,30*
G04 #@! TO.N,GND*
X243930000Y-96230000D03*
G04 #@! TO.P,P1,31*
G04 #@! TO.N,/BUTTON3*
X246470000Y-98770000D03*
G04 #@! TO.P,P1,32*
G04 #@! TO.N,/GPIO12(PWM0)*
X246470000Y-96230000D03*
G04 #@! TO.P,P1,33*
G04 #@! TO.N,/GPIO13(PWM1)*
X249010000Y-98770000D03*
G04 #@! TO.P,P1,34*
G04 #@! TO.N,GND*
X249010000Y-96230000D03*
G04 #@! TO.P,P1,35*
G04 #@! TO.N,/GPIO19(SPI1_MISO)*
X251550000Y-98770000D03*
G04 #@! TO.P,P1,36*
G04 #@! TO.N,/BUTTON2*
X251550000Y-96230000D03*
G04 #@! TO.P,P1,37*
G04 #@! TO.N,/BUTTON1*
X254090000Y-98770000D03*
G04 #@! TO.P,P1,38*
G04 #@! TO.N,/GPIO20(SPI1_MOSI)*
X254090000Y-96230000D03*
G04 #@! TO.P,P1,39*
G04 #@! TO.N,GND*
X256630000Y-98770000D03*
G04 #@! TO.P,P1,40*
G04 #@! TO.N,/DIN*
X256630000Y-96230000D03*
G04 #@! TD*
D16*
G04 #@! TO.P,J8,1*
G04 #@! TO.N,/BUTTON2*
X260426600Y-108979000D03*
D15*
G04 #@! TO.P,J8,2*
G04 #@! TO.N,GND*
X262426600Y-108979000D03*
G04 #@! TD*
D16*
G04 #@! TO.P,J9,1*
G04 #@! TO.N,/BUTTON3*
X253467000Y-103416400D03*
D15*
G04 #@! TO.P,J9,2*
G04 #@! TO.N,GND*
X255467000Y-103416400D03*
G04 #@! TD*
D16*
G04 #@! TO.P,J12,1*
G04 #@! TO.N,+5V*
X237547800Y-146063000D03*
D15*
G04 #@! TO.P,J12,2*
G04 #@! TO.N,/POWER*
X239547800Y-146063000D03*
G04 #@! TO.P,J12,3*
G04 #@! TO.N,GND*
X241547800Y-146063000D03*
G04 #@! TD*
D14*
G04 #@! TO.P,C5,2*
G04 #@! TO.N,GND*
X262366400Y-105499200D03*
G04 #@! TO.P,C5,1*
G04 #@! TO.N,/BUTTON1*
X260366400Y-105499200D03*
G04 #@! TD*
G04 #@! TO.P,C6,1*
G04 #@! TO.N,/BUTTON2*
X260303660Y-110830660D03*
G04 #@! TO.P,C6,2*
G04 #@! TO.N,GND*
X262303660Y-110830660D03*
G04 #@! TD*
G04 #@! TO.P,C7,1*
G04 #@! TO.N,/BUTTON3*
X253560980Y-106030060D03*
G04 #@! TO.P,C7,2*
G04 #@! TO.N,GND*
X255560980Y-106030060D03*
G04 #@! TD*
D24*
G04 #@! TO.P,TH1,1*
G04 #@! TO.N,+3V3*
X254483000Y-114854020D03*
D23*
G04 #@! TO.P,TH1,2*
G04 #@! TO.N,Net-(R21-Pad1)*
X254483000Y-117394020D03*
G04 #@! TD*
D27*
G04 #@! TO.P,J14,1*
G04 #@! TO.N,Net-(C18-Pad1)*
X203426319Y-105491921D03*
D28*
G04 #@! TO.P,J14,2*
G04 #@! TO.N,Net-(C16-Pad1)*
X203426319Y-108031921D03*
G04 #@! TD*
G04 #@! TO.P,J15,2*
G04 #@! TO.N,Net-(C17-Pad1)*
X203426319Y-114081921D03*
D27*
G04 #@! TO.P,J15,1*
G04 #@! TO.N,Net-(C19-Pad1)*
X203426319Y-111541921D03*
G04 #@! TD*
D24*
G04 #@! TO.P,J13,1*
G04 #@! TO.N,/RESET_ATMEGA*
X246253400Y-145174000D03*
D23*
G04 #@! TO.P,J13,2*
G04 #@! TO.N,/GPIO4(GCLK)*
X246253400Y-142634000D03*
G04 #@! TD*
D29*
G04 #@! TO.N,+3V3*
X254356000Y-127597200D03*
X262156688Y-131597453D03*
X257277000Y-106362800D03*
X252197000Y-106464400D03*
G04 #@! TO.N,+5V*
X211633200Y-109995000D03*
X212090400Y-103416400D03*
D30*
G04 #@! TO.N,GND*
X216205200Y-137681000D03*
X215722600Y-134506000D03*
X210922000Y-140627400D03*
X219278600Y-140297200D03*
X208940800Y-117538800D03*
X207620000Y-111773000D03*
X209144000Y-108369400D03*
X207493000Y-101917800D03*
X231826200Y-141414800D03*
X231877000Y-137528600D03*
D29*
X249305593Y-139245144D03*
X257178206Y-132431157D03*
D30*
X256388000Y-135699800D03*
X257886600Y-137147600D03*
X254152800Y-135318800D03*
X259385200Y-148780800D03*
X254385200Y-148780800D03*
X249385200Y-148780800D03*
X244385200Y-148780800D03*
X239385200Y-148780800D03*
X234385200Y-148780800D03*
X229385200Y-148780800D03*
X224385200Y-148780800D03*
X219385200Y-148780800D03*
X214385200Y-148780800D03*
X209385200Y-148780800D03*
X204385200Y-148780800D03*
X201066800Y-144310400D03*
X201066800Y-119310400D03*
X201066800Y-114310400D03*
X201066800Y-109310400D03*
X201066800Y-104310400D03*
X201066800Y-99310400D03*
G04 #@! TO.N,/GPIO4(GCLK)*
X243180000Y-136182400D03*
G04 #@! TO.N,/GPIO24(GEN5)*
X252814163Y-130220471D03*
G04 #@! TO.N,/GPIO10(SPI0_MOSI)*
X263017400Y-136817400D03*
G04 #@! TO.N,/GPIO9(SPI0_MISO)*
X262641480Y-134953040D03*
G04 #@! TO.N,/GPIO11(SPI0_SCK)*
X263011610Y-133177196D03*
G04 #@! TO.N,/GPIO19(SPI1_MISO)*
X213563600Y-108826600D03*
X213004800Y-118351600D03*
G04 #@! TO.N,/DIN*
X216154400Y-116395800D03*
X216868250Y-107152850D03*
G04 #@! TO.N,/BCLK*
X215265400Y-109080600D03*
X215062200Y-118326200D03*
G04 #@! TO.N,/WS2812_DATA*
X261341000Y-139154200D03*
X245096727Y-138181220D03*
G04 #@! TO.N,/PWM2*
X259849721Y-140877999D03*
X247657590Y-138046385D03*
G04 #@! TO.N,/PWM3*
X246134810Y-138554665D03*
X260223400Y-139840000D03*
G04 #@! TO.N,/POWER*
X257614441Y-129647410D03*
X243556153Y-139377289D03*
G04 #@! TO.N,/FAN*
X259376082Y-134972318D03*
X246949656Y-137200274D03*
G04 #@! TO.N,/BTN_PWR*
X256768012Y-127324990D03*
X256739217Y-125343022D03*
G04 #@! TO.N,/GPIO23(GEN4)*
X252814163Y-128250403D03*
G04 #@! TO.N,Net-(C14-Pad2)*
X252735262Y-140182249D03*
G04 #@! TO.N,Net-(C15-Pad2)*
X256489600Y-140856000D03*
G04 #@! TO.N,/RESET_ATMEGA*
X252070000Y-131102400D03*
G04 #@! TD*
D31*
G04 #@! TO.N,+3V3*
X258206640Y-105184940D02*
X258206640Y-106235800D01*
X258206640Y-106235800D02*
X258206640Y-107228240D01*
D32*
X257685940Y-114854020D02*
X258049160Y-115217240D01*
X254483000Y-114854020D02*
X257685940Y-114854020D01*
X255499000Y-128740200D02*
X259299435Y-128740200D01*
X261656689Y-131097454D02*
X262156688Y-131597453D01*
X259299435Y-128740200D02*
X261656689Y-131097454D01*
X254356000Y-127597200D02*
X255499000Y-128740200D01*
X257404000Y-106235800D02*
X258206640Y-106235800D01*
X257277000Y-106362800D02*
X257404000Y-106235800D01*
X251401980Y-105669380D02*
X252197000Y-106464400D01*
X251401980Y-105205260D02*
X251401980Y-105669380D01*
X251438240Y-107223160D02*
X252197000Y-106464400D01*
X251389280Y-107223160D02*
X251438240Y-107223160D01*
X257277000Y-109334600D02*
X257277000Y-106362800D01*
X257277000Y-109334600D02*
X257277000Y-111290400D01*
X257277000Y-112060020D02*
X254483000Y-114854020D01*
X257277000Y-111290400D02*
X257277000Y-112060020D01*
D33*
G04 #@! TO.N,+5V*
X211633200Y-109995000D02*
X205969000Y-109995000D01*
D34*
X205969000Y-109995000D02*
X205969000Y-104508600D01*
X205969000Y-120231200D02*
X205969000Y-109995000D01*
X205435600Y-120764600D02*
X205969000Y-120231200D01*
X203657600Y-120764600D02*
X205435600Y-120764600D01*
D35*
X208370000Y-96230000D02*
X210910000Y-96230000D01*
D34*
X208077200Y-103416400D02*
X206045200Y-103416400D01*
X205969000Y-103492600D02*
X205969000Y-104508600D01*
X205969000Y-98631000D02*
X205969000Y-102425800D01*
D35*
X206045200Y-103416400D02*
X205969000Y-103492600D01*
D34*
X212090400Y-103416400D02*
X208077200Y-103416400D01*
D35*
X203505200Y-120764600D02*
X203657600Y-120764600D01*
X201879600Y-122390200D02*
X203505200Y-120764600D01*
X201879600Y-139672362D02*
X201879600Y-122390200D01*
X207762238Y-145555000D02*
X201879600Y-139672362D01*
X218313400Y-145555000D02*
X207762238Y-145555000D01*
D34*
X205969000Y-102425800D02*
X205969000Y-103492600D01*
X205969000Y-97428919D02*
X205969000Y-98631000D01*
X207167919Y-96230000D02*
X205969000Y-97428919D01*
X208370000Y-96230000D02*
X207167919Y-96230000D01*
D31*
G04 #@! TO.N,GND*
X262350400Y-105483200D02*
X262366400Y-105499200D01*
D32*
X255448200Y-110858600D02*
X255587900Y-110998300D01*
X255448200Y-108979000D02*
X255448200Y-110858600D01*
D36*
G04 #@! TO.N,/GPIO4(GCLK)*
X242265589Y-140083029D02*
X244816560Y-142634000D01*
X243180000Y-136182400D02*
X242265589Y-137096811D01*
X244816560Y-142634000D02*
X246253400Y-142634000D01*
X242265589Y-137096811D02*
X242265589Y-140083029D01*
G04 #@! TO.N,/GPIO24(GEN5)*
X251333411Y-113449411D02*
X251333411Y-119088211D01*
X253238411Y-120993211D02*
X253238411Y-127454260D01*
X253238411Y-127454260D02*
X253568964Y-127784813D01*
X253264162Y-129770472D02*
X252814163Y-130220471D01*
X251333411Y-119088211D02*
X253238411Y-120993211D01*
X253568964Y-127784813D02*
X253568964Y-129465670D01*
X231034495Y-100414895D02*
X237315540Y-100414895D01*
X248996601Y-111112600D02*
X251333411Y-113449411D01*
X248996601Y-103568801D02*
X248996601Y-111112600D01*
X247066200Y-101638400D02*
X248996601Y-103568801D01*
X237315540Y-100414895D02*
X238539044Y-101638400D01*
X230075199Y-99455599D02*
X231034495Y-100414895D01*
X230075199Y-97615199D02*
X230075199Y-99455599D01*
X253568964Y-129465670D02*
X253264162Y-129770472D01*
X238539044Y-101638400D02*
X247066200Y-101638400D01*
X228690000Y-96230000D02*
X230075199Y-97615199D01*
G04 #@! TO.N,/GPIO10(SPI0_MOSI)*
X262961498Y-132047302D02*
X261772800Y-133236000D01*
X247234540Y-101231989D02*
X249403011Y-103400460D01*
X237483881Y-100008485D02*
X238707384Y-101231989D01*
X254787800Y-126461884D02*
X256405707Y-128079791D01*
X249403011Y-103400460D02*
X249403011Y-110944260D01*
X249403011Y-110944260D02*
X251739822Y-113281071D01*
X231230000Y-98770000D02*
X232468484Y-100008484D01*
X261772800Y-135572800D02*
X262567401Y-136367401D01*
X251739822Y-118919871D02*
X254787800Y-121967849D01*
X262567401Y-136367401D02*
X263017400Y-136817400D01*
X254787800Y-121967849D02*
X254787800Y-126461884D01*
X262961498Y-131037048D02*
X262961498Y-132047302D01*
X260004241Y-128079791D02*
X262961498Y-131037048D01*
X256405707Y-128079791D02*
X260004241Y-128079791D01*
X251739822Y-113281071D02*
X251739822Y-118919871D01*
X261772800Y-133236000D02*
X261772800Y-135572800D01*
X238707384Y-101231989D02*
X247234540Y-101231989D01*
X232468484Y-100008484D02*
X237483881Y-100008485D01*
G04 #@! TO.N,/GPIO9(SPI0_MISO)*
X240587600Y-99961967D02*
X245224970Y-99961967D01*
X240235199Y-98446093D02*
X240235199Y-99609566D01*
X252552644Y-117615044D02*
X255778400Y-120840800D01*
X252552644Y-112815815D02*
X252552644Y-117615044D01*
X233770000Y-98770000D02*
X234924801Y-97615199D01*
X255778400Y-122517200D02*
X263774320Y-130513120D01*
X239404305Y-97615199D02*
X240235199Y-98446093D01*
X245224970Y-99961967D02*
X245682170Y-100419167D01*
X250215833Y-102908433D02*
X250215833Y-110479004D01*
X263774320Y-130513120D02*
X263774320Y-133820200D01*
X263091479Y-134503041D02*
X262641480Y-134953040D01*
X245682170Y-100419167D02*
X247726567Y-100419167D01*
X255778400Y-120840800D02*
X255778400Y-122517200D01*
X247726567Y-100419167D02*
X250215833Y-102908433D01*
X263774320Y-133820200D02*
X263091479Y-134503041D01*
X240235199Y-99609566D02*
X240587600Y-99961967D01*
X234924801Y-97615199D02*
X239404305Y-97615199D01*
X250215833Y-110479004D02*
X252552644Y-112815815D01*
G04 #@! TO.N,/GPIO11(SPI0_SCK)*
X238875724Y-100825578D02*
X247402880Y-100825578D01*
X263367909Y-130868708D02*
X263367909Y-132820897D01*
X236310000Y-98770000D02*
X236820146Y-98770000D01*
X252146233Y-118377033D02*
X255371989Y-121602789D01*
X247402880Y-100825578D02*
X249809422Y-103232120D01*
X263367909Y-132820897D02*
X263011610Y-133177196D01*
X252146233Y-113112731D02*
X252146233Y-118377033D01*
X255371989Y-121602789D02*
X255371989Y-122872789D01*
X255371989Y-122872789D02*
X263367909Y-130868708D01*
X249809422Y-110775920D02*
X252146233Y-113112731D01*
X249809422Y-103232120D02*
X249809422Y-110775920D01*
X236820146Y-98770000D02*
X238875724Y-100825578D01*
D37*
G04 #@! TO.N,/GPIO19(SPI1_MISO)*
X213004800Y-118351600D02*
X214806611Y-116549789D01*
X214806611Y-116549789D02*
X214806611Y-110069611D01*
X214013599Y-109276599D02*
X213563600Y-108826600D01*
X214806611Y-110069611D02*
X214013599Y-109276599D01*
D36*
X250266600Y-97486600D02*
X250735400Y-97955400D01*
X250266600Y-95784598D02*
X250266600Y-97486600D01*
D37*
X251550000Y-98770000D02*
X250735400Y-97955400D01*
X250266600Y-95784598D02*
X249562001Y-95079999D01*
D36*
X220450601Y-95081599D02*
X220452201Y-95081599D01*
D37*
X220452201Y-95079999D02*
X220452201Y-95081599D01*
X222174200Y-95079999D02*
X220452201Y-95079999D01*
X249562001Y-95079999D02*
X222174200Y-95079999D01*
D36*
X219786600Y-95745600D02*
X220167600Y-95364600D01*
X220167600Y-95364600D02*
X220450601Y-95081599D01*
X219786600Y-102599074D02*
X218969274Y-103416400D01*
X219786600Y-100698600D02*
X219786600Y-102599074D01*
D37*
X218969274Y-103416400D02*
X214013599Y-108372075D01*
D36*
X219786600Y-100698600D02*
X219786600Y-95745600D01*
D37*
X214013599Y-108372075D02*
X214013599Y-108376601D01*
X214013599Y-108376601D02*
X213563600Y-108826600D01*
G04 #@! TO.N,/DIN*
X215398337Y-119104801D02*
X212643263Y-119104801D01*
X212643263Y-119104801D02*
X212251599Y-118713137D01*
X212251599Y-117990063D02*
X212810399Y-117431263D01*
X212251599Y-118713137D02*
X212251599Y-117990063D01*
X212810399Y-108465063D02*
X217376799Y-103898663D01*
D36*
X212810399Y-117431263D02*
X212832937Y-117431263D01*
X212832937Y-117431263D02*
X214401800Y-115862400D01*
X214401800Y-115862400D02*
X214401800Y-110858600D01*
X212810399Y-109267199D02*
X212810399Y-109190505D01*
X214401800Y-110858600D02*
X212810399Y-109267199D01*
D37*
X212810399Y-109190505D02*
X212810399Y-108465063D01*
D36*
X216154400Y-117032196D02*
X216100738Y-117085858D01*
X216100738Y-117085858D02*
X216100738Y-118402400D01*
X216154400Y-116395800D02*
X216154400Y-117032196D01*
D37*
X216100738Y-118402400D02*
X215398337Y-119104801D01*
D36*
X217144801Y-100365002D02*
X217376799Y-100597000D01*
X217144801Y-95745799D02*
X217144801Y-100365002D01*
D37*
X217376799Y-103898663D02*
X217376799Y-100597000D01*
D36*
X218213811Y-94676789D02*
X217449800Y-95440800D01*
X218872200Y-94676789D02*
X218213811Y-94676789D01*
X217449800Y-95440800D02*
X217144801Y-95745799D01*
D37*
X255076789Y-94676789D02*
X255780001Y-95380001D01*
X255780001Y-95380001D02*
X256630000Y-96230000D01*
X222337078Y-94670388D02*
X222343479Y-94676789D01*
X222343479Y-94676789D02*
X255076789Y-94676789D01*
X218878601Y-94670388D02*
X222337078Y-94670388D01*
X218872200Y-94676789D02*
X218878601Y-94670388D01*
X216154400Y-116395800D02*
X216154400Y-107866700D01*
X216418251Y-107602849D02*
X216868250Y-107152850D01*
X216154400Y-107866700D02*
X216418251Y-107602849D01*
D36*
G04 #@! TO.N,/BCLK*
X215265400Y-118123000D02*
X215062200Y-118326200D01*
X215265400Y-109080600D02*
X215265400Y-118123000D01*
X222326600Y-100629300D02*
X222079500Y-100876400D01*
X222326600Y-97486600D02*
X221070000Y-96230000D01*
X222326600Y-97980800D02*
X222326600Y-97486600D01*
X222326600Y-100629300D02*
X220574000Y-102381900D01*
X222326600Y-100165200D02*
X222326600Y-100629300D01*
X222326600Y-97980800D02*
X222326600Y-100165200D01*
D37*
X222079500Y-100876400D02*
X220574000Y-102381900D01*
X220574000Y-102381900D02*
X220574000Y-102384162D01*
X220574000Y-102384162D02*
X219136952Y-103821210D01*
X215265400Y-108444204D02*
X215265400Y-109080600D01*
X219134690Y-103821210D02*
X215265400Y-107690500D01*
X215265400Y-107690500D02*
X215265400Y-108444204D01*
X219136952Y-103821210D02*
X219134690Y-103821210D01*
D36*
G04 #@! TO.N,/WS2812_DATA*
X245096727Y-138817616D02*
X245096727Y-138181220D01*
X261341000Y-139154200D02*
X256642000Y-134455200D01*
X245588577Y-139309466D02*
X245096727Y-138817616D01*
X249241150Y-137046000D02*
X248818810Y-137468340D01*
X248818810Y-138593751D02*
X248103096Y-139309466D01*
X256642000Y-134455200D02*
X253911761Y-134455200D01*
X248103096Y-139309466D02*
X245588577Y-139309466D01*
X253911761Y-134455200D02*
X251320961Y-137046000D01*
X251320961Y-137046000D02*
X249241150Y-137046000D01*
X248818810Y-137468340D02*
X248818810Y-138593751D01*
G04 #@! TO.N,/PWM2*
X261486860Y-140877999D02*
X259849721Y-140877999D01*
X262502213Y-139862646D02*
X261486860Y-140877999D01*
X261795446Y-137916787D02*
X262502213Y-138623554D01*
X262502213Y-138623554D02*
X262502213Y-139862646D01*
X261253088Y-137916787D02*
X261795446Y-137916787D01*
X247657590Y-138046385D02*
X247657590Y-137480060D01*
X247657590Y-137480060D02*
X248904470Y-136233178D01*
X248904470Y-136233178D02*
X250984280Y-136233178D01*
X253575080Y-133642378D02*
X256978680Y-133642378D01*
X250984280Y-136233178D02*
X253575080Y-133642378D01*
X256978680Y-133642378D02*
X261253088Y-137916787D01*
G04 #@! TO.N,/PWM3*
X261373109Y-140289999D02*
X260673399Y-140289999D01*
X261627106Y-138323198D02*
X262095802Y-138791894D01*
X253743420Y-134048789D02*
X256810339Y-134048789D01*
X260673399Y-140289999D02*
X260223400Y-139840000D01*
X262095802Y-139567306D02*
X261373109Y-140289999D01*
X248412401Y-137299999D02*
X249072810Y-136639589D01*
X248034869Y-138802942D02*
X248412400Y-138425411D01*
X249072810Y-136639589D02*
X251152620Y-136639589D01*
X248412400Y-138425411D02*
X248412401Y-137299999D01*
X256810339Y-134048789D02*
X261084747Y-138323197D01*
X261084747Y-138323197D02*
X261627106Y-138323198D01*
X247019483Y-138802942D02*
X248034869Y-138802942D01*
X246771206Y-138554665D02*
X247019483Y-138802942D01*
X246134810Y-138554665D02*
X246771206Y-138554665D01*
X251152620Y-136639589D02*
X253743420Y-134048789D01*
X262095802Y-138791894D02*
X262095802Y-139567306D01*
G04 #@! TO.N,/POWER*
X256420547Y-129647410D02*
X256978045Y-129647410D01*
X247640940Y-136334811D02*
X248555395Y-135420356D01*
X248555395Y-135420356D02*
X250647601Y-135420356D01*
X250647601Y-135420356D02*
X256420547Y-129647410D01*
X245800999Y-136334811D02*
X247640940Y-136334811D01*
X243556153Y-138579657D02*
X245800999Y-136334811D01*
X243556153Y-139377289D02*
X243556153Y-138579657D01*
X256978045Y-129647410D02*
X257614441Y-129647410D01*
G04 #@! TO.N,/FAN*
X250815941Y-135826767D02*
X253406740Y-133235967D01*
X253406740Y-133235967D02*
X257639731Y-133235967D01*
X257639731Y-133235967D02*
X258926083Y-134522319D01*
X248723734Y-135826767D02*
X250815941Y-135826767D01*
X258926083Y-134522319D02*
X259376082Y-134972318D01*
X247800226Y-136750275D02*
X248723734Y-135826767D01*
X247399655Y-136750275D02*
X247800226Y-136750275D01*
X246949656Y-137200274D02*
X247399655Y-136750275D01*
D37*
G04 #@! TO.N,/BUTTON1*
X260356180Y-103684940D02*
X260363100Y-103678020D01*
X258206640Y-103684940D02*
X260356180Y-103684940D01*
X260366400Y-103681320D02*
X260363100Y-103678020D01*
X260366400Y-105499200D02*
X260366400Y-103681320D01*
D36*
X258206640Y-102886640D02*
X258206640Y-103684940D01*
X254090000Y-98770000D02*
X258206640Y-102886640D01*
D37*
G04 #@! TO.N,/BUTTON2*
X260301440Y-108728240D02*
X260309760Y-108719920D01*
X260303660Y-108726020D02*
X260309760Y-108719920D01*
X260303660Y-110830660D02*
X260303660Y-108726020D01*
X258206640Y-108728240D02*
X259207400Y-108728240D01*
X259207400Y-108728240D02*
X260301440Y-108728240D01*
D36*
X257451839Y-104178781D02*
X257629258Y-104356200D01*
X257629258Y-104356200D02*
X258623200Y-104356200D01*
X251550000Y-96230000D02*
X252704801Y-97384801D01*
X252704801Y-99580801D02*
X254152800Y-101028800D01*
X257451839Y-103083239D02*
X257451839Y-104178781D01*
X259207400Y-104940400D02*
X259207400Y-108728240D01*
X254152800Y-101028800D02*
X255397400Y-101028800D01*
X258623200Y-104356200D02*
X259207400Y-104940400D01*
X252704801Y-97384801D02*
X252704801Y-99580801D01*
X255397400Y-101028800D02*
X257451839Y-103083239D01*
G04 #@! TO.N,/BUTTON3*
X253560980Y-103757780D02*
X253499000Y-103695800D01*
X253560980Y-106030060D02*
X253560980Y-103757780D01*
X253489540Y-103705260D02*
X253499000Y-103695800D01*
X251401980Y-103705260D02*
X253489540Y-103705260D01*
X251401980Y-103252060D02*
X251401980Y-103705260D01*
X251401980Y-102871086D02*
X251401980Y-103252060D01*
X247300894Y-98770000D02*
X251401980Y-102871086D01*
X246470000Y-98770000D02*
X247300894Y-98770000D01*
G04 #@! TO.N,/BUTTON4*
X253592980Y-110993220D02*
X253587900Y-110998300D01*
X253592980Y-108722460D02*
X253592980Y-110993220D01*
X253592280Y-108723160D02*
X253592980Y-108722460D01*
X251389280Y-108723160D02*
X253592280Y-108723160D01*
X251389280Y-108723160D02*
X251189280Y-108723160D01*
X245834612Y-99996859D02*
X244607753Y-98770000D01*
X250634479Y-102752328D02*
X247879010Y-99996859D01*
X244607753Y-98770000D02*
X243930000Y-98770000D01*
X251189280Y-108723160D02*
X250634479Y-108168359D01*
X250634479Y-108168359D02*
X250634479Y-102752328D01*
X247879010Y-99996859D02*
X245834612Y-99996859D01*
D37*
G04 #@! TO.N,/BTN_PWR*
X260330840Y-113750900D02*
X260340240Y-113741500D01*
X260330840Y-116251020D02*
X260330840Y-113750900D01*
X260315980Y-113717240D02*
X260340240Y-113741500D01*
X258049160Y-113717240D02*
X260315980Y-113717240D01*
D36*
X256768012Y-125371817D02*
X256739217Y-125343022D01*
X256768012Y-127324990D02*
X256768012Y-125371817D01*
G04 #@! TO.N,/GPIO23(GEN4)*
X252814163Y-121280163D02*
X252814163Y-128250403D01*
X250774600Y-113551000D02*
X250774600Y-119240600D01*
X250774600Y-119240600D02*
X252814163Y-121280163D01*
X248564800Y-103721200D02*
X248564800Y-111341200D01*
X246973306Y-102129706D02*
X248564800Y-103721200D01*
X248564800Y-111341200D02*
X250774600Y-113551000D01*
X227304801Y-97384801D02*
X227304801Y-99093907D01*
X226150000Y-96230000D02*
X227304801Y-97384801D01*
X238455600Y-102129706D02*
X246973306Y-102129706D01*
X227304801Y-99093907D02*
X229032200Y-100821306D01*
X229032200Y-100821306D02*
X237147200Y-100821306D01*
X237147200Y-100821306D02*
X238455600Y-102129706D01*
G04 #@! TO.N,Net-(C14-Pad2)*
X254991000Y-137995540D02*
X254405320Y-138581220D01*
X254991000Y-136157000D02*
X254991000Y-137995540D01*
X254405320Y-138581220D02*
X252804291Y-140182249D01*
X252804291Y-140182249D02*
X252735262Y-140182249D01*
G04 #@! TO.N,Net-(C15-Pad2)*
X258109060Y-139236540D02*
X258109060Y-139198860D01*
X256489600Y-140856000D02*
X258109060Y-139236540D01*
G04 #@! TO.N,/RESET_ATMEGA*
X252120800Y-131789596D02*
X252070000Y-131738796D01*
X245466000Y-135928400D02*
X247472600Y-135928400D01*
X252070000Y-131738796D02*
X252070000Y-131102400D01*
X242672000Y-138722400D02*
X245466000Y-135928400D01*
X252120800Y-132626400D02*
X252120800Y-131789596D01*
X249860200Y-134887000D02*
X252120800Y-132626400D01*
X242672000Y-139611400D02*
X242672000Y-138722400D01*
X246253400Y-145174000D02*
X247472600Y-145174000D01*
X247472600Y-145174000D02*
X247574201Y-145072399D01*
X246887385Y-141313199D02*
X244373799Y-141313199D01*
X247574201Y-145072399D02*
X247574201Y-142000015D01*
X248514000Y-134887000D02*
X249860200Y-134887000D01*
X247472600Y-135928400D02*
X248514000Y-134887000D01*
X244373799Y-141313199D02*
X242672000Y-139611400D01*
X247574201Y-142000015D02*
X246887385Y-141313199D01*
G04 #@! TD*
D38*
G04 #@! TO.N,GND*
G36*
X216838161Y-95010730D02*
X216569418Y-94831161D01*
X216136256Y-94745000D01*
X215843744Y-94745000D01*
X215410582Y-94831161D01*
X214919375Y-95159375D01*
X214706157Y-95478478D01*
X214645183Y-95348642D01*
X214216924Y-94958355D01*
X213806890Y-94788524D01*
X213577000Y-94909845D01*
X213577000Y-96103000D01*
X213597000Y-96103000D01*
X213597000Y-96357000D01*
X213577000Y-96357000D01*
X213577000Y-96377000D01*
X213323000Y-96377000D01*
X213323000Y-96357000D01*
X213303000Y-96357000D01*
X213303000Y-96103000D01*
X213323000Y-96103000D01*
X213323000Y-94909845D01*
X213093110Y-94788524D01*
X212683076Y-94958355D01*
X212254817Y-95348642D01*
X212193843Y-95478478D01*
X211980625Y-95159375D01*
X211489418Y-94831161D01*
X211056256Y-94745000D01*
X210763744Y-94745000D01*
X210330582Y-94831161D01*
X209839375Y-95159375D01*
X209802876Y-95214000D01*
X209477124Y-95214000D01*
X209440625Y-95159375D01*
X208949418Y-94831161D01*
X208516256Y-94745000D01*
X208223744Y-94745000D01*
X207790582Y-94831161D01*
X207407692Y-95087000D01*
X207280491Y-95087000D01*
X207167919Y-95064608D01*
X206721942Y-95153318D01*
X206593015Y-95239465D01*
X206343862Y-95405943D01*
X206280093Y-95501380D01*
X205248141Y-96533333D01*
X205182801Y-96375588D01*
X204624412Y-95817199D01*
X203894841Y-95515000D01*
X203105159Y-95515000D01*
X202375588Y-95817199D01*
X201817199Y-96375588D01*
X201515000Y-97105159D01*
X201515000Y-97894841D01*
X201817199Y-98624412D01*
X202375588Y-99182801D01*
X203105159Y-99485000D01*
X203894841Y-99485000D01*
X204624412Y-99182801D01*
X204826000Y-98981213D01*
X204826001Y-102313224D01*
X204826000Y-102313229D01*
X204826000Y-103996123D01*
X204673574Y-103894274D01*
X204425809Y-103844991D01*
X202426829Y-103844991D01*
X202179064Y-103894274D01*
X201969020Y-104034622D01*
X201828672Y-104244666D01*
X201779389Y-104492431D01*
X201779389Y-106491411D01*
X201828672Y-106739176D01*
X201969020Y-106949220D01*
X202117626Y-107048516D01*
X201886664Y-107394175D01*
X201759808Y-108031921D01*
X201886664Y-108669667D01*
X202247918Y-109210322D01*
X202788573Y-109571576D01*
X203265339Y-109666411D01*
X203587299Y-109666411D01*
X204064065Y-109571576D01*
X204604720Y-109210322D01*
X204826000Y-108879153D01*
X204826000Y-109923435D01*
X204811765Y-109995000D01*
X204821311Y-110042989D01*
X204673574Y-109944274D01*
X204425809Y-109894991D01*
X202426829Y-109894991D01*
X202179064Y-109944274D01*
X201969020Y-110084622D01*
X201828672Y-110294666D01*
X201779389Y-110542431D01*
X201779389Y-112541411D01*
X201828672Y-112789176D01*
X201969020Y-112999220D01*
X202117626Y-113098516D01*
X201886664Y-113444175D01*
X201759808Y-114081921D01*
X201886664Y-114719667D01*
X202247918Y-115260322D01*
X202788573Y-115621576D01*
X203265339Y-115716411D01*
X203587299Y-115716411D01*
X204064065Y-115621576D01*
X204604720Y-115260322D01*
X204826001Y-114929152D01*
X204826000Y-119621600D01*
X204796788Y-119621600D01*
X204394725Y-119352950D01*
X203957598Y-119266000D01*
X203357602Y-119266000D01*
X202920475Y-119352950D01*
X202424770Y-119684170D01*
X202093550Y-120179875D01*
X201977241Y-120764600D01*
X201992359Y-120840601D01*
X201231937Y-121601022D01*
X201147106Y-121657705D01*
X201090423Y-121742537D01*
X200922550Y-121993777D01*
X200843696Y-122390200D01*
X200863601Y-122490268D01*
X200863600Y-139572298D01*
X200843696Y-139672362D01*
X200863600Y-139772425D01*
X200863600Y-139772426D01*
X200922549Y-140068784D01*
X201147105Y-140404857D01*
X201231940Y-140461542D01*
X206973060Y-146202663D01*
X207029743Y-146287495D01*
X207254638Y-146437765D01*
X207365813Y-146512050D01*
X207365814Y-146512050D01*
X207365815Y-146512051D01*
X207662173Y-146571000D01*
X207762237Y-146590904D01*
X207862301Y-146571000D01*
X216802360Y-146571000D01*
X216851643Y-146818765D01*
X216991991Y-147028809D01*
X217202035Y-147169157D01*
X217449800Y-147218440D01*
X219177000Y-147218440D01*
X219424765Y-147169157D01*
X219634809Y-147028809D01*
X219775157Y-146818765D01*
X219780332Y-146792749D01*
X220268676Y-147119050D01*
X220853400Y-147235359D01*
X221438125Y-147119050D01*
X221933830Y-146787830D01*
X222127309Y-146498267D01*
X222491364Y-146905732D01*
X223018609Y-147159709D01*
X223034374Y-147162358D01*
X223266400Y-147041217D01*
X223266400Y-145682000D01*
X223520400Y-145682000D01*
X223520400Y-147041217D01*
X223752426Y-147162358D01*
X223768191Y-147159709D01*
X224295436Y-146905732D01*
X224685354Y-146469320D01*
X224878584Y-145916913D01*
X224734324Y-145682000D01*
X223520400Y-145682000D01*
X223266400Y-145682000D01*
X223246400Y-145682000D01*
X223246400Y-145428000D01*
X223266400Y-145428000D01*
X223266400Y-144068783D01*
X223520400Y-144068783D01*
X223520400Y-145428000D01*
X224734324Y-145428000D01*
X224866355Y-145213000D01*
X236300360Y-145213000D01*
X236300360Y-146913000D01*
X236349643Y-147160765D01*
X236489991Y-147370809D01*
X236700035Y-147511157D01*
X236947800Y-147560440D01*
X238147800Y-147560440D01*
X238395565Y-147511157D01*
X238605609Y-147370809D01*
X238698940Y-147231130D01*
X239065928Y-147476344D01*
X239547800Y-147572195D01*
X240029673Y-147476344D01*
X240438185Y-147203385D01*
X240555040Y-147028498D01*
X240718675Y-147244933D01*
X241138424Y-147491286D01*
X241230191Y-147506462D01*
X241420800Y-147381731D01*
X241420800Y-146190000D01*
X241674800Y-146190000D01*
X241674800Y-147381731D01*
X241865409Y-147506462D01*
X241957176Y-147491286D01*
X242376925Y-147244933D01*
X242670447Y-146856701D01*
X242793056Y-146385696D01*
X242630347Y-146190000D01*
X241674800Y-146190000D01*
X241420800Y-146190000D01*
X241400800Y-146190000D01*
X241400800Y-145936000D01*
X241420800Y-145936000D01*
X241420800Y-144744269D01*
X241674800Y-144744269D01*
X241674800Y-145936000D01*
X242630347Y-145936000D01*
X242793056Y-145740304D01*
X242670447Y-145269299D01*
X242376925Y-144881067D01*
X241957176Y-144634714D01*
X241865409Y-144619538D01*
X241674800Y-144744269D01*
X241420800Y-144744269D01*
X241230191Y-144619538D01*
X241138424Y-144634714D01*
X240718675Y-144881067D01*
X240555040Y-145097501D01*
X240438185Y-144922615D01*
X240029672Y-144649656D01*
X239547800Y-144553805D01*
X239065927Y-144649656D01*
X238698940Y-144894869D01*
X238605609Y-144755191D01*
X238395565Y-144614843D01*
X238147800Y-144565560D01*
X236947800Y-144565560D01*
X236700035Y-144614843D01*
X236489991Y-144755191D01*
X236349643Y-144965235D01*
X236300360Y-145213000D01*
X224866355Y-145213000D01*
X224878584Y-145193087D01*
X224685354Y-144640680D01*
X224295436Y-144204268D01*
X223768191Y-143950291D01*
X223752426Y-143947642D01*
X223520400Y-144068783D01*
X223266400Y-144068783D01*
X223034374Y-143947642D01*
X223018609Y-143950291D01*
X222491364Y-144204268D01*
X222127310Y-144611732D01*
X221933830Y-144322170D01*
X221438124Y-143990950D01*
X220853400Y-143874641D01*
X220268675Y-143990950D01*
X219780332Y-144317251D01*
X219775157Y-144291235D01*
X219634809Y-144081191D01*
X219424765Y-143940843D01*
X219177000Y-143891560D01*
X217449800Y-143891560D01*
X217202035Y-143940843D01*
X216991991Y-144081191D01*
X216851643Y-144291235D01*
X216802360Y-144539000D01*
X208183079Y-144539000D01*
X203699718Y-140055640D01*
X204597400Y-140055640D01*
X204845165Y-140006357D01*
X205055209Y-139866009D01*
X205147863Y-139727344D01*
X205477212Y-139947408D01*
X205958791Y-140043200D01*
X206284009Y-140043200D01*
X206765588Y-139947408D01*
X207311705Y-139582505D01*
X207676608Y-139036388D01*
X207804745Y-138392200D01*
X207676608Y-137748012D01*
X207311705Y-137201895D01*
X206765588Y-136836992D01*
X206284009Y-136741200D01*
X205958791Y-136741200D01*
X205477212Y-136836992D01*
X205147863Y-137057056D01*
X205055209Y-136918391D01*
X204845165Y-136778043D01*
X204597400Y-136728760D01*
X202895600Y-136728760D01*
X202895600Y-136499640D01*
X204597400Y-136499640D01*
X204845165Y-136450357D01*
X205055209Y-136310009D01*
X205147863Y-136171344D01*
X205477212Y-136391408D01*
X205958791Y-136487200D01*
X206284009Y-136487200D01*
X206765588Y-136391408D01*
X207311705Y-136026505D01*
X207676608Y-135480388D01*
X207804745Y-134836200D01*
X207676608Y-134192012D01*
X207311705Y-133645895D01*
X206765588Y-133280992D01*
X206284009Y-133185200D01*
X205958791Y-133185200D01*
X205477212Y-133280992D01*
X205147863Y-133501056D01*
X205055209Y-133362391D01*
X204845165Y-133222043D01*
X204597400Y-133172760D01*
X202895600Y-133172760D01*
X202895600Y-132943640D01*
X204597400Y-132943640D01*
X204845165Y-132894357D01*
X205055209Y-132754009D01*
X205147863Y-132615344D01*
X205477212Y-132835408D01*
X205958791Y-132931200D01*
X206284009Y-132931200D01*
X206765588Y-132835408D01*
X207311705Y-132470505D01*
X207676608Y-131924388D01*
X207712598Y-131743450D01*
X218860400Y-131743450D01*
X218860400Y-132493350D01*
X219147374Y-133186167D01*
X219677633Y-133716426D01*
X220370450Y-134003400D01*
X221120350Y-134003400D01*
X221813167Y-133716426D01*
X222343426Y-133186167D01*
X222630400Y-132493350D01*
X222630400Y-131743450D01*
X222343426Y-131050633D01*
X221813167Y-130520374D01*
X221120350Y-130233400D01*
X220370450Y-130233400D01*
X219677633Y-130520374D01*
X219147374Y-131050633D01*
X218860400Y-131743450D01*
X207712598Y-131743450D01*
X207804745Y-131280200D01*
X207676608Y-130636012D01*
X207311705Y-130089895D01*
X206765588Y-129724992D01*
X206284009Y-129629200D01*
X205958791Y-129629200D01*
X205477212Y-129724992D01*
X205147863Y-129945056D01*
X205055209Y-129806391D01*
X204845165Y-129666043D01*
X204597400Y-129616760D01*
X202895600Y-129616760D01*
X202895600Y-127355640D01*
X204673600Y-127355640D01*
X204921365Y-127306357D01*
X205131409Y-127166009D01*
X205271757Y-126955965D01*
X205321040Y-126708200D01*
X205321040Y-126015800D01*
X211190805Y-126015800D01*
X211286656Y-126497673D01*
X211559615Y-126906185D01*
X211968127Y-127179144D01*
X212328364Y-127250800D01*
X213071636Y-127250800D01*
X213431873Y-127179144D01*
X213840385Y-126906185D01*
X214113344Y-126497673D01*
X214209195Y-126015800D01*
X214113344Y-125533927D01*
X213868131Y-125166940D01*
X214007809Y-125073609D01*
X214148157Y-124863565D01*
X214197440Y-124615800D01*
X214197440Y-123415800D01*
X214148157Y-123168035D01*
X214007809Y-122957991D01*
X213797765Y-122817643D01*
X213550000Y-122768360D01*
X211850000Y-122768360D01*
X211602235Y-122817643D01*
X211392191Y-122957991D01*
X211251843Y-123168035D01*
X211202560Y-123415800D01*
X211202560Y-124615800D01*
X211251843Y-124863565D01*
X211392191Y-125073609D01*
X211531869Y-125166940D01*
X211286656Y-125533927D01*
X211190805Y-126015800D01*
X205321040Y-126015800D01*
X205321040Y-124981000D01*
X205271757Y-124733235D01*
X205131409Y-124523191D01*
X204921365Y-124382843D01*
X204831190Y-124364906D01*
X205008332Y-124206636D01*
X205262309Y-123679391D01*
X205264958Y-123663626D01*
X205143817Y-123431600D01*
X203784600Y-123431600D01*
X203784600Y-123451600D01*
X203530600Y-123451600D01*
X203530600Y-123431600D01*
X203510600Y-123431600D01*
X203510600Y-123177600D01*
X203530600Y-123177600D01*
X203530600Y-123157600D01*
X203784600Y-123157600D01*
X203784600Y-123177600D01*
X205143817Y-123177600D01*
X205264958Y-122945574D01*
X205262309Y-122929809D01*
X205008332Y-122402564D01*
X204600868Y-122038510D01*
X204796788Y-121907600D01*
X205323029Y-121907600D01*
X205435600Y-121929992D01*
X205548171Y-121907600D01*
X205548172Y-121907600D01*
X205881576Y-121841282D01*
X206259657Y-121588657D01*
X206323427Y-121493218D01*
X206697618Y-121119027D01*
X206793057Y-121055257D01*
X207026553Y-120705805D01*
X207045682Y-120677177D01*
X207134392Y-120231200D01*
X207112000Y-120118628D01*
X207112000Y-111130000D01*
X211858966Y-111130000D01*
X211964272Y-111086381D01*
X212076055Y-111064146D01*
X212170820Y-111000826D01*
X212276126Y-110957207D01*
X212356724Y-110876609D01*
X212451489Y-110813289D01*
X212514809Y-110718524D01*
X212595407Y-110637926D01*
X212639026Y-110532620D01*
X212702346Y-110437855D01*
X212724581Y-110326072D01*
X212754744Y-110253253D01*
X213665201Y-111163711D01*
X213665200Y-115557291D01*
X212408764Y-116813727D01*
X212279341Y-116900205D01*
X212233692Y-116968523D01*
X211783062Y-117419154D01*
X211721695Y-117460158D01*
X211680691Y-117521525D01*
X211680690Y-117521526D01*
X211559245Y-117703281D01*
X211537158Y-117814321D01*
X211516599Y-117917675D01*
X211516599Y-117917679D01*
X211502201Y-117990063D01*
X211516599Y-118062447D01*
X211516599Y-118640753D01*
X211502201Y-118713137D01*
X211516599Y-118785521D01*
X211516599Y-118785524D01*
X211559245Y-118999919D01*
X211721694Y-119243042D01*
X211783064Y-119284048D01*
X212072352Y-119573336D01*
X212113358Y-119634706D01*
X212356480Y-119797155D01*
X212570875Y-119839801D01*
X212643263Y-119854200D01*
X212715651Y-119839801D01*
X215325953Y-119839801D01*
X215398337Y-119854199D01*
X215470721Y-119839801D01*
X215470725Y-119839801D01*
X215685120Y-119797155D01*
X215928242Y-119634706D01*
X215969248Y-119573336D01*
X216563478Y-118979107D01*
X216631796Y-118933458D01*
X216685973Y-118852376D01*
X218570925Y-118852376D01*
X218572290Y-120416441D01*
X218739851Y-121971505D01*
X219071711Y-123499958D01*
X219564111Y-124984493D01*
X220211476Y-126408297D01*
X221006475Y-127755248D01*
X221940105Y-129010093D01*
X223001794Y-130158622D01*
X224179519Y-131187828D01*
X225459943Y-132086057D01*
X226828567Y-132843137D01*
X228269892Y-133450494D01*
X229767596Y-133901252D01*
X231304720Y-134190306D01*
X232863856Y-134314381D01*
X234427349Y-134272075D01*
X235977494Y-134063864D01*
X237496737Y-133692108D01*
X238967873Y-133161015D01*
X240374244Y-132476601D01*
X241545256Y-131743450D01*
X243860400Y-131743450D01*
X243860400Y-132493350D01*
X244147374Y-133186167D01*
X244677633Y-133716426D01*
X245370450Y-134003400D01*
X246120350Y-134003400D01*
X246813167Y-133716426D01*
X247343426Y-133186167D01*
X247630400Y-132493350D01*
X247630400Y-131743450D01*
X247343426Y-131050633D01*
X246813167Y-130520374D01*
X246120350Y-130233400D01*
X245370450Y-130233400D01*
X244677633Y-130520374D01*
X244147374Y-131050633D01*
X243860400Y-131743450D01*
X241545256Y-131743450D01*
X241699923Y-131646616D01*
X242929898Y-130680457D01*
X244050241Y-129589067D01*
X245048265Y-128384805D01*
X245912669Y-127081306D01*
X246633663Y-125693334D01*
X247203083Y-124236604D01*
X247614481Y-122727613D01*
X247863198Y-121183450D01*
X247946418Y-119621600D01*
X247946396Y-119595947D01*
X247860450Y-118034245D01*
X247609038Y-116490518D01*
X247195007Y-114982248D01*
X246623045Y-113526514D01*
X245899630Y-112139802D01*
X245032952Y-110837814D01*
X244032828Y-109635295D01*
X242910582Y-108545862D01*
X241678922Y-107581852D01*
X240351797Y-106754182D01*
X240329647Y-106743450D01*
X243860400Y-106743450D01*
X243860400Y-107493350D01*
X244147374Y-108186167D01*
X244677633Y-108716426D01*
X245370450Y-109003400D01*
X246120350Y-109003400D01*
X246813167Y-108716426D01*
X247343426Y-108186167D01*
X247630400Y-107493350D01*
X247630400Y-106743450D01*
X247343426Y-106050633D01*
X246813167Y-105520374D01*
X246120350Y-105233400D01*
X245370450Y-105233400D01*
X244677633Y-105520374D01*
X244147374Y-106050633D01*
X243860400Y-106743450D01*
X240329647Y-106743450D01*
X238944234Y-106072223D01*
X237472173Y-105543699D01*
X235952283Y-105174595D01*
X234401778Y-104969090D01*
X232838213Y-104929512D01*
X231279295Y-105056309D01*
X229742679Y-105348045D01*
X228245763Y-105801416D01*
X226805501Y-106411289D01*
X225438200Y-107170756D01*
X224159346Y-108071218D01*
X222983419Y-109102478D01*
X221923737Y-110252858D01*
X220992298Y-111509331D01*
X220199651Y-112857667D01*
X219554772Y-114282600D01*
X219064963Y-115767991D01*
X218735772Y-117297022D01*
X218570925Y-118852376D01*
X216685973Y-118852376D01*
X216794599Y-118689807D01*
X216837338Y-118474944D01*
X216837338Y-118466741D01*
X216850136Y-118402401D01*
X216837338Y-118338061D01*
X216837338Y-117335950D01*
X216848261Y-117319603D01*
X216868931Y-117215690D01*
X217074218Y-117010403D01*
X217239400Y-116611620D01*
X217239400Y-116179980D01*
X217074218Y-115781197D01*
X216889400Y-115596379D01*
X216889400Y-108237850D01*
X217084070Y-108237850D01*
X217482853Y-108072668D01*
X217788068Y-107767453D01*
X217953250Y-107368670D01*
X217953250Y-106937030D01*
X217873067Y-106743450D01*
X218860400Y-106743450D01*
X218860400Y-107493350D01*
X219147374Y-108186167D01*
X219677633Y-108716426D01*
X220370450Y-109003400D01*
X221120350Y-109003400D01*
X221813167Y-108716426D01*
X222343426Y-108186167D01*
X222630400Y-107493350D01*
X222630400Y-106743450D01*
X222343426Y-106050633D01*
X221813167Y-105520374D01*
X221120350Y-105233400D01*
X220370450Y-105233400D01*
X219677633Y-105520374D01*
X219147374Y-106050633D01*
X218860400Y-106743450D01*
X217873067Y-106743450D01*
X217788068Y-106538247D01*
X217622584Y-106372763D01*
X219598673Y-104396674D01*
X219666857Y-104351115D01*
X219707863Y-104289745D01*
X221042537Y-102955072D01*
X221103905Y-102914067D01*
X221144909Y-102852700D01*
X222796160Y-101201450D01*
X222857658Y-101160358D01*
X222898749Y-101098861D01*
X222898751Y-101098859D01*
X223020461Y-100916707D01*
X223026886Y-100884406D01*
X223063200Y-100701844D01*
X223063200Y-100701841D01*
X223077629Y-100629301D01*
X223063694Y-100559241D01*
X223063200Y-100556760D01*
X223063200Y-100175327D01*
X223463744Y-100255000D01*
X223756256Y-100255000D01*
X224189418Y-100168839D01*
X224680625Y-99840625D01*
X224880000Y-99542239D01*
X225079375Y-99840625D01*
X225570582Y-100168839D01*
X226003744Y-100255000D01*
X226296256Y-100255000D01*
X226729418Y-100168839D01*
X227094251Y-99925066D01*
X228460050Y-101290866D01*
X228501142Y-101352364D01*
X228562639Y-101393455D01*
X228562641Y-101393457D01*
X228645095Y-101448551D01*
X228744793Y-101515167D01*
X228959656Y-101557906D01*
X228959659Y-101557906D01*
X229032199Y-101572335D01*
X229104740Y-101557906D01*
X236842091Y-101557906D01*
X237883450Y-102599266D01*
X237924542Y-102660764D01*
X237986039Y-102701855D01*
X237986041Y-102701857D01*
X238130742Y-102798543D01*
X238168193Y-102823567D01*
X238383056Y-102866306D01*
X238383059Y-102866306D01*
X238455599Y-102880735D01*
X238528140Y-102866306D01*
X246668197Y-102866306D01*
X247828200Y-104026309D01*
X247828201Y-111268655D01*
X247813771Y-111341200D01*
X247870939Y-111628606D01*
X247992649Y-111810758D01*
X247992652Y-111810761D01*
X248033743Y-111872258D01*
X248095240Y-111913349D01*
X250038000Y-113856110D01*
X250038001Y-119168055D01*
X250023571Y-119240600D01*
X250080739Y-119528006D01*
X250202449Y-119710158D01*
X250202452Y-119710161D01*
X250243543Y-119771658D01*
X250305040Y-119812749D01*
X252077563Y-121585273D01*
X252077564Y-127452581D01*
X251894345Y-127635800D01*
X251729163Y-128034583D01*
X251729163Y-128466223D01*
X251894345Y-128865006D01*
X252199560Y-129170221D01*
X252357005Y-129235437D01*
X252199560Y-129300653D01*
X251894345Y-129605868D01*
X251729163Y-130004651D01*
X251729163Y-130069184D01*
X251455397Y-130182582D01*
X251150182Y-130487797D01*
X250985000Y-130886580D01*
X250985000Y-131318220D01*
X251150182Y-131717003D01*
X251355470Y-131922291D01*
X251376139Y-132026202D01*
X251384200Y-132038266D01*
X251384200Y-132321290D01*
X249555091Y-134150400D01*
X248586540Y-134150400D01*
X248513999Y-134135971D01*
X248441459Y-134150400D01*
X248441456Y-134150400D01*
X248232259Y-134192012D01*
X248226593Y-134193139D01*
X248044441Y-134314849D01*
X248044439Y-134314851D01*
X247982942Y-134355942D01*
X247941850Y-134417440D01*
X247167491Y-135191800D01*
X245538540Y-135191800D01*
X245466000Y-135177371D01*
X245393459Y-135191800D01*
X245393456Y-135191800D01*
X245178593Y-135234539D01*
X244996441Y-135356249D01*
X244996439Y-135356251D01*
X244934942Y-135397342D01*
X244893851Y-135458840D01*
X244265000Y-136087690D01*
X244265000Y-135966580D01*
X244099818Y-135567797D01*
X243794603Y-135262582D01*
X243395820Y-135097400D01*
X242964180Y-135097400D01*
X242565397Y-135262582D01*
X242260182Y-135567797D01*
X242095000Y-135966580D01*
X242095000Y-136225691D01*
X241796031Y-136524660D01*
X241734531Y-136565753D01*
X241693438Y-136627253D01*
X241595065Y-136774479D01*
X241571728Y-136809405D01*
X241528989Y-137024268D01*
X241528989Y-137024271D01*
X241514560Y-137096811D01*
X241528989Y-137169351D01*
X241528990Y-140010484D01*
X241514560Y-140083029D01*
X241571728Y-140370435D01*
X241693438Y-140552587D01*
X241693441Y-140552590D01*
X241734532Y-140614087D01*
X241796029Y-140655178D01*
X244244411Y-143103560D01*
X244285502Y-143165058D01*
X244346999Y-143206149D01*
X244347001Y-143206151D01*
X244454812Y-143278188D01*
X244529153Y-143327861D01*
X244744016Y-143370600D01*
X244744019Y-143370600D01*
X244762380Y-143374252D01*
X244918256Y-143607537D01*
X244779591Y-143700191D01*
X244639243Y-143910235D01*
X244589960Y-144158000D01*
X244589960Y-146190000D01*
X244639243Y-146437765D01*
X244779591Y-146647809D01*
X244989635Y-146788157D01*
X245237400Y-146837440D01*
X247269400Y-146837440D01*
X247517165Y-146788157D01*
X247727209Y-146647809D01*
X247867557Y-146437765D01*
X247916840Y-146190000D01*
X247916840Y-146105159D01*
X259515000Y-146105159D01*
X259515000Y-146894841D01*
X259817199Y-147624412D01*
X260375588Y-148182801D01*
X261105159Y-148485000D01*
X261894841Y-148485000D01*
X262624412Y-148182801D01*
X263182801Y-147624412D01*
X263485000Y-146894841D01*
X263485000Y-146105159D01*
X263182801Y-145375588D01*
X262624412Y-144817199D01*
X261894841Y-144515000D01*
X261105159Y-144515000D01*
X260375588Y-144817199D01*
X259817199Y-145375588D01*
X259515000Y-146105159D01*
X247916840Y-146105159D01*
X247916840Y-145763068D01*
X248003658Y-145705058D01*
X248044354Y-145644152D01*
X248105259Y-145603457D01*
X248268062Y-145359806D01*
X248310801Y-145144943D01*
X248310801Y-145144939D01*
X248325230Y-145072399D01*
X248310801Y-144999859D01*
X248310801Y-142072555D01*
X248325230Y-142000015D01*
X248310801Y-141927474D01*
X248310801Y-141927471D01*
X248268062Y-141712608D01*
X248146352Y-141530456D01*
X248146350Y-141530454D01*
X248105259Y-141468957D01*
X248043761Y-141427865D01*
X247459535Y-140843640D01*
X247418443Y-140782141D01*
X247174792Y-140619338D01*
X246959929Y-140576599D01*
X246959925Y-140576599D01*
X246887385Y-140562170D01*
X246814845Y-140576599D01*
X244678909Y-140576599D01*
X244285086Y-140182777D01*
X244475971Y-139991892D01*
X244641153Y-139593109D01*
X244641153Y-139403751D01*
X245016427Y-139779026D01*
X245057519Y-139840524D01*
X245119016Y-139881615D01*
X245119018Y-139881617D01*
X245233604Y-139958181D01*
X245301170Y-140003327D01*
X245516033Y-140046066D01*
X245516036Y-140046066D01*
X245588577Y-140060495D01*
X245661117Y-140046066D01*
X248030556Y-140046066D01*
X248103096Y-140060495D01*
X248175636Y-140046066D01*
X248175640Y-140046066D01*
X248390503Y-140003327D01*
X248634154Y-139840524D01*
X248675249Y-139779021D01*
X249288370Y-139165901D01*
X249349868Y-139124809D01*
X249390959Y-139063312D01*
X249390961Y-139063310D01*
X249512671Y-138881158D01*
X249518022Y-138854255D01*
X249555410Y-138666295D01*
X249555410Y-138666292D01*
X249569839Y-138593751D01*
X249555410Y-138521212D01*
X249555410Y-137782600D01*
X251248421Y-137782600D01*
X251320961Y-137797029D01*
X251393501Y-137782600D01*
X251393505Y-137782600D01*
X251608368Y-137739861D01*
X251852019Y-137577058D01*
X251893112Y-137515558D01*
X254216870Y-135191800D01*
X254474896Y-135191800D01*
X253985183Y-135681513D01*
X253844835Y-135891557D01*
X253795552Y-136139322D01*
X253844835Y-136387087D01*
X253985183Y-136597131D01*
X254228114Y-136840062D01*
X254053577Y-136956685D01*
X252780785Y-138229477D01*
X252640437Y-138439521D01*
X252591154Y-138687286D01*
X252640437Y-138935051D01*
X252748815Y-139097249D01*
X252519442Y-139097249D01*
X252120659Y-139262431D01*
X251815444Y-139567646D01*
X251650262Y-139966429D01*
X251650262Y-140398069D01*
X251815444Y-140796852D01*
X252120659Y-141102067D01*
X252519442Y-141267249D01*
X252951082Y-141267249D01*
X253349865Y-141102067D01*
X253655080Y-140796852D01*
X253820262Y-140398069D01*
X253820262Y-140207987D01*
X253831970Y-140196280D01*
X253841445Y-140205755D01*
X254051489Y-140346103D01*
X254299254Y-140395386D01*
X254547019Y-140346103D01*
X254757063Y-140205755D01*
X256029855Y-138932963D01*
X256153524Y-138747880D01*
X256186036Y-138780392D01*
X256410540Y-138780392D01*
X256298288Y-138892644D01*
X256359980Y-138954336D01*
X256174897Y-139078005D01*
X254902105Y-140350797D01*
X254761757Y-140560841D01*
X254712474Y-140808606D01*
X254761757Y-141056371D01*
X254902105Y-141266415D01*
X255962765Y-142327075D01*
X256172809Y-142467423D01*
X256420574Y-142516706D01*
X256668339Y-142467423D01*
X256878383Y-142327075D01*
X258151175Y-141054283D01*
X258291523Y-140844239D01*
X258340806Y-140596474D01*
X258320914Y-140496470D01*
X258428373Y-140475095D01*
X258638417Y-140334747D01*
X259138400Y-139834764D01*
X259138400Y-140054899D01*
X258929903Y-140263396D01*
X258764721Y-140662179D01*
X258764721Y-141093819D01*
X258929903Y-141492602D01*
X259235118Y-141797817D01*
X259633901Y-141962999D01*
X260065541Y-141962999D01*
X260464324Y-141797817D01*
X260647542Y-141614599D01*
X261414320Y-141614599D01*
X261486860Y-141629028D01*
X261559400Y-141614599D01*
X261559404Y-141614599D01*
X261774267Y-141571860D01*
X262017918Y-141409057D01*
X262059011Y-141347557D01*
X262971773Y-140434796D01*
X263033271Y-140393704D01*
X263074362Y-140332207D01*
X263074364Y-140332205D01*
X263196074Y-140150053D01*
X263200579Y-140127406D01*
X263238813Y-139935190D01*
X263238813Y-139935187D01*
X263253242Y-139862646D01*
X263238813Y-139790106D01*
X263238813Y-138696092D01*
X263253242Y-138623553D01*
X263238813Y-138551014D01*
X263238813Y-138551010D01*
X263196074Y-138336147D01*
X263033271Y-138092496D01*
X262971771Y-138051403D01*
X262822768Y-137902400D01*
X263233220Y-137902400D01*
X263632003Y-137737218D01*
X263937218Y-137432003D01*
X264102400Y-137033220D01*
X264102400Y-136601580D01*
X263937218Y-136202797D01*
X263632003Y-135897582D01*
X263348705Y-135780236D01*
X263561298Y-135567643D01*
X263726480Y-135168860D01*
X263726480Y-134909749D01*
X264243880Y-134392350D01*
X264305378Y-134351258D01*
X264315000Y-134336857D01*
X264315000Y-146960206D01*
X264248395Y-147531494D01*
X264065819Y-148034483D01*
X263772427Y-148481980D01*
X263383961Y-148849977D01*
X262921253Y-149118739D01*
X262400153Y-149276565D01*
X261969495Y-149315000D01*
X203039794Y-149315000D01*
X202468506Y-149248395D01*
X201965517Y-149065819D01*
X201518020Y-148772427D01*
X201150023Y-148383961D01*
X200881261Y-147921253D01*
X200723435Y-147400153D01*
X200685000Y-146969495D01*
X200685000Y-146105159D01*
X201515000Y-146105159D01*
X201515000Y-146894841D01*
X201817199Y-147624412D01*
X202375588Y-148182801D01*
X203105159Y-148485000D01*
X203894841Y-148485000D01*
X204624412Y-148182801D01*
X205182801Y-147624412D01*
X205485000Y-146894841D01*
X205485000Y-146105159D01*
X205182801Y-145375588D01*
X204624412Y-144817199D01*
X203894841Y-144515000D01*
X203105159Y-144515000D01*
X202375588Y-144817199D01*
X201817199Y-145375588D01*
X201515000Y-146105159D01*
X200685000Y-146105159D01*
X200685000Y-97039793D01*
X200751605Y-96468506D01*
X200934182Y-95965515D01*
X201227572Y-95518021D01*
X201616039Y-95150023D01*
X202078745Y-94881262D01*
X202599847Y-94723435D01*
X203030505Y-94685000D01*
X217163891Y-94685000D01*
X216838161Y-95010730D01*
X216838161Y-95010730D01*
G37*
X216838161Y-95010730D02*
X216569418Y-94831161D01*
X216136256Y-94745000D01*
X215843744Y-94745000D01*
X215410582Y-94831161D01*
X214919375Y-95159375D01*
X214706157Y-95478478D01*
X214645183Y-95348642D01*
X214216924Y-94958355D01*
X213806890Y-94788524D01*
X213577000Y-94909845D01*
X213577000Y-96103000D01*
X213597000Y-96103000D01*
X213597000Y-96357000D01*
X213577000Y-96357000D01*
X213577000Y-96377000D01*
X213323000Y-96377000D01*
X213323000Y-96357000D01*
X213303000Y-96357000D01*
X213303000Y-96103000D01*
X213323000Y-96103000D01*
X213323000Y-94909845D01*
X213093110Y-94788524D01*
X212683076Y-94958355D01*
X212254817Y-95348642D01*
X212193843Y-95478478D01*
X211980625Y-95159375D01*
X211489418Y-94831161D01*
X211056256Y-94745000D01*
X210763744Y-94745000D01*
X210330582Y-94831161D01*
X209839375Y-95159375D01*
X209802876Y-95214000D01*
X209477124Y-95214000D01*
X209440625Y-95159375D01*
X208949418Y-94831161D01*
X208516256Y-94745000D01*
X208223744Y-94745000D01*
X207790582Y-94831161D01*
X207407692Y-95087000D01*
X207280491Y-95087000D01*
X207167919Y-95064608D01*
X206721942Y-95153318D01*
X206593015Y-95239465D01*
X206343862Y-95405943D01*
X206280093Y-95501380D01*
X205248141Y-96533333D01*
X205182801Y-96375588D01*
X204624412Y-95817199D01*
X203894841Y-95515000D01*
X203105159Y-95515000D01*
X202375588Y-95817199D01*
X201817199Y-96375588D01*
X201515000Y-97105159D01*
X201515000Y-97894841D01*
X201817199Y-98624412D01*
X202375588Y-99182801D01*
X203105159Y-99485000D01*
X203894841Y-99485000D01*
X204624412Y-99182801D01*
X204826000Y-98981213D01*
X204826001Y-102313224D01*
X204826000Y-102313229D01*
X204826000Y-103996123D01*
X204673574Y-103894274D01*
X204425809Y-103844991D01*
X202426829Y-103844991D01*
X202179064Y-103894274D01*
X201969020Y-104034622D01*
X201828672Y-104244666D01*
X201779389Y-104492431D01*
X201779389Y-106491411D01*
X201828672Y-106739176D01*
X201969020Y-106949220D01*
X202117626Y-107048516D01*
X201886664Y-107394175D01*
X201759808Y-108031921D01*
X201886664Y-108669667D01*
X202247918Y-109210322D01*
X202788573Y-109571576D01*
X203265339Y-109666411D01*
X203587299Y-109666411D01*
X204064065Y-109571576D01*
X204604720Y-109210322D01*
X204826000Y-108879153D01*
X204826000Y-109923435D01*
X204811765Y-109995000D01*
X204821311Y-110042989D01*
X204673574Y-109944274D01*
X204425809Y-109894991D01*
X202426829Y-109894991D01*
X202179064Y-109944274D01*
X201969020Y-110084622D01*
X201828672Y-110294666D01*
X201779389Y-110542431D01*
X201779389Y-112541411D01*
X201828672Y-112789176D01*
X201969020Y-112999220D01*
X202117626Y-113098516D01*
X201886664Y-113444175D01*
X201759808Y-114081921D01*
X201886664Y-114719667D01*
X202247918Y-115260322D01*
X202788573Y-115621576D01*
X203265339Y-115716411D01*
X203587299Y-115716411D01*
X204064065Y-115621576D01*
X204604720Y-115260322D01*
X204826001Y-114929152D01*
X204826000Y-119621600D01*
X204796788Y-119621600D01*
X204394725Y-119352950D01*
X203957598Y-119266000D01*
X203357602Y-119266000D01*
X202920475Y-119352950D01*
X202424770Y-119684170D01*
X202093550Y-120179875D01*
X201977241Y-120764600D01*
X201992359Y-120840601D01*
X201231937Y-121601022D01*
X201147106Y-121657705D01*
X201090423Y-121742537D01*
X200922550Y-121993777D01*
X200843696Y-122390200D01*
X200863601Y-122490268D01*
X200863600Y-139572298D01*
X200843696Y-139672362D01*
X200863600Y-139772425D01*
X200863600Y-139772426D01*
X200922549Y-140068784D01*
X201147105Y-140404857D01*
X201231940Y-140461542D01*
X206973060Y-146202663D01*
X207029743Y-146287495D01*
X207254638Y-146437765D01*
X207365813Y-146512050D01*
X207365814Y-146512050D01*
X207365815Y-146512051D01*
X207662173Y-146571000D01*
X207762237Y-146590904D01*
X207862301Y-146571000D01*
X216802360Y-146571000D01*
X216851643Y-146818765D01*
X216991991Y-147028809D01*
X217202035Y-147169157D01*
X217449800Y-147218440D01*
X219177000Y-147218440D01*
X219424765Y-147169157D01*
X219634809Y-147028809D01*
X219775157Y-146818765D01*
X219780332Y-146792749D01*
X220268676Y-147119050D01*
X220853400Y-147235359D01*
X221438125Y-147119050D01*
X221933830Y-146787830D01*
X222127309Y-146498267D01*
X222491364Y-146905732D01*
X223018609Y-147159709D01*
X223034374Y-147162358D01*
X223266400Y-147041217D01*
X223266400Y-145682000D01*
X223520400Y-145682000D01*
X223520400Y-147041217D01*
X223752426Y-147162358D01*
X223768191Y-147159709D01*
X224295436Y-146905732D01*
X224685354Y-146469320D01*
X224878584Y-145916913D01*
X224734324Y-145682000D01*
X223520400Y-145682000D01*
X223266400Y-145682000D01*
X223246400Y-145682000D01*
X223246400Y-145428000D01*
X223266400Y-145428000D01*
X223266400Y-144068783D01*
X223520400Y-144068783D01*
X223520400Y-145428000D01*
X224734324Y-145428000D01*
X224866355Y-145213000D01*
X236300360Y-145213000D01*
X236300360Y-146913000D01*
X236349643Y-147160765D01*
X236489991Y-147370809D01*
X236700035Y-147511157D01*
X236947800Y-147560440D01*
X238147800Y-147560440D01*
X238395565Y-147511157D01*
X238605609Y-147370809D01*
X238698940Y-147231130D01*
X239065928Y-147476344D01*
X239547800Y-147572195D01*
X240029673Y-147476344D01*
X240438185Y-147203385D01*
X240555040Y-147028498D01*
X240718675Y-147244933D01*
X241138424Y-147491286D01*
X241230191Y-147506462D01*
X241420800Y-147381731D01*
X241420800Y-146190000D01*
X241674800Y-146190000D01*
X241674800Y-147381731D01*
X241865409Y-147506462D01*
X241957176Y-147491286D01*
X242376925Y-147244933D01*
X242670447Y-146856701D01*
X242793056Y-146385696D01*
X242630347Y-146190000D01*
X241674800Y-146190000D01*
X241420800Y-146190000D01*
X241400800Y-146190000D01*
X241400800Y-145936000D01*
X241420800Y-145936000D01*
X241420800Y-144744269D01*
X241674800Y-144744269D01*
X241674800Y-145936000D01*
X242630347Y-145936000D01*
X242793056Y-145740304D01*
X242670447Y-145269299D01*
X242376925Y-144881067D01*
X241957176Y-144634714D01*
X241865409Y-144619538D01*
X241674800Y-144744269D01*
X241420800Y-144744269D01*
X241230191Y-144619538D01*
X241138424Y-144634714D01*
X240718675Y-144881067D01*
X240555040Y-145097501D01*
X240438185Y-144922615D01*
X240029672Y-144649656D01*
X239547800Y-144553805D01*
X239065927Y-144649656D01*
X238698940Y-144894869D01*
X238605609Y-144755191D01*
X238395565Y-144614843D01*
X238147800Y-144565560D01*
X236947800Y-144565560D01*
X236700035Y-144614843D01*
X236489991Y-144755191D01*
X236349643Y-144965235D01*
X236300360Y-145213000D01*
X224866355Y-145213000D01*
X224878584Y-145193087D01*
X224685354Y-144640680D01*
X224295436Y-144204268D01*
X223768191Y-143950291D01*
X223752426Y-143947642D01*
X223520400Y-144068783D01*
X223266400Y-144068783D01*
X223034374Y-143947642D01*
X223018609Y-143950291D01*
X222491364Y-144204268D01*
X222127310Y-144611732D01*
X221933830Y-144322170D01*
X221438124Y-143990950D01*
X220853400Y-143874641D01*
X220268675Y-143990950D01*
X219780332Y-144317251D01*
X219775157Y-144291235D01*
X219634809Y-144081191D01*
X219424765Y-143940843D01*
X219177000Y-143891560D01*
X217449800Y-143891560D01*
X217202035Y-143940843D01*
X216991991Y-144081191D01*
X216851643Y-144291235D01*
X216802360Y-144539000D01*
X208183079Y-144539000D01*
X203699718Y-140055640D01*
X204597400Y-140055640D01*
X204845165Y-140006357D01*
X205055209Y-139866009D01*
X205147863Y-139727344D01*
X205477212Y-139947408D01*
X205958791Y-140043200D01*
X206284009Y-140043200D01*
X206765588Y-139947408D01*
X207311705Y-139582505D01*
X207676608Y-139036388D01*
X207804745Y-138392200D01*
X207676608Y-137748012D01*
X207311705Y-137201895D01*
X206765588Y-136836992D01*
X206284009Y-136741200D01*
X205958791Y-136741200D01*
X205477212Y-136836992D01*
X205147863Y-137057056D01*
X205055209Y-136918391D01*
X204845165Y-136778043D01*
X204597400Y-136728760D01*
X202895600Y-136728760D01*
X202895600Y-136499640D01*
X204597400Y-136499640D01*
X204845165Y-136450357D01*
X205055209Y-136310009D01*
X205147863Y-136171344D01*
X205477212Y-136391408D01*
X205958791Y-136487200D01*
X206284009Y-136487200D01*
X206765588Y-136391408D01*
X207311705Y-136026505D01*
X207676608Y-135480388D01*
X207804745Y-134836200D01*
X207676608Y-134192012D01*
X207311705Y-133645895D01*
X206765588Y-133280992D01*
X206284009Y-133185200D01*
X205958791Y-133185200D01*
X205477212Y-133280992D01*
X205147863Y-133501056D01*
X205055209Y-133362391D01*
X204845165Y-133222043D01*
X204597400Y-133172760D01*
X202895600Y-133172760D01*
X202895600Y-132943640D01*
X204597400Y-132943640D01*
X204845165Y-132894357D01*
X205055209Y-132754009D01*
X205147863Y-132615344D01*
X205477212Y-132835408D01*
X205958791Y-132931200D01*
X206284009Y-132931200D01*
X206765588Y-132835408D01*
X207311705Y-132470505D01*
X207676608Y-131924388D01*
X207712598Y-131743450D01*
X218860400Y-131743450D01*
X218860400Y-132493350D01*
X219147374Y-133186167D01*
X219677633Y-133716426D01*
X220370450Y-134003400D01*
X221120350Y-134003400D01*
X221813167Y-133716426D01*
X222343426Y-133186167D01*
X222630400Y-132493350D01*
X222630400Y-131743450D01*
X222343426Y-131050633D01*
X221813167Y-130520374D01*
X221120350Y-130233400D01*
X220370450Y-130233400D01*
X219677633Y-130520374D01*
X219147374Y-131050633D01*
X218860400Y-131743450D01*
X207712598Y-131743450D01*
X207804745Y-131280200D01*
X207676608Y-130636012D01*
X207311705Y-130089895D01*
X206765588Y-129724992D01*
X206284009Y-129629200D01*
X205958791Y-129629200D01*
X205477212Y-129724992D01*
X205147863Y-129945056D01*
X205055209Y-129806391D01*
X204845165Y-129666043D01*
X204597400Y-129616760D01*
X202895600Y-129616760D01*
X202895600Y-127355640D01*
X204673600Y-127355640D01*
X204921365Y-127306357D01*
X205131409Y-127166009D01*
X205271757Y-126955965D01*
X205321040Y-126708200D01*
X205321040Y-126015800D01*
X211190805Y-126015800D01*
X211286656Y-126497673D01*
X211559615Y-126906185D01*
X211968127Y-127179144D01*
X212328364Y-127250800D01*
X213071636Y-127250800D01*
X213431873Y-127179144D01*
X213840385Y-126906185D01*
X214113344Y-126497673D01*
X214209195Y-126015800D01*
X214113344Y-125533927D01*
X213868131Y-125166940D01*
X214007809Y-125073609D01*
X214148157Y-124863565D01*
X214197440Y-124615800D01*
X214197440Y-123415800D01*
X214148157Y-123168035D01*
X214007809Y-122957991D01*
X213797765Y-122817643D01*
X213550000Y-122768360D01*
X211850000Y-122768360D01*
X211602235Y-122817643D01*
X211392191Y-122957991D01*
X211251843Y-123168035D01*
X211202560Y-123415800D01*
X211202560Y-124615800D01*
X211251843Y-124863565D01*
X211392191Y-125073609D01*
X211531869Y-125166940D01*
X211286656Y-125533927D01*
X211190805Y-126015800D01*
X205321040Y-126015800D01*
X205321040Y-124981000D01*
X205271757Y-124733235D01*
X205131409Y-124523191D01*
X204921365Y-124382843D01*
X204831190Y-124364906D01*
X205008332Y-124206636D01*
X205262309Y-123679391D01*
X205264958Y-123663626D01*
X205143817Y-123431600D01*
X203784600Y-123431600D01*
X203784600Y-123451600D01*
X203530600Y-123451600D01*
X203530600Y-123431600D01*
X203510600Y-123431600D01*
X203510600Y-123177600D01*
X203530600Y-123177600D01*
X203530600Y-123157600D01*
X203784600Y-123157600D01*
X203784600Y-123177600D01*
X205143817Y-123177600D01*
X205264958Y-122945574D01*
X205262309Y-122929809D01*
X205008332Y-122402564D01*
X204600868Y-122038510D01*
X204796788Y-121907600D01*
X205323029Y-121907600D01*
X205435600Y-121929992D01*
X205548171Y-121907600D01*
X205548172Y-121907600D01*
X205881576Y-121841282D01*
X206259657Y-121588657D01*
X206323427Y-121493218D01*
X206697618Y-121119027D01*
X206793057Y-121055257D01*
X207026553Y-120705805D01*
X207045682Y-120677177D01*
X207134392Y-120231200D01*
X207112000Y-120118628D01*
X207112000Y-111130000D01*
X211858966Y-111130000D01*
X211964272Y-111086381D01*
X212076055Y-111064146D01*
X212170820Y-111000826D01*
X212276126Y-110957207D01*
X212356724Y-110876609D01*
X212451489Y-110813289D01*
X212514809Y-110718524D01*
X212595407Y-110637926D01*
X212639026Y-110532620D01*
X212702346Y-110437855D01*
X212724581Y-110326072D01*
X212754744Y-110253253D01*
X213665201Y-111163711D01*
X213665200Y-115557291D01*
X212408764Y-116813727D01*
X212279341Y-116900205D01*
X212233692Y-116968523D01*
X211783062Y-117419154D01*
X211721695Y-117460158D01*
X211680691Y-117521525D01*
X211680690Y-117521526D01*
X211559245Y-117703281D01*
X211537158Y-117814321D01*
X211516599Y-117917675D01*
X211516599Y-117917679D01*
X211502201Y-117990063D01*
X211516599Y-118062447D01*
X211516599Y-118640753D01*
X211502201Y-118713137D01*
X211516599Y-118785521D01*
X211516599Y-118785524D01*
X211559245Y-118999919D01*
X211721694Y-119243042D01*
X211783064Y-119284048D01*
X212072352Y-119573336D01*
X212113358Y-119634706D01*
X212356480Y-119797155D01*
X212570875Y-119839801D01*
X212643263Y-119854200D01*
X212715651Y-119839801D01*
X215325953Y-119839801D01*
X215398337Y-119854199D01*
X215470721Y-119839801D01*
X215470725Y-119839801D01*
X215685120Y-119797155D01*
X215928242Y-119634706D01*
X215969248Y-119573336D01*
X216563478Y-118979107D01*
X216631796Y-118933458D01*
X216685973Y-118852376D01*
X218570925Y-118852376D01*
X218572290Y-120416441D01*
X218739851Y-121971505D01*
X219071711Y-123499958D01*
X219564111Y-124984493D01*
X220211476Y-126408297D01*
X221006475Y-127755248D01*
X221940105Y-129010093D01*
X223001794Y-130158622D01*
X224179519Y-131187828D01*
X225459943Y-132086057D01*
X226828567Y-132843137D01*
X228269892Y-133450494D01*
X229767596Y-133901252D01*
X231304720Y-134190306D01*
X232863856Y-134314381D01*
X234427349Y-134272075D01*
X235977494Y-134063864D01*
X237496737Y-133692108D01*
X238967873Y-133161015D01*
X240374244Y-132476601D01*
X241545256Y-131743450D01*
X243860400Y-131743450D01*
X243860400Y-132493350D01*
X244147374Y-133186167D01*
X244677633Y-133716426D01*
X245370450Y-134003400D01*
X246120350Y-134003400D01*
X246813167Y-133716426D01*
X247343426Y-133186167D01*
X247630400Y-132493350D01*
X247630400Y-131743450D01*
X247343426Y-131050633D01*
X246813167Y-130520374D01*
X246120350Y-130233400D01*
X245370450Y-130233400D01*
X244677633Y-130520374D01*
X244147374Y-131050633D01*
X243860400Y-131743450D01*
X241545256Y-131743450D01*
X241699923Y-131646616D01*
X242929898Y-130680457D01*
X244050241Y-129589067D01*
X245048265Y-128384805D01*
X245912669Y-127081306D01*
X246633663Y-125693334D01*
X247203083Y-124236604D01*
X247614481Y-122727613D01*
X247863198Y-121183450D01*
X247946418Y-119621600D01*
X247946396Y-119595947D01*
X247860450Y-118034245D01*
X247609038Y-116490518D01*
X247195007Y-114982248D01*
X246623045Y-113526514D01*
X245899630Y-112139802D01*
X245032952Y-110837814D01*
X244032828Y-109635295D01*
X242910582Y-108545862D01*
X241678922Y-107581852D01*
X240351797Y-106754182D01*
X240329647Y-106743450D01*
X243860400Y-106743450D01*
X243860400Y-107493350D01*
X244147374Y-108186167D01*
X244677633Y-108716426D01*
X245370450Y-109003400D01*
X246120350Y-109003400D01*
X246813167Y-108716426D01*
X247343426Y-108186167D01*
X247630400Y-107493350D01*
X247630400Y-106743450D01*
X247343426Y-106050633D01*
X246813167Y-105520374D01*
X246120350Y-105233400D01*
X245370450Y-105233400D01*
X244677633Y-105520374D01*
X244147374Y-106050633D01*
X243860400Y-106743450D01*
X240329647Y-106743450D01*
X238944234Y-106072223D01*
X237472173Y-105543699D01*
X235952283Y-105174595D01*
X234401778Y-104969090D01*
X232838213Y-104929512D01*
X231279295Y-105056309D01*
X229742679Y-105348045D01*
X228245763Y-105801416D01*
X226805501Y-106411289D01*
X225438200Y-107170756D01*
X224159346Y-108071218D01*
X222983419Y-109102478D01*
X221923737Y-110252858D01*
X220992298Y-111509331D01*
X220199651Y-112857667D01*
X219554772Y-114282600D01*
X219064963Y-115767991D01*
X218735772Y-117297022D01*
X218570925Y-118852376D01*
X216685973Y-118852376D01*
X216794599Y-118689807D01*
X216837338Y-118474944D01*
X216837338Y-118466741D01*
X216850136Y-118402401D01*
X216837338Y-118338061D01*
X216837338Y-117335950D01*
X216848261Y-117319603D01*
X216868931Y-117215690D01*
X217074218Y-117010403D01*
X217239400Y-116611620D01*
X217239400Y-116179980D01*
X217074218Y-115781197D01*
X216889400Y-115596379D01*
X216889400Y-108237850D01*
X217084070Y-108237850D01*
X217482853Y-108072668D01*
X217788068Y-107767453D01*
X217953250Y-107368670D01*
X217953250Y-106937030D01*
X217873067Y-106743450D01*
X218860400Y-106743450D01*
X218860400Y-107493350D01*
X219147374Y-108186167D01*
X219677633Y-108716426D01*
X220370450Y-109003400D01*
X221120350Y-109003400D01*
X221813167Y-108716426D01*
X222343426Y-108186167D01*
X222630400Y-107493350D01*
X222630400Y-106743450D01*
X222343426Y-106050633D01*
X221813167Y-105520374D01*
X221120350Y-105233400D01*
X220370450Y-105233400D01*
X219677633Y-105520374D01*
X219147374Y-106050633D01*
X218860400Y-106743450D01*
X217873067Y-106743450D01*
X217788068Y-106538247D01*
X217622584Y-106372763D01*
X219598673Y-104396674D01*
X219666857Y-104351115D01*
X219707863Y-104289745D01*
X221042537Y-102955072D01*
X221103905Y-102914067D01*
X221144909Y-102852700D01*
X222796160Y-101201450D01*
X222857658Y-101160358D01*
X222898749Y-101098861D01*
X222898751Y-101098859D01*
X223020461Y-100916707D01*
X223026886Y-100884406D01*
X223063200Y-100701844D01*
X223063200Y-100701841D01*
X223077629Y-100629301D01*
X223063694Y-100559241D01*
X223063200Y-100556760D01*
X223063200Y-100175327D01*
X223463744Y-100255000D01*
X223756256Y-100255000D01*
X224189418Y-100168839D01*
X224680625Y-99840625D01*
X224880000Y-99542239D01*
X225079375Y-99840625D01*
X225570582Y-100168839D01*
X226003744Y-100255000D01*
X226296256Y-100255000D01*
X226729418Y-100168839D01*
X227094251Y-99925066D01*
X228460050Y-101290866D01*
X228501142Y-101352364D01*
X228562639Y-101393455D01*
X228562641Y-101393457D01*
X228645095Y-101448551D01*
X228744793Y-101515167D01*
X228959656Y-101557906D01*
X228959659Y-101557906D01*
X229032199Y-101572335D01*
X229104740Y-101557906D01*
X236842091Y-101557906D01*
X237883450Y-102599266D01*
X237924542Y-102660764D01*
X237986039Y-102701855D01*
X237986041Y-102701857D01*
X238130742Y-102798543D01*
X238168193Y-102823567D01*
X238383056Y-102866306D01*
X238383059Y-102866306D01*
X238455599Y-102880735D01*
X238528140Y-102866306D01*
X246668197Y-102866306D01*
X247828200Y-104026309D01*
X247828201Y-111268655D01*
X247813771Y-111341200D01*
X247870939Y-111628606D01*
X247992649Y-111810758D01*
X247992652Y-111810761D01*
X248033743Y-111872258D01*
X248095240Y-111913349D01*
X250038000Y-113856110D01*
X250038001Y-119168055D01*
X250023571Y-119240600D01*
X250080739Y-119528006D01*
X250202449Y-119710158D01*
X250202452Y-119710161D01*
X250243543Y-119771658D01*
X250305040Y-119812749D01*
X252077563Y-121585273D01*
X252077564Y-127452581D01*
X251894345Y-127635800D01*
X251729163Y-128034583D01*
X251729163Y-128466223D01*
X251894345Y-128865006D01*
X252199560Y-129170221D01*
X252357005Y-129235437D01*
X252199560Y-129300653D01*
X251894345Y-129605868D01*
X251729163Y-130004651D01*
X251729163Y-130069184D01*
X251455397Y-130182582D01*
X251150182Y-130487797D01*
X250985000Y-130886580D01*
X250985000Y-131318220D01*
X251150182Y-131717003D01*
X251355470Y-131922291D01*
X251376139Y-132026202D01*
X251384200Y-132038266D01*
X251384200Y-132321290D01*
X249555091Y-134150400D01*
X248586540Y-134150400D01*
X248513999Y-134135971D01*
X248441459Y-134150400D01*
X248441456Y-134150400D01*
X248232259Y-134192012D01*
X248226593Y-134193139D01*
X248044441Y-134314849D01*
X248044439Y-134314851D01*
X247982942Y-134355942D01*
X247941850Y-134417440D01*
X247167491Y-135191800D01*
X245538540Y-135191800D01*
X245466000Y-135177371D01*
X245393459Y-135191800D01*
X245393456Y-135191800D01*
X245178593Y-135234539D01*
X244996441Y-135356249D01*
X244996439Y-135356251D01*
X244934942Y-135397342D01*
X244893851Y-135458840D01*
X244265000Y-136087690D01*
X244265000Y-135966580D01*
X244099818Y-135567797D01*
X243794603Y-135262582D01*
X243395820Y-135097400D01*
X242964180Y-135097400D01*
X242565397Y-135262582D01*
X242260182Y-135567797D01*
X242095000Y-135966580D01*
X242095000Y-136225691D01*
X241796031Y-136524660D01*
X241734531Y-136565753D01*
X241693438Y-136627253D01*
X241595065Y-136774479D01*
X241571728Y-136809405D01*
X241528989Y-137024268D01*
X241528989Y-137024271D01*
X241514560Y-137096811D01*
X241528989Y-137169351D01*
X241528990Y-140010484D01*
X241514560Y-140083029D01*
X241571728Y-140370435D01*
X241693438Y-140552587D01*
X241693441Y-140552590D01*
X241734532Y-140614087D01*
X241796029Y-140655178D01*
X244244411Y-143103560D01*
X244285502Y-143165058D01*
X244346999Y-143206149D01*
X244347001Y-143206151D01*
X244454812Y-143278188D01*
X244529153Y-143327861D01*
X244744016Y-143370600D01*
X244744019Y-143370600D01*
X244762380Y-143374252D01*
X244918256Y-143607537D01*
X244779591Y-143700191D01*
X244639243Y-143910235D01*
X244589960Y-144158000D01*
X244589960Y-146190000D01*
X244639243Y-146437765D01*
X244779591Y-146647809D01*
X244989635Y-146788157D01*
X245237400Y-146837440D01*
X247269400Y-146837440D01*
X247517165Y-146788157D01*
X247727209Y-146647809D01*
X247867557Y-146437765D01*
X247916840Y-146190000D01*
X247916840Y-146105159D01*
X259515000Y-146105159D01*
X259515000Y-146894841D01*
X259817199Y-147624412D01*
X260375588Y-148182801D01*
X261105159Y-148485000D01*
X261894841Y-148485000D01*
X262624412Y-148182801D01*
X263182801Y-147624412D01*
X263485000Y-146894841D01*
X263485000Y-146105159D01*
X263182801Y-145375588D01*
X262624412Y-144817199D01*
X261894841Y-144515000D01*
X261105159Y-144515000D01*
X260375588Y-144817199D01*
X259817199Y-145375588D01*
X259515000Y-146105159D01*
X247916840Y-146105159D01*
X247916840Y-145763068D01*
X248003658Y-145705058D01*
X248044354Y-145644152D01*
X248105259Y-145603457D01*
X248268062Y-145359806D01*
X248310801Y-145144943D01*
X248310801Y-145144939D01*
X248325230Y-145072399D01*
X248310801Y-144999859D01*
X248310801Y-142072555D01*
X248325230Y-142000015D01*
X248310801Y-141927474D01*
X248310801Y-141927471D01*
X248268062Y-141712608D01*
X248146352Y-141530456D01*
X248146350Y-141530454D01*
X248105259Y-141468957D01*
X248043761Y-141427865D01*
X247459535Y-140843640D01*
X247418443Y-140782141D01*
X247174792Y-140619338D01*
X246959929Y-140576599D01*
X246959925Y-140576599D01*
X246887385Y-140562170D01*
X246814845Y-140576599D01*
X244678909Y-140576599D01*
X244285086Y-140182777D01*
X244475971Y-139991892D01*
X244641153Y-139593109D01*
X244641153Y-139403751D01*
X245016427Y-139779026D01*
X245057519Y-139840524D01*
X245119016Y-139881615D01*
X245119018Y-139881617D01*
X245233604Y-139958181D01*
X245301170Y-140003327D01*
X245516033Y-140046066D01*
X245516036Y-140046066D01*
X245588577Y-140060495D01*
X245661117Y-140046066D01*
X248030556Y-140046066D01*
X248103096Y-140060495D01*
X248175636Y-140046066D01*
X248175640Y-140046066D01*
X248390503Y-140003327D01*
X248634154Y-139840524D01*
X248675249Y-139779021D01*
X249288370Y-139165901D01*
X249349868Y-139124809D01*
X249390959Y-139063312D01*
X249390961Y-139063310D01*
X249512671Y-138881158D01*
X249518022Y-138854255D01*
X249555410Y-138666295D01*
X249555410Y-138666292D01*
X249569839Y-138593751D01*
X249555410Y-138521212D01*
X249555410Y-137782600D01*
X251248421Y-137782600D01*
X251320961Y-137797029D01*
X251393501Y-137782600D01*
X251393505Y-137782600D01*
X251608368Y-137739861D01*
X251852019Y-137577058D01*
X251893112Y-137515558D01*
X254216870Y-135191800D01*
X254474896Y-135191800D01*
X253985183Y-135681513D01*
X253844835Y-135891557D01*
X253795552Y-136139322D01*
X253844835Y-136387087D01*
X253985183Y-136597131D01*
X254228114Y-136840062D01*
X254053577Y-136956685D01*
X252780785Y-138229477D01*
X252640437Y-138439521D01*
X252591154Y-138687286D01*
X252640437Y-138935051D01*
X252748815Y-139097249D01*
X252519442Y-139097249D01*
X252120659Y-139262431D01*
X251815444Y-139567646D01*
X251650262Y-139966429D01*
X251650262Y-140398069D01*
X251815444Y-140796852D01*
X252120659Y-141102067D01*
X252519442Y-141267249D01*
X252951082Y-141267249D01*
X253349865Y-141102067D01*
X253655080Y-140796852D01*
X253820262Y-140398069D01*
X253820262Y-140207987D01*
X253831970Y-140196280D01*
X253841445Y-140205755D01*
X254051489Y-140346103D01*
X254299254Y-140395386D01*
X254547019Y-140346103D01*
X254757063Y-140205755D01*
X256029855Y-138932963D01*
X256153524Y-138747880D01*
X256186036Y-138780392D01*
X256410540Y-138780392D01*
X256298288Y-138892644D01*
X256359980Y-138954336D01*
X256174897Y-139078005D01*
X254902105Y-140350797D01*
X254761757Y-140560841D01*
X254712474Y-140808606D01*
X254761757Y-141056371D01*
X254902105Y-141266415D01*
X255962765Y-142327075D01*
X256172809Y-142467423D01*
X256420574Y-142516706D01*
X256668339Y-142467423D01*
X256878383Y-142327075D01*
X258151175Y-141054283D01*
X258291523Y-140844239D01*
X258340806Y-140596474D01*
X258320914Y-140496470D01*
X258428373Y-140475095D01*
X258638417Y-140334747D01*
X259138400Y-139834764D01*
X259138400Y-140054899D01*
X258929903Y-140263396D01*
X258764721Y-140662179D01*
X258764721Y-141093819D01*
X258929903Y-141492602D01*
X259235118Y-141797817D01*
X259633901Y-141962999D01*
X260065541Y-141962999D01*
X260464324Y-141797817D01*
X260647542Y-141614599D01*
X261414320Y-141614599D01*
X261486860Y-141629028D01*
X261559400Y-141614599D01*
X261559404Y-141614599D01*
X261774267Y-141571860D01*
X262017918Y-141409057D01*
X262059011Y-141347557D01*
X262971773Y-140434796D01*
X263033271Y-140393704D01*
X263074362Y-140332207D01*
X263074364Y-140332205D01*
X263196074Y-140150053D01*
X263200579Y-140127406D01*
X263238813Y-139935190D01*
X263238813Y-139935187D01*
X263253242Y-139862646D01*
X263238813Y-139790106D01*
X263238813Y-138696092D01*
X263253242Y-138623553D01*
X263238813Y-138551014D01*
X263238813Y-138551010D01*
X263196074Y-138336147D01*
X263033271Y-138092496D01*
X262971771Y-138051403D01*
X262822768Y-137902400D01*
X263233220Y-137902400D01*
X263632003Y-137737218D01*
X263937218Y-137432003D01*
X264102400Y-137033220D01*
X264102400Y-136601580D01*
X263937218Y-136202797D01*
X263632003Y-135897582D01*
X263348705Y-135780236D01*
X263561298Y-135567643D01*
X263726480Y-135168860D01*
X263726480Y-134909749D01*
X264243880Y-134392350D01*
X264305378Y-134351258D01*
X264315000Y-134336857D01*
X264315000Y-146960206D01*
X264248395Y-147531494D01*
X264065819Y-148034483D01*
X263772427Y-148481980D01*
X263383961Y-148849977D01*
X262921253Y-149118739D01*
X262400153Y-149276565D01*
X261969495Y-149315000D01*
X203039794Y-149315000D01*
X202468506Y-149248395D01*
X201965517Y-149065819D01*
X201518020Y-148772427D01*
X201150023Y-148383961D01*
X200881261Y-147921253D01*
X200723435Y-147400153D01*
X200685000Y-146969495D01*
X200685000Y-146105159D01*
X201515000Y-146105159D01*
X201515000Y-146894841D01*
X201817199Y-147624412D01*
X202375588Y-148182801D01*
X203105159Y-148485000D01*
X203894841Y-148485000D01*
X204624412Y-148182801D01*
X205182801Y-147624412D01*
X205485000Y-146894841D01*
X205485000Y-146105159D01*
X205182801Y-145375588D01*
X204624412Y-144817199D01*
X203894841Y-144515000D01*
X203105159Y-144515000D01*
X202375588Y-144817199D01*
X201817199Y-145375588D01*
X201515000Y-146105159D01*
X200685000Y-146105159D01*
X200685000Y-97039793D01*
X200751605Y-96468506D01*
X200934182Y-95965515D01*
X201227572Y-95518021D01*
X201616039Y-95150023D01*
X202078745Y-94881262D01*
X202599847Y-94723435D01*
X203030505Y-94685000D01*
X217163891Y-94685000D01*
X216838161Y-95010730D01*
G36*
X259931573Y-138786483D02*
X259608797Y-138920182D01*
X259329177Y-139199802D01*
X259309095Y-139098843D01*
X259168747Y-138888799D01*
X258603061Y-138323113D01*
X258393017Y-138182765D01*
X258285277Y-138161334D01*
X258285277Y-138159638D01*
X258188605Y-137926249D01*
X258018504Y-137756148D01*
X257793997Y-137756148D01*
X257281875Y-138268270D01*
X257296018Y-138282413D01*
X257116413Y-138462018D01*
X257102270Y-138447875D01*
X257088128Y-138462018D01*
X256908523Y-138282413D01*
X256922665Y-138268270D01*
X256051660Y-137397265D01*
X256037518Y-137411408D01*
X255857913Y-137231803D01*
X255872055Y-137217660D01*
X256231265Y-137217660D01*
X257102270Y-138088665D01*
X257614392Y-137576543D01*
X257614392Y-137352036D01*
X257444291Y-137181935D01*
X257227706Y-137092224D01*
X257137995Y-136875639D01*
X256967894Y-136705538D01*
X256743387Y-136705538D01*
X256231265Y-137217660D01*
X255872055Y-137217660D01*
X255857913Y-137203518D01*
X256037518Y-137023913D01*
X256051660Y-137038055D01*
X256563782Y-136525933D01*
X256563782Y-136301426D01*
X256393681Y-136131325D01*
X256160292Y-136034653D01*
X256158596Y-136034653D01*
X256137165Y-135926913D01*
X255996817Y-135716869D01*
X255471748Y-135191800D01*
X256336891Y-135191800D01*
X259931573Y-138786483D01*
X259931573Y-138786483D01*
G37*
X259931573Y-138786483D02*
X259608797Y-138920182D01*
X259329177Y-139199802D01*
X259309095Y-139098843D01*
X259168747Y-138888799D01*
X258603061Y-138323113D01*
X258393017Y-138182765D01*
X258285277Y-138161334D01*
X258285277Y-138159638D01*
X258188605Y-137926249D01*
X258018504Y-137756148D01*
X257793997Y-137756148D01*
X257281875Y-138268270D01*
X257296018Y-138282413D01*
X257116413Y-138462018D01*
X257102270Y-138447875D01*
X257088128Y-138462018D01*
X256908523Y-138282413D01*
X256922665Y-138268270D01*
X256051660Y-137397265D01*
X256037518Y-137411408D01*
X255857913Y-137231803D01*
X255872055Y-137217660D01*
X256231265Y-137217660D01*
X257102270Y-138088665D01*
X257614392Y-137576543D01*
X257614392Y-137352036D01*
X257444291Y-137181935D01*
X257227706Y-137092224D01*
X257137995Y-136875639D01*
X256967894Y-136705538D01*
X256743387Y-136705538D01*
X256231265Y-137217660D01*
X255872055Y-137217660D01*
X255857913Y-137203518D01*
X256037518Y-137023913D01*
X256051660Y-137038055D01*
X256563782Y-136525933D01*
X256563782Y-136301426D01*
X256393681Y-136131325D01*
X256160292Y-136034653D01*
X256158596Y-136034653D01*
X256137165Y-135926913D01*
X255996817Y-135716869D01*
X255471748Y-135191800D01*
X256336891Y-135191800D01*
X259931573Y-138786483D01*
G36*
X261021688Y-131719689D02*
X261021688Y-131823219D01*
X261194481Y-132240379D01*
X261460596Y-132506494D01*
X261303242Y-132663849D01*
X261241742Y-132704942D01*
X261078939Y-132948594D01*
X261036200Y-133163457D01*
X261036200Y-133163460D01*
X261021771Y-133236000D01*
X261036200Y-133308541D01*
X261036201Y-135500255D01*
X261021771Y-135572800D01*
X261078939Y-135860206D01*
X261200649Y-136042358D01*
X261200652Y-136042361D01*
X261241743Y-136103858D01*
X261303240Y-136144949D01*
X261932400Y-136774110D01*
X261932400Y-137033220D01*
X262004526Y-137207346D01*
X261867990Y-137180187D01*
X261867986Y-137180187D01*
X261795446Y-137165758D01*
X261722906Y-137180187D01*
X261558197Y-137180187D01*
X260130416Y-135752405D01*
X260295900Y-135586921D01*
X260461082Y-135188138D01*
X260461082Y-134756498D01*
X260295900Y-134357715D01*
X259990685Y-134052500D01*
X259591902Y-133887318D01*
X259332791Y-133887318D01*
X258211882Y-132766409D01*
X258170789Y-132704909D01*
X257927138Y-132542106D01*
X257712275Y-132499367D01*
X257712271Y-132499367D01*
X257639731Y-132484938D01*
X257567191Y-132499367D01*
X254610300Y-132499367D01*
X256725657Y-130384010D01*
X256816620Y-130384010D01*
X256999838Y-130567228D01*
X257398621Y-130732410D01*
X257830261Y-130732410D01*
X258229044Y-130567228D01*
X258534259Y-130262013D01*
X258699441Y-129863230D01*
X258699441Y-129629200D01*
X258931200Y-129629200D01*
X261021688Y-131719689D01*
X261021688Y-131719689D01*
G37*
X261021688Y-131719689D02*
X261021688Y-131823219D01*
X261194481Y-132240379D01*
X261460596Y-132506494D01*
X261303242Y-132663849D01*
X261241742Y-132704942D01*
X261078939Y-132948594D01*
X261036200Y-133163457D01*
X261036200Y-133163460D01*
X261021771Y-133236000D01*
X261036200Y-133308541D01*
X261036201Y-135500255D01*
X261021771Y-135572800D01*
X261078939Y-135860206D01*
X261200649Y-136042358D01*
X261200652Y-136042361D01*
X261241743Y-136103858D01*
X261303240Y-136144949D01*
X261932400Y-136774110D01*
X261932400Y-137033220D01*
X262004526Y-137207346D01*
X261867990Y-137180187D01*
X261867986Y-137180187D01*
X261795446Y-137165758D01*
X261722906Y-137180187D01*
X261558197Y-137180187D01*
X260130416Y-135752405D01*
X260295900Y-135586921D01*
X260461082Y-135188138D01*
X260461082Y-134756498D01*
X260295900Y-134357715D01*
X259990685Y-134052500D01*
X259591902Y-133887318D01*
X259332791Y-133887318D01*
X258211882Y-132766409D01*
X258170789Y-132704909D01*
X257927138Y-132542106D01*
X257712275Y-132499367D01*
X257712271Y-132499367D01*
X257639731Y-132484938D01*
X257567191Y-132499367D01*
X254610300Y-132499367D01*
X256725657Y-130384010D01*
X256816620Y-130384010D01*
X256999838Y-130567228D01*
X257398621Y-130732410D01*
X257830261Y-130732410D01*
X258229044Y-130567228D01*
X258534259Y-130262013D01*
X258699441Y-129863230D01*
X258699441Y-129629200D01*
X258931200Y-129629200D01*
X261021688Y-131719689D01*
G36*
X262531494Y-94751605D02*
X263034485Y-94934182D01*
X263481979Y-95227572D01*
X263849977Y-95616039D01*
X264118738Y-96078745D01*
X264276565Y-96599847D01*
X264315001Y-97030517D01*
X264315000Y-129996463D01*
X264305378Y-129982062D01*
X264243881Y-129940971D01*
X256515000Y-122212091D01*
X256515000Y-120913340D01*
X256529429Y-120840800D01*
X256515000Y-120768257D01*
X256515000Y-120768256D01*
X256472261Y-120553393D01*
X256411296Y-120462153D01*
X256350551Y-120371241D01*
X256350549Y-120371239D01*
X256309458Y-120309742D01*
X256247961Y-120268651D01*
X254961496Y-118982186D01*
X255127188Y-118949228D01*
X255673305Y-118584325D01*
X256038208Y-118038208D01*
X256166345Y-117394020D01*
X256038208Y-116749832D01*
X255818144Y-116420483D01*
X255956809Y-116327829D01*
X256097157Y-116117785D01*
X256146440Y-115870020D01*
X256146440Y-115743020D01*
X257019722Y-115743020D01*
X257141351Y-115925049D01*
X257351395Y-116065397D01*
X257599160Y-116114680D01*
X258004035Y-116114680D01*
X258049160Y-116123656D01*
X258094285Y-116114680D01*
X258499160Y-116114680D01*
X258746925Y-116065397D01*
X258956969Y-115925049D01*
X259097317Y-115715005D01*
X259146600Y-115467240D01*
X259146600Y-114967240D01*
X259097317Y-114719475D01*
X258956969Y-114509431D01*
X258893826Y-114467240D01*
X258916275Y-114452240D01*
X259179160Y-114452240D01*
X259179160Y-115391600D01*
X259204594Y-115519468D01*
X259183400Y-115626020D01*
X259183400Y-116876020D01*
X259232683Y-117123785D01*
X259373031Y-117333829D01*
X259583075Y-117474177D01*
X259830840Y-117523460D01*
X260830840Y-117523460D01*
X261078605Y-117474177D01*
X261288649Y-117333829D01*
X261329494Y-117272700D01*
X261471142Y-117414347D01*
X261704531Y-117511020D01*
X262045090Y-117511020D01*
X262203840Y-117352270D01*
X262203840Y-116378020D01*
X262457840Y-116378020D01*
X262457840Y-117352270D01*
X262616590Y-117511020D01*
X262957149Y-117511020D01*
X263190538Y-117414347D01*
X263369167Y-117235719D01*
X263465840Y-117002330D01*
X263465840Y-116536770D01*
X263307090Y-116378020D01*
X262457840Y-116378020D01*
X262203840Y-116378020D01*
X262183840Y-116378020D01*
X262183840Y-116124020D01*
X262203840Y-116124020D01*
X262203840Y-115922995D01*
X262299600Y-115860331D01*
X262299600Y-115149770D01*
X262457840Y-115149770D01*
X262457840Y-116124020D01*
X263307090Y-116124020D01*
X263465840Y-115965270D01*
X263465840Y-115499710D01*
X263451366Y-115464766D01*
X263549247Y-115335301D01*
X263671856Y-114864296D01*
X263509147Y-114668600D01*
X262553600Y-114668600D01*
X262553600Y-115054010D01*
X262457840Y-115149770D01*
X262299600Y-115149770D01*
X262299600Y-114668600D01*
X262279600Y-114668600D01*
X262279600Y-114414600D01*
X262299600Y-114414600D01*
X262299600Y-113222869D01*
X262553600Y-113222869D01*
X262553600Y-114414600D01*
X263509147Y-114414600D01*
X263671856Y-114218904D01*
X263549247Y-113747899D01*
X263255725Y-113359667D01*
X262835976Y-113113314D01*
X262744209Y-113098138D01*
X262553600Y-113222869D01*
X262299600Y-113222869D01*
X262108991Y-113098138D01*
X262017224Y-113113314D01*
X261597475Y-113359667D01*
X261582103Y-113379999D01*
X261484409Y-113233791D01*
X261274365Y-113093443D01*
X261026600Y-113044160D01*
X260631609Y-113044160D01*
X260602763Y-113024886D01*
X260388368Y-112982240D01*
X260388364Y-112982240D01*
X260315980Y-112967842D01*
X260243596Y-112982240D01*
X258916275Y-112982240D01*
X258746925Y-112869083D01*
X258499160Y-112819800D01*
X257774456Y-112819800D01*
X257843707Y-112750549D01*
X257917933Y-112700953D01*
X258114419Y-112406890D01*
X258166000Y-112147576D01*
X258166000Y-112147575D01*
X258183416Y-112060020D01*
X258166000Y-111972465D01*
X258166000Y-109625680D01*
X258656640Y-109625680D01*
X258904405Y-109576397D01*
X259073755Y-109463240D01*
X259126812Y-109463240D01*
X259179160Y-109473653D01*
X259179160Y-109829000D01*
X259205151Y-109959666D01*
X259156220Y-110205660D01*
X259156220Y-111455660D01*
X259205503Y-111703425D01*
X259345851Y-111913469D01*
X259555895Y-112053817D01*
X259803660Y-112103100D01*
X260803660Y-112103100D01*
X261051425Y-112053817D01*
X261261469Y-111913469D01*
X261302314Y-111852340D01*
X261443962Y-111993987D01*
X261677351Y-112090660D01*
X262017910Y-112090660D01*
X262176660Y-111931910D01*
X262176660Y-110957660D01*
X262430660Y-110957660D01*
X262430660Y-111931910D01*
X262589410Y-112090660D01*
X262929969Y-112090660D01*
X263163358Y-111993987D01*
X263341987Y-111815359D01*
X263438660Y-111581970D01*
X263438660Y-111116410D01*
X263279910Y-110957660D01*
X262430660Y-110957660D01*
X262176660Y-110957660D01*
X262156660Y-110957660D01*
X262156660Y-110703660D01*
X262176660Y-110703660D01*
X262176660Y-110378181D01*
X262299600Y-110297731D01*
X262299600Y-109729410D01*
X262430660Y-109729410D01*
X262430660Y-110703660D01*
X263279910Y-110703660D01*
X263438660Y-110544910D01*
X263438660Y-110079350D01*
X263395742Y-109975737D01*
X263549247Y-109772701D01*
X263671856Y-109301696D01*
X263509147Y-109106000D01*
X262553600Y-109106000D01*
X262553600Y-109606470D01*
X262430660Y-109729410D01*
X262299600Y-109729410D01*
X262299600Y-109106000D01*
X262279600Y-109106000D01*
X262279600Y-108852000D01*
X262299600Y-108852000D01*
X262299600Y-107660269D01*
X262553600Y-107660269D01*
X262553600Y-108852000D01*
X263509147Y-108852000D01*
X263671856Y-108656304D01*
X263549247Y-108185299D01*
X263255725Y-107797067D01*
X262835976Y-107550714D01*
X262744209Y-107535538D01*
X262553600Y-107660269D01*
X262299600Y-107660269D01*
X262108991Y-107535538D01*
X262017224Y-107550714D01*
X261597475Y-107797067D01*
X261582103Y-107817399D01*
X261484409Y-107671191D01*
X261274365Y-107530843D01*
X261026600Y-107481560D01*
X259944000Y-107481560D01*
X259944000Y-106771640D01*
X260866400Y-106771640D01*
X261114165Y-106722357D01*
X261324209Y-106582009D01*
X261365054Y-106520880D01*
X261506702Y-106662527D01*
X261740091Y-106759200D01*
X262080650Y-106759200D01*
X262239400Y-106600450D01*
X262239400Y-105626200D01*
X262493400Y-105626200D01*
X262493400Y-106600450D01*
X262652150Y-106759200D01*
X262992709Y-106759200D01*
X263226098Y-106662527D01*
X263404727Y-106483899D01*
X263501400Y-106250510D01*
X263501400Y-105784950D01*
X263342650Y-105626200D01*
X262493400Y-105626200D01*
X262239400Y-105626200D01*
X262219400Y-105626200D01*
X262219400Y-105372200D01*
X262239400Y-105372200D01*
X262239400Y-104774525D01*
X262299600Y-104735131D01*
X262299600Y-104397950D01*
X262493400Y-104397950D01*
X262493400Y-105372200D01*
X263342650Y-105372200D01*
X263501400Y-105213450D01*
X263501400Y-104747890D01*
X263404727Y-104514501D01*
X263355969Y-104465743D01*
X263549247Y-104210101D01*
X263671856Y-103739096D01*
X263509147Y-103543400D01*
X262553600Y-103543400D01*
X262553600Y-104337750D01*
X262493400Y-104397950D01*
X262299600Y-104397950D01*
X262299600Y-103543400D01*
X262279600Y-103543400D01*
X262279600Y-103289400D01*
X262299600Y-103289400D01*
X262299600Y-102097669D01*
X262553600Y-102097669D01*
X262553600Y-103289400D01*
X263509147Y-103289400D01*
X263671856Y-103093704D01*
X263549247Y-102622699D01*
X263255725Y-102234467D01*
X262835976Y-101988114D01*
X262744209Y-101972938D01*
X262553600Y-102097669D01*
X262299600Y-102097669D01*
X262108991Y-101972938D01*
X262017224Y-101988114D01*
X261597475Y-102234467D01*
X261582103Y-102254799D01*
X261484409Y-102108591D01*
X261274365Y-101968243D01*
X261026600Y-101918960D01*
X259826600Y-101918960D01*
X259578835Y-101968243D01*
X259368791Y-102108591D01*
X259228443Y-102318635D01*
X259179160Y-102566400D01*
X259179160Y-102949940D01*
X259073755Y-102949940D01*
X258954396Y-102870186D01*
X258943240Y-102814097D01*
X258943240Y-102814096D01*
X258900501Y-102599233D01*
X258859835Y-102538372D01*
X258778791Y-102417081D01*
X258778789Y-102417079D01*
X258737698Y-102355582D01*
X258676201Y-102314491D01*
X256469529Y-100107819D01*
X256503000Y-100090155D01*
X256503000Y-98897000D01*
X256757000Y-98897000D01*
X256757000Y-100090155D01*
X256986890Y-100211476D01*
X257396924Y-100041645D01*
X257825183Y-99651358D01*
X258071486Y-99126892D01*
X257950819Y-98897000D01*
X256757000Y-98897000D01*
X256503000Y-98897000D01*
X256483000Y-98897000D01*
X256483000Y-98643000D01*
X256503000Y-98643000D01*
X256503000Y-98623000D01*
X256757000Y-98623000D01*
X256757000Y-98643000D01*
X257950819Y-98643000D01*
X258071486Y-98413108D01*
X257825183Y-97888642D01*
X257400214Y-97501353D01*
X257700625Y-97300625D01*
X257831231Y-97105159D01*
X259515000Y-97105159D01*
X259515000Y-97894841D01*
X259817199Y-98624412D01*
X260375588Y-99182801D01*
X261105159Y-99485000D01*
X261894841Y-99485000D01*
X262624412Y-99182801D01*
X263182801Y-98624412D01*
X263485000Y-97894841D01*
X263485000Y-97105159D01*
X263182801Y-96375588D01*
X262624412Y-95817199D01*
X261894841Y-95515000D01*
X261105159Y-95515000D01*
X260375588Y-95817199D01*
X259817199Y-96375588D01*
X259515000Y-97105159D01*
X257831231Y-97105159D01*
X258028839Y-96809418D01*
X258144092Y-96230000D01*
X258028839Y-95650582D01*
X257700625Y-95159375D01*
X257209418Y-94831161D01*
X256776256Y-94745000D01*
X256483744Y-94745000D01*
X256234103Y-94794656D01*
X256124447Y-94685000D01*
X261960207Y-94685000D01*
X262531494Y-94751605D01*
X262531494Y-94751605D01*
G37*
X262531494Y-94751605D02*
X263034485Y-94934182D01*
X263481979Y-95227572D01*
X263849977Y-95616039D01*
X264118738Y-96078745D01*
X264276565Y-96599847D01*
X264315001Y-97030517D01*
X264315000Y-129996463D01*
X264305378Y-129982062D01*
X264243881Y-129940971D01*
X256515000Y-122212091D01*
X256515000Y-120913340D01*
X256529429Y-120840800D01*
X256515000Y-120768257D01*
X256515000Y-120768256D01*
X256472261Y-120553393D01*
X256411296Y-120462153D01*
X256350551Y-120371241D01*
X256350549Y-120371239D01*
X256309458Y-120309742D01*
X256247961Y-120268651D01*
X254961496Y-118982186D01*
X255127188Y-118949228D01*
X255673305Y-118584325D01*
X256038208Y-118038208D01*
X256166345Y-117394020D01*
X256038208Y-116749832D01*
X255818144Y-116420483D01*
X255956809Y-116327829D01*
X256097157Y-116117785D01*
X256146440Y-115870020D01*
X256146440Y-115743020D01*
X257019722Y-115743020D01*
X257141351Y-115925049D01*
X257351395Y-116065397D01*
X257599160Y-116114680D01*
X258004035Y-116114680D01*
X258049160Y-116123656D01*
X258094285Y-116114680D01*
X258499160Y-116114680D01*
X258746925Y-116065397D01*
X258956969Y-115925049D01*
X259097317Y-115715005D01*
X259146600Y-115467240D01*
X259146600Y-114967240D01*
X259097317Y-114719475D01*
X258956969Y-114509431D01*
X258893826Y-114467240D01*
X258916275Y-114452240D01*
X259179160Y-114452240D01*
X259179160Y-115391600D01*
X259204594Y-115519468D01*
X259183400Y-115626020D01*
X259183400Y-116876020D01*
X259232683Y-117123785D01*
X259373031Y-117333829D01*
X259583075Y-117474177D01*
X259830840Y-117523460D01*
X260830840Y-117523460D01*
X261078605Y-117474177D01*
X261288649Y-117333829D01*
X261329494Y-117272700D01*
X261471142Y-117414347D01*
X261704531Y-117511020D01*
X262045090Y-117511020D01*
X262203840Y-117352270D01*
X262203840Y-116378020D01*
X262457840Y-116378020D01*
X262457840Y-117352270D01*
X262616590Y-117511020D01*
X262957149Y-117511020D01*
X263190538Y-117414347D01*
X263369167Y-117235719D01*
X263465840Y-117002330D01*
X263465840Y-116536770D01*
X263307090Y-116378020D01*
X262457840Y-116378020D01*
X262203840Y-116378020D01*
X262183840Y-116378020D01*
X262183840Y-116124020D01*
X262203840Y-116124020D01*
X262203840Y-115922995D01*
X262299600Y-115860331D01*
X262299600Y-115149770D01*
X262457840Y-115149770D01*
X262457840Y-116124020D01*
X263307090Y-116124020D01*
X263465840Y-115965270D01*
X263465840Y-115499710D01*
X263451366Y-115464766D01*
X263549247Y-115335301D01*
X263671856Y-114864296D01*
X263509147Y-114668600D01*
X262553600Y-114668600D01*
X262553600Y-115054010D01*
X262457840Y-115149770D01*
X262299600Y-115149770D01*
X262299600Y-114668600D01*
X262279600Y-114668600D01*
X262279600Y-114414600D01*
X262299600Y-114414600D01*
X262299600Y-113222869D01*
X262553600Y-113222869D01*
X262553600Y-114414600D01*
X263509147Y-114414600D01*
X263671856Y-114218904D01*
X263549247Y-113747899D01*
X263255725Y-113359667D01*
X262835976Y-113113314D01*
X262744209Y-113098138D01*
X262553600Y-113222869D01*
X262299600Y-113222869D01*
X262108991Y-113098138D01*
X262017224Y-113113314D01*
X261597475Y-113359667D01*
X261582103Y-113379999D01*
X261484409Y-113233791D01*
X261274365Y-113093443D01*
X261026600Y-113044160D01*
X260631609Y-113044160D01*
X260602763Y-113024886D01*
X260388368Y-112982240D01*
X260388364Y-112982240D01*
X260315980Y-112967842D01*
X260243596Y-112982240D01*
X258916275Y-112982240D01*
X258746925Y-112869083D01*
X258499160Y-112819800D01*
X257774456Y-112819800D01*
X257843707Y-112750549D01*
X257917933Y-112700953D01*
X258114419Y-112406890D01*
X258166000Y-112147576D01*
X258166000Y-112147575D01*
X258183416Y-112060020D01*
X258166000Y-111972465D01*
X258166000Y-109625680D01*
X258656640Y-109625680D01*
X258904405Y-109576397D01*
X259073755Y-109463240D01*
X259126812Y-109463240D01*
X259179160Y-109473653D01*
X259179160Y-109829000D01*
X259205151Y-109959666D01*
X259156220Y-110205660D01*
X259156220Y-111455660D01*
X259205503Y-111703425D01*
X259345851Y-111913469D01*
X259555895Y-112053817D01*
X259803660Y-112103100D01*
X260803660Y-112103100D01*
X261051425Y-112053817D01*
X261261469Y-111913469D01*
X261302314Y-111852340D01*
X261443962Y-111993987D01*
X261677351Y-112090660D01*
X262017910Y-112090660D01*
X262176660Y-111931910D01*
X262176660Y-110957660D01*
X262430660Y-110957660D01*
X262430660Y-111931910D01*
X262589410Y-112090660D01*
X262929969Y-112090660D01*
X263163358Y-111993987D01*
X263341987Y-111815359D01*
X263438660Y-111581970D01*
X263438660Y-111116410D01*
X263279910Y-110957660D01*
X262430660Y-110957660D01*
X262176660Y-110957660D01*
X262156660Y-110957660D01*
X262156660Y-110703660D01*
X262176660Y-110703660D01*
X262176660Y-110378181D01*
X262299600Y-110297731D01*
X262299600Y-109729410D01*
X262430660Y-109729410D01*
X262430660Y-110703660D01*
X263279910Y-110703660D01*
X263438660Y-110544910D01*
X263438660Y-110079350D01*
X263395742Y-109975737D01*
X263549247Y-109772701D01*
X263671856Y-109301696D01*
X263509147Y-109106000D01*
X262553600Y-109106000D01*
X262553600Y-109606470D01*
X262430660Y-109729410D01*
X262299600Y-109729410D01*
X262299600Y-109106000D01*
X262279600Y-109106000D01*
X262279600Y-108852000D01*
X262299600Y-108852000D01*
X262299600Y-107660269D01*
X262553600Y-107660269D01*
X262553600Y-108852000D01*
X263509147Y-108852000D01*
X263671856Y-108656304D01*
X263549247Y-108185299D01*
X263255725Y-107797067D01*
X262835976Y-107550714D01*
X262744209Y-107535538D01*
X262553600Y-107660269D01*
X262299600Y-107660269D01*
X262108991Y-107535538D01*
X262017224Y-107550714D01*
X261597475Y-107797067D01*
X261582103Y-107817399D01*
X261484409Y-107671191D01*
X261274365Y-107530843D01*
X261026600Y-107481560D01*
X259944000Y-107481560D01*
X259944000Y-106771640D01*
X260866400Y-106771640D01*
X261114165Y-106722357D01*
X261324209Y-106582009D01*
X261365054Y-106520880D01*
X261506702Y-106662527D01*
X261740091Y-106759200D01*
X262080650Y-106759200D01*
X262239400Y-106600450D01*
X262239400Y-105626200D01*
X262493400Y-105626200D01*
X262493400Y-106600450D01*
X262652150Y-106759200D01*
X262992709Y-106759200D01*
X263226098Y-106662527D01*
X263404727Y-106483899D01*
X263501400Y-106250510D01*
X263501400Y-105784950D01*
X263342650Y-105626200D01*
X262493400Y-105626200D01*
X262239400Y-105626200D01*
X262219400Y-105626200D01*
X262219400Y-105372200D01*
X262239400Y-105372200D01*
X262239400Y-104774525D01*
X262299600Y-104735131D01*
X262299600Y-104397950D01*
X262493400Y-104397950D01*
X262493400Y-105372200D01*
X263342650Y-105372200D01*
X263501400Y-105213450D01*
X263501400Y-104747890D01*
X263404727Y-104514501D01*
X263355969Y-104465743D01*
X263549247Y-104210101D01*
X263671856Y-103739096D01*
X263509147Y-103543400D01*
X262553600Y-103543400D01*
X262553600Y-104337750D01*
X262493400Y-104397950D01*
X262299600Y-104397950D01*
X262299600Y-103543400D01*
X262279600Y-103543400D01*
X262279600Y-103289400D01*
X262299600Y-103289400D01*
X262299600Y-102097669D01*
X262553600Y-102097669D01*
X262553600Y-103289400D01*
X263509147Y-103289400D01*
X263671856Y-103093704D01*
X263549247Y-102622699D01*
X263255725Y-102234467D01*
X262835976Y-101988114D01*
X262744209Y-101972938D01*
X262553600Y-102097669D01*
X262299600Y-102097669D01*
X262108991Y-101972938D01*
X262017224Y-101988114D01*
X261597475Y-102234467D01*
X261582103Y-102254799D01*
X261484409Y-102108591D01*
X261274365Y-101968243D01*
X261026600Y-101918960D01*
X259826600Y-101918960D01*
X259578835Y-101968243D01*
X259368791Y-102108591D01*
X259228443Y-102318635D01*
X259179160Y-102566400D01*
X259179160Y-102949940D01*
X259073755Y-102949940D01*
X258954396Y-102870186D01*
X258943240Y-102814097D01*
X258943240Y-102814096D01*
X258900501Y-102599233D01*
X258859835Y-102538372D01*
X258778791Y-102417081D01*
X258778789Y-102417079D01*
X258737698Y-102355582D01*
X258676201Y-102314491D01*
X256469529Y-100107819D01*
X256503000Y-100090155D01*
X256503000Y-98897000D01*
X256757000Y-98897000D01*
X256757000Y-100090155D01*
X256986890Y-100211476D01*
X257396924Y-100041645D01*
X257825183Y-99651358D01*
X258071486Y-99126892D01*
X257950819Y-98897000D01*
X256757000Y-98897000D01*
X256503000Y-98897000D01*
X256483000Y-98897000D01*
X256483000Y-98643000D01*
X256503000Y-98643000D01*
X256503000Y-98623000D01*
X256757000Y-98623000D01*
X256757000Y-98643000D01*
X257950819Y-98643000D01*
X258071486Y-98413108D01*
X257825183Y-97888642D01*
X257400214Y-97501353D01*
X257700625Y-97300625D01*
X257831231Y-97105159D01*
X259515000Y-97105159D01*
X259515000Y-97894841D01*
X259817199Y-98624412D01*
X260375588Y-99182801D01*
X261105159Y-99485000D01*
X261894841Y-99485000D01*
X262624412Y-99182801D01*
X263182801Y-98624412D01*
X263485000Y-97894841D01*
X263485000Y-97105159D01*
X263182801Y-96375588D01*
X262624412Y-95817199D01*
X261894841Y-95515000D01*
X261105159Y-95515000D01*
X260375588Y-95817199D01*
X259817199Y-96375588D01*
X259515000Y-97105159D01*
X257831231Y-97105159D01*
X258028839Y-96809418D01*
X258144092Y-96230000D01*
X258028839Y-95650582D01*
X257700625Y-95159375D01*
X257209418Y-94831161D01*
X256776256Y-94745000D01*
X256483744Y-94745000D01*
X256234103Y-94794656D01*
X256124447Y-94685000D01*
X261960207Y-94685000D01*
X262531494Y-94751605D01*
G36*
X256715239Y-103388348D02*
X256715240Y-104106236D01*
X256700810Y-104178781D01*
X256757978Y-104466187D01*
X256879688Y-104648339D01*
X256879691Y-104648342D01*
X256920782Y-104709839D01*
X256982281Y-104750931D01*
X257057105Y-104825756D01*
X257098200Y-104887258D01*
X257116281Y-104899340D01*
X257109200Y-104934940D01*
X257109200Y-105227800D01*
X257051234Y-105227800D01*
X256695980Y-105374951D01*
X256695980Y-105278750D01*
X256599307Y-105045361D01*
X256420678Y-104866733D01*
X256187289Y-104770060D01*
X256003528Y-104770060D01*
X256296125Y-104598333D01*
X256589647Y-104210101D01*
X256712256Y-103739096D01*
X256549547Y-103543400D01*
X255594000Y-103543400D01*
X255594000Y-104735131D01*
X255767877Y-104848913D01*
X255687980Y-104928810D01*
X255687980Y-105903060D01*
X255707980Y-105903060D01*
X255707980Y-106157060D01*
X255687980Y-106157060D01*
X255687980Y-107131310D01*
X255846730Y-107290060D01*
X256187289Y-107290060D01*
X256388001Y-107206922D01*
X256388000Y-107943454D01*
X256277325Y-107797067D01*
X255857576Y-107550714D01*
X255765809Y-107535538D01*
X255575200Y-107660269D01*
X255575200Y-108852000D01*
X255595200Y-108852000D01*
X255595200Y-109106000D01*
X255575200Y-109106000D01*
X255575200Y-110297731D01*
X255686200Y-110370367D01*
X255686200Y-111011000D01*
X255706200Y-111011000D01*
X255706200Y-111265000D01*
X255686200Y-111265000D01*
X255686200Y-112239250D01*
X255763367Y-112316417D01*
X254889205Y-113190580D01*
X253467000Y-113190580D01*
X253289244Y-113225937D01*
X253289244Y-112888355D01*
X253303673Y-112815815D01*
X253289244Y-112743272D01*
X253289244Y-112743271D01*
X253246505Y-112528408D01*
X253167681Y-112410440D01*
X254059200Y-112410440D01*
X254306965Y-112361157D01*
X254517009Y-112220809D01*
X254557854Y-112159680D01*
X254699502Y-112301327D01*
X254932891Y-112398000D01*
X255273450Y-112398000D01*
X255432200Y-112239250D01*
X255432200Y-111265000D01*
X255412200Y-111265000D01*
X255412200Y-111011000D01*
X255432200Y-111011000D01*
X255432200Y-110036750D01*
X255321200Y-109925750D01*
X255321200Y-109106000D01*
X255301200Y-109106000D01*
X255301200Y-108852000D01*
X255321200Y-108852000D01*
X255321200Y-107660269D01*
X255130591Y-107535538D01*
X255038824Y-107550714D01*
X254619075Y-107797067D01*
X254603703Y-107817399D01*
X254506009Y-107671191D01*
X254295965Y-107530843D01*
X254048200Y-107481560D01*
X252848200Y-107481560D01*
X252600435Y-107530843D01*
X252456057Y-107627314D01*
X252465097Y-107581866D01*
X252839926Y-107426607D01*
X252980117Y-107286416D01*
X253060980Y-107302500D01*
X254060980Y-107302500D01*
X254308745Y-107253217D01*
X254518789Y-107112869D01*
X254559634Y-107051740D01*
X254701282Y-107193387D01*
X254934671Y-107290060D01*
X255275230Y-107290060D01*
X255433980Y-107131310D01*
X255433980Y-106157060D01*
X255413980Y-106157060D01*
X255413980Y-105903060D01*
X255433980Y-105903060D01*
X255433980Y-104928810D01*
X255279736Y-104774566D01*
X255340000Y-104735131D01*
X255340000Y-103543400D01*
X255320000Y-103543400D01*
X255320000Y-103289400D01*
X255340000Y-103289400D01*
X255340000Y-103269400D01*
X255594000Y-103269400D01*
X255594000Y-103289400D01*
X256549547Y-103289400D01*
X256579847Y-103252956D01*
X256715239Y-103388348D01*
X256715239Y-103388348D01*
G37*
X256715239Y-103388348D02*
X256715240Y-104106236D01*
X256700810Y-104178781D01*
X256757978Y-104466187D01*
X256879688Y-104648339D01*
X256879691Y-104648342D01*
X256920782Y-104709839D01*
X256982281Y-104750931D01*
X257057105Y-104825756D01*
X257098200Y-104887258D01*
X257116281Y-104899340D01*
X257109200Y-104934940D01*
X257109200Y-105227800D01*
X257051234Y-105227800D01*
X256695980Y-105374951D01*
X256695980Y-105278750D01*
X256599307Y-105045361D01*
X256420678Y-104866733D01*
X256187289Y-104770060D01*
X256003528Y-104770060D01*
X256296125Y-104598333D01*
X256589647Y-104210101D01*
X256712256Y-103739096D01*
X256549547Y-103543400D01*
X255594000Y-103543400D01*
X255594000Y-104735131D01*
X255767877Y-104848913D01*
X255687980Y-104928810D01*
X255687980Y-105903060D01*
X255707980Y-105903060D01*
X255707980Y-106157060D01*
X255687980Y-106157060D01*
X255687980Y-107131310D01*
X255846730Y-107290060D01*
X256187289Y-107290060D01*
X256388001Y-107206922D01*
X256388000Y-107943454D01*
X256277325Y-107797067D01*
X255857576Y-107550714D01*
X255765809Y-107535538D01*
X255575200Y-107660269D01*
X255575200Y-108852000D01*
X255595200Y-108852000D01*
X255595200Y-109106000D01*
X255575200Y-109106000D01*
X255575200Y-110297731D01*
X255686200Y-110370367D01*
X255686200Y-111011000D01*
X255706200Y-111011000D01*
X255706200Y-111265000D01*
X255686200Y-111265000D01*
X255686200Y-112239250D01*
X255763367Y-112316417D01*
X254889205Y-113190580D01*
X253467000Y-113190580D01*
X253289244Y-113225937D01*
X253289244Y-112888355D01*
X253303673Y-112815815D01*
X253289244Y-112743272D01*
X253289244Y-112743271D01*
X253246505Y-112528408D01*
X253167681Y-112410440D01*
X254059200Y-112410440D01*
X254306965Y-112361157D01*
X254517009Y-112220809D01*
X254557854Y-112159680D01*
X254699502Y-112301327D01*
X254932891Y-112398000D01*
X255273450Y-112398000D01*
X255432200Y-112239250D01*
X255432200Y-111265000D01*
X255412200Y-111265000D01*
X255412200Y-111011000D01*
X255432200Y-111011000D01*
X255432200Y-110036750D01*
X255321200Y-109925750D01*
X255321200Y-109106000D01*
X255301200Y-109106000D01*
X255301200Y-108852000D01*
X255321200Y-108852000D01*
X255321200Y-107660269D01*
X255130591Y-107535538D01*
X255038824Y-107550714D01*
X254619075Y-107797067D01*
X254603703Y-107817399D01*
X254506009Y-107671191D01*
X254295965Y-107530843D01*
X254048200Y-107481560D01*
X252848200Y-107481560D01*
X252600435Y-107530843D01*
X252456057Y-107627314D01*
X252465097Y-107581866D01*
X252839926Y-107426607D01*
X252980117Y-107286416D01*
X253060980Y-107302500D01*
X254060980Y-107302500D01*
X254308745Y-107253217D01*
X254518789Y-107112869D01*
X254559634Y-107051740D01*
X254701282Y-107193387D01*
X254934671Y-107290060D01*
X255275230Y-107290060D01*
X255433980Y-107131310D01*
X255433980Y-106157060D01*
X255413980Y-106157060D01*
X255413980Y-105903060D01*
X255433980Y-105903060D01*
X255433980Y-104928810D01*
X255279736Y-104774566D01*
X255340000Y-104735131D01*
X255340000Y-103543400D01*
X255320000Y-103543400D01*
X255320000Y-103289400D01*
X255340000Y-103289400D01*
X255340000Y-103269400D01*
X255594000Y-103269400D01*
X255594000Y-103289400D01*
X256549547Y-103289400D01*
X256579847Y-103252956D01*
X256715239Y-103388348D01*
G36*
X214919375Y-99840625D02*
X215410582Y-100168839D01*
X215843744Y-100255000D01*
X216136256Y-100255000D01*
X216408202Y-100200907D01*
X216408202Y-100292457D01*
X216393772Y-100365002D01*
X216450940Y-100652408D01*
X216572650Y-100834560D01*
X216572653Y-100834563D01*
X216613744Y-100896060D01*
X216641800Y-100914806D01*
X216641799Y-103594216D01*
X212341862Y-107894154D01*
X212280495Y-107935158D01*
X212239491Y-107996525D01*
X212239490Y-107996526D01*
X212118045Y-108178281D01*
X212101510Y-108261409D01*
X212075399Y-108392675D01*
X212075399Y-108392679D01*
X212061001Y-108465063D01*
X212075399Y-108537447D01*
X212075399Y-108925724D01*
X211964272Y-108903619D01*
X211858966Y-108860000D01*
X207112000Y-108860000D01*
X207112000Y-104559400D01*
X212202972Y-104559400D01*
X212243191Y-104551400D01*
X212316166Y-104551400D01*
X212383586Y-104523474D01*
X212536376Y-104493082D01*
X212665905Y-104406534D01*
X212733326Y-104378607D01*
X212784927Y-104327006D01*
X212914457Y-104240457D01*
X213001006Y-104110927D01*
X213052607Y-104059326D01*
X213080534Y-103991905D01*
X213167082Y-103862376D01*
X213197474Y-103709586D01*
X213225400Y-103642166D01*
X213225400Y-103569191D01*
X213255792Y-103416400D01*
X213225400Y-103263609D01*
X213225400Y-103190634D01*
X213197474Y-103123214D01*
X213167082Y-102970424D01*
X213080534Y-102840895D01*
X213052607Y-102773474D01*
X213001006Y-102721873D01*
X212914457Y-102592343D01*
X212784927Y-102505794D01*
X212733326Y-102454193D01*
X212665905Y-102426266D01*
X212536376Y-102339718D01*
X212383586Y-102309326D01*
X212316166Y-102281400D01*
X212243191Y-102281400D01*
X212202972Y-102273400D01*
X207112000Y-102273400D01*
X207112000Y-100111091D01*
X207272235Y-100218157D01*
X207520000Y-100267440D01*
X209220000Y-100267440D01*
X209467765Y-100218157D01*
X209677809Y-100077809D01*
X209818157Y-99867765D01*
X209827184Y-99822381D01*
X209839375Y-99840625D01*
X210330582Y-100168839D01*
X210763744Y-100255000D01*
X211056256Y-100255000D01*
X211489418Y-100168839D01*
X211980625Y-99840625D01*
X212180000Y-99542239D01*
X212379375Y-99840625D01*
X212870582Y-100168839D01*
X213303744Y-100255000D01*
X213596256Y-100255000D01*
X214029418Y-100168839D01*
X214520625Y-99840625D01*
X214720000Y-99542239D01*
X214919375Y-99840625D01*
X214919375Y-99840625D01*
G37*
X214919375Y-99840625D02*
X215410582Y-100168839D01*
X215843744Y-100255000D01*
X216136256Y-100255000D01*
X216408202Y-100200907D01*
X216408202Y-100292457D01*
X216393772Y-100365002D01*
X216450940Y-100652408D01*
X216572650Y-100834560D01*
X216572653Y-100834563D01*
X216613744Y-100896060D01*
X216641800Y-100914806D01*
X216641799Y-103594216D01*
X212341862Y-107894154D01*
X212280495Y-107935158D01*
X212239491Y-107996525D01*
X212239490Y-107996526D01*
X212118045Y-108178281D01*
X212101510Y-108261409D01*
X212075399Y-108392675D01*
X212075399Y-108392679D01*
X212061001Y-108465063D01*
X212075399Y-108537447D01*
X212075399Y-108925724D01*
X211964272Y-108903619D01*
X211858966Y-108860000D01*
X207112000Y-108860000D01*
X207112000Y-104559400D01*
X212202972Y-104559400D01*
X212243191Y-104551400D01*
X212316166Y-104551400D01*
X212383586Y-104523474D01*
X212536376Y-104493082D01*
X212665905Y-104406534D01*
X212733326Y-104378607D01*
X212784927Y-104327006D01*
X212914457Y-104240457D01*
X213001006Y-104110927D01*
X213052607Y-104059326D01*
X213080534Y-103991905D01*
X213167082Y-103862376D01*
X213197474Y-103709586D01*
X213225400Y-103642166D01*
X213225400Y-103569191D01*
X213255792Y-103416400D01*
X213225400Y-103263609D01*
X213225400Y-103190634D01*
X213197474Y-103123214D01*
X213167082Y-102970424D01*
X213080534Y-102840895D01*
X213052607Y-102773474D01*
X213001006Y-102721873D01*
X212914457Y-102592343D01*
X212784927Y-102505794D01*
X212733326Y-102454193D01*
X212665905Y-102426266D01*
X212536376Y-102339718D01*
X212383586Y-102309326D01*
X212316166Y-102281400D01*
X212243191Y-102281400D01*
X212202972Y-102273400D01*
X207112000Y-102273400D01*
X207112000Y-100111091D01*
X207272235Y-100218157D01*
X207520000Y-100267440D01*
X209220000Y-100267440D01*
X209467765Y-100218157D01*
X209677809Y-100077809D01*
X209818157Y-99867765D01*
X209827184Y-99822381D01*
X209839375Y-99840625D01*
X210330582Y-100168839D01*
X210763744Y-100255000D01*
X211056256Y-100255000D01*
X211489418Y-100168839D01*
X211980625Y-99840625D01*
X212180000Y-99542239D01*
X212379375Y-99840625D01*
X212870582Y-100168839D01*
X213303744Y-100255000D01*
X213596256Y-100255000D01*
X214029418Y-100168839D01*
X214520625Y-99840625D01*
X214720000Y-99542239D01*
X214919375Y-99840625D01*
G36*
X218657000Y-98643000D02*
X218677000Y-98643000D01*
X218677000Y-98897000D01*
X218657000Y-98897000D01*
X218657000Y-100090155D01*
X218886890Y-100211476D01*
X219050000Y-100143918D01*
X219050000Y-100626057D01*
X219050001Y-102293963D01*
X218397123Y-102946842D01*
X218392568Y-102953659D01*
X218111799Y-103234428D01*
X218111799Y-100677584D01*
X218127828Y-100597000D01*
X218070660Y-100309594D01*
X217948950Y-100127442D01*
X217943153Y-100121645D01*
X217938151Y-100114159D01*
X218173110Y-100211476D01*
X218403000Y-100090155D01*
X218403000Y-98897000D01*
X218383000Y-98897000D01*
X218383000Y-98643000D01*
X218403000Y-98643000D01*
X218403000Y-98623000D01*
X218657000Y-98623000D01*
X218657000Y-98643000D01*
X218657000Y-98643000D01*
G37*
X218657000Y-98643000D02*
X218677000Y-98643000D01*
X218677000Y-98897000D01*
X218657000Y-98897000D01*
X218657000Y-100090155D01*
X218886890Y-100211476D01*
X219050000Y-100143918D01*
X219050000Y-100626057D01*
X219050001Y-102293963D01*
X218397123Y-102946842D01*
X218392568Y-102953659D01*
X218111799Y-103234428D01*
X218111799Y-100677584D01*
X218127828Y-100597000D01*
X218070660Y-100309594D01*
X217948950Y-100127442D01*
X217943153Y-100121645D01*
X217938151Y-100114159D01*
X218173110Y-100211476D01*
X218403000Y-100090155D01*
X218403000Y-98897000D01*
X218383000Y-98897000D01*
X218383000Y-98643000D01*
X218403000Y-98643000D01*
X218403000Y-98623000D01*
X218657000Y-98623000D01*
X218657000Y-98643000D01*
G36*
X238977000Y-98643000D02*
X238997000Y-98643000D01*
X238997000Y-98897000D01*
X238977000Y-98897000D01*
X238977000Y-98917000D01*
X238723000Y-98917000D01*
X238723000Y-98897000D01*
X238703000Y-98897000D01*
X238703000Y-98643000D01*
X238723000Y-98643000D01*
X238723000Y-98623000D01*
X238977000Y-98623000D01*
X238977000Y-98643000D01*
X238977000Y-98643000D01*
G37*
X238977000Y-98643000D02*
X238997000Y-98643000D01*
X238997000Y-98897000D01*
X238977000Y-98897000D01*
X238977000Y-98917000D01*
X238723000Y-98917000D01*
X238723000Y-98897000D01*
X238703000Y-98897000D01*
X238703000Y-98643000D01*
X238723000Y-98643000D01*
X238723000Y-98623000D01*
X238977000Y-98623000D01*
X238977000Y-98643000D01*
G36*
X249137000Y-96103000D02*
X249157000Y-96103000D01*
X249157000Y-96357000D01*
X249137000Y-96357000D01*
X249137000Y-96377000D01*
X248883000Y-96377000D01*
X248883000Y-96357000D01*
X248863000Y-96357000D01*
X248863000Y-96103000D01*
X248883000Y-96103000D01*
X248883000Y-96083000D01*
X249137000Y-96083000D01*
X249137000Y-96103000D01*
X249137000Y-96103000D01*
G37*
X249137000Y-96103000D02*
X249157000Y-96103000D01*
X249157000Y-96357000D01*
X249137000Y-96357000D01*
X249137000Y-96377000D01*
X248883000Y-96377000D01*
X248883000Y-96357000D01*
X248863000Y-96357000D01*
X248863000Y-96103000D01*
X248883000Y-96103000D01*
X248883000Y-96083000D01*
X249137000Y-96083000D01*
X249137000Y-96103000D01*
G36*
X244057000Y-96103000D02*
X244077000Y-96103000D01*
X244077000Y-96357000D01*
X244057000Y-96357000D01*
X244057000Y-96377000D01*
X243803000Y-96377000D01*
X243803000Y-96357000D01*
X243783000Y-96357000D01*
X243783000Y-96103000D01*
X243803000Y-96103000D01*
X243803000Y-96083000D01*
X244057000Y-96083000D01*
X244057000Y-96103000D01*
X244057000Y-96103000D01*
G37*
X244057000Y-96103000D02*
X244077000Y-96103000D01*
X244077000Y-96357000D01*
X244057000Y-96357000D01*
X244057000Y-96377000D01*
X243803000Y-96377000D01*
X243803000Y-96357000D01*
X243783000Y-96357000D01*
X243783000Y-96103000D01*
X243803000Y-96103000D01*
X243803000Y-96083000D01*
X244057000Y-96083000D01*
X244057000Y-96103000D01*
G36*
X231357000Y-96103000D02*
X231377000Y-96103000D01*
X231377000Y-96357000D01*
X231357000Y-96357000D01*
X231357000Y-96377000D01*
X231103000Y-96377000D01*
X231103000Y-96357000D01*
X231083000Y-96357000D01*
X231083000Y-96103000D01*
X231103000Y-96103000D01*
X231103000Y-96083000D01*
X231357000Y-96083000D01*
X231357000Y-96103000D01*
X231357000Y-96103000D01*
G37*
X231357000Y-96103000D02*
X231377000Y-96103000D01*
X231377000Y-96357000D01*
X231357000Y-96357000D01*
X231357000Y-96377000D01*
X231103000Y-96377000D01*
X231103000Y-96357000D01*
X231083000Y-96357000D01*
X231083000Y-96103000D01*
X231103000Y-96103000D01*
X231103000Y-96083000D01*
X231357000Y-96083000D01*
X231357000Y-96103000D01*
G36*
X223737000Y-96103000D02*
X223757000Y-96103000D01*
X223757000Y-96357000D01*
X223737000Y-96357000D01*
X223737000Y-96377000D01*
X223483000Y-96377000D01*
X223483000Y-96357000D01*
X223463000Y-96357000D01*
X223463000Y-96103000D01*
X223483000Y-96103000D01*
X223483000Y-96083000D01*
X223737000Y-96083000D01*
X223737000Y-96103000D01*
X223737000Y-96103000D01*
G37*
X223737000Y-96103000D02*
X223757000Y-96103000D01*
X223757000Y-96357000D01*
X223737000Y-96357000D01*
X223737000Y-96377000D01*
X223483000Y-96377000D01*
X223483000Y-96357000D01*
X223463000Y-96357000D01*
X223463000Y-96103000D01*
X223483000Y-96103000D01*
X223483000Y-96083000D01*
X223737000Y-96083000D01*
X223737000Y-96103000D01*
G04 #@! TD*
M02*
