G04 #@! TF.GenerationSoftware,KiCad,Pcbnew,5.0.0-fee4fd1~66~ubuntu18.04.1*
G04 #@! TF.CreationDate,2018-10-10T22:15:04+02:00*
G04 #@! TF.ProjectId,rasle,7261736C652E6B696361645F70636200,rev?*
G04 #@! TF.SameCoordinates,Original*
G04 #@! TF.FileFunction,Profile,NP*
%FSLAX46Y46*%
G04 Gerber Fmt 4.6, Leading zero omitted, Abs format (unit mm)*
G04 Created by KiCad (PCBNEW 5.0.0-fee4fd1~66~ubuntu18.04.1) date Wed Oct 10 22:15:04 2018*
%MOMM*%
%LPD*%
G01*
G04 APERTURE LIST*
%ADD10C,0.150000*%
%ADD11C,0.300000*%
%ADD12C,0.400000*%
%ADD13C,0.100000*%
G04 APERTURE END LIST*
D10*
X299989000Y-253002200D02*
X299989000Y-285002200D01*
X407989000Y-285002200D01*
X407989000Y-253002200D01*
X299989000Y-253002200D01*
X10000000Y-10000000D02*
X10000000Y-287002200D01*
X409989000Y-287002200D01*
X409989000Y-10000000D01*
X10000000Y-10000000D01*
X12000000Y-12000000D02*
X12000000Y-285002200D01*
X407989000Y-285002200D01*
X407989000Y-12000000D01*
X12000000Y-12000000D01*
X60000000Y-12000000D02*
X60000000Y-10000000D01*
X110000000Y-12000000D02*
X110000000Y-10000000D01*
X160000000Y-12000000D02*
X160000000Y-10000000D01*
X210000000Y-12000000D02*
X210000000Y-10000000D01*
X260000000Y-12000000D02*
X260000000Y-10000000D01*
X310000000Y-12000000D02*
X310000000Y-10000000D01*
X360000000Y-12000000D02*
X360000000Y-10000000D01*
X36065476Y-11588095D02*
X35322619Y-11588095D01*
X35694047Y-11588095D02*
X35694047Y-10288095D01*
X35570238Y-10473809D01*
X35446428Y-10597619D01*
X35322619Y-10659523D01*
X85322619Y-10411904D02*
X85384523Y-10350000D01*
X85508333Y-10288095D01*
X85817857Y-10288095D01*
X85941666Y-10350000D01*
X86003571Y-10411904D01*
X86065476Y-10535714D01*
X86065476Y-10659523D01*
X86003571Y-10845238D01*
X85260714Y-11588095D01*
X86065476Y-11588095D01*
X135260714Y-10288095D02*
X136065476Y-10288095D01*
X135632142Y-10783333D01*
X135817857Y-10783333D01*
X135941666Y-10845238D01*
X136003571Y-10907142D01*
X136065476Y-11030952D01*
X136065476Y-11340476D01*
X136003571Y-11464285D01*
X135941666Y-11526190D01*
X135817857Y-11588095D01*
X135446428Y-11588095D01*
X135322619Y-11526190D01*
X135260714Y-11464285D01*
X185941666Y-10721428D02*
X185941666Y-11588095D01*
X185632142Y-10226190D02*
X185322619Y-11154761D01*
X186127380Y-11154761D01*
X236003571Y-10288095D02*
X235384523Y-10288095D01*
X235322619Y-10907142D01*
X235384523Y-10845238D01*
X235508333Y-10783333D01*
X235817857Y-10783333D01*
X235941666Y-10845238D01*
X236003571Y-10907142D01*
X236065476Y-11030952D01*
X236065476Y-11340476D01*
X236003571Y-11464285D01*
X235941666Y-11526190D01*
X235817857Y-11588095D01*
X235508333Y-11588095D01*
X235384523Y-11526190D01*
X235322619Y-11464285D01*
X285941666Y-10288095D02*
X285694047Y-10288095D01*
X285570238Y-10350000D01*
X285508333Y-10411904D01*
X285384523Y-10597619D01*
X285322619Y-10845238D01*
X285322619Y-11340476D01*
X285384523Y-11464285D01*
X285446428Y-11526190D01*
X285570238Y-11588095D01*
X285817857Y-11588095D01*
X285941666Y-11526190D01*
X286003571Y-11464285D01*
X286065476Y-11340476D01*
X286065476Y-11030952D01*
X286003571Y-10907142D01*
X285941666Y-10845238D01*
X285817857Y-10783333D01*
X285570238Y-10783333D01*
X285446428Y-10845238D01*
X285384523Y-10907142D01*
X285322619Y-11030952D01*
X335260714Y-10288095D02*
X336127380Y-10288095D01*
X335570238Y-11588095D01*
X385570238Y-10845238D02*
X385446428Y-10783333D01*
X385384523Y-10721428D01*
X385322619Y-10597619D01*
X385322619Y-10535714D01*
X385384523Y-10411904D01*
X385446428Y-10350000D01*
X385570238Y-10288095D01*
X385817857Y-10288095D01*
X385941666Y-10350000D01*
X386003571Y-10411904D01*
X386065476Y-10535714D01*
X386065476Y-10597619D01*
X386003571Y-10721428D01*
X385941666Y-10783333D01*
X385817857Y-10845238D01*
X385570238Y-10845238D01*
X385446428Y-10907142D01*
X385384523Y-10969047D01*
X385322619Y-11092857D01*
X385322619Y-11340476D01*
X385384523Y-11464285D01*
X385446428Y-11526190D01*
X385570238Y-11588095D01*
X385817857Y-11588095D01*
X385941666Y-11526190D01*
X386003571Y-11464285D01*
X386065476Y-11340476D01*
X386065476Y-11092857D01*
X386003571Y-10969047D01*
X385941666Y-10907142D01*
X385817857Y-10845238D01*
X60000000Y-285002200D02*
X60000000Y-287002200D01*
X110000000Y-285002200D02*
X110000000Y-287002200D01*
X160000000Y-285002200D02*
X160000000Y-287002200D01*
X210000000Y-285002200D02*
X210000000Y-287002200D01*
X260000000Y-285002200D02*
X260000000Y-287002200D01*
X310000000Y-285002200D02*
X310000000Y-287002200D01*
X360000000Y-285002200D02*
X360000000Y-287002200D01*
X36065476Y-286590295D02*
X35322619Y-286590295D01*
X35694047Y-286590295D02*
X35694047Y-285290295D01*
X35570238Y-285476009D01*
X35446428Y-285599819D01*
X35322619Y-285661723D01*
X85322619Y-285414104D02*
X85384523Y-285352200D01*
X85508333Y-285290295D01*
X85817857Y-285290295D01*
X85941666Y-285352200D01*
X86003571Y-285414104D01*
X86065476Y-285537914D01*
X86065476Y-285661723D01*
X86003571Y-285847438D01*
X85260714Y-286590295D01*
X86065476Y-286590295D01*
X135260714Y-285290295D02*
X136065476Y-285290295D01*
X135632142Y-285785533D01*
X135817857Y-285785533D01*
X135941666Y-285847438D01*
X136003571Y-285909342D01*
X136065476Y-286033152D01*
X136065476Y-286342676D01*
X136003571Y-286466485D01*
X135941666Y-286528390D01*
X135817857Y-286590295D01*
X135446428Y-286590295D01*
X135322619Y-286528390D01*
X135260714Y-286466485D01*
X185941666Y-285723628D02*
X185941666Y-286590295D01*
X185632142Y-285228390D02*
X185322619Y-286156961D01*
X186127380Y-286156961D01*
X236003571Y-285290295D02*
X235384523Y-285290295D01*
X235322619Y-285909342D01*
X235384523Y-285847438D01*
X235508333Y-285785533D01*
X235817857Y-285785533D01*
X235941666Y-285847438D01*
X236003571Y-285909342D01*
X236065476Y-286033152D01*
X236065476Y-286342676D01*
X236003571Y-286466485D01*
X235941666Y-286528390D01*
X235817857Y-286590295D01*
X235508333Y-286590295D01*
X235384523Y-286528390D01*
X235322619Y-286466485D01*
X285941666Y-285290295D02*
X285694047Y-285290295D01*
X285570238Y-285352200D01*
X285508333Y-285414104D01*
X285384523Y-285599819D01*
X285322619Y-285847438D01*
X285322619Y-286342676D01*
X285384523Y-286466485D01*
X285446428Y-286528390D01*
X285570238Y-286590295D01*
X285817857Y-286590295D01*
X285941666Y-286528390D01*
X286003571Y-286466485D01*
X286065476Y-286342676D01*
X286065476Y-286033152D01*
X286003571Y-285909342D01*
X285941666Y-285847438D01*
X285817857Y-285785533D01*
X285570238Y-285785533D01*
X285446428Y-285847438D01*
X285384523Y-285909342D01*
X285322619Y-286033152D01*
X335260714Y-285290295D02*
X336127380Y-285290295D01*
X335570238Y-286590295D01*
X385570238Y-285847438D02*
X385446428Y-285785533D01*
X385384523Y-285723628D01*
X385322619Y-285599819D01*
X385322619Y-285537914D01*
X385384523Y-285414104D01*
X385446428Y-285352200D01*
X385570238Y-285290295D01*
X385817857Y-285290295D01*
X385941666Y-285352200D01*
X386003571Y-285414104D01*
X386065476Y-285537914D01*
X386065476Y-285599819D01*
X386003571Y-285723628D01*
X385941666Y-285785533D01*
X385817857Y-285847438D01*
X385570238Y-285847438D01*
X385446428Y-285909342D01*
X385384523Y-285971247D01*
X385322619Y-286095057D01*
X385322619Y-286342676D01*
X385384523Y-286466485D01*
X385446428Y-286528390D01*
X385570238Y-286590295D01*
X385817857Y-286590295D01*
X385941666Y-286528390D01*
X386003571Y-286466485D01*
X386065476Y-286342676D01*
X386065476Y-286095057D01*
X386003571Y-285971247D01*
X385941666Y-285909342D01*
X385817857Y-285847438D01*
X10000000Y-60000000D02*
X12000000Y-60000000D01*
X10000000Y-110000000D02*
X12000000Y-110000000D01*
X10000000Y-160000000D02*
X12000000Y-160000000D01*
X10000000Y-210000000D02*
X12000000Y-210000000D01*
X10000000Y-260000000D02*
X12000000Y-260000000D01*
X10690476Y-35216666D02*
X11309523Y-35216666D01*
X10566666Y-35588095D02*
X11000000Y-34288095D01*
X11433333Y-35588095D01*
X11092857Y-84907142D02*
X11278571Y-84969047D01*
X11340476Y-85030952D01*
X11402380Y-85154761D01*
X11402380Y-85340476D01*
X11340476Y-85464285D01*
X11278571Y-85526190D01*
X11154761Y-85588095D01*
X10659523Y-85588095D01*
X10659523Y-84288095D01*
X11092857Y-84288095D01*
X11216666Y-84350000D01*
X11278571Y-84411904D01*
X11340476Y-84535714D01*
X11340476Y-84659523D01*
X11278571Y-84783333D01*
X11216666Y-84845238D01*
X11092857Y-84907142D01*
X10659523Y-84907142D01*
X11402380Y-135464285D02*
X11340476Y-135526190D01*
X11154761Y-135588095D01*
X11030952Y-135588095D01*
X10845238Y-135526190D01*
X10721428Y-135402380D01*
X10659523Y-135278571D01*
X10597619Y-135030952D01*
X10597619Y-134845238D01*
X10659523Y-134597619D01*
X10721428Y-134473809D01*
X10845238Y-134350000D01*
X11030952Y-134288095D01*
X11154761Y-134288095D01*
X11340476Y-134350000D01*
X11402380Y-134411904D01*
X10659523Y-185588095D02*
X10659523Y-184288095D01*
X10969047Y-184288095D01*
X11154761Y-184350000D01*
X11278571Y-184473809D01*
X11340476Y-184597619D01*
X11402380Y-184845238D01*
X11402380Y-185030952D01*
X11340476Y-185278571D01*
X11278571Y-185402380D01*
X11154761Y-185526190D01*
X10969047Y-185588095D01*
X10659523Y-185588095D01*
X10721428Y-234907142D02*
X11154761Y-234907142D01*
X11340476Y-235588095D02*
X10721428Y-235588095D01*
X10721428Y-234288095D01*
X11340476Y-234288095D01*
X11185714Y-284907142D02*
X10752380Y-284907142D01*
X10752380Y-285588095D02*
X10752380Y-284288095D01*
X11371428Y-284288095D01*
X409989000Y-60000000D02*
X407989000Y-60000000D01*
X409989000Y-110000000D02*
X407989000Y-110000000D01*
X409989000Y-160000000D02*
X407989000Y-160000000D01*
X409989000Y-210000000D02*
X407989000Y-210000000D01*
X409989000Y-260000000D02*
X407989000Y-260000000D01*
X408679476Y-35216666D02*
X409298523Y-35216666D01*
X408555666Y-35588095D02*
X408989000Y-34288095D01*
X409422333Y-35588095D01*
X409081857Y-84907142D02*
X409267571Y-84969047D01*
X409329476Y-85030952D01*
X409391380Y-85154761D01*
X409391380Y-85340476D01*
X409329476Y-85464285D01*
X409267571Y-85526190D01*
X409143761Y-85588095D01*
X408648523Y-85588095D01*
X408648523Y-84288095D01*
X409081857Y-84288095D01*
X409205666Y-84350000D01*
X409267571Y-84411904D01*
X409329476Y-84535714D01*
X409329476Y-84659523D01*
X409267571Y-84783333D01*
X409205666Y-84845238D01*
X409081857Y-84907142D01*
X408648523Y-84907142D01*
X409391380Y-135464285D02*
X409329476Y-135526190D01*
X409143761Y-135588095D01*
X409019952Y-135588095D01*
X408834238Y-135526190D01*
X408710428Y-135402380D01*
X408648523Y-135278571D01*
X408586619Y-135030952D01*
X408586619Y-134845238D01*
X408648523Y-134597619D01*
X408710428Y-134473809D01*
X408834238Y-134350000D01*
X409019952Y-134288095D01*
X409143761Y-134288095D01*
X409329476Y-134350000D01*
X409391380Y-134411904D01*
X408648523Y-185588095D02*
X408648523Y-184288095D01*
X408958047Y-184288095D01*
X409143761Y-184350000D01*
X409267571Y-184473809D01*
X409329476Y-184597619D01*
X409391380Y-184845238D01*
X409391380Y-185030952D01*
X409329476Y-185278571D01*
X409267571Y-185402380D01*
X409143761Y-185526190D01*
X408958047Y-185588095D01*
X408648523Y-185588095D01*
X408710428Y-234907142D02*
X409143761Y-234907142D01*
X409329476Y-235588095D02*
X408710428Y-235588095D01*
X408710428Y-234288095D01*
X409329476Y-234288095D01*
X409174714Y-284907142D02*
X408741380Y-284907142D01*
X408741380Y-285588095D02*
X408741380Y-284288095D01*
X409360428Y-284288095D01*
X323421142Y-280780771D02*
X323421142Y-279280771D01*
X323778285Y-279280771D01*
X323992571Y-279352200D01*
X324135428Y-279495057D01*
X324206857Y-279637914D01*
X324278285Y-279923628D01*
X324278285Y-280137914D01*
X324206857Y-280423628D01*
X324135428Y-280566485D01*
X323992571Y-280709342D01*
X323778285Y-280780771D01*
X323421142Y-280780771D01*
X325564000Y-280780771D02*
X325564000Y-279995057D01*
X325492571Y-279852200D01*
X325349714Y-279780771D01*
X325064000Y-279780771D01*
X324921142Y-279852200D01*
X325564000Y-280709342D02*
X325421142Y-280780771D01*
X325064000Y-280780771D01*
X324921142Y-280709342D01*
X324849714Y-280566485D01*
X324849714Y-280423628D01*
X324921142Y-280280771D01*
X325064000Y-280209342D01*
X325421142Y-280209342D01*
X325564000Y-280137914D01*
X326064000Y-279780771D02*
X326635428Y-279780771D01*
X326278285Y-279280771D02*
X326278285Y-280566485D01*
X326349714Y-280709342D01*
X326492571Y-280780771D01*
X326635428Y-280780771D01*
X327706857Y-280709342D02*
X327564000Y-280780771D01*
X327278285Y-280780771D01*
X327135428Y-280709342D01*
X327064000Y-280566485D01*
X327064000Y-279995057D01*
X327135428Y-279852200D01*
X327278285Y-279780771D01*
X327564000Y-279780771D01*
X327706857Y-279852200D01*
X327778285Y-279995057D01*
X327778285Y-280137914D01*
X327064000Y-280280771D01*
X328421142Y-280637914D02*
X328492571Y-280709342D01*
X328421142Y-280780771D01*
X328349714Y-280709342D01*
X328421142Y-280637914D01*
X328421142Y-280780771D01*
X328421142Y-279852200D02*
X328492571Y-279923628D01*
X328421142Y-279995057D01*
X328349714Y-279923628D01*
X328421142Y-279852200D01*
X328421142Y-279995057D01*
X331064000Y-280780771D02*
X330206857Y-280780771D01*
X330635428Y-280780771D02*
X330635428Y-279280771D01*
X330492571Y-279495057D01*
X330349714Y-279637914D01*
X330206857Y-279709342D01*
X332421142Y-279280771D02*
X331706857Y-279280771D01*
X331635428Y-279995057D01*
X331706857Y-279923628D01*
X331849714Y-279852200D01*
X332206857Y-279852200D01*
X332349714Y-279923628D01*
X332421142Y-279995057D01*
X332492571Y-280137914D01*
X332492571Y-280495057D01*
X332421142Y-280637914D01*
X332349714Y-280709342D01*
X332206857Y-280780771D01*
X331849714Y-280780771D01*
X331706857Y-280709342D01*
X331635428Y-280637914D01*
X334278285Y-279780771D02*
X334278285Y-280780771D01*
X334278285Y-279923628D02*
X334349714Y-279852200D01*
X334492571Y-279780771D01*
X334706857Y-279780771D01*
X334849714Y-279852200D01*
X334921142Y-279995057D01*
X334921142Y-280780771D01*
X335849714Y-280780771D02*
X335706857Y-280709342D01*
X335635428Y-280637914D01*
X335564000Y-280495057D01*
X335564000Y-280066485D01*
X335635428Y-279923628D01*
X335706857Y-279852200D01*
X335849714Y-279780771D01*
X336064000Y-279780771D01*
X336206857Y-279852200D01*
X336278285Y-279923628D01*
X336349714Y-280066485D01*
X336349714Y-280495057D01*
X336278285Y-280637914D01*
X336206857Y-280709342D01*
X336064000Y-280780771D01*
X335849714Y-280780771D01*
X336849714Y-279780771D02*
X337206857Y-280780771D01*
X337564000Y-279780771D01*
X339206857Y-279423628D02*
X339278285Y-279352200D01*
X339421142Y-279280771D01*
X339778285Y-279280771D01*
X339921142Y-279352200D01*
X339992571Y-279423628D01*
X340064000Y-279566485D01*
X340064000Y-279709342D01*
X339992571Y-279923628D01*
X339135428Y-280780771D01*
X340064000Y-280780771D01*
X340992571Y-279280771D02*
X341135428Y-279280771D01*
X341278285Y-279352200D01*
X341349714Y-279423628D01*
X341421142Y-279566485D01*
X341492571Y-279852200D01*
X341492571Y-280209342D01*
X341421142Y-280495057D01*
X341349714Y-280637914D01*
X341278285Y-280709342D01*
X341135428Y-280780771D01*
X340992571Y-280780771D01*
X340849714Y-280709342D01*
X340778285Y-280637914D01*
X340706857Y-280495057D01*
X340635428Y-280209342D01*
X340635428Y-279852200D01*
X340706857Y-279566485D01*
X340778285Y-279423628D01*
X340849714Y-279352200D01*
X340992571Y-279280771D01*
X342921142Y-280780771D02*
X342064000Y-280780771D01*
X342492571Y-280780771D02*
X342492571Y-279280771D01*
X342349714Y-279495057D01*
X342206857Y-279637914D01*
X342064000Y-279709342D01*
X343492571Y-279423628D02*
X343564000Y-279352200D01*
X343706857Y-279280771D01*
X344064000Y-279280771D01*
X344206857Y-279352200D01*
X344278285Y-279423628D01*
X344349714Y-279566485D01*
X344349714Y-279709342D01*
X344278285Y-279923628D01*
X343421142Y-280780771D01*
X344349714Y-280780771D01*
X299989000Y-281502200D02*
X407989000Y-281502200D01*
X301421142Y-283580771D02*
X301421142Y-282080771D01*
X302278285Y-283580771D02*
X301635428Y-282723628D01*
X302278285Y-282080771D02*
X301421142Y-282937914D01*
X302921142Y-283580771D02*
X302921142Y-282580771D01*
X302921142Y-282080771D02*
X302849714Y-282152200D01*
X302921142Y-282223628D01*
X302992571Y-282152200D01*
X302921142Y-282080771D01*
X302921142Y-282223628D01*
X304492571Y-283437914D02*
X304421142Y-283509342D01*
X304206857Y-283580771D01*
X304064000Y-283580771D01*
X303849714Y-283509342D01*
X303706857Y-283366485D01*
X303635428Y-283223628D01*
X303564000Y-282937914D01*
X303564000Y-282723628D01*
X303635428Y-282437914D01*
X303706857Y-282295057D01*
X303849714Y-282152200D01*
X304064000Y-282080771D01*
X304206857Y-282080771D01*
X304421142Y-282152200D01*
X304492571Y-282223628D01*
X305778285Y-283580771D02*
X305778285Y-282795057D01*
X305706857Y-282652200D01*
X305564000Y-282580771D01*
X305278285Y-282580771D01*
X305135428Y-282652200D01*
X305778285Y-283509342D02*
X305635428Y-283580771D01*
X305278285Y-283580771D01*
X305135428Y-283509342D01*
X305064000Y-283366485D01*
X305064000Y-283223628D01*
X305135428Y-283080771D01*
X305278285Y-283009342D01*
X305635428Y-283009342D01*
X305778285Y-282937914D01*
X307135428Y-283580771D02*
X307135428Y-282080771D01*
X307135428Y-283509342D02*
X306992571Y-283580771D01*
X306706857Y-283580771D01*
X306564000Y-283509342D01*
X306492571Y-283437914D01*
X306421142Y-283295057D01*
X306421142Y-282866485D01*
X306492571Y-282723628D01*
X306564000Y-282652200D01*
X306706857Y-282580771D01*
X306992571Y-282580771D01*
X307135428Y-282652200D01*
X308992571Y-282795057D02*
X309492571Y-282795057D01*
X309706857Y-283580771D02*
X308992571Y-283580771D01*
X308992571Y-282080771D01*
X309706857Y-282080771D01*
X310349714Y-283437914D02*
X310421142Y-283509342D01*
X310349714Y-283580771D01*
X310278285Y-283509342D01*
X310349714Y-283437914D01*
X310349714Y-283580771D01*
X311064000Y-283580771D02*
X311064000Y-282080771D01*
X311421142Y-282080771D01*
X311635428Y-282152200D01*
X311778285Y-282295057D01*
X311849714Y-282437914D01*
X311921142Y-282723628D01*
X311921142Y-282937914D01*
X311849714Y-283223628D01*
X311778285Y-283366485D01*
X311635428Y-283509342D01*
X311421142Y-283580771D01*
X311064000Y-283580771D01*
X312564000Y-283437914D02*
X312635428Y-283509342D01*
X312564000Y-283580771D01*
X312492571Y-283509342D01*
X312564000Y-283437914D01*
X312564000Y-283580771D01*
X313206857Y-283152200D02*
X313921142Y-283152200D01*
X313064000Y-283580771D02*
X313564000Y-282080771D01*
X314064000Y-283580771D01*
X314564000Y-283437914D02*
X314635428Y-283509342D01*
X314564000Y-283580771D01*
X314492571Y-283509342D01*
X314564000Y-283437914D01*
X314564000Y-283580771D01*
X317564000Y-283580771D02*
X317564000Y-282080771D01*
X317706857Y-283009342D02*
X318135428Y-283580771D01*
X318135428Y-282580771D02*
X317564000Y-283152200D01*
X318778285Y-283580771D02*
X318778285Y-282580771D01*
X318778285Y-282080771D02*
X318706857Y-282152200D01*
X318778285Y-282223628D01*
X318849714Y-282152200D01*
X318778285Y-282080771D01*
X318778285Y-282223628D01*
X320135428Y-283509342D02*
X319992571Y-283580771D01*
X319706857Y-283580771D01*
X319564000Y-283509342D01*
X319492571Y-283437914D01*
X319421142Y-283295057D01*
X319421142Y-282866485D01*
X319492571Y-282723628D01*
X319564000Y-282652200D01*
X319706857Y-282580771D01*
X319992571Y-282580771D01*
X320135428Y-282652200D01*
X321421142Y-283580771D02*
X321421142Y-282795057D01*
X321349714Y-282652200D01*
X321206857Y-282580771D01*
X320921142Y-282580771D01*
X320778285Y-282652200D01*
X321421142Y-283509342D02*
X321278285Y-283580771D01*
X320921142Y-283580771D01*
X320778285Y-283509342D01*
X320706857Y-283366485D01*
X320706857Y-283223628D01*
X320778285Y-283080771D01*
X320921142Y-283009342D01*
X321278285Y-283009342D01*
X321421142Y-282937914D01*
X322778285Y-283580771D02*
X322778285Y-282080771D01*
X322778285Y-283509342D02*
X322635428Y-283580771D01*
X322349714Y-283580771D01*
X322206857Y-283509342D01*
X322135428Y-283437914D01*
X322064000Y-283295057D01*
X322064000Y-282866485D01*
X322135428Y-282723628D01*
X322206857Y-282652200D01*
X322349714Y-282580771D01*
X322635428Y-282580771D01*
X322778285Y-282652200D01*
X325349714Y-282080771D02*
X324635428Y-282080771D01*
X324564000Y-282795057D01*
X324635428Y-282723628D01*
X324778285Y-282652200D01*
X325135428Y-282652200D01*
X325278285Y-282723628D01*
X325349714Y-282795057D01*
X325421142Y-282937914D01*
X325421142Y-283295057D01*
X325349714Y-283437914D01*
X325278285Y-283509342D01*
X325135428Y-283580771D01*
X324778285Y-283580771D01*
X324635428Y-283509342D01*
X324564000Y-283437914D01*
X326064000Y-283437914D02*
X326135428Y-283509342D01*
X326064000Y-283580771D01*
X325992571Y-283509342D01*
X326064000Y-283437914D01*
X326064000Y-283580771D01*
X327064000Y-282080771D02*
X327206857Y-282080771D01*
X327349714Y-282152200D01*
X327421142Y-282223628D01*
X327492571Y-282366485D01*
X327564000Y-282652200D01*
X327564000Y-283009342D01*
X327492571Y-283295057D01*
X327421142Y-283437914D01*
X327349714Y-283509342D01*
X327206857Y-283580771D01*
X327064000Y-283580771D01*
X326921142Y-283509342D01*
X326849714Y-283437914D01*
X326778285Y-283295057D01*
X326706857Y-283009342D01*
X326706857Y-282652200D01*
X326778285Y-282366485D01*
X326849714Y-282223628D01*
X326921142Y-282152200D01*
X327064000Y-282080771D01*
X328206857Y-283437914D02*
X328278285Y-283509342D01*
X328206857Y-283580771D01*
X328135428Y-283509342D01*
X328206857Y-283437914D01*
X328206857Y-283580771D01*
X329206857Y-282080771D02*
X329349714Y-282080771D01*
X329492571Y-282152200D01*
X329564000Y-282223628D01*
X329635428Y-282366485D01*
X329706857Y-282652200D01*
X329706857Y-283009342D01*
X329635428Y-283295057D01*
X329564000Y-283437914D01*
X329492571Y-283509342D01*
X329349714Y-283580771D01*
X329206857Y-283580771D01*
X329064000Y-283509342D01*
X328992571Y-283437914D01*
X328921142Y-283295057D01*
X328849714Y-283009342D01*
X328849714Y-282652200D01*
X328921142Y-282366485D01*
X328992571Y-282223628D01*
X329064000Y-282152200D01*
X329206857Y-282080771D01*
X330349714Y-283009342D02*
X331492571Y-283009342D01*
X331992571Y-282580771D02*
X332564000Y-282580771D01*
X332206857Y-283580771D02*
X332206857Y-282295057D01*
X332278285Y-282152200D01*
X332421142Y-282080771D01*
X332564000Y-282080771D01*
X333635428Y-283509342D02*
X333492571Y-283580771D01*
X333206857Y-283580771D01*
X333064000Y-283509342D01*
X332992571Y-283366485D01*
X332992571Y-282795057D01*
X333064000Y-282652200D01*
X333206857Y-282580771D01*
X333492571Y-282580771D01*
X333635428Y-282652200D01*
X333706857Y-282795057D01*
X333706857Y-282937914D01*
X332992571Y-283080771D01*
X334921142Y-283509342D02*
X334778285Y-283580771D01*
X334492571Y-283580771D01*
X334349714Y-283509342D01*
X334278285Y-283366485D01*
X334278285Y-282795057D01*
X334349714Y-282652200D01*
X334492571Y-282580771D01*
X334778285Y-282580771D01*
X334921142Y-282652200D01*
X334992571Y-282795057D01*
X334992571Y-282937914D01*
X334278285Y-283080771D01*
X336278285Y-282580771D02*
X336278285Y-283580771D01*
X335921142Y-282009342D02*
X335564000Y-283080771D01*
X336492571Y-283080771D01*
X336849714Y-282580771D02*
X337421142Y-282580771D01*
X337064000Y-283580771D02*
X337064000Y-282295057D01*
X337135428Y-282152200D01*
X337278285Y-282080771D01*
X337421142Y-282080771D01*
X338564000Y-283580771D02*
X338564000Y-282080771D01*
X338564000Y-283509342D02*
X338421142Y-283580771D01*
X338135428Y-283580771D01*
X337992571Y-283509342D01*
X337921142Y-283437914D01*
X337849714Y-283295057D01*
X337849714Y-282866485D01*
X337921142Y-282723628D01*
X337992571Y-282652200D01*
X338135428Y-282580771D01*
X338421142Y-282580771D01*
X338564000Y-282652200D01*
X340064000Y-283580771D02*
X339206857Y-283580771D01*
X339635428Y-283580771D02*
X339635428Y-282080771D01*
X339492571Y-282295057D01*
X339349714Y-282437914D01*
X339206857Y-282509342D01*
X340349714Y-281672200D02*
X341778285Y-281672200D01*
X341349714Y-282080771D02*
X341064000Y-282080771D01*
X340921142Y-282152200D01*
X340849714Y-282223628D01*
X340706857Y-282437914D01*
X340635428Y-282723628D01*
X340635428Y-283295057D01*
X340706857Y-283437914D01*
X340778285Y-283509342D01*
X340921142Y-283580771D01*
X341206857Y-283580771D01*
X341349714Y-283509342D01*
X341421142Y-283437914D01*
X341492571Y-283295057D01*
X341492571Y-282937914D01*
X341421142Y-282795057D01*
X341349714Y-282723628D01*
X341206857Y-282652200D01*
X340921142Y-282652200D01*
X340778285Y-282723628D01*
X340706857Y-282795057D01*
X340635428Y-282937914D01*
X341778285Y-281672200D02*
X343206857Y-281672200D01*
X342778285Y-282080771D02*
X342492571Y-282080771D01*
X342349714Y-282152200D01*
X342278285Y-282223628D01*
X342135428Y-282437914D01*
X342064000Y-282723628D01*
X342064000Y-283295057D01*
X342135428Y-283437914D01*
X342206857Y-283509342D01*
X342349714Y-283580771D01*
X342635428Y-283580771D01*
X342778285Y-283509342D01*
X342849714Y-283437914D01*
X342921142Y-283295057D01*
X342921142Y-282937914D01*
X342849714Y-282795057D01*
X342778285Y-282723628D01*
X342635428Y-282652200D01*
X342349714Y-282652200D01*
X342206857Y-282723628D01*
X342135428Y-282795057D01*
X342064000Y-282937914D01*
X344206857Y-282580771D02*
X344206857Y-283580771D01*
X343564000Y-282580771D02*
X343564000Y-283366485D01*
X343635428Y-283509342D01*
X343778285Y-283580771D01*
X343992571Y-283580771D01*
X344135428Y-283509342D01*
X344206857Y-283437914D01*
X344921142Y-283580771D02*
X344921142Y-282080771D01*
X344921142Y-282652200D02*
X345064000Y-282580771D01*
X345349714Y-282580771D01*
X345492571Y-282652200D01*
X345564000Y-282723628D01*
X345635428Y-282866485D01*
X345635428Y-283295057D01*
X345564000Y-283437914D01*
X345492571Y-283509342D01*
X345349714Y-283580771D01*
X345064000Y-283580771D01*
X344921142Y-283509342D01*
X346921142Y-282580771D02*
X346921142Y-283580771D01*
X346278285Y-282580771D02*
X346278285Y-283366485D01*
X346349714Y-283509342D01*
X346492571Y-283580771D01*
X346706857Y-283580771D01*
X346849714Y-283509342D01*
X346921142Y-283437914D01*
X347635428Y-282580771D02*
X347635428Y-283580771D01*
X347635428Y-282723628D02*
X347706857Y-282652200D01*
X347849714Y-282580771D01*
X348064000Y-282580771D01*
X348206857Y-282652200D01*
X348278285Y-282795057D01*
X348278285Y-283580771D01*
X348778285Y-282580771D02*
X349349714Y-282580771D01*
X348992571Y-282080771D02*
X348992571Y-283366485D01*
X349064000Y-283509342D01*
X349206857Y-283580771D01*
X349349714Y-283580771D01*
X350492571Y-282580771D02*
X350492571Y-283580771D01*
X349849714Y-282580771D02*
X349849714Y-283366485D01*
X349921142Y-283509342D01*
X350064000Y-283580771D01*
X350278285Y-283580771D01*
X350421142Y-283509342D01*
X350492571Y-283437914D01*
X351992571Y-283580771D02*
X351135428Y-283580771D01*
X351564000Y-283580771D02*
X351564000Y-282080771D01*
X351421142Y-282295057D01*
X351278285Y-282437914D01*
X351135428Y-282509342D01*
X352849714Y-282723628D02*
X352706857Y-282652200D01*
X352635428Y-282580771D01*
X352564000Y-282437914D01*
X352564000Y-282366485D01*
X352635428Y-282223628D01*
X352706857Y-282152200D01*
X352849714Y-282080771D01*
X353135428Y-282080771D01*
X353278285Y-282152200D01*
X353349714Y-282223628D01*
X353421142Y-282366485D01*
X353421142Y-282437914D01*
X353349714Y-282580771D01*
X353278285Y-282652200D01*
X353135428Y-282723628D01*
X352849714Y-282723628D01*
X352706857Y-282795057D01*
X352635428Y-282866485D01*
X352564000Y-283009342D01*
X352564000Y-283295057D01*
X352635428Y-283437914D01*
X352706857Y-283509342D01*
X352849714Y-283580771D01*
X353135428Y-283580771D01*
X353278285Y-283509342D01*
X353349714Y-283437914D01*
X353421142Y-283295057D01*
X353421142Y-283009342D01*
X353349714Y-282866485D01*
X353278285Y-282795057D01*
X353135428Y-282723628D01*
X354064000Y-283437914D02*
X354135428Y-283509342D01*
X354064000Y-283580771D01*
X353992571Y-283509342D01*
X354064000Y-283437914D01*
X354064000Y-283580771D01*
X355064000Y-282080771D02*
X355206857Y-282080771D01*
X355349714Y-282152200D01*
X355421142Y-282223628D01*
X355492571Y-282366485D01*
X355564000Y-282652200D01*
X355564000Y-283009342D01*
X355492571Y-283295057D01*
X355421142Y-283437914D01*
X355349714Y-283509342D01*
X355206857Y-283580771D01*
X355064000Y-283580771D01*
X354921142Y-283509342D01*
X354849714Y-283437914D01*
X354778285Y-283295057D01*
X354706857Y-283009342D01*
X354706857Y-282652200D01*
X354778285Y-282366485D01*
X354849714Y-282223628D01*
X354921142Y-282152200D01*
X355064000Y-282080771D01*
X356849714Y-282580771D02*
X356849714Y-283580771D01*
X356492571Y-282009342D02*
X356135428Y-283080771D01*
X357064000Y-283080771D01*
X357635428Y-283437914D02*
X357706857Y-283509342D01*
X357635428Y-283580771D01*
X357564000Y-283509342D01*
X357635428Y-283437914D01*
X357635428Y-283580771D01*
X359135428Y-283580771D02*
X358278285Y-283580771D01*
X358706857Y-283580771D02*
X358706857Y-282080771D01*
X358564000Y-282295057D01*
X358421142Y-282437914D01*
X358278285Y-282509342D01*
X299989000Y-278502200D02*
X407989000Y-278502200D01*
D11*
X387398285Y-280780771D02*
X386898285Y-280066485D01*
X386541142Y-280780771D02*
X386541142Y-279280771D01*
X387112571Y-279280771D01*
X387255428Y-279352200D01*
X387326857Y-279423628D01*
X387398285Y-279566485D01*
X387398285Y-279780771D01*
X387326857Y-279923628D01*
X387255428Y-279995057D01*
X387112571Y-280066485D01*
X386541142Y-280066485D01*
X388612571Y-280709342D02*
X388469714Y-280780771D01*
X388184000Y-280780771D01*
X388041142Y-280709342D01*
X387969714Y-280566485D01*
X387969714Y-279995057D01*
X388041142Y-279852200D01*
X388184000Y-279780771D01*
X388469714Y-279780771D01*
X388612571Y-279852200D01*
X388684000Y-279995057D01*
X388684000Y-280137914D01*
X387969714Y-280280771D01*
X389184000Y-279780771D02*
X389541142Y-280780771D01*
X389898285Y-279780771D01*
X390469714Y-280637914D02*
X390541142Y-280709342D01*
X390469714Y-280780771D01*
X390398285Y-280709342D01*
X390469714Y-280637914D01*
X390469714Y-280780771D01*
X390469714Y-279852200D02*
X390541142Y-279923628D01*
X390469714Y-279995057D01*
X390398285Y-279923628D01*
X390469714Y-279852200D01*
X390469714Y-279995057D01*
D10*
X301349714Y-280709342D02*
X301564000Y-280780771D01*
X301921142Y-280780771D01*
X302064000Y-280709342D01*
X302135428Y-280637914D01*
X302206857Y-280495057D01*
X302206857Y-280352200D01*
X302135428Y-280209342D01*
X302064000Y-280137914D01*
X301921142Y-280066485D01*
X301635428Y-279995057D01*
X301492571Y-279923628D01*
X301421142Y-279852200D01*
X301349714Y-279709342D01*
X301349714Y-279566485D01*
X301421142Y-279423628D01*
X301492571Y-279352200D01*
X301635428Y-279280771D01*
X301992571Y-279280771D01*
X302206857Y-279352200D01*
X302849714Y-280780771D02*
X302849714Y-279780771D01*
X302849714Y-279280771D02*
X302778285Y-279352200D01*
X302849714Y-279423628D01*
X302921142Y-279352200D01*
X302849714Y-279280771D01*
X302849714Y-279423628D01*
X303421142Y-279780771D02*
X304206857Y-279780771D01*
X303421142Y-280780771D01*
X304206857Y-280780771D01*
X305349714Y-280709342D02*
X305206857Y-280780771D01*
X304921142Y-280780771D01*
X304778285Y-280709342D01*
X304706857Y-280566485D01*
X304706857Y-279995057D01*
X304778285Y-279852200D01*
X304921142Y-279780771D01*
X305206857Y-279780771D01*
X305349714Y-279852200D01*
X305421142Y-279995057D01*
X305421142Y-280137914D01*
X304706857Y-280280771D01*
X306064000Y-280637914D02*
X306135428Y-280709342D01*
X306064000Y-280780771D01*
X305992571Y-280709342D01*
X306064000Y-280637914D01*
X306064000Y-280780771D01*
X306064000Y-279852200D02*
X306135428Y-279923628D01*
X306064000Y-279995057D01*
X305992571Y-279923628D01*
X306064000Y-279852200D01*
X306064000Y-279995057D01*
X307849714Y-280352200D02*
X308564000Y-280352200D01*
X307706857Y-280780771D02*
X308206857Y-279280771D01*
X308706857Y-280780771D01*
X309064000Y-279280771D02*
X309992571Y-279280771D01*
X309492571Y-279852200D01*
X309706857Y-279852200D01*
X309849714Y-279923628D01*
X309921142Y-279995057D01*
X309992571Y-280137914D01*
X309992571Y-280495057D01*
X309921142Y-280637914D01*
X309849714Y-280709342D01*
X309706857Y-280780771D01*
X309278285Y-280780771D01*
X309135428Y-280709342D01*
X309064000Y-280637914D01*
X386421142Y-283580771D02*
X386421142Y-282080771D01*
X387778285Y-283580771D02*
X387778285Y-282080771D01*
X387778285Y-283509342D02*
X387635428Y-283580771D01*
X387349714Y-283580771D01*
X387206857Y-283509342D01*
X387135428Y-283437914D01*
X387064000Y-283295057D01*
X387064000Y-282866485D01*
X387135428Y-282723628D01*
X387206857Y-282652200D01*
X387349714Y-282580771D01*
X387635428Y-282580771D01*
X387778285Y-282652200D01*
X388492571Y-283437914D02*
X388564000Y-283509342D01*
X388492571Y-283580771D01*
X388421142Y-283509342D01*
X388492571Y-283437914D01*
X388492571Y-283580771D01*
X388492571Y-282652200D02*
X388564000Y-282723628D01*
X388492571Y-282795057D01*
X388421142Y-282723628D01*
X388492571Y-282652200D01*
X388492571Y-282795057D01*
X391135428Y-283580771D02*
X390278285Y-283580771D01*
X390706857Y-283580771D02*
X390706857Y-282080771D01*
X390564000Y-282295057D01*
X390421142Y-282437914D01*
X390278285Y-282509342D01*
X392849714Y-282009342D02*
X391564000Y-283937914D01*
X394135428Y-283580771D02*
X393278285Y-283580771D01*
X393706857Y-283580771D02*
X393706857Y-282080771D01*
X393564000Y-282295057D01*
X393421142Y-282437914D01*
X393278285Y-282509342D01*
X299989000Y-274502200D02*
X407989000Y-274502200D01*
D12*
X301701380Y-275206961D02*
X302844238Y-275206961D01*
X302022809Y-277206961D02*
X302272809Y-275206961D01*
X303260904Y-277206961D02*
X303427571Y-275873628D01*
X303510904Y-275206961D02*
X303403761Y-275302200D01*
X303487095Y-275397438D01*
X303594238Y-275302200D01*
X303510904Y-275206961D01*
X303487095Y-275397438D01*
X304094238Y-275873628D02*
X304856142Y-275873628D01*
X304463285Y-275206961D02*
X304249000Y-276921247D01*
X304320428Y-277111723D01*
X304499000Y-277206961D01*
X304689476Y-277206961D01*
X305641857Y-277206961D02*
X305463285Y-277111723D01*
X305391857Y-276921247D01*
X305606142Y-275206961D01*
X307177571Y-277111723D02*
X306975190Y-277206961D01*
X306594238Y-277206961D01*
X306415666Y-277111723D01*
X306344238Y-276921247D01*
X306439476Y-276159342D01*
X306558523Y-275968866D01*
X306760904Y-275873628D01*
X307141857Y-275873628D01*
X307320428Y-275968866D01*
X307391857Y-276159342D01*
X307368047Y-276349819D01*
X306391857Y-276540295D01*
X308141857Y-277016485D02*
X308225190Y-277111723D01*
X308118047Y-277206961D01*
X308034714Y-277111723D01*
X308141857Y-277016485D01*
X308118047Y-277206961D01*
X308272809Y-275968866D02*
X308356142Y-276064104D01*
X308249000Y-276159342D01*
X308165666Y-276064104D01*
X308272809Y-275968866D01*
X308249000Y-276159342D01*
D10*
X301921142Y-272595057D02*
X301421142Y-272595057D01*
X301421142Y-273380771D02*
X301421142Y-271880771D01*
X302135428Y-271880771D01*
X302706857Y-273380771D02*
X302706857Y-272380771D01*
X302706857Y-271880771D02*
X302635428Y-271952200D01*
X302706857Y-272023628D01*
X302778285Y-271952200D01*
X302706857Y-271880771D01*
X302706857Y-272023628D01*
X303635428Y-273380771D02*
X303492571Y-273309342D01*
X303421142Y-273166485D01*
X303421142Y-271880771D01*
X304778285Y-273309342D02*
X304635428Y-273380771D01*
X304349714Y-273380771D01*
X304206857Y-273309342D01*
X304135428Y-273166485D01*
X304135428Y-272595057D01*
X304206857Y-272452200D01*
X304349714Y-272380771D01*
X304635428Y-272380771D01*
X304778285Y-272452200D01*
X304849714Y-272595057D01*
X304849714Y-272737914D01*
X304135428Y-272880771D01*
X305492571Y-273237914D02*
X305564000Y-273309342D01*
X305492571Y-273380771D01*
X305421142Y-273309342D01*
X305492571Y-273237914D01*
X305492571Y-273380771D01*
X305492571Y-272452200D02*
X305564000Y-272523628D01*
X305492571Y-272595057D01*
X305421142Y-272523628D01*
X305492571Y-272452200D01*
X305492571Y-272595057D01*
X307349714Y-273380771D02*
X307349714Y-272380771D01*
X307349714Y-272666485D02*
X307421142Y-272523628D01*
X307492571Y-272452200D01*
X307635428Y-272380771D01*
X307778285Y-272380771D01*
X308921142Y-273380771D02*
X308921142Y-272595057D01*
X308849714Y-272452200D01*
X308706857Y-272380771D01*
X308421142Y-272380771D01*
X308278285Y-272452200D01*
X308921142Y-273309342D02*
X308778285Y-273380771D01*
X308421142Y-273380771D01*
X308278285Y-273309342D01*
X308206857Y-273166485D01*
X308206857Y-273023628D01*
X308278285Y-272880771D01*
X308421142Y-272809342D01*
X308778285Y-272809342D01*
X308921142Y-272737914D01*
X309564000Y-273309342D02*
X309706857Y-273380771D01*
X309992571Y-273380771D01*
X310135428Y-273309342D01*
X310206857Y-273166485D01*
X310206857Y-273095057D01*
X310135428Y-272952200D01*
X309992571Y-272880771D01*
X309778285Y-272880771D01*
X309635428Y-272809342D01*
X309564000Y-272666485D01*
X309564000Y-272595057D01*
X309635428Y-272452200D01*
X309778285Y-272380771D01*
X309992571Y-272380771D01*
X310135428Y-272452200D01*
X311064000Y-273380771D02*
X310921142Y-273309342D01*
X310849714Y-273166485D01*
X310849714Y-271880771D01*
X312206857Y-273309342D02*
X312064000Y-273380771D01*
X311778285Y-273380771D01*
X311635428Y-273309342D01*
X311564000Y-273166485D01*
X311564000Y-272595057D01*
X311635428Y-272452200D01*
X311778285Y-272380771D01*
X312064000Y-272380771D01*
X312206857Y-272452200D01*
X312278285Y-272595057D01*
X312278285Y-272737914D01*
X311564000Y-272880771D01*
X312921142Y-273237914D02*
X312992571Y-273309342D01*
X312921142Y-273380771D01*
X312849714Y-273309342D01*
X312921142Y-273237914D01*
X312921142Y-273380771D01*
X313635428Y-273380771D02*
X313635428Y-271880771D01*
X313778285Y-272809342D02*
X314206857Y-273380771D01*
X314206857Y-272380771D02*
X313635428Y-272952200D01*
X314849714Y-273380771D02*
X314849714Y-272380771D01*
X314849714Y-271880771D02*
X314778285Y-271952200D01*
X314849714Y-272023628D01*
X314921142Y-271952200D01*
X314849714Y-271880771D01*
X314849714Y-272023628D01*
X316206857Y-273309342D02*
X316064000Y-273380771D01*
X315778285Y-273380771D01*
X315635428Y-273309342D01*
X315564000Y-273237914D01*
X315492571Y-273095057D01*
X315492571Y-272666485D01*
X315564000Y-272523628D01*
X315635428Y-272452200D01*
X315778285Y-272380771D01*
X316064000Y-272380771D01*
X316206857Y-272452200D01*
X317492571Y-273380771D02*
X317492571Y-272595057D01*
X317421142Y-272452200D01*
X317278285Y-272380771D01*
X316992571Y-272380771D01*
X316849714Y-272452200D01*
X317492571Y-273309342D02*
X317349714Y-273380771D01*
X316992571Y-273380771D01*
X316849714Y-273309342D01*
X316778285Y-273166485D01*
X316778285Y-273023628D01*
X316849714Y-272880771D01*
X316992571Y-272809342D01*
X317349714Y-272809342D01*
X317492571Y-272737914D01*
X318849714Y-273380771D02*
X318849714Y-271880771D01*
X318849714Y-273309342D02*
X318706857Y-273380771D01*
X318421142Y-273380771D01*
X318278285Y-273309342D01*
X318206857Y-273237914D01*
X318135428Y-273095057D01*
X318135428Y-272666485D01*
X318206857Y-272523628D01*
X318278285Y-272452200D01*
X318421142Y-272380771D01*
X318706857Y-272380771D01*
X318849714Y-272452200D01*
X319206857Y-273523628D02*
X320349714Y-273523628D01*
X320706857Y-272380771D02*
X320706857Y-273880771D01*
X320706857Y-272452200D02*
X320849714Y-272380771D01*
X321135428Y-272380771D01*
X321278285Y-272452200D01*
X321349714Y-272523628D01*
X321421142Y-272666485D01*
X321421142Y-273095057D01*
X321349714Y-273237914D01*
X321278285Y-273309342D01*
X321135428Y-273380771D01*
X320849714Y-273380771D01*
X320706857Y-273309342D01*
X322706857Y-273309342D02*
X322564000Y-273380771D01*
X322278285Y-273380771D01*
X322135428Y-273309342D01*
X322064000Y-273237914D01*
X321992571Y-273095057D01*
X321992571Y-272666485D01*
X322064000Y-272523628D01*
X322135428Y-272452200D01*
X322278285Y-272380771D01*
X322564000Y-272380771D01*
X322706857Y-272452200D01*
X323349714Y-273380771D02*
X323349714Y-271880771D01*
X323349714Y-272452200D02*
X323492571Y-272380771D01*
X323778285Y-272380771D01*
X323921142Y-272452200D01*
X323992571Y-272523628D01*
X324064000Y-272666485D01*
X324064000Y-273095057D01*
X323992571Y-273237914D01*
X323921142Y-273309342D01*
X323778285Y-273380771D01*
X323492571Y-273380771D01*
X323349714Y-273309342D01*
X299989000Y-268502200D02*
X407989000Y-268502200D01*
X301349714Y-270609342D02*
X301564000Y-270680771D01*
X301921142Y-270680771D01*
X302064000Y-270609342D01*
X302135428Y-270537914D01*
X302206857Y-270395057D01*
X302206857Y-270252200D01*
X302135428Y-270109342D01*
X302064000Y-270037914D01*
X301921142Y-269966485D01*
X301635428Y-269895057D01*
X301492571Y-269823628D01*
X301421142Y-269752200D01*
X301349714Y-269609342D01*
X301349714Y-269466485D01*
X301421142Y-269323628D01*
X301492571Y-269252200D01*
X301635428Y-269180771D01*
X301992571Y-269180771D01*
X302206857Y-269252200D01*
X302849714Y-270680771D02*
X302849714Y-269180771D01*
X303492571Y-270680771D02*
X303492571Y-269895057D01*
X303421142Y-269752200D01*
X303278285Y-269680771D01*
X303064000Y-269680771D01*
X302921142Y-269752200D01*
X302849714Y-269823628D01*
X304778285Y-270609342D02*
X304635428Y-270680771D01*
X304349714Y-270680771D01*
X304206857Y-270609342D01*
X304135428Y-270466485D01*
X304135428Y-269895057D01*
X304206857Y-269752200D01*
X304349714Y-269680771D01*
X304635428Y-269680771D01*
X304778285Y-269752200D01*
X304849714Y-269895057D01*
X304849714Y-270037914D01*
X304135428Y-270180771D01*
X306064000Y-270609342D02*
X305921142Y-270680771D01*
X305635428Y-270680771D01*
X305492571Y-270609342D01*
X305421142Y-270466485D01*
X305421142Y-269895057D01*
X305492571Y-269752200D01*
X305635428Y-269680771D01*
X305921142Y-269680771D01*
X306064000Y-269752200D01*
X306135428Y-269895057D01*
X306135428Y-270037914D01*
X305421142Y-270180771D01*
X306564000Y-269680771D02*
X307135428Y-269680771D01*
X306778285Y-269180771D02*
X306778285Y-270466485D01*
X306849714Y-270609342D01*
X306992571Y-270680771D01*
X307135428Y-270680771D01*
X307635428Y-270537914D02*
X307706857Y-270609342D01*
X307635428Y-270680771D01*
X307564000Y-270609342D01*
X307635428Y-270537914D01*
X307635428Y-270680771D01*
X307635428Y-269752200D02*
X307706857Y-269823628D01*
X307635428Y-269895057D01*
X307564000Y-269823628D01*
X307635428Y-269752200D01*
X307635428Y-269895057D01*
X319989000Y-278502200D02*
X319989000Y-281502200D01*
X383989000Y-278502200D02*
X383989000Y-285002200D01*
D13*
X247241418Y-119621600D02*
G75*
G03X247241418Y-119621600I-13992818J0D01*
G01*
X200000000Y-113000000D02*
X200000000Y-131000000D01*
X200000000Y-97000000D02*
X200000000Y-113000000D01*
X265000000Y-97000000D02*
G75*
G03X262000000Y-94000000I-3000000J0D01*
G01*
X262000000Y-150000000D02*
G75*
G03X265000000Y-147000000I0J3000000D01*
G01*
X200000000Y-147000000D02*
G75*
G03X203000000Y-150000000I3000000J0D01*
G01*
X203000000Y-94000000D02*
G75*
G03X200000000Y-97000000I0J-3000000D01*
G01*
X262000000Y-94000000D02*
X203000000Y-94000000D01*
X265000000Y-147000000D02*
X265000000Y-97000000D01*
X203000000Y-150000000D02*
X262000000Y-150000000D01*
X200000000Y-131000000D02*
X200000000Y-147000000D01*
M02*
