G04 #@! TF.GenerationSoftware,KiCad,Pcbnew,5.1.4+dfsg1-1*
G04 #@! TF.CreationDate,2019-10-24T19:10:14+02:00*
G04 #@! TF.ProjectId,rasle,7261736c-652e-46b6-9963-61645f706362,rev?*
G04 #@! TF.SameCoordinates,Original*
G04 #@! TF.FileFunction,Soldermask,Bot*
G04 #@! TF.FilePolarity,Negative*
%FSLAX46Y46*%
G04 Gerber Fmt 4.6, Leading zero omitted, Abs format (unit mm)*
G04 Created by KiCad (PCBNEW 5.1.4+dfsg1-1) date 2019-10-24 19:10:14*
%MOMM*%
%LPD*%
G04 APERTURE LIST*
%ADD10C,0.150000*%
G04 APERTURE END LIST*
D10*
G36*
X261893779Y-145201879D02*
G01*
X262139463Y-145303645D01*
X262139465Y-145303646D01*
X262224261Y-145360305D01*
X262360574Y-145451386D01*
X262548614Y-145639426D01*
X262696355Y-145860537D01*
X262798121Y-146106221D01*
X262850000Y-146367035D01*
X262850000Y-146632965D01*
X262798121Y-146893779D01*
X262696355Y-147139463D01*
X262696354Y-147139465D01*
X262548613Y-147360575D01*
X262360575Y-147548613D01*
X262139465Y-147696354D01*
X262139464Y-147696355D01*
X262139463Y-147696355D01*
X261893779Y-147798121D01*
X261632965Y-147850000D01*
X261367035Y-147850000D01*
X261106221Y-147798121D01*
X260860537Y-147696355D01*
X260860536Y-147696355D01*
X260860535Y-147696354D01*
X260639425Y-147548613D01*
X260451387Y-147360575D01*
X260303646Y-147139465D01*
X260303645Y-147139463D01*
X260201879Y-146893779D01*
X260150000Y-146632965D01*
X260150000Y-146367035D01*
X260201879Y-146106221D01*
X260303645Y-145860537D01*
X260451386Y-145639426D01*
X260639426Y-145451386D01*
X260775739Y-145360305D01*
X260860535Y-145303646D01*
X260860537Y-145303645D01*
X261106221Y-145201879D01*
X261367035Y-145150000D01*
X261632965Y-145150000D01*
X261893779Y-145201879D01*
X261893779Y-145201879D01*
G37*
G36*
X203893779Y-145201879D02*
G01*
X204139463Y-145303645D01*
X204139465Y-145303646D01*
X204224261Y-145360305D01*
X204360574Y-145451386D01*
X204548614Y-145639426D01*
X204696355Y-145860537D01*
X204798121Y-146106221D01*
X204850000Y-146367035D01*
X204850000Y-146632965D01*
X204798121Y-146893779D01*
X204696355Y-147139463D01*
X204696354Y-147139465D01*
X204548613Y-147360575D01*
X204360575Y-147548613D01*
X204139465Y-147696354D01*
X204139464Y-147696355D01*
X204139463Y-147696355D01*
X203893779Y-147798121D01*
X203632965Y-147850000D01*
X203367035Y-147850000D01*
X203106221Y-147798121D01*
X202860537Y-147696355D01*
X202860536Y-147696355D01*
X202860535Y-147696354D01*
X202639425Y-147548613D01*
X202451387Y-147360575D01*
X202303646Y-147139465D01*
X202303645Y-147139463D01*
X202201879Y-146893779D01*
X202150000Y-146632965D01*
X202150000Y-146367035D01*
X202201879Y-146106221D01*
X202303645Y-145860537D01*
X202451386Y-145639426D01*
X202639426Y-145451386D01*
X202775739Y-145360305D01*
X202860535Y-145303646D01*
X202860537Y-145303645D01*
X203106221Y-145201879D01*
X203367035Y-145150000D01*
X203632965Y-145150000D01*
X203893779Y-145201879D01*
X203893779Y-145201879D01*
G37*
G36*
X234522794Y-144678496D02*
G01*
X234643226Y-144715029D01*
X234685587Y-144727879D01*
X234835607Y-144808066D01*
X234835610Y-144808068D01*
X234835611Y-144808069D01*
X234967112Y-144915988D01*
X235075031Y-145047488D01*
X235075033Y-145047492D01*
X235075034Y-145047493D01*
X235155221Y-145197513D01*
X235155222Y-145197516D01*
X235204604Y-145360305D01*
X235217100Y-145487180D01*
X235217100Y-145876819D01*
X235204604Y-146003694D01*
X235193747Y-146039484D01*
X235155221Y-146166488D01*
X235075034Y-146316507D01*
X235075031Y-146316512D01*
X234967112Y-146448012D01*
X234835612Y-146555931D01*
X234835608Y-146555933D01*
X234835607Y-146555934D01*
X234685587Y-146636121D01*
X234685584Y-146636122D01*
X234522795Y-146685504D01*
X234353500Y-146702178D01*
X234184206Y-146685504D01*
X234021417Y-146636122D01*
X234021414Y-146636121D01*
X233871394Y-146555934D01*
X233871393Y-146555933D01*
X233871389Y-146555931D01*
X233739888Y-146448012D01*
X233631969Y-146316512D01*
X233564347Y-146190000D01*
X233551779Y-146166487D01*
X233551778Y-146166484D01*
X233502396Y-146003695D01*
X233489900Y-145876820D01*
X233489900Y-145487181D01*
X233502396Y-145360306D01*
X233551778Y-145197517D01*
X233551779Y-145197513D01*
X233631966Y-145047493D01*
X233631970Y-145047488D01*
X233739888Y-144915988D01*
X233871388Y-144808069D01*
X233871392Y-144808067D01*
X233871393Y-144808066D01*
X234021413Y-144727879D01*
X234021416Y-144727878D01*
X234184205Y-144678496D01*
X234353500Y-144661822D01*
X234522794Y-144678496D01*
X234522794Y-144678496D01*
G37*
G36*
X237062794Y-144678496D02*
G01*
X237183226Y-144715029D01*
X237225587Y-144727879D01*
X237375607Y-144808066D01*
X237375610Y-144808068D01*
X237375611Y-144808069D01*
X237507112Y-144915988D01*
X237615031Y-145047488D01*
X237615033Y-145047492D01*
X237615034Y-145047493D01*
X237695221Y-145197513D01*
X237695222Y-145197516D01*
X237744604Y-145360305D01*
X237757100Y-145487180D01*
X237757100Y-145876819D01*
X237744604Y-146003694D01*
X237733747Y-146039484D01*
X237695221Y-146166488D01*
X237615034Y-146316507D01*
X237615031Y-146316512D01*
X237507112Y-146448012D01*
X237375612Y-146555931D01*
X237375608Y-146555933D01*
X237375607Y-146555934D01*
X237225587Y-146636121D01*
X237225584Y-146636122D01*
X237062795Y-146685504D01*
X236893500Y-146702178D01*
X236724206Y-146685504D01*
X236561417Y-146636122D01*
X236561414Y-146636121D01*
X236411394Y-146555934D01*
X236411393Y-146555933D01*
X236411389Y-146555931D01*
X236279888Y-146448012D01*
X236171969Y-146316512D01*
X236104347Y-146190000D01*
X236091779Y-146166487D01*
X236091778Y-146166484D01*
X236042396Y-146003695D01*
X236029900Y-145876820D01*
X236029900Y-145487181D01*
X236042396Y-145360306D01*
X236091778Y-145197517D01*
X236091779Y-145197513D01*
X236171966Y-145047493D01*
X236171970Y-145047488D01*
X236279888Y-144915988D01*
X236411388Y-144808069D01*
X236411392Y-144808067D01*
X236411393Y-144808066D01*
X236561413Y-144727879D01*
X236561416Y-144727878D01*
X236724205Y-144678496D01*
X236893500Y-144661822D01*
X237062794Y-144678496D01*
X237062794Y-144678496D01*
G37*
G36*
X232677100Y-146698000D02*
G01*
X230949900Y-146698000D01*
X230949900Y-144666000D01*
X232677100Y-144666000D01*
X232677100Y-146698000D01*
X232677100Y-146698000D01*
G37*
G36*
X221022694Y-144551496D02*
G01*
X221143126Y-144588029D01*
X221185487Y-144600879D01*
X221335507Y-144681066D01*
X221335510Y-144681068D01*
X221335511Y-144681069D01*
X221467012Y-144788988D01*
X221574931Y-144920488D01*
X221574933Y-144920492D01*
X221574934Y-144920493D01*
X221655121Y-145070513D01*
X221655122Y-145070516D01*
X221704504Y-145233305D01*
X221717000Y-145360180D01*
X221717000Y-145749819D01*
X221704504Y-145876694D01*
X221704465Y-145876821D01*
X221655121Y-146039488D01*
X221574934Y-146189507D01*
X221574931Y-146189512D01*
X221467012Y-146321012D01*
X221335512Y-146428931D01*
X221335508Y-146428933D01*
X221335507Y-146428934D01*
X221185487Y-146509121D01*
X221185484Y-146509122D01*
X221022695Y-146558504D01*
X220853400Y-146575178D01*
X220684106Y-146558504D01*
X220521317Y-146509122D01*
X220521314Y-146509121D01*
X220371294Y-146428934D01*
X220371293Y-146428933D01*
X220371289Y-146428931D01*
X220239788Y-146321012D01*
X220131869Y-146189512D01*
X220123639Y-146174115D01*
X220051679Y-146039487D01*
X220051678Y-146039484D01*
X220002296Y-145876695D01*
X219989800Y-145749820D01*
X219989800Y-145360181D01*
X220002296Y-145233306D01*
X220051678Y-145070517D01*
X220051679Y-145070513D01*
X220131866Y-144920493D01*
X220135563Y-144915988D01*
X220239788Y-144788988D01*
X220371288Y-144681069D01*
X220371292Y-144681067D01*
X220371293Y-144681066D01*
X220521313Y-144600879D01*
X220521316Y-144600878D01*
X220684105Y-144551496D01*
X220853400Y-144534822D01*
X221022694Y-144551496D01*
X221022694Y-144551496D01*
G37*
G36*
X223562694Y-144551496D02*
G01*
X223683126Y-144588029D01*
X223725487Y-144600879D01*
X223875507Y-144681066D01*
X223875510Y-144681068D01*
X223875511Y-144681069D01*
X224007012Y-144788988D01*
X224114931Y-144920488D01*
X224114933Y-144920492D01*
X224114934Y-144920493D01*
X224195121Y-145070513D01*
X224195122Y-145070516D01*
X224244504Y-145233305D01*
X224257000Y-145360180D01*
X224257000Y-145749819D01*
X224244504Y-145876694D01*
X224244465Y-145876821D01*
X224195121Y-146039488D01*
X224114934Y-146189507D01*
X224114931Y-146189512D01*
X224007012Y-146321012D01*
X223875512Y-146428931D01*
X223875508Y-146428933D01*
X223875507Y-146428934D01*
X223725487Y-146509121D01*
X223725484Y-146509122D01*
X223562695Y-146558504D01*
X223393400Y-146575178D01*
X223224106Y-146558504D01*
X223061317Y-146509122D01*
X223061314Y-146509121D01*
X222911294Y-146428934D01*
X222911293Y-146428933D01*
X222911289Y-146428931D01*
X222779788Y-146321012D01*
X222671869Y-146189512D01*
X222663639Y-146174115D01*
X222591679Y-146039487D01*
X222591678Y-146039484D01*
X222542296Y-145876695D01*
X222529800Y-145749820D01*
X222529800Y-145360181D01*
X222542296Y-145233306D01*
X222591678Y-145070517D01*
X222591679Y-145070513D01*
X222671866Y-144920493D01*
X222675563Y-144915988D01*
X222779788Y-144788988D01*
X222911288Y-144681069D01*
X222911292Y-144681067D01*
X222911293Y-144681066D01*
X223061313Y-144600879D01*
X223061316Y-144600878D01*
X223224105Y-144551496D01*
X223393400Y-144534822D01*
X223562694Y-144551496D01*
X223562694Y-144551496D01*
G37*
G36*
X219177000Y-146571000D02*
G01*
X217449800Y-146571000D01*
X217449800Y-144539000D01*
X219177000Y-144539000D01*
X219177000Y-146571000D01*
X219177000Y-146571000D01*
G37*
G36*
X247269400Y-146190000D02*
G01*
X245237400Y-146190000D01*
X245237400Y-144158000D01*
X247269400Y-144158000D01*
X247269400Y-146190000D01*
X247269400Y-146190000D01*
G37*
G36*
X246452567Y-141632701D02*
G01*
X246452570Y-141632702D01*
X246452571Y-141632702D01*
X246644087Y-141690798D01*
X246644089Y-141690799D01*
X246644092Y-141690800D01*
X246820590Y-141785139D01*
X246975296Y-141912104D01*
X247102261Y-142066810D01*
X247196600Y-142243308D01*
X247254699Y-142434833D01*
X247274315Y-142634000D01*
X247254699Y-142833167D01*
X247196600Y-143024692D01*
X247102261Y-143201190D01*
X246975296Y-143355896D01*
X246820590Y-143482861D01*
X246644092Y-143577200D01*
X246644089Y-143577201D01*
X246644087Y-143577202D01*
X246452571Y-143635298D01*
X246452570Y-143635298D01*
X246452567Y-143635299D01*
X246303306Y-143650000D01*
X246203494Y-143650000D01*
X246054233Y-143635299D01*
X246054230Y-143635298D01*
X246054229Y-143635298D01*
X245862713Y-143577202D01*
X245862711Y-143577201D01*
X245862708Y-143577200D01*
X245686210Y-143482861D01*
X245531504Y-143355896D01*
X245404539Y-143201190D01*
X245310200Y-143024692D01*
X245252101Y-142833167D01*
X245232485Y-142634000D01*
X245252101Y-142434833D01*
X245310200Y-142243308D01*
X245404539Y-142066810D01*
X245531504Y-141912104D01*
X245686210Y-141785139D01*
X245862708Y-141690800D01*
X245862711Y-141690799D01*
X245862713Y-141690798D01*
X246054229Y-141632702D01*
X246054230Y-141632702D01*
X246054233Y-141632701D01*
X246203494Y-141618000D01*
X246303306Y-141618000D01*
X246452567Y-141632701D01*
X246452567Y-141632701D01*
G37*
G36*
X257693366Y-140596474D02*
G01*
X256420574Y-141869266D01*
X255359914Y-140808606D01*
X256632706Y-139535814D01*
X257693366Y-140596474D01*
X257693366Y-140596474D01*
G37*
G36*
X258710938Y-139346608D02*
G01*
X258180608Y-139876938D01*
X257614922Y-139311252D01*
X258145252Y-138780922D01*
X258710938Y-139346608D01*
X258710938Y-139346608D01*
G37*
G36*
X255572046Y-138475154D02*
G01*
X254299254Y-139747946D01*
X253238594Y-138687286D01*
X254511386Y-137414494D01*
X255572046Y-138475154D01*
X255572046Y-138475154D01*
G37*
G36*
X206320567Y-137390901D02*
G01*
X206320570Y-137390902D01*
X206320571Y-137390902D01*
X206512087Y-137448998D01*
X206512089Y-137448999D01*
X206512092Y-137449000D01*
X206688590Y-137543339D01*
X206843296Y-137670304D01*
X206970261Y-137825010D01*
X207064600Y-138001508D01*
X207122699Y-138193033D01*
X207142315Y-138392200D01*
X207122699Y-138591367D01*
X207122698Y-138591370D01*
X207122698Y-138591371D01*
X207065198Y-138780923D01*
X207064600Y-138782892D01*
X206970261Y-138959390D01*
X206843296Y-139114096D01*
X206688590Y-139241061D01*
X206512092Y-139335400D01*
X206512089Y-139335401D01*
X206512087Y-139335402D01*
X206320571Y-139393498D01*
X206320570Y-139393498D01*
X206320567Y-139393499D01*
X206171306Y-139408200D01*
X206071494Y-139408200D01*
X205922233Y-139393499D01*
X205922230Y-139393498D01*
X205922229Y-139393498D01*
X205730713Y-139335402D01*
X205730711Y-139335401D01*
X205730708Y-139335400D01*
X205554210Y-139241061D01*
X205399504Y-139114096D01*
X205272539Y-138959390D01*
X205178200Y-138782892D01*
X205177603Y-138780923D01*
X205120102Y-138591371D01*
X205120102Y-138591370D01*
X205120101Y-138591367D01*
X205100485Y-138392200D01*
X205120101Y-138193033D01*
X205178200Y-138001508D01*
X205272539Y-137825010D01*
X205399504Y-137670304D01*
X205554210Y-137543339D01*
X205730708Y-137449000D01*
X205730711Y-137448999D01*
X205730713Y-137448998D01*
X205922229Y-137390902D01*
X205922230Y-137390902D01*
X205922233Y-137390901D01*
X206071494Y-137376200D01*
X206171306Y-137376200D01*
X206320567Y-137390901D01*
X206320567Y-137390901D01*
G37*
G36*
X204597400Y-139408200D02*
G01*
X202565400Y-139408200D01*
X202565400Y-137376200D01*
X204597400Y-137376200D01*
X204597400Y-139408200D01*
X204597400Y-139408200D01*
G37*
G36*
X257650278Y-138285948D02*
G01*
X257119948Y-138816278D01*
X256554262Y-138250592D01*
X257084592Y-137720262D01*
X257650278Y-138285948D01*
X257650278Y-138285948D01*
G37*
G36*
X256599668Y-137235338D02*
G01*
X256069338Y-137765668D01*
X255503652Y-137199982D01*
X256033982Y-136669652D01*
X256599668Y-137235338D01*
X256599668Y-137235338D01*
G37*
G36*
X255539008Y-136174678D02*
G01*
X255008678Y-136705008D01*
X254442992Y-136139322D01*
X254973322Y-135608992D01*
X255539008Y-136174678D01*
X255539008Y-136174678D01*
G37*
G36*
X204597400Y-135877600D02*
G01*
X202565400Y-135877600D01*
X202565400Y-133845600D01*
X204597400Y-133845600D01*
X204597400Y-135877600D01*
X204597400Y-135877600D01*
G37*
G36*
X206320567Y-133860301D02*
G01*
X206320570Y-133860302D01*
X206320571Y-133860302D01*
X206512087Y-133918398D01*
X206512089Y-133918399D01*
X206512092Y-133918400D01*
X206688590Y-134012739D01*
X206843296Y-134139704D01*
X206970261Y-134294410D01*
X207064600Y-134470908D01*
X207122699Y-134662433D01*
X207142315Y-134861600D01*
X207122699Y-135060767D01*
X207064600Y-135252292D01*
X206970261Y-135428790D01*
X206843296Y-135583496D01*
X206688590Y-135710461D01*
X206512092Y-135804800D01*
X206512089Y-135804801D01*
X206512087Y-135804802D01*
X206320571Y-135862898D01*
X206320570Y-135862898D01*
X206320567Y-135862899D01*
X206171306Y-135877600D01*
X206071494Y-135877600D01*
X205922233Y-135862899D01*
X205922230Y-135862898D01*
X205922229Y-135862898D01*
X205730713Y-135804802D01*
X205730711Y-135804801D01*
X205730708Y-135804800D01*
X205554210Y-135710461D01*
X205399504Y-135583496D01*
X205272539Y-135428790D01*
X205178200Y-135252292D01*
X205120101Y-135060767D01*
X205100485Y-134861600D01*
X205120101Y-134662433D01*
X205178200Y-134470908D01*
X205272539Y-134294410D01*
X205399504Y-134139704D01*
X205554210Y-134012739D01*
X205730708Y-133918400D01*
X205730711Y-133918399D01*
X205730713Y-133918398D01*
X205922229Y-133860302D01*
X205922230Y-133860302D01*
X205922233Y-133860301D01*
X206071494Y-133845600D01*
X206171306Y-133845600D01*
X206320567Y-133860301D01*
X206320567Y-133860301D01*
G37*
G36*
X246139179Y-130820279D02*
G01*
X246384863Y-130922045D01*
X246384865Y-130922046D01*
X246605975Y-131069787D01*
X246794013Y-131257825D01*
X246925074Y-131453971D01*
X246941755Y-131478937D01*
X247043521Y-131724621D01*
X247095400Y-131985435D01*
X247095400Y-132251365D01*
X247043521Y-132512179D01*
X246941755Y-132757863D01*
X246941754Y-132757865D01*
X246794013Y-132978975D01*
X246605975Y-133167013D01*
X246384865Y-133314754D01*
X246384864Y-133314755D01*
X246384863Y-133314755D01*
X246139179Y-133416521D01*
X245878365Y-133468400D01*
X245612435Y-133468400D01*
X245351621Y-133416521D01*
X245105937Y-133314755D01*
X245105936Y-133314755D01*
X245105935Y-133314754D01*
X244884825Y-133167013D01*
X244696787Y-132978975D01*
X244549046Y-132757865D01*
X244549045Y-132757863D01*
X244447279Y-132512179D01*
X244395400Y-132251365D01*
X244395400Y-131985435D01*
X244447279Y-131724621D01*
X244549045Y-131478937D01*
X244565727Y-131453971D01*
X244696787Y-131257825D01*
X244884825Y-131069787D01*
X245105935Y-130922046D01*
X245105937Y-130922045D01*
X245351621Y-130820279D01*
X245612435Y-130768400D01*
X245878365Y-130768400D01*
X246139179Y-130820279D01*
X246139179Y-130820279D01*
G37*
G36*
X221139179Y-130820279D02*
G01*
X221384863Y-130922045D01*
X221384865Y-130922046D01*
X221605975Y-131069787D01*
X221794013Y-131257825D01*
X221925074Y-131453971D01*
X221941755Y-131478937D01*
X222043521Y-131724621D01*
X222095400Y-131985435D01*
X222095400Y-132251365D01*
X222043521Y-132512179D01*
X221941755Y-132757863D01*
X221941754Y-132757865D01*
X221794013Y-132978975D01*
X221605975Y-133167013D01*
X221384865Y-133314754D01*
X221384864Y-133314755D01*
X221384863Y-133314755D01*
X221139179Y-133416521D01*
X220878365Y-133468400D01*
X220612435Y-133468400D01*
X220351621Y-133416521D01*
X220105937Y-133314755D01*
X220105936Y-133314755D01*
X220105935Y-133314754D01*
X219884825Y-133167013D01*
X219696787Y-132978975D01*
X219549046Y-132757865D01*
X219549045Y-132757863D01*
X219447279Y-132512179D01*
X219395400Y-132251365D01*
X219395400Y-131985435D01*
X219447279Y-131724621D01*
X219549045Y-131478937D01*
X219565727Y-131453971D01*
X219696787Y-131257825D01*
X219884825Y-131069787D01*
X220105935Y-130922046D01*
X220105937Y-130922045D01*
X220351621Y-130820279D01*
X220612435Y-130768400D01*
X220878365Y-130768400D01*
X221139179Y-130820279D01*
X221139179Y-130820279D01*
G37*
G36*
X206320567Y-130253501D02*
G01*
X206320570Y-130253502D01*
X206320571Y-130253502D01*
X206512087Y-130311598D01*
X206512089Y-130311599D01*
X206512092Y-130311600D01*
X206688590Y-130405939D01*
X206843296Y-130532904D01*
X206970261Y-130687610D01*
X207064600Y-130864108D01*
X207064601Y-130864111D01*
X207064602Y-130864113D01*
X207122698Y-131055629D01*
X207122699Y-131055633D01*
X207142315Y-131254800D01*
X207122699Y-131453967D01*
X207122698Y-131453970D01*
X207122698Y-131453971D01*
X207115125Y-131478937D01*
X207064600Y-131645492D01*
X206970261Y-131821990D01*
X206843296Y-131976696D01*
X206688590Y-132103661D01*
X206512092Y-132198000D01*
X206512089Y-132198001D01*
X206512087Y-132198002D01*
X206320571Y-132256098D01*
X206320570Y-132256098D01*
X206320567Y-132256099D01*
X206171306Y-132270800D01*
X206071494Y-132270800D01*
X205922233Y-132256099D01*
X205922230Y-132256098D01*
X205922229Y-132256098D01*
X205730713Y-132198002D01*
X205730711Y-132198001D01*
X205730708Y-132198000D01*
X205554210Y-132103661D01*
X205399504Y-131976696D01*
X205272539Y-131821990D01*
X205178200Y-131645492D01*
X205127676Y-131478937D01*
X205120102Y-131453971D01*
X205120102Y-131453970D01*
X205120101Y-131453967D01*
X205100485Y-131254800D01*
X205120101Y-131055633D01*
X205120102Y-131055629D01*
X205178198Y-130864113D01*
X205178199Y-130864111D01*
X205178200Y-130864108D01*
X205272539Y-130687610D01*
X205399504Y-130532904D01*
X205554210Y-130405939D01*
X205730708Y-130311600D01*
X205730711Y-130311599D01*
X205730713Y-130311598D01*
X205922229Y-130253502D01*
X205922230Y-130253502D01*
X205922233Y-130253501D01*
X206071494Y-130238800D01*
X206171306Y-130238800D01*
X206320567Y-130253501D01*
X206320567Y-130253501D01*
G37*
G36*
X204597400Y-132270800D02*
G01*
X202565400Y-132270800D01*
X202565400Y-130238800D01*
X204597400Y-130238800D01*
X204597400Y-132270800D01*
X204597400Y-132270800D01*
G37*
G36*
X204673600Y-126708200D02*
G01*
X202641600Y-126708200D01*
X202641600Y-124981000D01*
X204673600Y-124981000D01*
X204673600Y-126708200D01*
X204673600Y-126708200D01*
G37*
G36*
X213067621Y-125424482D02*
G01*
X213180721Y-125458790D01*
X213284955Y-125514504D01*
X213376317Y-125589483D01*
X213451296Y-125680845D01*
X213507010Y-125785079D01*
X213541318Y-125898179D01*
X213552903Y-126015800D01*
X213541318Y-126133421D01*
X213507010Y-126246521D01*
X213451296Y-126350755D01*
X213376317Y-126442117D01*
X213284955Y-126517096D01*
X213180721Y-126572810D01*
X213067621Y-126607118D01*
X212979474Y-126615800D01*
X212420526Y-126615800D01*
X212332379Y-126607118D01*
X212219279Y-126572810D01*
X212115045Y-126517096D01*
X212023683Y-126442117D01*
X211948704Y-126350755D01*
X211892990Y-126246521D01*
X211858682Y-126133421D01*
X211847097Y-126015800D01*
X211858682Y-125898179D01*
X211892990Y-125785079D01*
X211948704Y-125680845D01*
X212023683Y-125589483D01*
X212115045Y-125514504D01*
X212219279Y-125458790D01*
X212332379Y-125424482D01*
X212420526Y-125415800D01*
X212979474Y-125415800D01*
X213067621Y-125424482D01*
X213067621Y-125424482D01*
G37*
G36*
X213550000Y-124615800D02*
G01*
X211850000Y-124615800D01*
X211850000Y-123415800D01*
X213550000Y-123415800D01*
X213550000Y-124615800D01*
X213550000Y-124615800D01*
G37*
G36*
X203894712Y-122445165D02*
G01*
X203979295Y-122453496D01*
X204142084Y-122502878D01*
X204142087Y-122502879D01*
X204292107Y-122583066D01*
X204292108Y-122583067D01*
X204292112Y-122583069D01*
X204423612Y-122690988D01*
X204531531Y-122822488D01*
X204531533Y-122822492D01*
X204531534Y-122822493D01*
X204611721Y-122972513D01*
X204611722Y-122972516D01*
X204661104Y-123135305D01*
X204677778Y-123304600D01*
X204661104Y-123473895D01*
X204611722Y-123636684D01*
X204611721Y-123636687D01*
X204531534Y-123786707D01*
X204531531Y-123786712D01*
X204423612Y-123918212D01*
X204292112Y-124026131D01*
X204292108Y-124026133D01*
X204292107Y-124026134D01*
X204142087Y-124106321D01*
X204142084Y-124106322D01*
X203979295Y-124155704D01*
X203894712Y-124164035D01*
X203852421Y-124168200D01*
X203462779Y-124168200D01*
X203420488Y-124164035D01*
X203335905Y-124155704D01*
X203173116Y-124106322D01*
X203173113Y-124106321D01*
X203023093Y-124026134D01*
X203023092Y-124026133D01*
X203023088Y-124026131D01*
X202891588Y-123918212D01*
X202783669Y-123786712D01*
X202783666Y-123786707D01*
X202703479Y-123636687D01*
X202703478Y-123636684D01*
X202654096Y-123473895D01*
X202637422Y-123304600D01*
X202654096Y-123135305D01*
X202703478Y-122972516D01*
X202703479Y-122972513D01*
X202783666Y-122822493D01*
X202783667Y-122822492D01*
X202783669Y-122822488D01*
X202891588Y-122690988D01*
X203023088Y-122583069D01*
X203023092Y-122583067D01*
X203023093Y-122583066D01*
X203173113Y-122502879D01*
X203173116Y-122502878D01*
X203335905Y-122453496D01*
X203420488Y-122445165D01*
X203462779Y-122441000D01*
X203852421Y-122441000D01*
X203894712Y-122445165D01*
X203894712Y-122445165D01*
G37*
G36*
X203894712Y-119905165D02*
G01*
X203979295Y-119913496D01*
X204142084Y-119962878D01*
X204142087Y-119962879D01*
X204292107Y-120043066D01*
X204292108Y-120043067D01*
X204292112Y-120043069D01*
X204423612Y-120150988D01*
X204531531Y-120282488D01*
X204531533Y-120282492D01*
X204531534Y-120282493D01*
X204611721Y-120432513D01*
X204611722Y-120432516D01*
X204661104Y-120595305D01*
X204677778Y-120764600D01*
X204661104Y-120933895D01*
X204611722Y-121096684D01*
X204611721Y-121096687D01*
X204531534Y-121246707D01*
X204531531Y-121246712D01*
X204423612Y-121378212D01*
X204292112Y-121486131D01*
X204292108Y-121486133D01*
X204292107Y-121486134D01*
X204142087Y-121566321D01*
X204142084Y-121566322D01*
X203979295Y-121615704D01*
X203894712Y-121624035D01*
X203852421Y-121628200D01*
X203462779Y-121628200D01*
X203420488Y-121624035D01*
X203335905Y-121615704D01*
X203173116Y-121566322D01*
X203173113Y-121566321D01*
X203023093Y-121486134D01*
X203023092Y-121486133D01*
X203023088Y-121486131D01*
X202891588Y-121378212D01*
X202783669Y-121246712D01*
X202783666Y-121246707D01*
X202703479Y-121096687D01*
X202703478Y-121096684D01*
X202654096Y-120933895D01*
X202637422Y-120764600D01*
X202654096Y-120595305D01*
X202703478Y-120432516D01*
X202703479Y-120432513D01*
X202783666Y-120282493D01*
X202783667Y-120282492D01*
X202783669Y-120282488D01*
X202891588Y-120150988D01*
X203023088Y-120043069D01*
X203023092Y-120043067D01*
X203023093Y-120043066D01*
X203173113Y-119962879D01*
X203173116Y-119962878D01*
X203335905Y-119913496D01*
X203420488Y-119905165D01*
X203462779Y-119901000D01*
X203852421Y-119901000D01*
X203894712Y-119905165D01*
X203894712Y-119905165D01*
G37*
G36*
X254682167Y-116392721D02*
G01*
X254682170Y-116392722D01*
X254682171Y-116392722D01*
X254873687Y-116450818D01*
X254873689Y-116450819D01*
X254873692Y-116450820D01*
X255050190Y-116545159D01*
X255204896Y-116672124D01*
X255331861Y-116826830D01*
X255426200Y-117003328D01*
X255484299Y-117194853D01*
X255503915Y-117394020D01*
X255484299Y-117593187D01*
X255426200Y-117784712D01*
X255331861Y-117961210D01*
X255204896Y-118115916D01*
X255050190Y-118242881D01*
X254873692Y-118337220D01*
X254873689Y-118337221D01*
X254873687Y-118337222D01*
X254682171Y-118395318D01*
X254682170Y-118395318D01*
X254682167Y-118395319D01*
X254532906Y-118410020D01*
X254433094Y-118410020D01*
X254283833Y-118395319D01*
X254283830Y-118395318D01*
X254283829Y-118395318D01*
X254092313Y-118337222D01*
X254092311Y-118337221D01*
X254092308Y-118337220D01*
X253915810Y-118242881D01*
X253761104Y-118115916D01*
X253634139Y-117961210D01*
X253539800Y-117784712D01*
X253481701Y-117593187D01*
X253462085Y-117394020D01*
X253481701Y-117194853D01*
X253539800Y-117003328D01*
X253634139Y-116826830D01*
X253761104Y-116672124D01*
X253915810Y-116545159D01*
X254092308Y-116450820D01*
X254092311Y-116450819D01*
X254092313Y-116450818D01*
X254283829Y-116392722D01*
X254283830Y-116392722D01*
X254283833Y-116392721D01*
X254433094Y-116378020D01*
X254532906Y-116378020D01*
X254682167Y-116392721D01*
X254682167Y-116392721D01*
G37*
G36*
X261026600Y-115391600D02*
G01*
X260955839Y-115391600D01*
X260931453Y-115394002D01*
X260908004Y-115401115D01*
X260886393Y-115412666D01*
X260867451Y-115428211D01*
X260851906Y-115447153D01*
X260840355Y-115468764D01*
X260833242Y-115492213D01*
X260830840Y-115516599D01*
X260830840Y-116876020D01*
X259830840Y-116876020D01*
X259830840Y-115516599D01*
X259828438Y-115492213D01*
X259826600Y-115486154D01*
X259826600Y-113691600D01*
X261026600Y-113691600D01*
X261026600Y-115391600D01*
X261026600Y-115391600D01*
G37*
G36*
X262544220Y-113700282D02*
G01*
X262657320Y-113734590D01*
X262761554Y-113790304D01*
X262852917Y-113865283D01*
X262927896Y-113956645D01*
X262983610Y-114060879D01*
X263017918Y-114173979D01*
X263026600Y-114262126D01*
X263026600Y-114821074D01*
X263017918Y-114909221D01*
X262983610Y-115022321D01*
X262927896Y-115126555D01*
X262852917Y-115217917D01*
X262761555Y-115292896D01*
X262657321Y-115348610D01*
X262549201Y-115381407D01*
X262526570Y-115390782D01*
X262506196Y-115404395D01*
X262488869Y-115421722D01*
X262475255Y-115442097D01*
X262465877Y-115464736D01*
X262461097Y-115488769D01*
X262461097Y-115513273D01*
X262465877Y-115537306D01*
X262475255Y-115559945D01*
X262488868Y-115580319D01*
X262506195Y-115597646D01*
X262526570Y-115611260D01*
X262549209Y-115620638D01*
X262573242Y-115625418D01*
X262585494Y-115626020D01*
X262830840Y-115626020D01*
X262830840Y-116876020D01*
X261830840Y-116876020D01*
X261830840Y-115626020D01*
X262267707Y-115626020D01*
X262292093Y-115623618D01*
X262315542Y-115616505D01*
X262337153Y-115604954D01*
X262356095Y-115589409D01*
X262371640Y-115570467D01*
X262383191Y-115548856D01*
X262390304Y-115525407D01*
X262392706Y-115501021D01*
X262390304Y-115476635D01*
X262383191Y-115453186D01*
X262371640Y-115431575D01*
X262356095Y-115412633D01*
X262337153Y-115397088D01*
X262315542Y-115385537D01*
X262304009Y-115381410D01*
X262195880Y-115348610D01*
X262091646Y-115292896D01*
X262000284Y-115217917D01*
X261925305Y-115126555D01*
X261925304Y-115126553D01*
X261895217Y-115070265D01*
X261869590Y-115022321D01*
X261835282Y-114909221D01*
X261826600Y-114821074D01*
X261826600Y-114262127D01*
X261835282Y-114173980D01*
X261869590Y-114060880D01*
X261925304Y-113956646D01*
X262000283Y-113865283D01*
X262091645Y-113790304D01*
X262195879Y-113734590D01*
X262308979Y-113700282D01*
X262426600Y-113688697D01*
X262544220Y-113700282D01*
X262544220Y-113700282D01*
G37*
G36*
X255499000Y-115870020D02*
G01*
X253467000Y-115870020D01*
X253467000Y-113838020D01*
X255499000Y-113838020D01*
X255499000Y-115870020D01*
X255499000Y-115870020D01*
G37*
G36*
X258499160Y-115467240D02*
G01*
X257599160Y-115467240D01*
X257599160Y-114967240D01*
X258499160Y-114967240D01*
X258499160Y-115467240D01*
X258499160Y-115467240D01*
G37*
G36*
X203622253Y-113096893D02*
G01*
X203810658Y-113154045D01*
X203984293Y-113246854D01*
X204136485Y-113371755D01*
X204261386Y-113523947D01*
X204354195Y-113697582D01*
X204411347Y-113885987D01*
X204430645Y-114081921D01*
X204411347Y-114277855D01*
X204354195Y-114466260D01*
X204261386Y-114639895D01*
X204136485Y-114792087D01*
X203984293Y-114916988D01*
X203810658Y-115009797D01*
X203622253Y-115066949D01*
X203475419Y-115081411D01*
X203377219Y-115081411D01*
X203230385Y-115066949D01*
X203041980Y-115009797D01*
X202868345Y-114916988D01*
X202716153Y-114792087D01*
X202591252Y-114639895D01*
X202498443Y-114466260D01*
X202441291Y-114277855D01*
X202421993Y-114081921D01*
X202441291Y-113885987D01*
X202498443Y-113697582D01*
X202591252Y-113523947D01*
X202716153Y-113371755D01*
X202868345Y-113246854D01*
X203041980Y-113154045D01*
X203230385Y-113096893D01*
X203377219Y-113082431D01*
X203475419Y-113082431D01*
X203622253Y-113096893D01*
X203622253Y-113096893D01*
G37*
G36*
X258499160Y-113967240D02*
G01*
X257599160Y-113967240D01*
X257599160Y-113467240D01*
X258499160Y-113467240D01*
X258499160Y-113967240D01*
X258499160Y-113967240D01*
G37*
G36*
X204425809Y-112541411D02*
G01*
X202426829Y-112541411D01*
X202426829Y-110542431D01*
X204425809Y-110542431D01*
X204425809Y-112541411D01*
X204425809Y-112541411D01*
G37*
G36*
X254059200Y-111763000D02*
G01*
X253059200Y-111763000D01*
X253059200Y-110513000D01*
X254059200Y-110513000D01*
X254059200Y-111763000D01*
X254059200Y-111763000D01*
G37*
G36*
X256059200Y-111763000D02*
G01*
X255059200Y-111763000D01*
X255059200Y-110513000D01*
X256059200Y-110513000D01*
X256059200Y-111763000D01*
X256059200Y-111763000D01*
G37*
G36*
X260803660Y-111455660D02*
G01*
X259803660Y-111455660D01*
X259803660Y-110205660D01*
X260803660Y-110205660D01*
X260803660Y-111455660D01*
X260803660Y-111455660D01*
G37*
G36*
X262803660Y-111455660D02*
G01*
X261803660Y-111455660D01*
X261803660Y-110205660D01*
X262803660Y-110205660D01*
X262803660Y-111455660D01*
X262803660Y-111455660D01*
G37*
G36*
X262544220Y-108137682D02*
G01*
X262657320Y-108171990D01*
X262761554Y-108227704D01*
X262852917Y-108302683D01*
X262927896Y-108394045D01*
X262983610Y-108498279D01*
X263017918Y-108611379D01*
X263026600Y-108699526D01*
X263026600Y-109258474D01*
X263017918Y-109346621D01*
X262983610Y-109459721D01*
X262927896Y-109563955D01*
X262852917Y-109655317D01*
X262761555Y-109730296D01*
X262657321Y-109786010D01*
X262544221Y-109820318D01*
X262426600Y-109831903D01*
X262308980Y-109820318D01*
X262195880Y-109786010D01*
X262091646Y-109730296D01*
X262000284Y-109655317D01*
X261925305Y-109563955D01*
X261925304Y-109563953D01*
X261869592Y-109459724D01*
X261869590Y-109459721D01*
X261835282Y-109346621D01*
X261826600Y-109258474D01*
X261826600Y-108699527D01*
X261835282Y-108611380D01*
X261869590Y-108498280D01*
X261925304Y-108394046D01*
X262000283Y-108302683D01*
X262091645Y-108227704D01*
X262195879Y-108171990D01*
X262308979Y-108137682D01*
X262426600Y-108126097D01*
X262544220Y-108137682D01*
X262544220Y-108137682D01*
G37*
G36*
X255565820Y-108137682D02*
G01*
X255678920Y-108171990D01*
X255783154Y-108227704D01*
X255874517Y-108302683D01*
X255949496Y-108394045D01*
X256005210Y-108498279D01*
X256039518Y-108611379D01*
X256048200Y-108699526D01*
X256048200Y-109258474D01*
X256039518Y-109346621D01*
X256005210Y-109459721D01*
X255949496Y-109563955D01*
X255874517Y-109655317D01*
X255783155Y-109730296D01*
X255678921Y-109786010D01*
X255565821Y-109820318D01*
X255448200Y-109831903D01*
X255330580Y-109820318D01*
X255217480Y-109786010D01*
X255113246Y-109730296D01*
X255021884Y-109655317D01*
X254946905Y-109563955D01*
X254946904Y-109563953D01*
X254891192Y-109459724D01*
X254891190Y-109459721D01*
X254856882Y-109346621D01*
X254848200Y-109258474D01*
X254848200Y-108699527D01*
X254856882Y-108611380D01*
X254891190Y-108498280D01*
X254946904Y-108394046D01*
X255021883Y-108302683D01*
X255113245Y-108227704D01*
X255217479Y-108171990D01*
X255330579Y-108137682D01*
X255448200Y-108126097D01*
X255565820Y-108137682D01*
X255565820Y-108137682D01*
G37*
G36*
X254048200Y-109829000D02*
G01*
X252848200Y-109829000D01*
X252848200Y-108129000D01*
X254048200Y-108129000D01*
X254048200Y-109829000D01*
X254048200Y-109829000D01*
G37*
G36*
X261026600Y-109829000D02*
G01*
X259826600Y-109829000D01*
X259826600Y-108129000D01*
X261026600Y-108129000D01*
X261026600Y-109829000D01*
X261026600Y-109829000D01*
G37*
G36*
X203622253Y-107046893D02*
G01*
X203810658Y-107104045D01*
X203984293Y-107196854D01*
X204136485Y-107321755D01*
X204261386Y-107473947D01*
X204354195Y-107647582D01*
X204411347Y-107835987D01*
X204430645Y-108031921D01*
X204411347Y-108227855D01*
X204354195Y-108416260D01*
X204261386Y-108589895D01*
X204136485Y-108742087D01*
X203984293Y-108866988D01*
X203810658Y-108959797D01*
X203622253Y-109016949D01*
X203475419Y-109031411D01*
X203377219Y-109031411D01*
X203230385Y-109016949D01*
X203041980Y-108959797D01*
X202868345Y-108866988D01*
X202716153Y-108742087D01*
X202591252Y-108589895D01*
X202498443Y-108416260D01*
X202441291Y-108227855D01*
X202421993Y-108031921D01*
X202441291Y-107835987D01*
X202498443Y-107647582D01*
X202591252Y-107473947D01*
X202716153Y-107321755D01*
X202868345Y-107196854D01*
X203041980Y-107104045D01*
X203230385Y-107046893D01*
X203377219Y-107032431D01*
X203475419Y-107032431D01*
X203622253Y-107046893D01*
X203622253Y-107046893D01*
G37*
G36*
X258656640Y-108978240D02*
G01*
X257756640Y-108978240D01*
X257756640Y-108478240D01*
X258656640Y-108478240D01*
X258656640Y-108978240D01*
X258656640Y-108978240D01*
G37*
G36*
X251839280Y-108973160D02*
G01*
X250939280Y-108973160D01*
X250939280Y-108473160D01*
X251839280Y-108473160D01*
X251839280Y-108973160D01*
X251839280Y-108973160D01*
G37*
G36*
X221139179Y-105820279D02*
G01*
X221384863Y-105922045D01*
X221384865Y-105922046D01*
X221496169Y-105996417D01*
X221605974Y-106069786D01*
X221794014Y-106257826D01*
X221941755Y-106478937D01*
X222043521Y-106724621D01*
X222095400Y-106985435D01*
X222095400Y-107251365D01*
X222043521Y-107512179D01*
X221987435Y-107647582D01*
X221941754Y-107757865D01*
X221889552Y-107835991D01*
X221794014Y-107978974D01*
X221605974Y-108167014D01*
X221515145Y-108227704D01*
X221384865Y-108314754D01*
X221384864Y-108314755D01*
X221384863Y-108314755D01*
X221139179Y-108416521D01*
X220878365Y-108468400D01*
X220612435Y-108468400D01*
X220351621Y-108416521D01*
X220105937Y-108314755D01*
X220105936Y-108314755D01*
X220105935Y-108314754D01*
X219975655Y-108227704D01*
X219884826Y-108167014D01*
X219696786Y-107978974D01*
X219601248Y-107835991D01*
X219549046Y-107757865D01*
X219503365Y-107647582D01*
X219447279Y-107512179D01*
X219395400Y-107251365D01*
X219395400Y-106985435D01*
X219447279Y-106724621D01*
X219549045Y-106478937D01*
X219696786Y-106257826D01*
X219884826Y-106069786D01*
X219994631Y-105996417D01*
X220105935Y-105922046D01*
X220105937Y-105922045D01*
X220351621Y-105820279D01*
X220612435Y-105768400D01*
X220878365Y-105768400D01*
X221139179Y-105820279D01*
X221139179Y-105820279D01*
G37*
G36*
X246139179Y-105820279D02*
G01*
X246384863Y-105922045D01*
X246384865Y-105922046D01*
X246496169Y-105996417D01*
X246605974Y-106069786D01*
X246794014Y-106257826D01*
X246941755Y-106478937D01*
X247043521Y-106724621D01*
X247095400Y-106985435D01*
X247095400Y-107251365D01*
X247043521Y-107512179D01*
X246987435Y-107647582D01*
X246941754Y-107757865D01*
X246889552Y-107835991D01*
X246794014Y-107978974D01*
X246605974Y-108167014D01*
X246515145Y-108227704D01*
X246384865Y-108314754D01*
X246384864Y-108314755D01*
X246384863Y-108314755D01*
X246139179Y-108416521D01*
X245878365Y-108468400D01*
X245612435Y-108468400D01*
X245351621Y-108416521D01*
X245105937Y-108314755D01*
X245105936Y-108314755D01*
X245105935Y-108314754D01*
X244975655Y-108227704D01*
X244884826Y-108167014D01*
X244696786Y-107978974D01*
X244601248Y-107835991D01*
X244549046Y-107757865D01*
X244503365Y-107647582D01*
X244447279Y-107512179D01*
X244395400Y-107251365D01*
X244395400Y-106985435D01*
X244447279Y-106724621D01*
X244549045Y-106478937D01*
X244696786Y-106257826D01*
X244884826Y-106069786D01*
X244994631Y-105996417D01*
X245105935Y-105922046D01*
X245105937Y-105922045D01*
X245351621Y-105820279D01*
X245612435Y-105768400D01*
X245878365Y-105768400D01*
X246139179Y-105820279D01*
X246139179Y-105820279D01*
G37*
G36*
X258656640Y-107478240D02*
G01*
X257756640Y-107478240D01*
X257756640Y-106978240D01*
X258656640Y-106978240D01*
X258656640Y-107478240D01*
X258656640Y-107478240D01*
G37*
G36*
X251839280Y-107473160D02*
G01*
X250939280Y-107473160D01*
X250939280Y-106973160D01*
X251839280Y-106973160D01*
X251839280Y-107473160D01*
X251839280Y-107473160D01*
G37*
G36*
X256060980Y-106655060D02*
G01*
X255060980Y-106655060D01*
X255060980Y-105405060D01*
X256060980Y-105405060D01*
X256060980Y-106655060D01*
X256060980Y-106655060D01*
G37*
G36*
X254060980Y-106655060D02*
G01*
X253060980Y-106655060D01*
X253060980Y-105405060D01*
X254060980Y-105405060D01*
X254060980Y-106655060D01*
X254060980Y-106655060D01*
G37*
G36*
X204425809Y-106491411D02*
G01*
X202426829Y-106491411D01*
X202426829Y-104492431D01*
X204425809Y-104492431D01*
X204425809Y-106491411D01*
X204425809Y-106491411D01*
G37*
G36*
X262866400Y-106124200D02*
G01*
X261866400Y-106124200D01*
X261866400Y-104874200D01*
X262866400Y-104874200D01*
X262866400Y-106124200D01*
X262866400Y-106124200D01*
G37*
G36*
X260866400Y-106124200D02*
G01*
X259866400Y-106124200D01*
X259866400Y-104874200D01*
X260866400Y-104874200D01*
X260866400Y-106124200D01*
X260866400Y-106124200D01*
G37*
G36*
X251851980Y-105455260D02*
G01*
X250951980Y-105455260D01*
X250951980Y-104955260D01*
X251851980Y-104955260D01*
X251851980Y-105455260D01*
X251851980Y-105455260D01*
G37*
G36*
X258656640Y-105434940D02*
G01*
X257756640Y-105434940D01*
X257756640Y-104934940D01*
X258656640Y-104934940D01*
X258656640Y-105434940D01*
X258656640Y-105434940D01*
G37*
G36*
X262544220Y-102575082D02*
G01*
X262657320Y-102609390D01*
X262761554Y-102665104D01*
X262852917Y-102740083D01*
X262927896Y-102831445D01*
X262983610Y-102935679D01*
X263017918Y-103048779D01*
X263026600Y-103136926D01*
X263026600Y-103695874D01*
X263017918Y-103784021D01*
X262983610Y-103897121D01*
X262927896Y-104001355D01*
X262852917Y-104092717D01*
X262761555Y-104167696D01*
X262657321Y-104223410D01*
X262544221Y-104257718D01*
X262426600Y-104269303D01*
X262308980Y-104257718D01*
X262195880Y-104223410D01*
X262091646Y-104167696D01*
X262000284Y-104092717D01*
X261925305Y-104001355D01*
X261925304Y-104001353D01*
X261869592Y-103897124D01*
X261869590Y-103897121D01*
X261835282Y-103784021D01*
X261826600Y-103695874D01*
X261826600Y-103136927D01*
X261835282Y-103048780D01*
X261869590Y-102935680D01*
X261925304Y-102831446D01*
X262000283Y-102740083D01*
X262091645Y-102665104D01*
X262195879Y-102609390D01*
X262308979Y-102575082D01*
X262426600Y-102563497D01*
X262544220Y-102575082D01*
X262544220Y-102575082D01*
G37*
G36*
X255584620Y-102575082D02*
G01*
X255697720Y-102609390D01*
X255801954Y-102665104D01*
X255893317Y-102740083D01*
X255968296Y-102831445D01*
X256024010Y-102935679D01*
X256058318Y-103048779D01*
X256067000Y-103136926D01*
X256067000Y-103695874D01*
X256058318Y-103784021D01*
X256024010Y-103897121D01*
X255968296Y-104001355D01*
X255893317Y-104092717D01*
X255801955Y-104167696D01*
X255697721Y-104223410D01*
X255584621Y-104257718D01*
X255467000Y-104269303D01*
X255349380Y-104257718D01*
X255236280Y-104223410D01*
X255132046Y-104167696D01*
X255040684Y-104092717D01*
X254965705Y-104001355D01*
X254965704Y-104001353D01*
X254909992Y-103897124D01*
X254909990Y-103897121D01*
X254875682Y-103784021D01*
X254867000Y-103695874D01*
X254867000Y-103136927D01*
X254875682Y-103048780D01*
X254909990Y-102935680D01*
X254965704Y-102831446D01*
X255040683Y-102740083D01*
X255132045Y-102665104D01*
X255236279Y-102609390D01*
X255349379Y-102575082D01*
X255467000Y-102563497D01*
X255584620Y-102575082D01*
X255584620Y-102575082D01*
G37*
G36*
X261026600Y-104266400D02*
G01*
X259826600Y-104266400D01*
X259826600Y-102566400D01*
X261026600Y-102566400D01*
X261026600Y-104266400D01*
X261026600Y-104266400D01*
G37*
G36*
X254067000Y-104266400D02*
G01*
X252867000Y-104266400D01*
X252867000Y-102566400D01*
X254067000Y-102566400D01*
X254067000Y-104266400D01*
X254067000Y-104266400D01*
G37*
G36*
X251851980Y-103955260D02*
G01*
X250951980Y-103955260D01*
X250951980Y-103455260D01*
X251851980Y-103455260D01*
X251851980Y-103955260D01*
X251851980Y-103955260D01*
G37*
G36*
X258656640Y-103934940D02*
G01*
X257756640Y-103934940D01*
X257756640Y-103434940D01*
X258656640Y-103434940D01*
X258656640Y-103934940D01*
X258656640Y-103934940D01*
G37*
G36*
X256796627Y-97932299D02*
G01*
X256876742Y-97956601D01*
X256956855Y-97980903D01*
X256956857Y-97980904D01*
X257104518Y-98059831D01*
X257233949Y-98166051D01*
X257340169Y-98295482D01*
X257419096Y-98443143D01*
X257467701Y-98603373D01*
X257484112Y-98770000D01*
X257467701Y-98936627D01*
X257419096Y-99096857D01*
X257340169Y-99244518D01*
X257233949Y-99373949D01*
X257104518Y-99480169D01*
X256956857Y-99559096D01*
X256956855Y-99559097D01*
X256876742Y-99583398D01*
X256796627Y-99607701D01*
X256671752Y-99620000D01*
X256588248Y-99620000D01*
X256463373Y-99607701D01*
X256383258Y-99583398D01*
X256303145Y-99559097D01*
X256303143Y-99559096D01*
X256155482Y-99480169D01*
X256026051Y-99373949D01*
X255919831Y-99244518D01*
X255840904Y-99096857D01*
X255792299Y-98936627D01*
X255775888Y-98770000D01*
X255792299Y-98603373D01*
X255840904Y-98443143D01*
X255919831Y-98295482D01*
X256026051Y-98166051D01*
X256155482Y-98059831D01*
X256303143Y-97980904D01*
X256303145Y-97980903D01*
X256383258Y-97956601D01*
X256463373Y-97932299D01*
X256588248Y-97920000D01*
X256671752Y-97920000D01*
X256796627Y-97932299D01*
X256796627Y-97932299D01*
G37*
G36*
X233936627Y-97932299D02*
G01*
X234016742Y-97956601D01*
X234096855Y-97980903D01*
X234096857Y-97980904D01*
X234244518Y-98059831D01*
X234373949Y-98166051D01*
X234480169Y-98295482D01*
X234559096Y-98443143D01*
X234607701Y-98603373D01*
X234624112Y-98770000D01*
X234607701Y-98936627D01*
X234559096Y-99096857D01*
X234480169Y-99244518D01*
X234373949Y-99373949D01*
X234244518Y-99480169D01*
X234096857Y-99559096D01*
X234096855Y-99559097D01*
X234016742Y-99583398D01*
X233936627Y-99607701D01*
X233811752Y-99620000D01*
X233728248Y-99620000D01*
X233603373Y-99607701D01*
X233523258Y-99583398D01*
X233443145Y-99559097D01*
X233443143Y-99559096D01*
X233295482Y-99480169D01*
X233166051Y-99373949D01*
X233059831Y-99244518D01*
X232980904Y-99096857D01*
X232932299Y-98936627D01*
X232915888Y-98770000D01*
X232932299Y-98603373D01*
X232980904Y-98443143D01*
X233059831Y-98295482D01*
X233166051Y-98166051D01*
X233295482Y-98059831D01*
X233443143Y-97980904D01*
X233443145Y-97980903D01*
X233523258Y-97956601D01*
X233603373Y-97932299D01*
X233728248Y-97920000D01*
X233811752Y-97920000D01*
X233936627Y-97932299D01*
X233936627Y-97932299D01*
G37*
G36*
X231396627Y-97932299D02*
G01*
X231476742Y-97956601D01*
X231556855Y-97980903D01*
X231556857Y-97980904D01*
X231704518Y-98059831D01*
X231833949Y-98166051D01*
X231940169Y-98295482D01*
X232019096Y-98443143D01*
X232067701Y-98603373D01*
X232084112Y-98770000D01*
X232067701Y-98936627D01*
X232019096Y-99096857D01*
X231940169Y-99244518D01*
X231833949Y-99373949D01*
X231704518Y-99480169D01*
X231556857Y-99559096D01*
X231556855Y-99559097D01*
X231476742Y-99583398D01*
X231396627Y-99607701D01*
X231271752Y-99620000D01*
X231188248Y-99620000D01*
X231063373Y-99607701D01*
X230983258Y-99583398D01*
X230903145Y-99559097D01*
X230903143Y-99559096D01*
X230755482Y-99480169D01*
X230626051Y-99373949D01*
X230519831Y-99244518D01*
X230440904Y-99096857D01*
X230392299Y-98936627D01*
X230375888Y-98770000D01*
X230392299Y-98603373D01*
X230440904Y-98443143D01*
X230519831Y-98295482D01*
X230626051Y-98166051D01*
X230755482Y-98059831D01*
X230903143Y-97980904D01*
X230903145Y-97980903D01*
X230983258Y-97956601D01*
X231063373Y-97932299D01*
X231188248Y-97920000D01*
X231271752Y-97920000D01*
X231396627Y-97932299D01*
X231396627Y-97932299D01*
G37*
G36*
X228856627Y-97932299D02*
G01*
X228936742Y-97956601D01*
X229016855Y-97980903D01*
X229016857Y-97980904D01*
X229164518Y-98059831D01*
X229293949Y-98166051D01*
X229400169Y-98295482D01*
X229479096Y-98443143D01*
X229527701Y-98603373D01*
X229544112Y-98770000D01*
X229527701Y-98936627D01*
X229479096Y-99096857D01*
X229400169Y-99244518D01*
X229293949Y-99373949D01*
X229164518Y-99480169D01*
X229016857Y-99559096D01*
X229016855Y-99559097D01*
X228936742Y-99583398D01*
X228856627Y-99607701D01*
X228731752Y-99620000D01*
X228648248Y-99620000D01*
X228523373Y-99607701D01*
X228443258Y-99583398D01*
X228363145Y-99559097D01*
X228363143Y-99559096D01*
X228215482Y-99480169D01*
X228086051Y-99373949D01*
X227979831Y-99244518D01*
X227900904Y-99096857D01*
X227852299Y-98936627D01*
X227835888Y-98770000D01*
X227852299Y-98603373D01*
X227900904Y-98443143D01*
X227979831Y-98295482D01*
X228086051Y-98166051D01*
X228215482Y-98059831D01*
X228363143Y-97980904D01*
X228363145Y-97980903D01*
X228443258Y-97956601D01*
X228523373Y-97932299D01*
X228648248Y-97920000D01*
X228731752Y-97920000D01*
X228856627Y-97932299D01*
X228856627Y-97932299D01*
G37*
G36*
X226316627Y-97932299D02*
G01*
X226396742Y-97956601D01*
X226476855Y-97980903D01*
X226476857Y-97980904D01*
X226624518Y-98059831D01*
X226753949Y-98166051D01*
X226860169Y-98295482D01*
X226939096Y-98443143D01*
X226987701Y-98603373D01*
X227004112Y-98770000D01*
X226987701Y-98936627D01*
X226939096Y-99096857D01*
X226860169Y-99244518D01*
X226753949Y-99373949D01*
X226624518Y-99480169D01*
X226476857Y-99559096D01*
X226476855Y-99559097D01*
X226396742Y-99583398D01*
X226316627Y-99607701D01*
X226191752Y-99620000D01*
X226108248Y-99620000D01*
X225983373Y-99607701D01*
X225903258Y-99583398D01*
X225823145Y-99559097D01*
X225823143Y-99559096D01*
X225675482Y-99480169D01*
X225546051Y-99373949D01*
X225439831Y-99244518D01*
X225360904Y-99096857D01*
X225312299Y-98936627D01*
X225295888Y-98770000D01*
X225312299Y-98603373D01*
X225360904Y-98443143D01*
X225439831Y-98295482D01*
X225546051Y-98166051D01*
X225675482Y-98059831D01*
X225823143Y-97980904D01*
X225823145Y-97980903D01*
X225903258Y-97956601D01*
X225983373Y-97932299D01*
X226108248Y-97920000D01*
X226191752Y-97920000D01*
X226316627Y-97932299D01*
X226316627Y-97932299D01*
G37*
G36*
X246636627Y-97932299D02*
G01*
X246716742Y-97956601D01*
X246796855Y-97980903D01*
X246796857Y-97980904D01*
X246944518Y-98059831D01*
X247073949Y-98166051D01*
X247180169Y-98295482D01*
X247259096Y-98443143D01*
X247307701Y-98603373D01*
X247324112Y-98770000D01*
X247307701Y-98936627D01*
X247259096Y-99096857D01*
X247180169Y-99244518D01*
X247073949Y-99373949D01*
X246944518Y-99480169D01*
X246796857Y-99559096D01*
X246796855Y-99559097D01*
X246716742Y-99583398D01*
X246636627Y-99607701D01*
X246511752Y-99620000D01*
X246428248Y-99620000D01*
X246303373Y-99607701D01*
X246223258Y-99583398D01*
X246143145Y-99559097D01*
X246143143Y-99559096D01*
X245995482Y-99480169D01*
X245866051Y-99373949D01*
X245759831Y-99244518D01*
X245680904Y-99096857D01*
X245632299Y-98936627D01*
X245615888Y-98770000D01*
X245632299Y-98603373D01*
X245680904Y-98443143D01*
X245759831Y-98295482D01*
X245866051Y-98166051D01*
X245995482Y-98059831D01*
X246143143Y-97980904D01*
X246143145Y-97980903D01*
X246223258Y-97956601D01*
X246303373Y-97932299D01*
X246428248Y-97920000D01*
X246511752Y-97920000D01*
X246636627Y-97932299D01*
X246636627Y-97932299D01*
G37*
G36*
X223776627Y-97932299D02*
G01*
X223856742Y-97956601D01*
X223936855Y-97980903D01*
X223936857Y-97980904D01*
X224084518Y-98059831D01*
X224213949Y-98166051D01*
X224320169Y-98295482D01*
X224399096Y-98443143D01*
X224447701Y-98603373D01*
X224464112Y-98770000D01*
X224447701Y-98936627D01*
X224399096Y-99096857D01*
X224320169Y-99244518D01*
X224213949Y-99373949D01*
X224084518Y-99480169D01*
X223936857Y-99559096D01*
X223936855Y-99559097D01*
X223856742Y-99583398D01*
X223776627Y-99607701D01*
X223651752Y-99620000D01*
X223568248Y-99620000D01*
X223443373Y-99607701D01*
X223363258Y-99583398D01*
X223283145Y-99559097D01*
X223283143Y-99559096D01*
X223135482Y-99480169D01*
X223006051Y-99373949D01*
X222899831Y-99244518D01*
X222820904Y-99096857D01*
X222772299Y-98936627D01*
X222755888Y-98770000D01*
X222772299Y-98603373D01*
X222820904Y-98443143D01*
X222899831Y-98295482D01*
X223006051Y-98166051D01*
X223135482Y-98059831D01*
X223283143Y-97980904D01*
X223283145Y-97980903D01*
X223363258Y-97956601D01*
X223443373Y-97932299D01*
X223568248Y-97920000D01*
X223651752Y-97920000D01*
X223776627Y-97932299D01*
X223776627Y-97932299D01*
G37*
G36*
X221236627Y-97932299D02*
G01*
X221316742Y-97956601D01*
X221396855Y-97980903D01*
X221396857Y-97980904D01*
X221544518Y-98059831D01*
X221673949Y-98166051D01*
X221780169Y-98295482D01*
X221859096Y-98443143D01*
X221907701Y-98603373D01*
X221924112Y-98770000D01*
X221907701Y-98936627D01*
X221859096Y-99096857D01*
X221780169Y-99244518D01*
X221673949Y-99373949D01*
X221544518Y-99480169D01*
X221396857Y-99559096D01*
X221396855Y-99559097D01*
X221316742Y-99583398D01*
X221236627Y-99607701D01*
X221111752Y-99620000D01*
X221028248Y-99620000D01*
X220903373Y-99607701D01*
X220823258Y-99583398D01*
X220743145Y-99559097D01*
X220743143Y-99559096D01*
X220595482Y-99480169D01*
X220466051Y-99373949D01*
X220359831Y-99244518D01*
X220280904Y-99096857D01*
X220232299Y-98936627D01*
X220215888Y-98770000D01*
X220232299Y-98603373D01*
X220280904Y-98443143D01*
X220359831Y-98295482D01*
X220466051Y-98166051D01*
X220595482Y-98059831D01*
X220743143Y-97980904D01*
X220743145Y-97980903D01*
X220823258Y-97956601D01*
X220903373Y-97932299D01*
X221028248Y-97920000D01*
X221111752Y-97920000D01*
X221236627Y-97932299D01*
X221236627Y-97932299D01*
G37*
G36*
X249176627Y-97932299D02*
G01*
X249256742Y-97956601D01*
X249336855Y-97980903D01*
X249336857Y-97980904D01*
X249484518Y-98059831D01*
X249613949Y-98166051D01*
X249720169Y-98295482D01*
X249799096Y-98443143D01*
X249847701Y-98603373D01*
X249864112Y-98770000D01*
X249847701Y-98936627D01*
X249799096Y-99096857D01*
X249720169Y-99244518D01*
X249613949Y-99373949D01*
X249484518Y-99480169D01*
X249336857Y-99559096D01*
X249336855Y-99559097D01*
X249256742Y-99583398D01*
X249176627Y-99607701D01*
X249051752Y-99620000D01*
X248968248Y-99620000D01*
X248843373Y-99607701D01*
X248763258Y-99583398D01*
X248683145Y-99559097D01*
X248683143Y-99559096D01*
X248535482Y-99480169D01*
X248406051Y-99373949D01*
X248299831Y-99244518D01*
X248220904Y-99096857D01*
X248172299Y-98936627D01*
X248155888Y-98770000D01*
X248172299Y-98603373D01*
X248220904Y-98443143D01*
X248299831Y-98295482D01*
X248406051Y-98166051D01*
X248535482Y-98059831D01*
X248683143Y-97980904D01*
X248683145Y-97980903D01*
X248763258Y-97956601D01*
X248843373Y-97932299D01*
X248968248Y-97920000D01*
X249051752Y-97920000D01*
X249176627Y-97932299D01*
X249176627Y-97932299D01*
G37*
G36*
X218696627Y-97932299D02*
G01*
X218776742Y-97956601D01*
X218856855Y-97980903D01*
X218856857Y-97980904D01*
X219004518Y-98059831D01*
X219133949Y-98166051D01*
X219240169Y-98295482D01*
X219319096Y-98443143D01*
X219367701Y-98603373D01*
X219384112Y-98770000D01*
X219367701Y-98936627D01*
X219319096Y-99096857D01*
X219240169Y-99244518D01*
X219133949Y-99373949D01*
X219004518Y-99480169D01*
X218856857Y-99559096D01*
X218856855Y-99559097D01*
X218776742Y-99583398D01*
X218696627Y-99607701D01*
X218571752Y-99620000D01*
X218488248Y-99620000D01*
X218363373Y-99607701D01*
X218283258Y-99583398D01*
X218203145Y-99559097D01*
X218203143Y-99559096D01*
X218055482Y-99480169D01*
X217926051Y-99373949D01*
X217819831Y-99244518D01*
X217740904Y-99096857D01*
X217692299Y-98936627D01*
X217675888Y-98770000D01*
X217692299Y-98603373D01*
X217740904Y-98443143D01*
X217819831Y-98295482D01*
X217926051Y-98166051D01*
X218055482Y-98059831D01*
X218203143Y-97980904D01*
X218203145Y-97980903D01*
X218283258Y-97956601D01*
X218363373Y-97932299D01*
X218488248Y-97920000D01*
X218571752Y-97920000D01*
X218696627Y-97932299D01*
X218696627Y-97932299D01*
G37*
G36*
X251716627Y-97932299D02*
G01*
X251796742Y-97956601D01*
X251876855Y-97980903D01*
X251876857Y-97980904D01*
X252024518Y-98059831D01*
X252153949Y-98166051D01*
X252260169Y-98295482D01*
X252339096Y-98443143D01*
X252387701Y-98603373D01*
X252404112Y-98770000D01*
X252387701Y-98936627D01*
X252339096Y-99096857D01*
X252260169Y-99244518D01*
X252153949Y-99373949D01*
X252024518Y-99480169D01*
X251876857Y-99559096D01*
X251876855Y-99559097D01*
X251796742Y-99583398D01*
X251716627Y-99607701D01*
X251591752Y-99620000D01*
X251508248Y-99620000D01*
X251383373Y-99607701D01*
X251303258Y-99583398D01*
X251223145Y-99559097D01*
X251223143Y-99559096D01*
X251075482Y-99480169D01*
X250946051Y-99373949D01*
X250839831Y-99244518D01*
X250760904Y-99096857D01*
X250712299Y-98936627D01*
X250695888Y-98770000D01*
X250712299Y-98603373D01*
X250760904Y-98443143D01*
X250839831Y-98295482D01*
X250946051Y-98166051D01*
X251075482Y-98059831D01*
X251223143Y-97980904D01*
X251223145Y-97980903D01*
X251303258Y-97956601D01*
X251383373Y-97932299D01*
X251508248Y-97920000D01*
X251591752Y-97920000D01*
X251716627Y-97932299D01*
X251716627Y-97932299D01*
G37*
G36*
X213616627Y-97932299D02*
G01*
X213696742Y-97956601D01*
X213776855Y-97980903D01*
X213776857Y-97980904D01*
X213924518Y-98059831D01*
X214053949Y-98166051D01*
X214160169Y-98295482D01*
X214239096Y-98443143D01*
X214287701Y-98603373D01*
X214304112Y-98770000D01*
X214287701Y-98936627D01*
X214239096Y-99096857D01*
X214160169Y-99244518D01*
X214053949Y-99373949D01*
X213924518Y-99480169D01*
X213776857Y-99559096D01*
X213776855Y-99559097D01*
X213696742Y-99583398D01*
X213616627Y-99607701D01*
X213491752Y-99620000D01*
X213408248Y-99620000D01*
X213283373Y-99607701D01*
X213203258Y-99583398D01*
X213123145Y-99559097D01*
X213123143Y-99559096D01*
X212975482Y-99480169D01*
X212846051Y-99373949D01*
X212739831Y-99244518D01*
X212660904Y-99096857D01*
X212612299Y-98936627D01*
X212595888Y-98770000D01*
X212612299Y-98603373D01*
X212660904Y-98443143D01*
X212739831Y-98295482D01*
X212846051Y-98166051D01*
X212975482Y-98059831D01*
X213123143Y-97980904D01*
X213123145Y-97980903D01*
X213203258Y-97956601D01*
X213283373Y-97932299D01*
X213408248Y-97920000D01*
X213491752Y-97920000D01*
X213616627Y-97932299D01*
X213616627Y-97932299D01*
G37*
G36*
X211076627Y-97932299D02*
G01*
X211156742Y-97956601D01*
X211236855Y-97980903D01*
X211236857Y-97980904D01*
X211384518Y-98059831D01*
X211513949Y-98166051D01*
X211620169Y-98295482D01*
X211699096Y-98443143D01*
X211747701Y-98603373D01*
X211764112Y-98770000D01*
X211747701Y-98936627D01*
X211699096Y-99096857D01*
X211620169Y-99244518D01*
X211513949Y-99373949D01*
X211384518Y-99480169D01*
X211236857Y-99559096D01*
X211236855Y-99559097D01*
X211156742Y-99583398D01*
X211076627Y-99607701D01*
X210951752Y-99620000D01*
X210868248Y-99620000D01*
X210743373Y-99607701D01*
X210663258Y-99583398D01*
X210583145Y-99559097D01*
X210583143Y-99559096D01*
X210435482Y-99480169D01*
X210306051Y-99373949D01*
X210199831Y-99244518D01*
X210120904Y-99096857D01*
X210072299Y-98936627D01*
X210055888Y-98770000D01*
X210072299Y-98603373D01*
X210120904Y-98443143D01*
X210199831Y-98295482D01*
X210306051Y-98166051D01*
X210435482Y-98059831D01*
X210583143Y-97980904D01*
X210583145Y-97980903D01*
X210663258Y-97956601D01*
X210743373Y-97932299D01*
X210868248Y-97920000D01*
X210951752Y-97920000D01*
X211076627Y-97932299D01*
X211076627Y-97932299D01*
G37*
G36*
X254256627Y-97932299D02*
G01*
X254336742Y-97956601D01*
X254416855Y-97980903D01*
X254416857Y-97980904D01*
X254564518Y-98059831D01*
X254693949Y-98166051D01*
X254800169Y-98295482D01*
X254879096Y-98443143D01*
X254927701Y-98603373D01*
X254944112Y-98770000D01*
X254927701Y-98936627D01*
X254879096Y-99096857D01*
X254800169Y-99244518D01*
X254693949Y-99373949D01*
X254564518Y-99480169D01*
X254416857Y-99559096D01*
X254416855Y-99559097D01*
X254336742Y-99583398D01*
X254256627Y-99607701D01*
X254131752Y-99620000D01*
X254048248Y-99620000D01*
X253923373Y-99607701D01*
X253843258Y-99583398D01*
X253763145Y-99559097D01*
X253763143Y-99559096D01*
X253615482Y-99480169D01*
X253486051Y-99373949D01*
X253379831Y-99244518D01*
X253300904Y-99096857D01*
X253252299Y-98936627D01*
X253235888Y-98770000D01*
X253252299Y-98603373D01*
X253300904Y-98443143D01*
X253379831Y-98295482D01*
X253486051Y-98166051D01*
X253615482Y-98059831D01*
X253763143Y-97980904D01*
X253763145Y-97980903D01*
X253843258Y-97956601D01*
X253923373Y-97932299D01*
X254048248Y-97920000D01*
X254131752Y-97920000D01*
X254256627Y-97932299D01*
X254256627Y-97932299D01*
G37*
G36*
X209220000Y-99620000D02*
G01*
X207520000Y-99620000D01*
X207520000Y-97920000D01*
X209220000Y-97920000D01*
X209220000Y-99620000D01*
X209220000Y-99620000D01*
G37*
G36*
X244096627Y-97932299D02*
G01*
X244176742Y-97956601D01*
X244256855Y-97980903D01*
X244256857Y-97980904D01*
X244404518Y-98059831D01*
X244533949Y-98166051D01*
X244640169Y-98295482D01*
X244719096Y-98443143D01*
X244767701Y-98603373D01*
X244784112Y-98770000D01*
X244767701Y-98936627D01*
X244719096Y-99096857D01*
X244640169Y-99244518D01*
X244533949Y-99373949D01*
X244404518Y-99480169D01*
X244256857Y-99559096D01*
X244256855Y-99559097D01*
X244176742Y-99583398D01*
X244096627Y-99607701D01*
X243971752Y-99620000D01*
X243888248Y-99620000D01*
X243763373Y-99607701D01*
X243683258Y-99583398D01*
X243603145Y-99559097D01*
X243603143Y-99559096D01*
X243455482Y-99480169D01*
X243326051Y-99373949D01*
X243219831Y-99244518D01*
X243140904Y-99096857D01*
X243092299Y-98936627D01*
X243075888Y-98770000D01*
X243092299Y-98603373D01*
X243140904Y-98443143D01*
X243219831Y-98295482D01*
X243326051Y-98166051D01*
X243455482Y-98059831D01*
X243603143Y-97980904D01*
X243603145Y-97980903D01*
X243683258Y-97956601D01*
X243763373Y-97932299D01*
X243888248Y-97920000D01*
X243971752Y-97920000D01*
X244096627Y-97932299D01*
X244096627Y-97932299D01*
G37*
G36*
X241556627Y-97932299D02*
G01*
X241636742Y-97956601D01*
X241716855Y-97980903D01*
X241716857Y-97980904D01*
X241864518Y-98059831D01*
X241993949Y-98166051D01*
X242100169Y-98295482D01*
X242179096Y-98443143D01*
X242227701Y-98603373D01*
X242244112Y-98770000D01*
X242227701Y-98936627D01*
X242179096Y-99096857D01*
X242100169Y-99244518D01*
X241993949Y-99373949D01*
X241864518Y-99480169D01*
X241716857Y-99559096D01*
X241716855Y-99559097D01*
X241636742Y-99583398D01*
X241556627Y-99607701D01*
X241431752Y-99620000D01*
X241348248Y-99620000D01*
X241223373Y-99607701D01*
X241143258Y-99583398D01*
X241063145Y-99559097D01*
X241063143Y-99559096D01*
X240915482Y-99480169D01*
X240786051Y-99373949D01*
X240679831Y-99244518D01*
X240600904Y-99096857D01*
X240552299Y-98936627D01*
X240535888Y-98770000D01*
X240552299Y-98603373D01*
X240600904Y-98443143D01*
X240679831Y-98295482D01*
X240786051Y-98166051D01*
X240915482Y-98059831D01*
X241063143Y-97980904D01*
X241063145Y-97980903D01*
X241143258Y-97956601D01*
X241223373Y-97932299D01*
X241348248Y-97920000D01*
X241431752Y-97920000D01*
X241556627Y-97932299D01*
X241556627Y-97932299D01*
G37*
G36*
X239016627Y-97932299D02*
G01*
X239096742Y-97956601D01*
X239176855Y-97980903D01*
X239176857Y-97980904D01*
X239324518Y-98059831D01*
X239453949Y-98166051D01*
X239560169Y-98295482D01*
X239639096Y-98443143D01*
X239687701Y-98603373D01*
X239704112Y-98770000D01*
X239687701Y-98936627D01*
X239639096Y-99096857D01*
X239560169Y-99244518D01*
X239453949Y-99373949D01*
X239324518Y-99480169D01*
X239176857Y-99559096D01*
X239176855Y-99559097D01*
X239096742Y-99583398D01*
X239016627Y-99607701D01*
X238891752Y-99620000D01*
X238808248Y-99620000D01*
X238683373Y-99607701D01*
X238603258Y-99583398D01*
X238523145Y-99559097D01*
X238523143Y-99559096D01*
X238375482Y-99480169D01*
X238246051Y-99373949D01*
X238139831Y-99244518D01*
X238060904Y-99096857D01*
X238012299Y-98936627D01*
X237995888Y-98770000D01*
X238012299Y-98603373D01*
X238060904Y-98443143D01*
X238139831Y-98295482D01*
X238246051Y-98166051D01*
X238375482Y-98059831D01*
X238523143Y-97980904D01*
X238523145Y-97980903D01*
X238603258Y-97956601D01*
X238683373Y-97932299D01*
X238808248Y-97920000D01*
X238891752Y-97920000D01*
X239016627Y-97932299D01*
X239016627Y-97932299D01*
G37*
G36*
X236476627Y-97932299D02*
G01*
X236556742Y-97956601D01*
X236636855Y-97980903D01*
X236636857Y-97980904D01*
X236784518Y-98059831D01*
X236913949Y-98166051D01*
X237020169Y-98295482D01*
X237099096Y-98443143D01*
X237147701Y-98603373D01*
X237164112Y-98770000D01*
X237147701Y-98936627D01*
X237099096Y-99096857D01*
X237020169Y-99244518D01*
X236913949Y-99373949D01*
X236784518Y-99480169D01*
X236636857Y-99559096D01*
X236636855Y-99559097D01*
X236556742Y-99583398D01*
X236476627Y-99607701D01*
X236351752Y-99620000D01*
X236268248Y-99620000D01*
X236143373Y-99607701D01*
X236063258Y-99583398D01*
X235983145Y-99559097D01*
X235983143Y-99559096D01*
X235835482Y-99480169D01*
X235706051Y-99373949D01*
X235599831Y-99244518D01*
X235520904Y-99096857D01*
X235472299Y-98936627D01*
X235455888Y-98770000D01*
X235472299Y-98603373D01*
X235520904Y-98443143D01*
X235599831Y-98295482D01*
X235706051Y-98166051D01*
X235835482Y-98059831D01*
X235983143Y-97980904D01*
X235983145Y-97980903D01*
X236063258Y-97956601D01*
X236143373Y-97932299D01*
X236268248Y-97920000D01*
X236351752Y-97920000D01*
X236476627Y-97932299D01*
X236476627Y-97932299D01*
G37*
G36*
X216156627Y-97932299D02*
G01*
X216236742Y-97956601D01*
X216316855Y-97980903D01*
X216316857Y-97980904D01*
X216464518Y-98059831D01*
X216593949Y-98166051D01*
X216700169Y-98295482D01*
X216779096Y-98443143D01*
X216827701Y-98603373D01*
X216844112Y-98770000D01*
X216827701Y-98936627D01*
X216779096Y-99096857D01*
X216700169Y-99244518D01*
X216593949Y-99373949D01*
X216464518Y-99480169D01*
X216316857Y-99559096D01*
X216316855Y-99559097D01*
X216236742Y-99583398D01*
X216156627Y-99607701D01*
X216031752Y-99620000D01*
X215948248Y-99620000D01*
X215823373Y-99607701D01*
X215743258Y-99583398D01*
X215663145Y-99559097D01*
X215663143Y-99559096D01*
X215515482Y-99480169D01*
X215386051Y-99373949D01*
X215279831Y-99244518D01*
X215200904Y-99096857D01*
X215152299Y-98936627D01*
X215135888Y-98770000D01*
X215152299Y-98603373D01*
X215200904Y-98443143D01*
X215279831Y-98295482D01*
X215386051Y-98166051D01*
X215515482Y-98059831D01*
X215663143Y-97980904D01*
X215663145Y-97980903D01*
X215743258Y-97956601D01*
X215823373Y-97932299D01*
X215948248Y-97920000D01*
X216031752Y-97920000D01*
X216156627Y-97932299D01*
X216156627Y-97932299D01*
G37*
G36*
X261893779Y-96201879D02*
G01*
X262139463Y-96303645D01*
X262139465Y-96303646D01*
X262250769Y-96378017D01*
X262360574Y-96451386D01*
X262548614Y-96639426D01*
X262696355Y-96860537D01*
X262798121Y-97106221D01*
X262850000Y-97367035D01*
X262850000Y-97632965D01*
X262798121Y-97893779D01*
X262696355Y-98139463D01*
X262592108Y-98295481D01*
X262548613Y-98360575D01*
X262360575Y-98548613D01*
X262139465Y-98696354D01*
X262139464Y-98696355D01*
X262139463Y-98696355D01*
X261893779Y-98798121D01*
X261632965Y-98850000D01*
X261367035Y-98850000D01*
X261106221Y-98798121D01*
X260860537Y-98696355D01*
X260860536Y-98696355D01*
X260860535Y-98696354D01*
X260639425Y-98548613D01*
X260451387Y-98360575D01*
X260407893Y-98295481D01*
X260303645Y-98139463D01*
X260201879Y-97893779D01*
X260150000Y-97632965D01*
X260150000Y-97367035D01*
X260201879Y-97106221D01*
X260303645Y-96860537D01*
X260451386Y-96639426D01*
X260639426Y-96451386D01*
X260749231Y-96378017D01*
X260860535Y-96303646D01*
X260860537Y-96303645D01*
X261106221Y-96201879D01*
X261367035Y-96150000D01*
X261632965Y-96150000D01*
X261893779Y-96201879D01*
X261893779Y-96201879D01*
G37*
G36*
X203893779Y-96201879D02*
G01*
X204139463Y-96303645D01*
X204139465Y-96303646D01*
X204250769Y-96378017D01*
X204360574Y-96451386D01*
X204548614Y-96639426D01*
X204696355Y-96860537D01*
X204798121Y-97106221D01*
X204850000Y-97367035D01*
X204850000Y-97632965D01*
X204798121Y-97893779D01*
X204696355Y-98139463D01*
X204592108Y-98295481D01*
X204548613Y-98360575D01*
X204360575Y-98548613D01*
X204139465Y-98696354D01*
X204139464Y-98696355D01*
X204139463Y-98696355D01*
X203893779Y-98798121D01*
X203632965Y-98850000D01*
X203367035Y-98850000D01*
X203106221Y-98798121D01*
X202860537Y-98696355D01*
X202860536Y-98696355D01*
X202860535Y-98696354D01*
X202639425Y-98548613D01*
X202451387Y-98360575D01*
X202407893Y-98295481D01*
X202303645Y-98139463D01*
X202201879Y-97893779D01*
X202150000Y-97632965D01*
X202150000Y-97367035D01*
X202201879Y-97106221D01*
X202303645Y-96860537D01*
X202451386Y-96639426D01*
X202639426Y-96451386D01*
X202749231Y-96378017D01*
X202860535Y-96303646D01*
X202860537Y-96303645D01*
X203106221Y-96201879D01*
X203367035Y-96150000D01*
X203632965Y-96150000D01*
X203893779Y-96201879D01*
X203893779Y-96201879D01*
G37*
G36*
X208536627Y-95392299D02*
G01*
X208616742Y-95416601D01*
X208696855Y-95440903D01*
X208696857Y-95440904D01*
X208844518Y-95519831D01*
X208973949Y-95626051D01*
X209080169Y-95755482D01*
X209159096Y-95903143D01*
X209207701Y-96063373D01*
X209224112Y-96230000D01*
X209207701Y-96396627D01*
X209159096Y-96556857D01*
X209080169Y-96704518D01*
X208973949Y-96833949D01*
X208844518Y-96940169D01*
X208696857Y-97019096D01*
X208696855Y-97019097D01*
X208616742Y-97043399D01*
X208536627Y-97067701D01*
X208411752Y-97080000D01*
X208328248Y-97080000D01*
X208203373Y-97067701D01*
X208123258Y-97043399D01*
X208043145Y-97019097D01*
X208043143Y-97019096D01*
X207895482Y-96940169D01*
X207766051Y-96833949D01*
X207659831Y-96704518D01*
X207580904Y-96556857D01*
X207532299Y-96396627D01*
X207515888Y-96230000D01*
X207532299Y-96063373D01*
X207580904Y-95903143D01*
X207659831Y-95755482D01*
X207766051Y-95626051D01*
X207895482Y-95519831D01*
X208043143Y-95440904D01*
X208043145Y-95440903D01*
X208123258Y-95416601D01*
X208203373Y-95392299D01*
X208328248Y-95380000D01*
X208411752Y-95380000D01*
X208536627Y-95392299D01*
X208536627Y-95392299D01*
G37*
G36*
X236476627Y-95392299D02*
G01*
X236556742Y-95416601D01*
X236636855Y-95440903D01*
X236636857Y-95440904D01*
X236784518Y-95519831D01*
X236913949Y-95626051D01*
X237020169Y-95755482D01*
X237099096Y-95903143D01*
X237147701Y-96063373D01*
X237164112Y-96230000D01*
X237147701Y-96396627D01*
X237099096Y-96556857D01*
X237020169Y-96704518D01*
X236913949Y-96833949D01*
X236784518Y-96940169D01*
X236636857Y-97019096D01*
X236636855Y-97019097D01*
X236556742Y-97043399D01*
X236476627Y-97067701D01*
X236351752Y-97080000D01*
X236268248Y-97080000D01*
X236143373Y-97067701D01*
X236063258Y-97043399D01*
X235983145Y-97019097D01*
X235983143Y-97019096D01*
X235835482Y-96940169D01*
X235706051Y-96833949D01*
X235599831Y-96704518D01*
X235520904Y-96556857D01*
X235472299Y-96396627D01*
X235455888Y-96230000D01*
X235472299Y-96063373D01*
X235520904Y-95903143D01*
X235599831Y-95755482D01*
X235706051Y-95626051D01*
X235835482Y-95519831D01*
X235983143Y-95440904D01*
X235983145Y-95440903D01*
X236063258Y-95416601D01*
X236143373Y-95392299D01*
X236268248Y-95380000D01*
X236351752Y-95380000D01*
X236476627Y-95392299D01*
X236476627Y-95392299D01*
G37*
G36*
X233936627Y-95392299D02*
G01*
X234016742Y-95416601D01*
X234096855Y-95440903D01*
X234096857Y-95440904D01*
X234244518Y-95519831D01*
X234373949Y-95626051D01*
X234480169Y-95755482D01*
X234559096Y-95903143D01*
X234607701Y-96063373D01*
X234624112Y-96230000D01*
X234607701Y-96396627D01*
X234559096Y-96556857D01*
X234480169Y-96704518D01*
X234373949Y-96833949D01*
X234244518Y-96940169D01*
X234096857Y-97019096D01*
X234096855Y-97019097D01*
X234016742Y-97043399D01*
X233936627Y-97067701D01*
X233811752Y-97080000D01*
X233728248Y-97080000D01*
X233603373Y-97067701D01*
X233523258Y-97043399D01*
X233443145Y-97019097D01*
X233443143Y-97019096D01*
X233295482Y-96940169D01*
X233166051Y-96833949D01*
X233059831Y-96704518D01*
X232980904Y-96556857D01*
X232932299Y-96396627D01*
X232915888Y-96230000D01*
X232932299Y-96063373D01*
X232980904Y-95903143D01*
X233059831Y-95755482D01*
X233166051Y-95626051D01*
X233295482Y-95519831D01*
X233443143Y-95440904D01*
X233443145Y-95440903D01*
X233523258Y-95416601D01*
X233603373Y-95392299D01*
X233728248Y-95380000D01*
X233811752Y-95380000D01*
X233936627Y-95392299D01*
X233936627Y-95392299D01*
G37*
G36*
X231396627Y-95392299D02*
G01*
X231476742Y-95416601D01*
X231556855Y-95440903D01*
X231556857Y-95440904D01*
X231704518Y-95519831D01*
X231833949Y-95626051D01*
X231940169Y-95755482D01*
X232019096Y-95903143D01*
X232067701Y-96063373D01*
X232084112Y-96230000D01*
X232067701Y-96396627D01*
X232019096Y-96556857D01*
X231940169Y-96704518D01*
X231833949Y-96833949D01*
X231704518Y-96940169D01*
X231556857Y-97019096D01*
X231556855Y-97019097D01*
X231476742Y-97043399D01*
X231396627Y-97067701D01*
X231271752Y-97080000D01*
X231188248Y-97080000D01*
X231063373Y-97067701D01*
X230983258Y-97043399D01*
X230903145Y-97019097D01*
X230903143Y-97019096D01*
X230755482Y-96940169D01*
X230626051Y-96833949D01*
X230519831Y-96704518D01*
X230440904Y-96556857D01*
X230392299Y-96396627D01*
X230375888Y-96230000D01*
X230392299Y-96063373D01*
X230440904Y-95903143D01*
X230519831Y-95755482D01*
X230626051Y-95626051D01*
X230755482Y-95519831D01*
X230903143Y-95440904D01*
X230903145Y-95440903D01*
X230983258Y-95416601D01*
X231063373Y-95392299D01*
X231188248Y-95380000D01*
X231271752Y-95380000D01*
X231396627Y-95392299D01*
X231396627Y-95392299D01*
G37*
G36*
X228856627Y-95392299D02*
G01*
X228936742Y-95416601D01*
X229016855Y-95440903D01*
X229016857Y-95440904D01*
X229164518Y-95519831D01*
X229293949Y-95626051D01*
X229400169Y-95755482D01*
X229479096Y-95903143D01*
X229527701Y-96063373D01*
X229544112Y-96230000D01*
X229527701Y-96396627D01*
X229479096Y-96556857D01*
X229400169Y-96704518D01*
X229293949Y-96833949D01*
X229164518Y-96940169D01*
X229016857Y-97019096D01*
X229016855Y-97019097D01*
X228936742Y-97043399D01*
X228856627Y-97067701D01*
X228731752Y-97080000D01*
X228648248Y-97080000D01*
X228523373Y-97067701D01*
X228443258Y-97043399D01*
X228363145Y-97019097D01*
X228363143Y-97019096D01*
X228215482Y-96940169D01*
X228086051Y-96833949D01*
X227979831Y-96704518D01*
X227900904Y-96556857D01*
X227852299Y-96396627D01*
X227835888Y-96230000D01*
X227852299Y-96063373D01*
X227900904Y-95903143D01*
X227979831Y-95755482D01*
X228086051Y-95626051D01*
X228215482Y-95519831D01*
X228363143Y-95440904D01*
X228363145Y-95440903D01*
X228443258Y-95416601D01*
X228523373Y-95392299D01*
X228648248Y-95380000D01*
X228731752Y-95380000D01*
X228856627Y-95392299D01*
X228856627Y-95392299D01*
G37*
G36*
X226316627Y-95392299D02*
G01*
X226396742Y-95416601D01*
X226476855Y-95440903D01*
X226476857Y-95440904D01*
X226624518Y-95519831D01*
X226753949Y-95626051D01*
X226860169Y-95755482D01*
X226939096Y-95903143D01*
X226987701Y-96063373D01*
X227004112Y-96230000D01*
X226987701Y-96396627D01*
X226939096Y-96556857D01*
X226860169Y-96704518D01*
X226753949Y-96833949D01*
X226624518Y-96940169D01*
X226476857Y-97019096D01*
X226476855Y-97019097D01*
X226396742Y-97043399D01*
X226316627Y-97067701D01*
X226191752Y-97080000D01*
X226108248Y-97080000D01*
X225983373Y-97067701D01*
X225903258Y-97043399D01*
X225823145Y-97019097D01*
X225823143Y-97019096D01*
X225675482Y-96940169D01*
X225546051Y-96833949D01*
X225439831Y-96704518D01*
X225360904Y-96556857D01*
X225312299Y-96396627D01*
X225295888Y-96230000D01*
X225312299Y-96063373D01*
X225360904Y-95903143D01*
X225439831Y-95755482D01*
X225546051Y-95626051D01*
X225675482Y-95519831D01*
X225823143Y-95440904D01*
X225823145Y-95440903D01*
X225903258Y-95416601D01*
X225983373Y-95392299D01*
X226108248Y-95380000D01*
X226191752Y-95380000D01*
X226316627Y-95392299D01*
X226316627Y-95392299D01*
G37*
G36*
X223776627Y-95392299D02*
G01*
X223856742Y-95416601D01*
X223936855Y-95440903D01*
X223936857Y-95440904D01*
X224084518Y-95519831D01*
X224213949Y-95626051D01*
X224320169Y-95755482D01*
X224399096Y-95903143D01*
X224447701Y-96063373D01*
X224464112Y-96230000D01*
X224447701Y-96396627D01*
X224399096Y-96556857D01*
X224320169Y-96704518D01*
X224213949Y-96833949D01*
X224084518Y-96940169D01*
X223936857Y-97019096D01*
X223936855Y-97019097D01*
X223856742Y-97043399D01*
X223776627Y-97067701D01*
X223651752Y-97080000D01*
X223568248Y-97080000D01*
X223443373Y-97067701D01*
X223363258Y-97043399D01*
X223283145Y-97019097D01*
X223283143Y-97019096D01*
X223135482Y-96940169D01*
X223006051Y-96833949D01*
X222899831Y-96704518D01*
X222820904Y-96556857D01*
X222772299Y-96396627D01*
X222755888Y-96230000D01*
X222772299Y-96063373D01*
X222820904Y-95903143D01*
X222899831Y-95755482D01*
X223006051Y-95626051D01*
X223135482Y-95519831D01*
X223283143Y-95440904D01*
X223283145Y-95440903D01*
X223363258Y-95416601D01*
X223443373Y-95392299D01*
X223568248Y-95380000D01*
X223651752Y-95380000D01*
X223776627Y-95392299D01*
X223776627Y-95392299D01*
G37*
G36*
X221236627Y-95392299D02*
G01*
X221316742Y-95416601D01*
X221396855Y-95440903D01*
X221396857Y-95440904D01*
X221544518Y-95519831D01*
X221673949Y-95626051D01*
X221780169Y-95755482D01*
X221859096Y-95903143D01*
X221907701Y-96063373D01*
X221924112Y-96230000D01*
X221907701Y-96396627D01*
X221859096Y-96556857D01*
X221780169Y-96704518D01*
X221673949Y-96833949D01*
X221544518Y-96940169D01*
X221396857Y-97019096D01*
X221396855Y-97019097D01*
X221316742Y-97043399D01*
X221236627Y-97067701D01*
X221111752Y-97080000D01*
X221028248Y-97080000D01*
X220903373Y-97067701D01*
X220823258Y-97043399D01*
X220743145Y-97019097D01*
X220743143Y-97019096D01*
X220595482Y-96940169D01*
X220466051Y-96833949D01*
X220359831Y-96704518D01*
X220280904Y-96556857D01*
X220232299Y-96396627D01*
X220215888Y-96230000D01*
X220232299Y-96063373D01*
X220280904Y-95903143D01*
X220359831Y-95755482D01*
X220466051Y-95626051D01*
X220595482Y-95519831D01*
X220743143Y-95440904D01*
X220743145Y-95440903D01*
X220823258Y-95416601D01*
X220903373Y-95392299D01*
X221028248Y-95380000D01*
X221111752Y-95380000D01*
X221236627Y-95392299D01*
X221236627Y-95392299D01*
G37*
G36*
X218696627Y-95392299D02*
G01*
X218776742Y-95416601D01*
X218856855Y-95440903D01*
X218856857Y-95440904D01*
X219004518Y-95519831D01*
X219133949Y-95626051D01*
X219240169Y-95755482D01*
X219319096Y-95903143D01*
X219367701Y-96063373D01*
X219384112Y-96230000D01*
X219367701Y-96396627D01*
X219319096Y-96556857D01*
X219240169Y-96704518D01*
X219133949Y-96833949D01*
X219004518Y-96940169D01*
X218856857Y-97019096D01*
X218856855Y-97019097D01*
X218776742Y-97043399D01*
X218696627Y-97067701D01*
X218571752Y-97080000D01*
X218488248Y-97080000D01*
X218363373Y-97067701D01*
X218283258Y-97043399D01*
X218203145Y-97019097D01*
X218203143Y-97019096D01*
X218055482Y-96940169D01*
X217926051Y-96833949D01*
X217819831Y-96704518D01*
X217740904Y-96556857D01*
X217692299Y-96396627D01*
X217675888Y-96230000D01*
X217692299Y-96063373D01*
X217740904Y-95903143D01*
X217819831Y-95755482D01*
X217926051Y-95626051D01*
X218055482Y-95519831D01*
X218203143Y-95440904D01*
X218203145Y-95440903D01*
X218283258Y-95416601D01*
X218363373Y-95392299D01*
X218488248Y-95380000D01*
X218571752Y-95380000D01*
X218696627Y-95392299D01*
X218696627Y-95392299D01*
G37*
G36*
X213616627Y-95392299D02*
G01*
X213696742Y-95416601D01*
X213776855Y-95440903D01*
X213776857Y-95440904D01*
X213924518Y-95519831D01*
X214053949Y-95626051D01*
X214160169Y-95755482D01*
X214239096Y-95903143D01*
X214287701Y-96063373D01*
X214304112Y-96230000D01*
X214287701Y-96396627D01*
X214239096Y-96556857D01*
X214160169Y-96704518D01*
X214053949Y-96833949D01*
X213924518Y-96940169D01*
X213776857Y-97019096D01*
X213776855Y-97019097D01*
X213696742Y-97043399D01*
X213616627Y-97067701D01*
X213491752Y-97080000D01*
X213408248Y-97080000D01*
X213283373Y-97067701D01*
X213203258Y-97043399D01*
X213123145Y-97019097D01*
X213123143Y-97019096D01*
X212975482Y-96940169D01*
X212846051Y-96833949D01*
X212739831Y-96704518D01*
X212660904Y-96556857D01*
X212612299Y-96396627D01*
X212595888Y-96230000D01*
X212612299Y-96063373D01*
X212660904Y-95903143D01*
X212739831Y-95755482D01*
X212846051Y-95626051D01*
X212975482Y-95519831D01*
X213123143Y-95440904D01*
X213123145Y-95440903D01*
X213203258Y-95416601D01*
X213283373Y-95392299D01*
X213408248Y-95380000D01*
X213491752Y-95380000D01*
X213616627Y-95392299D01*
X213616627Y-95392299D01*
G37*
G36*
X211076627Y-95392299D02*
G01*
X211156742Y-95416601D01*
X211236855Y-95440903D01*
X211236857Y-95440904D01*
X211384518Y-95519831D01*
X211513949Y-95626051D01*
X211620169Y-95755482D01*
X211699096Y-95903143D01*
X211747701Y-96063373D01*
X211764112Y-96230000D01*
X211747701Y-96396627D01*
X211699096Y-96556857D01*
X211620169Y-96704518D01*
X211513949Y-96833949D01*
X211384518Y-96940169D01*
X211236857Y-97019096D01*
X211236855Y-97019097D01*
X211156742Y-97043399D01*
X211076627Y-97067701D01*
X210951752Y-97080000D01*
X210868248Y-97080000D01*
X210743373Y-97067701D01*
X210663258Y-97043399D01*
X210583145Y-97019097D01*
X210583143Y-97019096D01*
X210435482Y-96940169D01*
X210306051Y-96833949D01*
X210199831Y-96704518D01*
X210120904Y-96556857D01*
X210072299Y-96396627D01*
X210055888Y-96230000D01*
X210072299Y-96063373D01*
X210120904Y-95903143D01*
X210199831Y-95755482D01*
X210306051Y-95626051D01*
X210435482Y-95519831D01*
X210583143Y-95440904D01*
X210583145Y-95440903D01*
X210663258Y-95416601D01*
X210743373Y-95392299D01*
X210868248Y-95380000D01*
X210951752Y-95380000D01*
X211076627Y-95392299D01*
X211076627Y-95392299D01*
G37*
G36*
X251716627Y-95392299D02*
G01*
X251796742Y-95416601D01*
X251876855Y-95440903D01*
X251876857Y-95440904D01*
X252024518Y-95519831D01*
X252153949Y-95626051D01*
X252260169Y-95755482D01*
X252339096Y-95903143D01*
X252387701Y-96063373D01*
X252404112Y-96230000D01*
X252387701Y-96396627D01*
X252339096Y-96556857D01*
X252260169Y-96704518D01*
X252153949Y-96833949D01*
X252024518Y-96940169D01*
X251876857Y-97019096D01*
X251876855Y-97019097D01*
X251796742Y-97043399D01*
X251716627Y-97067701D01*
X251591752Y-97080000D01*
X251508248Y-97080000D01*
X251383373Y-97067701D01*
X251303258Y-97043399D01*
X251223145Y-97019097D01*
X251223143Y-97019096D01*
X251075482Y-96940169D01*
X250946051Y-96833949D01*
X250839831Y-96704518D01*
X250760904Y-96556857D01*
X250712299Y-96396627D01*
X250695888Y-96230000D01*
X250712299Y-96063373D01*
X250760904Y-95903143D01*
X250839831Y-95755482D01*
X250946051Y-95626051D01*
X251075482Y-95519831D01*
X251223143Y-95440904D01*
X251223145Y-95440903D01*
X251303258Y-95416601D01*
X251383373Y-95392299D01*
X251508248Y-95380000D01*
X251591752Y-95380000D01*
X251716627Y-95392299D01*
X251716627Y-95392299D01*
G37*
G36*
X249176627Y-95392299D02*
G01*
X249256742Y-95416601D01*
X249336855Y-95440903D01*
X249336857Y-95440904D01*
X249484518Y-95519831D01*
X249613949Y-95626051D01*
X249720169Y-95755482D01*
X249799096Y-95903143D01*
X249847701Y-96063373D01*
X249864112Y-96230000D01*
X249847701Y-96396627D01*
X249799096Y-96556857D01*
X249720169Y-96704518D01*
X249613949Y-96833949D01*
X249484518Y-96940169D01*
X249336857Y-97019096D01*
X249336855Y-97019097D01*
X249256742Y-97043399D01*
X249176627Y-97067701D01*
X249051752Y-97080000D01*
X248968248Y-97080000D01*
X248843373Y-97067701D01*
X248763258Y-97043399D01*
X248683145Y-97019097D01*
X248683143Y-97019096D01*
X248535482Y-96940169D01*
X248406051Y-96833949D01*
X248299831Y-96704518D01*
X248220904Y-96556857D01*
X248172299Y-96396627D01*
X248155888Y-96230000D01*
X248172299Y-96063373D01*
X248220904Y-95903143D01*
X248299831Y-95755482D01*
X248406051Y-95626051D01*
X248535482Y-95519831D01*
X248683143Y-95440904D01*
X248683145Y-95440903D01*
X248763258Y-95416601D01*
X248843373Y-95392299D01*
X248968248Y-95380000D01*
X249051752Y-95380000D01*
X249176627Y-95392299D01*
X249176627Y-95392299D01*
G37*
G36*
X254256627Y-95392299D02*
G01*
X254336742Y-95416601D01*
X254416855Y-95440903D01*
X254416857Y-95440904D01*
X254564518Y-95519831D01*
X254693949Y-95626051D01*
X254800169Y-95755482D01*
X254879096Y-95903143D01*
X254927701Y-96063373D01*
X254944112Y-96230000D01*
X254927701Y-96396627D01*
X254879096Y-96556857D01*
X254800169Y-96704518D01*
X254693949Y-96833949D01*
X254564518Y-96940169D01*
X254416857Y-97019096D01*
X254416855Y-97019097D01*
X254336742Y-97043399D01*
X254256627Y-97067701D01*
X254131752Y-97080000D01*
X254048248Y-97080000D01*
X253923373Y-97067701D01*
X253843258Y-97043399D01*
X253763145Y-97019097D01*
X253763143Y-97019096D01*
X253615482Y-96940169D01*
X253486051Y-96833949D01*
X253379831Y-96704518D01*
X253300904Y-96556857D01*
X253252299Y-96396627D01*
X253235888Y-96230000D01*
X253252299Y-96063373D01*
X253300904Y-95903143D01*
X253379831Y-95755482D01*
X253486051Y-95626051D01*
X253615482Y-95519831D01*
X253763143Y-95440904D01*
X253763145Y-95440903D01*
X253843258Y-95416601D01*
X253923373Y-95392299D01*
X254048248Y-95380000D01*
X254131752Y-95380000D01*
X254256627Y-95392299D01*
X254256627Y-95392299D01*
G37*
G36*
X246636627Y-95392299D02*
G01*
X246716742Y-95416601D01*
X246796855Y-95440903D01*
X246796857Y-95440904D01*
X246944518Y-95519831D01*
X247073949Y-95626051D01*
X247180169Y-95755482D01*
X247259096Y-95903143D01*
X247307701Y-96063373D01*
X247324112Y-96230000D01*
X247307701Y-96396627D01*
X247259096Y-96556857D01*
X247180169Y-96704518D01*
X247073949Y-96833949D01*
X246944518Y-96940169D01*
X246796857Y-97019096D01*
X246796855Y-97019097D01*
X246716742Y-97043399D01*
X246636627Y-97067701D01*
X246511752Y-97080000D01*
X246428248Y-97080000D01*
X246303373Y-97067701D01*
X246223258Y-97043399D01*
X246143145Y-97019097D01*
X246143143Y-97019096D01*
X245995482Y-96940169D01*
X245866051Y-96833949D01*
X245759831Y-96704518D01*
X245680904Y-96556857D01*
X245632299Y-96396627D01*
X245615888Y-96230000D01*
X245632299Y-96063373D01*
X245680904Y-95903143D01*
X245759831Y-95755482D01*
X245866051Y-95626051D01*
X245995482Y-95519831D01*
X246143143Y-95440904D01*
X246143145Y-95440903D01*
X246223258Y-95416601D01*
X246303373Y-95392299D01*
X246428248Y-95380000D01*
X246511752Y-95380000D01*
X246636627Y-95392299D01*
X246636627Y-95392299D01*
G37*
G36*
X256796627Y-95392299D02*
G01*
X256876742Y-95416601D01*
X256956855Y-95440903D01*
X256956857Y-95440904D01*
X257104518Y-95519831D01*
X257233949Y-95626051D01*
X257340169Y-95755482D01*
X257419096Y-95903143D01*
X257467701Y-96063373D01*
X257484112Y-96230000D01*
X257467701Y-96396627D01*
X257419096Y-96556857D01*
X257340169Y-96704518D01*
X257233949Y-96833949D01*
X257104518Y-96940169D01*
X256956857Y-97019096D01*
X256956855Y-97019097D01*
X256876742Y-97043399D01*
X256796627Y-97067701D01*
X256671752Y-97080000D01*
X256588248Y-97080000D01*
X256463373Y-97067701D01*
X256383258Y-97043399D01*
X256303145Y-97019097D01*
X256303143Y-97019096D01*
X256155482Y-96940169D01*
X256026051Y-96833949D01*
X255919831Y-96704518D01*
X255840904Y-96556857D01*
X255792299Y-96396627D01*
X255775888Y-96230000D01*
X255792299Y-96063373D01*
X255840904Y-95903143D01*
X255919831Y-95755482D01*
X256026051Y-95626051D01*
X256155482Y-95519831D01*
X256303143Y-95440904D01*
X256303145Y-95440903D01*
X256383258Y-95416601D01*
X256463373Y-95392299D01*
X256588248Y-95380000D01*
X256671752Y-95380000D01*
X256796627Y-95392299D01*
X256796627Y-95392299D01*
G37*
G36*
X244096627Y-95392299D02*
G01*
X244176742Y-95416601D01*
X244256855Y-95440903D01*
X244256857Y-95440904D01*
X244404518Y-95519831D01*
X244533949Y-95626051D01*
X244640169Y-95755482D01*
X244719096Y-95903143D01*
X244767701Y-96063373D01*
X244784112Y-96230000D01*
X244767701Y-96396627D01*
X244719096Y-96556857D01*
X244640169Y-96704518D01*
X244533949Y-96833949D01*
X244404518Y-96940169D01*
X244256857Y-97019096D01*
X244256855Y-97019097D01*
X244176742Y-97043399D01*
X244096627Y-97067701D01*
X243971752Y-97080000D01*
X243888248Y-97080000D01*
X243763373Y-97067701D01*
X243683258Y-97043399D01*
X243603145Y-97019097D01*
X243603143Y-97019096D01*
X243455482Y-96940169D01*
X243326051Y-96833949D01*
X243219831Y-96704518D01*
X243140904Y-96556857D01*
X243092299Y-96396627D01*
X243075888Y-96230000D01*
X243092299Y-96063373D01*
X243140904Y-95903143D01*
X243219831Y-95755482D01*
X243326051Y-95626051D01*
X243455482Y-95519831D01*
X243603143Y-95440904D01*
X243603145Y-95440903D01*
X243683258Y-95416601D01*
X243763373Y-95392299D01*
X243888248Y-95380000D01*
X243971752Y-95380000D01*
X244096627Y-95392299D01*
X244096627Y-95392299D01*
G37*
G36*
X216156627Y-95392299D02*
G01*
X216236742Y-95416601D01*
X216316855Y-95440903D01*
X216316857Y-95440904D01*
X216464518Y-95519831D01*
X216593949Y-95626051D01*
X216700169Y-95755482D01*
X216779096Y-95903143D01*
X216827701Y-96063373D01*
X216844112Y-96230000D01*
X216827701Y-96396627D01*
X216779096Y-96556857D01*
X216700169Y-96704518D01*
X216593949Y-96833949D01*
X216464518Y-96940169D01*
X216316857Y-97019096D01*
X216316855Y-97019097D01*
X216236742Y-97043399D01*
X216156627Y-97067701D01*
X216031752Y-97080000D01*
X215948248Y-97080000D01*
X215823373Y-97067701D01*
X215743258Y-97043399D01*
X215663145Y-97019097D01*
X215663143Y-97019096D01*
X215515482Y-96940169D01*
X215386051Y-96833949D01*
X215279831Y-96704518D01*
X215200904Y-96556857D01*
X215152299Y-96396627D01*
X215135888Y-96230000D01*
X215152299Y-96063373D01*
X215200904Y-95903143D01*
X215279831Y-95755482D01*
X215386051Y-95626051D01*
X215515482Y-95519831D01*
X215663143Y-95440904D01*
X215663145Y-95440903D01*
X215743258Y-95416601D01*
X215823373Y-95392299D01*
X215948248Y-95380000D01*
X216031752Y-95380000D01*
X216156627Y-95392299D01*
X216156627Y-95392299D01*
G37*
G36*
X239016627Y-95392299D02*
G01*
X239096742Y-95416601D01*
X239176855Y-95440903D01*
X239176857Y-95440904D01*
X239324518Y-95519831D01*
X239453949Y-95626051D01*
X239560169Y-95755482D01*
X239639096Y-95903143D01*
X239687701Y-96063373D01*
X239704112Y-96230000D01*
X239687701Y-96396627D01*
X239639096Y-96556857D01*
X239560169Y-96704518D01*
X239453949Y-96833949D01*
X239324518Y-96940169D01*
X239176857Y-97019096D01*
X239176855Y-97019097D01*
X239096742Y-97043399D01*
X239016627Y-97067701D01*
X238891752Y-97080000D01*
X238808248Y-97080000D01*
X238683373Y-97067701D01*
X238603258Y-97043399D01*
X238523145Y-97019097D01*
X238523143Y-97019096D01*
X238375482Y-96940169D01*
X238246051Y-96833949D01*
X238139831Y-96704518D01*
X238060904Y-96556857D01*
X238012299Y-96396627D01*
X237995888Y-96230000D01*
X238012299Y-96063373D01*
X238060904Y-95903143D01*
X238139831Y-95755482D01*
X238246051Y-95626051D01*
X238375482Y-95519831D01*
X238523143Y-95440904D01*
X238523145Y-95440903D01*
X238603258Y-95416601D01*
X238683373Y-95392299D01*
X238808248Y-95380000D01*
X238891752Y-95380000D01*
X239016627Y-95392299D01*
X239016627Y-95392299D01*
G37*
G36*
X241556627Y-95392299D02*
G01*
X241636742Y-95416601D01*
X241716855Y-95440903D01*
X241716857Y-95440904D01*
X241864518Y-95519831D01*
X241993949Y-95626051D01*
X242100169Y-95755482D01*
X242179096Y-95903143D01*
X242227701Y-96063373D01*
X242244112Y-96230000D01*
X242227701Y-96396627D01*
X242179096Y-96556857D01*
X242100169Y-96704518D01*
X241993949Y-96833949D01*
X241864518Y-96940169D01*
X241716857Y-97019096D01*
X241716855Y-97019097D01*
X241636742Y-97043399D01*
X241556627Y-97067701D01*
X241431752Y-97080000D01*
X241348248Y-97080000D01*
X241223373Y-97067701D01*
X241143258Y-97043399D01*
X241063145Y-97019097D01*
X241063143Y-97019096D01*
X240915482Y-96940169D01*
X240786051Y-96833949D01*
X240679831Y-96704518D01*
X240600904Y-96556857D01*
X240552299Y-96396627D01*
X240535888Y-96230000D01*
X240552299Y-96063373D01*
X240600904Y-95903143D01*
X240679831Y-95755482D01*
X240786051Y-95626051D01*
X240915482Y-95519831D01*
X241063143Y-95440904D01*
X241063145Y-95440903D01*
X241143258Y-95416601D01*
X241223373Y-95392299D01*
X241348248Y-95380000D01*
X241431752Y-95380000D01*
X241556627Y-95392299D01*
X241556627Y-95392299D01*
G37*
M02*
