M48
;DRILL file {KiCad 5.0.0-fee4fd1~66~ubuntu18.04.1} date Fri Oct  5 21:53:56 2018
;FORMAT={3:3/ absolute / metric / keep zeros}
FMAT,2
METRIC,TZ
T1C0.600
T2C0.700
T3C1.000
T4C1.016
T5C1.097
T6C2.500
T7C2.700
%
G90
G05
M71
T1
X201067Y-099310
X201067Y-104310
X201067Y-109310
X201067Y-114310
X201067Y-119310
X201067Y-144310
X204385Y-148781
X207493Y-101918
X207620Y-111773
X208941Y-117539
X209144Y-108369
X209385Y-148781
X210922Y-140627
X213005Y-118352
X213564Y-108827
X214385Y-148781
X215062Y-118326
X215265Y-109081
X215723Y-134506
X216154Y-116396
X216205Y-137681
X216868Y-107153
X219279Y-140297
X219385Y-148781
X224385Y-148781
X229385Y-148781
X231826Y-141415
X231877Y-137529
X234385Y-148781
X239385Y-148781
X243180Y-136182
X243556Y-139377
X244385Y-148781
X245097Y-138181
X246135Y-138555
X246950Y-137200
X247658Y-138046
X249385Y-148781
X252070Y-131102
X252735Y-140182
X252814Y-128250
X252814Y-130220
X254153Y-135319
X254385Y-148781
X256388Y-135700
X256490Y-140856
X256739Y-125343
X256768Y-127325
X257614Y-129647
X257887Y-137148
X259376Y-134972
X259385Y-148781
X259850Y-140878
X260223Y-139840
X261341Y-139154
X262641Y-134953
X263012Y-133177
X263017Y-136817
T2
X211633Y-109995
X212090Y-103416
X249306Y-139245
X252197Y-106464
X254356Y-127597
X257178Y-132431
X257277Y-106363
X262157Y-131597
X260427Y-108979
X262427Y-108979
X260427Y-103416
X262427Y-103416
X260427Y-114542
X262427Y-114542
X253467Y-103416
X255467Y-103416
X212700Y-124016
X212700Y-126016
X237548Y-146063
X239548Y-146063
X241548Y-146063
X253448Y-108979
X255448Y-108979
T3
X208370Y-096230
X208370Y-098770
X210910Y-096230
X210910Y-098770
X213450Y-096230
X213450Y-098770
X215990Y-096230
X215990Y-098770
X218530Y-096230
X218530Y-098770
X221070Y-096230
X221070Y-098770
X223610Y-096230
X223610Y-098770
X226150Y-096230
X226150Y-098770
X228690Y-096230
X228690Y-098770
X231230Y-096230
X231230Y-098770
X233770Y-096230
X233770Y-098770
X236310Y-096230
X236310Y-098770
X238850Y-096230
X238850Y-098770
X241390Y-096230
X241390Y-098770
X243930Y-096230
X243930Y-098770
X246470Y-096230
X246470Y-098770
X249010Y-096230
X249010Y-098770
X251550Y-096230
X251550Y-098770
X254090Y-096230
X254090Y-098770
X256630Y-096230
X256630Y-098770
T4
X203581Y-134836
X206121Y-134836
X246253Y-142634
X246253Y-145174
X203658Y-120765
X203658Y-123305
X203658Y-125845
X203581Y-138392
X206121Y-138392
X254483Y-114854
X254483Y-117394
X203581Y-131280
X206121Y-131280
X218313Y-145555
X220853Y-145555
X223393Y-145555
T5
X203426Y-111542
X203426Y-114082
X203426Y-105492
X203426Y-108032
T6
X220745Y-107118
X220745Y-132118
X245745Y-107118
X245745Y-132118
T7
X203500Y-097500
X261500Y-097500
X203500Y-146500
X261500Y-146500
T0
M30
