G04 #@! TF.GenerationSoftware,KiCad,Pcbnew,5.0.0-fee4fd1~66~ubuntu18.04.1*
G04 #@! TF.CreationDate,2018-10-07T00:06:07+02:00*
G04 #@! TF.ProjectId,rasle,7261736C652E6B696361645F70636200,rev?*
G04 #@! TF.SameCoordinates,Original*
G04 #@! TF.FileFunction,Legend,Top*
G04 #@! TF.FilePolarity,Positive*
%FSLAX46Y46*%
G04 Gerber Fmt 4.6, Leading zero omitted, Abs format (unit mm)*
G04 Created by KiCad (PCBNEW 5.0.0-fee4fd1~66~ubuntu18.04.1) date Sun Oct  7 00:06:07 2018*
%MOMM*%
%LPD*%
G01*
G04 APERTURE LIST*
%ADD10C,0.250000*%
%ADD11C,0.150000*%
G04 APERTURE END LIST*
D10*
X236524133Y-137145380D02*
X236524133Y-136145380D01*
X237095561Y-137145380D01*
X237095561Y-136145380D01*
X237952704Y-137097761D02*
X237857466Y-137145380D01*
X237666990Y-137145380D01*
X237571752Y-137097761D01*
X237524133Y-137002523D01*
X237524133Y-136621571D01*
X237571752Y-136526333D01*
X237666990Y-136478714D01*
X237857466Y-136478714D01*
X237952704Y-136526333D01*
X238000323Y-136621571D01*
X238000323Y-136716809D01*
X237524133Y-136812047D01*
X238428895Y-137145380D02*
X238428895Y-136478714D01*
X238428895Y-136669190D02*
X238476514Y-136573952D01*
X238524133Y-136526333D01*
X238619371Y-136478714D01*
X238714609Y-136478714D01*
X239476514Y-137145380D02*
X239476514Y-136145380D01*
X239476514Y-137097761D02*
X239381276Y-137145380D01*
X239190800Y-137145380D01*
X239095561Y-137097761D01*
X239047942Y-137050142D01*
X239000323Y-136954904D01*
X239000323Y-136669190D01*
X239047942Y-136573952D01*
X239095561Y-136526333D01*
X239190800Y-136478714D01*
X239381276Y-136478714D01*
X239476514Y-136526333D01*
X240381276Y-137097761D02*
X240286038Y-137145380D01*
X240095561Y-137145380D01*
X240000323Y-137097761D01*
X239952704Y-137050142D01*
X239905085Y-136954904D01*
X239905085Y-136669190D01*
X239952704Y-136573952D01*
X240000323Y-136526333D01*
X240095561Y-136478714D01*
X240286038Y-136478714D01*
X240381276Y-136526333D01*
X240952704Y-137145380D02*
X240857466Y-137097761D01*
X240809847Y-137002523D01*
X240809847Y-136145380D01*
X241762228Y-136478714D02*
X241762228Y-137145380D01*
X241333657Y-136478714D02*
X241333657Y-137002523D01*
X241381276Y-137097761D01*
X241476514Y-137145380D01*
X241619371Y-137145380D01*
X241714609Y-137097761D01*
X241762228Y-137050142D01*
X242238419Y-137145380D02*
X242238419Y-136145380D01*
X242238419Y-136526333D02*
X242333657Y-136478714D01*
X242524133Y-136478714D01*
X242619371Y-136526333D01*
X242666990Y-136573952D01*
X242714609Y-136669190D01*
X242714609Y-136954904D01*
X242666990Y-137050142D01*
X242619371Y-137097761D01*
X242524133Y-137145380D01*
X242333657Y-137145380D01*
X242238419Y-137097761D01*
X243143180Y-137050142D02*
X243190800Y-137097761D01*
X243143180Y-137145380D01*
X243095561Y-137097761D01*
X243143180Y-137050142D01*
X243143180Y-137145380D01*
X244047942Y-137145380D02*
X244047942Y-136145380D01*
X244047942Y-137097761D02*
X243952704Y-137145380D01*
X243762228Y-137145380D01*
X243666990Y-137097761D01*
X243619371Y-137050142D01*
X243571752Y-136954904D01*
X243571752Y-136669190D01*
X243619371Y-136573952D01*
X243666990Y-136526333D01*
X243762228Y-136478714D01*
X243952704Y-136478714D01*
X244047942Y-136526333D01*
X244524133Y-137145380D02*
X244524133Y-136145380D01*
X244619371Y-136764428D02*
X244905085Y-137145380D01*
X244905085Y-136478714D02*
X244524133Y-136859666D01*
X234333657Y-138895380D02*
X234000323Y-138419190D01*
X233762228Y-138895380D02*
X233762228Y-137895380D01*
X234143180Y-137895380D01*
X234238419Y-137943000D01*
X234286038Y-137990619D01*
X234333657Y-138085857D01*
X234333657Y-138228714D01*
X234286038Y-138323952D01*
X234238419Y-138371571D01*
X234143180Y-138419190D01*
X233762228Y-138419190D01*
X234762228Y-138895380D02*
X234762228Y-137895380D01*
X235143180Y-137895380D01*
X235238419Y-137943000D01*
X235286038Y-137990619D01*
X235333657Y-138085857D01*
X235333657Y-138228714D01*
X235286038Y-138323952D01*
X235238419Y-138371571D01*
X235143180Y-138419190D01*
X234762228Y-138419190D01*
X235762228Y-138895380D02*
X235762228Y-137895380D01*
X236952704Y-138609666D02*
X237428895Y-138609666D01*
X236857466Y-138895380D02*
X237190800Y-137895380D01*
X237524133Y-138895380D01*
X237857466Y-138895380D02*
X237857466Y-138228714D01*
X237857466Y-138419190D02*
X237905085Y-138323952D01*
X237952704Y-138276333D01*
X238047942Y-138228714D01*
X238143180Y-138228714D01*
X238905085Y-138847761D02*
X238809847Y-138895380D01*
X238619371Y-138895380D01*
X238524133Y-138847761D01*
X238476514Y-138800142D01*
X238428895Y-138704904D01*
X238428895Y-138419190D01*
X238476514Y-138323952D01*
X238524133Y-138276333D01*
X238619371Y-138228714D01*
X238809847Y-138228714D01*
X238905085Y-138276333D01*
X239762228Y-138895380D02*
X239762228Y-138371571D01*
X239714609Y-138276333D01*
X239619371Y-138228714D01*
X239428895Y-138228714D01*
X239333657Y-138276333D01*
X239762228Y-138847761D02*
X239666990Y-138895380D01*
X239428895Y-138895380D01*
X239333657Y-138847761D01*
X239286038Y-138752523D01*
X239286038Y-138657285D01*
X239333657Y-138562047D01*
X239428895Y-138514428D01*
X239666990Y-138514428D01*
X239762228Y-138466809D01*
X240666990Y-138895380D02*
X240666990Y-137895380D01*
X240666990Y-138847761D02*
X240571752Y-138895380D01*
X240381276Y-138895380D01*
X240286038Y-138847761D01*
X240238419Y-138800142D01*
X240190800Y-138704904D01*
X240190800Y-138419190D01*
X240238419Y-138323952D01*
X240286038Y-138276333D01*
X240381276Y-138228714D01*
X240571752Y-138228714D01*
X240666990Y-138276333D01*
X241524133Y-138847761D02*
X241428895Y-138895380D01*
X241238419Y-138895380D01*
X241143180Y-138847761D01*
X241095561Y-138752523D01*
X241095561Y-138371571D01*
X241143180Y-138276333D01*
X241238419Y-138228714D01*
X241428895Y-138228714D01*
X241524133Y-138276333D01*
X241571752Y-138371571D01*
X241571752Y-138466809D01*
X241095561Y-138562047D01*
X242714609Y-138847761D02*
X242857466Y-138895380D01*
X243095561Y-138895380D01*
X243190800Y-138847761D01*
X243238419Y-138800142D01*
X243286038Y-138704904D01*
X243286038Y-138609666D01*
X243238419Y-138514428D01*
X243190800Y-138466809D01*
X243095561Y-138419190D01*
X242905085Y-138371571D01*
X242809847Y-138323952D01*
X242762228Y-138276333D01*
X242714609Y-138181095D01*
X242714609Y-138085857D01*
X242762228Y-137990619D01*
X242809847Y-137943000D01*
X242905085Y-137895380D01*
X243143180Y-137895380D01*
X243286038Y-137943000D01*
X243857466Y-138895380D02*
X243762228Y-138847761D01*
X243714609Y-138800142D01*
X243666990Y-138704904D01*
X243666990Y-138419190D01*
X243714609Y-138323952D01*
X243762228Y-138276333D01*
X243857466Y-138228714D01*
X244000323Y-138228714D01*
X244095561Y-138276333D01*
X244143180Y-138323952D01*
X244190800Y-138419190D01*
X244190800Y-138704904D01*
X244143180Y-138800142D01*
X244095561Y-138847761D01*
X244000323Y-138895380D01*
X243857466Y-138895380D01*
X245047942Y-138228714D02*
X245047942Y-138895380D01*
X244619371Y-138228714D02*
X244619371Y-138752523D01*
X244666990Y-138847761D01*
X244762228Y-138895380D01*
X244905085Y-138895380D01*
X245000323Y-138847761D01*
X245047942Y-138800142D01*
X245524133Y-138228714D02*
X245524133Y-138895380D01*
X245524133Y-138323952D02*
X245571752Y-138276333D01*
X245666990Y-138228714D01*
X245809847Y-138228714D01*
X245905085Y-138276333D01*
X245952704Y-138371571D01*
X245952704Y-138895380D01*
X246857466Y-138895380D02*
X246857466Y-137895380D01*
X246857466Y-138847761D02*
X246762228Y-138895380D01*
X246571752Y-138895380D01*
X246476514Y-138847761D01*
X246428895Y-138800142D01*
X246381276Y-138704904D01*
X246381276Y-138419190D01*
X246428895Y-138323952D01*
X246476514Y-138276333D01*
X246571752Y-138228714D01*
X246762228Y-138228714D01*
X246857466Y-138276333D01*
X233833657Y-140645380D02*
X233833657Y-140121571D01*
X233786038Y-140026333D01*
X233690800Y-139978714D01*
X233500323Y-139978714D01*
X233405085Y-140026333D01*
X233833657Y-140597761D02*
X233738419Y-140645380D01*
X233500323Y-140645380D01*
X233405085Y-140597761D01*
X233357466Y-140502523D01*
X233357466Y-140407285D01*
X233405085Y-140312047D01*
X233500323Y-140264428D01*
X233738419Y-140264428D01*
X233833657Y-140216809D01*
X234309847Y-139978714D02*
X234309847Y-140645380D01*
X234309847Y-140073952D02*
X234357466Y-140026333D01*
X234452704Y-139978714D01*
X234595561Y-139978714D01*
X234690800Y-140026333D01*
X234738419Y-140121571D01*
X234738419Y-140645380D01*
X235643180Y-140645380D02*
X235643180Y-139645380D01*
X235643180Y-140597761D02*
X235547942Y-140645380D01*
X235357466Y-140645380D01*
X235262228Y-140597761D01*
X235214609Y-140550142D01*
X235166990Y-140454904D01*
X235166990Y-140169190D01*
X235214609Y-140073952D01*
X235262228Y-140026333D01*
X235357466Y-139978714D01*
X235547942Y-139978714D01*
X235643180Y-140026333D01*
X237357466Y-140645380D02*
X236881276Y-140645380D01*
X236881276Y-139645380D01*
X237690800Y-140645380D02*
X237690800Y-139978714D01*
X237690800Y-139645380D02*
X237643180Y-139693000D01*
X237690800Y-139740619D01*
X237738419Y-139693000D01*
X237690800Y-139645380D01*
X237690800Y-139740619D01*
X238595561Y-139978714D02*
X238595561Y-140788238D01*
X238547942Y-140883476D01*
X238500323Y-140931095D01*
X238405085Y-140978714D01*
X238262228Y-140978714D01*
X238166990Y-140931095D01*
X238595561Y-140597761D02*
X238500323Y-140645380D01*
X238309847Y-140645380D01*
X238214609Y-140597761D01*
X238166990Y-140550142D01*
X238119371Y-140454904D01*
X238119371Y-140169190D01*
X238166990Y-140073952D01*
X238214609Y-140026333D01*
X238309847Y-139978714D01*
X238500323Y-139978714D01*
X238595561Y-140026333D01*
X239071752Y-140645380D02*
X239071752Y-139645380D01*
X239500323Y-140645380D02*
X239500323Y-140121571D01*
X239452704Y-140026333D01*
X239357466Y-139978714D01*
X239214609Y-139978714D01*
X239119371Y-140026333D01*
X239071752Y-140073952D01*
X239833657Y-139978714D02*
X240214609Y-139978714D01*
X239976514Y-139645380D02*
X239976514Y-140502523D01*
X240024133Y-140597761D01*
X240119371Y-140645380D01*
X240214609Y-140645380D01*
X241309847Y-140121571D02*
X241643180Y-140121571D01*
X241786038Y-140645380D02*
X241309847Y-140645380D01*
X241309847Y-139645380D01*
X241786038Y-139645380D01*
X242119371Y-140645380D02*
X242643180Y-139978714D01*
X242119371Y-139978714D02*
X242643180Y-140645380D01*
X242881276Y-139978714D02*
X243262228Y-139978714D01*
X243024133Y-139645380D02*
X243024133Y-140502523D01*
X243071752Y-140597761D01*
X243166990Y-140645380D01*
X243262228Y-140645380D01*
X243976514Y-140597761D02*
X243881276Y-140645380D01*
X243690800Y-140645380D01*
X243595561Y-140597761D01*
X243547942Y-140502523D01*
X243547942Y-140121571D01*
X243595561Y-140026333D01*
X243690800Y-139978714D01*
X243881276Y-139978714D01*
X243976514Y-140026333D01*
X244024133Y-140121571D01*
X244024133Y-140216809D01*
X243547942Y-140312047D01*
X244452704Y-139978714D02*
X244452704Y-140645380D01*
X244452704Y-140073952D02*
X244500323Y-140026333D01*
X244595561Y-139978714D01*
X244738419Y-139978714D01*
X244833657Y-140026333D01*
X244881276Y-140121571D01*
X244881276Y-140645380D01*
X245309847Y-140597761D02*
X245405085Y-140645380D01*
X245595561Y-140645380D01*
X245690800Y-140597761D01*
X245738419Y-140502523D01*
X245738419Y-140454904D01*
X245690800Y-140359666D01*
X245595561Y-140312047D01*
X245452704Y-140312047D01*
X245357466Y-140264428D01*
X245309847Y-140169190D01*
X245309847Y-140121571D01*
X245357466Y-140026333D01*
X245452704Y-139978714D01*
X245595561Y-139978714D01*
X245690800Y-140026333D01*
X246166990Y-140645380D02*
X246166990Y-139978714D01*
X246166990Y-139645380D02*
X246119371Y-139693000D01*
X246166990Y-139740619D01*
X246214609Y-139693000D01*
X246166990Y-139645380D01*
X246166990Y-139740619D01*
X246786038Y-140645380D02*
X246690800Y-140597761D01*
X246643180Y-140550142D01*
X246595561Y-140454904D01*
X246595561Y-140169190D01*
X246643180Y-140073952D01*
X246690800Y-140026333D01*
X246786038Y-139978714D01*
X246928895Y-139978714D01*
X247024133Y-140026333D01*
X247071752Y-140073952D01*
X247119371Y-140169190D01*
X247119371Y-140454904D01*
X247071752Y-140550142D01*
X247024133Y-140597761D01*
X246928895Y-140645380D01*
X246786038Y-140645380D01*
X247547942Y-139978714D02*
X247547942Y-140645380D01*
X247547942Y-140073952D02*
X247595561Y-140026333D01*
X247690800Y-139978714D01*
X247833657Y-139978714D01*
X247928895Y-140026333D01*
X247976514Y-140121571D01*
X247976514Y-140645380D01*
D11*
G04 #@! TO.C,REF\002A\002A*
X247245400Y-119618400D02*
G75*
G03X247245400Y-119618400I-14000000J0D01*
G01*
X218245400Y-104618400D02*
X248245400Y-104618400D01*
X248245400Y-104618400D02*
X248245400Y-134618400D01*
X248245400Y-134618400D02*
X218245400Y-134618400D01*
X218245400Y-134618400D02*
X218245400Y-104618400D01*
G04 #@! TO.C,R8*
X230141800Y-137924200D02*
X229141800Y-137924200D01*
X229141800Y-136574200D02*
X230141800Y-136574200D01*
G04 #@! TO.C,R4*
X230141800Y-141226200D02*
X229141800Y-141226200D01*
X229141800Y-139876200D02*
X230141800Y-139876200D01*
G04 #@! TO.C,U4*
X223578000Y-140894000D02*
G75*
G03X223578000Y-140894000I-100000J0D01*
G01*
X223228000Y-141444000D02*
X223228000Y-140944000D01*
X220328000Y-141444000D02*
X223228000Y-141444000D01*
X220328000Y-140944000D02*
X220328000Y-141444000D01*
X223228000Y-140944000D02*
X220328000Y-140944000D01*
G04 #@! TO.C,J2*
X210400000Y-125015800D02*
X210900000Y-125015800D01*
X210900000Y-125115800D02*
X210400000Y-125115800D01*
X210900000Y-124915800D02*
X210900000Y-125115800D01*
X210400000Y-124915800D02*
X210900000Y-124915800D01*
X214500000Y-123715800D02*
X214500000Y-123415800D01*
X214600000Y-123415800D02*
X214400000Y-123415800D01*
X214600000Y-123715800D02*
X214600000Y-123415800D01*
X214400000Y-123715800D02*
X214600000Y-123715800D01*
X211900000Y-127465800D02*
X211900000Y-127965800D01*
X213200000Y-127465800D02*
X213200000Y-127965800D01*
X211900000Y-122065800D02*
X211900000Y-122565800D01*
X213200000Y-122065800D02*
X213200000Y-122565800D01*
X213900000Y-125515800D02*
X214400000Y-125515800D01*
X213900000Y-127465800D02*
X213900000Y-125515800D01*
X210400000Y-127465800D02*
X213900000Y-127465800D01*
X210400000Y-122565800D02*
X210400000Y-127465800D01*
X213900000Y-122565800D02*
X210400000Y-122565800D01*
X213900000Y-124515800D02*
X213900000Y-122565800D01*
X214400000Y-124515800D02*
X213900000Y-124515800D01*
X209900000Y-127965800D02*
X209900000Y-122065800D01*
X214400000Y-127965800D02*
X209900000Y-127965800D01*
X214400000Y-122065800D02*
X214400000Y-127965800D01*
X209900000Y-122065800D02*
X214400000Y-122065800D01*
G04 #@! TO.C,C4*
X210812400Y-110872200D02*
X209812400Y-110872200D01*
X209812400Y-112572200D02*
X210812400Y-112572200D01*
G04 #@! TO.C,J1*
X204927600Y-124574600D02*
X204927600Y-119494600D01*
X204927600Y-119494600D02*
X202387600Y-119494600D01*
X202387600Y-119494600D02*
X202387600Y-124574600D01*
X202107600Y-127394600D02*
X202107600Y-125844600D01*
X202387600Y-124574600D02*
X204927600Y-124574600D01*
X205207600Y-125844600D02*
X205207600Y-127394600D01*
X205207600Y-127394600D02*
X202107600Y-127394600D01*
G04 #@! TO.C,J11*
X261426600Y-116841600D02*
X261426600Y-116341600D01*
X261526600Y-116341600D02*
X261526600Y-116841600D01*
X261326600Y-116341600D02*
X261526600Y-116341600D01*
X261326600Y-116841600D02*
X261326600Y-116341600D01*
X260126600Y-112741600D02*
X259826600Y-112741600D01*
X259826600Y-112641600D02*
X259826600Y-112841600D01*
X260126600Y-112641600D02*
X259826600Y-112641600D01*
X260126600Y-112841600D02*
X260126600Y-112641600D01*
X263876600Y-115341600D02*
X264376600Y-115341600D01*
X263876600Y-114041600D02*
X264376600Y-114041600D01*
X258476600Y-115341600D02*
X258976600Y-115341600D01*
X258476600Y-114041600D02*
X258976600Y-114041600D01*
X261926600Y-113341600D02*
X261926600Y-112841600D01*
X263876600Y-113341600D02*
X261926600Y-113341600D01*
X263876600Y-116841600D02*
X263876600Y-113341600D01*
X258976600Y-116841600D02*
X263876600Y-116841600D01*
X258976600Y-113341600D02*
X258976600Y-116841600D01*
X260926600Y-113341600D02*
X258976600Y-113341600D01*
X260926600Y-112841600D02*
X260926600Y-113341600D01*
X264376600Y-117341600D02*
X258476600Y-117341600D01*
X264376600Y-112841600D02*
X264376600Y-117341600D01*
X258476600Y-112841600D02*
X264376600Y-112841600D01*
X258476600Y-117341600D02*
X258476600Y-112841600D01*
G04 #@! TO.C,J10*
X254448200Y-111279000D02*
X254448200Y-110779000D01*
X254548200Y-110779000D02*
X254548200Y-111279000D01*
X254348200Y-110779000D02*
X254548200Y-110779000D01*
X254348200Y-111279000D02*
X254348200Y-110779000D01*
X253148200Y-107179000D02*
X252848200Y-107179000D01*
X252848200Y-107079000D02*
X252848200Y-107279000D01*
X253148200Y-107079000D02*
X252848200Y-107079000D01*
X253148200Y-107279000D02*
X253148200Y-107079000D01*
X256898200Y-109779000D02*
X257398200Y-109779000D01*
X256898200Y-108479000D02*
X257398200Y-108479000D01*
X251498200Y-109779000D02*
X251998200Y-109779000D01*
X251498200Y-108479000D02*
X251998200Y-108479000D01*
X254948200Y-107779000D02*
X254948200Y-107279000D01*
X256898200Y-107779000D02*
X254948200Y-107779000D01*
X256898200Y-111279000D02*
X256898200Y-107779000D01*
X251998200Y-111279000D02*
X256898200Y-111279000D01*
X251998200Y-107779000D02*
X251998200Y-111279000D01*
X253948200Y-107779000D02*
X251998200Y-107779000D01*
X253948200Y-107279000D02*
X253948200Y-107779000D01*
X257398200Y-111779000D02*
X251498200Y-111779000D01*
X257398200Y-107279000D02*
X257398200Y-111779000D01*
X251498200Y-107279000D02*
X257398200Y-107279000D01*
X251498200Y-111779000D02*
X251498200Y-107279000D01*
G04 #@! TO.C,J7*
X261426600Y-105716400D02*
X261426600Y-105216400D01*
X261526600Y-105216400D02*
X261526600Y-105716400D01*
X261326600Y-105216400D02*
X261526600Y-105216400D01*
X261326600Y-105716400D02*
X261326600Y-105216400D01*
X260126600Y-101616400D02*
X259826600Y-101616400D01*
X259826600Y-101516400D02*
X259826600Y-101716400D01*
X260126600Y-101516400D02*
X259826600Y-101516400D01*
X260126600Y-101716400D02*
X260126600Y-101516400D01*
X263876600Y-104216400D02*
X264376600Y-104216400D01*
X263876600Y-102916400D02*
X264376600Y-102916400D01*
X258476600Y-104216400D02*
X258976600Y-104216400D01*
X258476600Y-102916400D02*
X258976600Y-102916400D01*
X261926600Y-102216400D02*
X261926600Y-101716400D01*
X263876600Y-102216400D02*
X261926600Y-102216400D01*
X263876600Y-105716400D02*
X263876600Y-102216400D01*
X258976600Y-105716400D02*
X263876600Y-105716400D01*
X258976600Y-102216400D02*
X258976600Y-105716400D01*
X260926600Y-102216400D02*
X258976600Y-102216400D01*
X260926600Y-101716400D02*
X260926600Y-102216400D01*
X264376600Y-106216400D02*
X258476600Y-106216400D01*
X264376600Y-101716400D02*
X264376600Y-106216400D01*
X258476600Y-101716400D02*
X264376600Y-101716400D01*
X258476600Y-106216400D02*
X258476600Y-101716400D01*
G04 #@! TO.C,J4*
X216763400Y-147105000D02*
X216763400Y-144005000D01*
X218313400Y-147105000D02*
X216763400Y-147105000D01*
X219583400Y-144285000D02*
X219583400Y-146825000D01*
X216763400Y-144005000D02*
X218313400Y-144005000D01*
X224663400Y-144285000D02*
X219583400Y-144285000D01*
X224663400Y-146825000D02*
X224663400Y-144285000D01*
X219583400Y-146825000D02*
X224663400Y-146825000D01*
G04 #@! TO.C,U1*
X251585430Y-134769642D02*
X251815240Y-134999452D01*
X256711954Y-129643118D02*
X256941764Y-129872928D01*
X261838478Y-134769642D02*
X261608668Y-134539832D01*
X256711954Y-139896166D02*
X256482144Y-139666356D01*
X251585430Y-134769642D02*
X251815240Y-134539832D01*
X256711954Y-139896166D02*
X256941764Y-139666356D01*
X261838478Y-134769642D02*
X261608668Y-134999452D01*
X256711954Y-129643118D02*
X256482144Y-129872928D01*
X251815240Y-134999452D02*
X250807612Y-136007079D01*
G04 #@! TO.C,C11*
X261586357Y-129572129D02*
X262081331Y-130067103D01*
X261232803Y-130915631D02*
X260737829Y-130420657D01*
G04 #@! TO.C,C12*
X250598847Y-137571119D02*
X251093821Y-138066093D01*
X250245293Y-138914621D02*
X249750319Y-138419647D01*
G04 #@! TO.C,Q3*
X210824160Y-143406160D02*
X210775900Y-143406160D01*
X208025180Y-144107200D02*
X208025180Y-143406160D01*
X208025180Y-143406160D02*
X208274100Y-143406160D01*
X210824160Y-143406160D02*
X211024820Y-143406160D01*
X211024820Y-143406160D02*
X211024820Y-144107200D01*
G04 #@! TO.C,J6*
X207391400Y-139662200D02*
X207391400Y-137122200D01*
X204851400Y-139662200D02*
X207391400Y-139662200D01*
X202031400Y-139942200D02*
X202031400Y-136842200D01*
X203581400Y-139942200D02*
X202031400Y-139942200D01*
X204851400Y-137122200D02*
X204851400Y-139662200D01*
X202031400Y-136842200D02*
X203581400Y-136842200D01*
X204851400Y-137122200D02*
X207391400Y-137122200D01*
G04 #@! TO.C,J3*
X207391400Y-136106200D02*
X207391400Y-133566200D01*
X204851400Y-136106200D02*
X207391400Y-136106200D01*
X202031400Y-136386200D02*
X202031400Y-133286200D01*
X203581400Y-136386200D02*
X202031400Y-136386200D01*
X204851400Y-133566200D02*
X204851400Y-136106200D01*
X202031400Y-133286200D02*
X203581400Y-133286200D01*
X204851400Y-133566200D02*
X207391400Y-133566200D01*
G04 #@! TO.C,J5*
X207391400Y-132550200D02*
X207391400Y-130010200D01*
X204851400Y-132550200D02*
X207391400Y-132550200D01*
X202031400Y-132830200D02*
X202031400Y-129730200D01*
X203581400Y-132830200D02*
X202031400Y-132830200D01*
X204851400Y-130010200D02*
X204851400Y-132550200D01*
X202031400Y-129730200D02*
X203581400Y-129730200D01*
X204851400Y-130010200D02*
X207391400Y-130010200D01*
G04 #@! TO.C,Q1*
X211973560Y-137347040D02*
X211973560Y-137395300D01*
X212674600Y-140146020D02*
X211973560Y-140146020D01*
X211973560Y-140146020D02*
X211973560Y-139897100D01*
X211973560Y-137347040D02*
X211973560Y-137146380D01*
X211973560Y-137146380D02*
X212674600Y-137146380D01*
G04 #@! TO.C,R3*
X227513600Y-142877200D02*
X226513600Y-142877200D01*
X226513600Y-141527200D02*
X227513600Y-141527200D01*
G04 #@! TO.C,R1*
X227500200Y-141226200D02*
X226500200Y-141226200D01*
X226500200Y-139876200D02*
X227500200Y-139876200D01*
G04 #@! TO.C,R2*
X227500200Y-139575200D02*
X226500200Y-139575200D01*
X226500200Y-138225200D02*
X227500200Y-138225200D01*
G04 #@! TO.C,R5*
X230141800Y-139575200D02*
X229141800Y-139575200D01*
X229141800Y-138225200D02*
X230141800Y-138225200D01*
G04 #@! TO.C,R6*
X230167200Y-142877200D02*
X229167200Y-142877200D01*
X229167200Y-141527200D02*
X230167200Y-141527200D01*
G04 #@! TO.C,R7*
X227500200Y-137924200D02*
X226500200Y-137924200D01*
X226500200Y-136574200D02*
X227500200Y-136574200D01*
G04 #@! TO.C,R9*
X217845400Y-103830800D02*
X217845400Y-104830800D01*
X216495400Y-104830800D02*
X216495400Y-103830800D01*
G04 #@! TO.C,R10*
X217210400Y-113635200D02*
X217210400Y-114635200D01*
X215860400Y-114635200D02*
X215860400Y-113635200D01*
G04 #@! TO.C,R18*
X251852200Y-143628600D02*
X251852200Y-142628600D01*
X253202200Y-142628600D02*
X253202200Y-143628600D01*
G04 #@! TO.C,C10*
X250329200Y-144962800D02*
X250329200Y-143962800D01*
X248629200Y-143962800D02*
X248629200Y-144962800D01*
G04 #@! TO.C,C3*
X209787000Y-102818600D02*
X210787000Y-102818600D01*
X210787000Y-101118600D02*
X209787000Y-101118600D01*
G04 #@! TO.C,C1*
X214978000Y-110872200D02*
X213978000Y-110872200D01*
X213978000Y-112572200D02*
X214978000Y-112572200D01*
G04 #@! TO.C,C2*
X213983400Y-102818600D02*
X214983400Y-102818600D01*
X214983400Y-101118600D02*
X213983400Y-101118600D01*
G04 #@! TO.C,J8*
X258476600Y-111779000D02*
X258476600Y-107279000D01*
X258476600Y-107279000D02*
X264376600Y-107279000D01*
X264376600Y-107279000D02*
X264376600Y-111779000D01*
X264376600Y-111779000D02*
X258476600Y-111779000D01*
X260926600Y-107279000D02*
X260926600Y-107779000D01*
X260926600Y-107779000D02*
X258976600Y-107779000D01*
X258976600Y-107779000D02*
X258976600Y-111279000D01*
X258976600Y-111279000D02*
X263876600Y-111279000D01*
X263876600Y-111279000D02*
X263876600Y-107779000D01*
X263876600Y-107779000D02*
X261926600Y-107779000D01*
X261926600Y-107779000D02*
X261926600Y-107279000D01*
X258476600Y-108479000D02*
X258976600Y-108479000D01*
X258476600Y-109779000D02*
X258976600Y-109779000D01*
X263876600Y-108479000D02*
X264376600Y-108479000D01*
X263876600Y-109779000D02*
X264376600Y-109779000D01*
X260126600Y-107279000D02*
X260126600Y-107079000D01*
X260126600Y-107079000D02*
X259826600Y-107079000D01*
X259826600Y-107079000D02*
X259826600Y-107279000D01*
X260126600Y-107179000D02*
X259826600Y-107179000D01*
X261326600Y-111279000D02*
X261326600Y-110779000D01*
X261326600Y-110779000D02*
X261526600Y-110779000D01*
X261526600Y-110779000D02*
X261526600Y-111279000D01*
X261426600Y-111279000D02*
X261426600Y-110779000D01*
G04 #@! TO.C,J9*
X251517000Y-106216400D02*
X251517000Y-101716400D01*
X251517000Y-101716400D02*
X257417000Y-101716400D01*
X257417000Y-101716400D02*
X257417000Y-106216400D01*
X257417000Y-106216400D02*
X251517000Y-106216400D01*
X253967000Y-101716400D02*
X253967000Y-102216400D01*
X253967000Y-102216400D02*
X252017000Y-102216400D01*
X252017000Y-102216400D02*
X252017000Y-105716400D01*
X252017000Y-105716400D02*
X256917000Y-105716400D01*
X256917000Y-105716400D02*
X256917000Y-102216400D01*
X256917000Y-102216400D02*
X254967000Y-102216400D01*
X254967000Y-102216400D02*
X254967000Y-101716400D01*
X251517000Y-102916400D02*
X252017000Y-102916400D01*
X251517000Y-104216400D02*
X252017000Y-104216400D01*
X256917000Y-102916400D02*
X257417000Y-102916400D01*
X256917000Y-104216400D02*
X257417000Y-104216400D01*
X253167000Y-101716400D02*
X253167000Y-101516400D01*
X253167000Y-101516400D02*
X252867000Y-101516400D01*
X252867000Y-101516400D02*
X252867000Y-101716400D01*
X253167000Y-101616400D02*
X252867000Y-101616400D01*
X254367000Y-105716400D02*
X254367000Y-105216400D01*
X254367000Y-105216400D02*
X254567000Y-105216400D01*
X254567000Y-105216400D02*
X254567000Y-105716400D01*
X254467000Y-105716400D02*
X254467000Y-105216400D01*
G04 #@! TO.C,J12*
X235597800Y-148863000D02*
X235597800Y-144363000D01*
X235597800Y-144363000D02*
X243497800Y-144363000D01*
X243497800Y-144363000D02*
X243497800Y-148863000D01*
X243497800Y-148863000D02*
X235597800Y-148863000D01*
X238047800Y-144363000D02*
X238047800Y-144863000D01*
X238047800Y-144863000D02*
X236097800Y-144863000D01*
X236097800Y-144863000D02*
X236097800Y-148363000D01*
X236097800Y-148363000D02*
X242997800Y-148363000D01*
X242997800Y-148363000D02*
X242997800Y-144863000D01*
X242997800Y-144863000D02*
X241047800Y-144863000D01*
X241047800Y-144863000D02*
X241047800Y-144363000D01*
X235597800Y-145563000D02*
X236097800Y-145563000D01*
X235597800Y-146863000D02*
X236097800Y-146863000D01*
X242997800Y-145563000D02*
X243497800Y-145563000D01*
X242997800Y-146863000D02*
X243497800Y-146863000D01*
X237247800Y-144363000D02*
X237247800Y-144163000D01*
X237247800Y-144163000D02*
X236947800Y-144163000D01*
X236947800Y-144163000D02*
X236947800Y-144363000D01*
X237247800Y-144263000D02*
X236947800Y-144263000D01*
X238447800Y-148363000D02*
X238447800Y-147863000D01*
X238447800Y-147863000D02*
X238647800Y-147863000D01*
X238647800Y-147863000D02*
X238647800Y-148363000D01*
X238547800Y-148363000D02*
X238547800Y-147863000D01*
X240447800Y-148363000D02*
X240447800Y-147863000D01*
X240447800Y-147863000D02*
X240647800Y-147863000D01*
X240647800Y-147863000D02*
X240647800Y-148363000D01*
X240547800Y-148363000D02*
X240547800Y-147863000D01*
G04 #@! TO.C,Q2*
X211973560Y-133689440D02*
X211973560Y-133737700D01*
X212674600Y-136488420D02*
X211973560Y-136488420D01*
X211973560Y-136488420D02*
X211973560Y-136239500D01*
X211973560Y-133689440D02*
X211973560Y-133488780D01*
X211973560Y-133488780D02*
X212674600Y-133488780D01*
G04 #@! TO.C,Q4*
X211948160Y-128939640D02*
X211948160Y-128987900D01*
X212649200Y-131738620D02*
X211948160Y-131738620D01*
X211948160Y-131738620D02*
X211948160Y-131489700D01*
X211948160Y-128939640D02*
X211948160Y-128738980D01*
X211948160Y-128738980D02*
X212649200Y-128738980D01*
G04 #@! TO.C,R21*
X255764400Y-122387060D02*
X255764400Y-123587060D01*
X254014400Y-123587060D02*
X254014400Y-122387060D01*
G04 #@! TO.C,TH1*
X255753000Y-116124020D02*
X255753000Y-118664020D01*
X256033000Y-113304020D02*
X256033000Y-114854020D01*
X255753000Y-116124020D02*
X253213000Y-116124020D01*
X252933000Y-114854020D02*
X252933000Y-113304020D01*
X252933000Y-113304020D02*
X256033000Y-113304020D01*
X253213000Y-116124020D02*
X253213000Y-118664020D01*
X253213000Y-118664020D02*
X255753000Y-118664020D01*
G04 #@! TO.C,U2*
X212446600Y-107860800D02*
X212946600Y-107860800D01*
X212446600Y-104610800D02*
X212946600Y-104610800D01*
X215696600Y-104610800D02*
X215196600Y-104610800D01*
X215696600Y-107860800D02*
X215196600Y-107860800D01*
X212446600Y-104610800D02*
X212446600Y-105110800D01*
X215696600Y-104610800D02*
X215696600Y-105110800D01*
X212446600Y-107860800D02*
X212446600Y-107360800D01*
G04 #@! TO.C,U3*
X211735400Y-117309600D02*
X211735400Y-116809600D01*
X214985400Y-114059600D02*
X214985400Y-114559600D01*
X211735400Y-114059600D02*
X211735400Y-114559600D01*
X214985400Y-117309600D02*
X214485400Y-117309600D01*
X214985400Y-114059600D02*
X214485400Y-114059600D01*
X211735400Y-114059600D02*
X212235400Y-114059600D01*
X211735400Y-117309600D02*
X212235400Y-117309600D01*
G04 #@! TO.C,C16*
X207070800Y-108123200D02*
X207070800Y-107423200D01*
X208270800Y-107423200D02*
X208270800Y-108123200D01*
G04 #@! TO.C,C17*
X207045400Y-117203000D02*
X207045400Y-116503000D01*
X208245400Y-116503000D02*
X208245400Y-117203000D01*
G04 #@! TO.C,C18*
X207070800Y-105124600D02*
X207070800Y-104424600D01*
X208270800Y-104424600D02*
X208270800Y-105124600D01*
G04 #@! TO.C,C19*
X207045400Y-114205800D02*
X207045400Y-113505800D01*
X208245400Y-113505800D02*
X208245400Y-114205800D01*
G04 #@! TO.C,L1*
X210431400Y-107850600D02*
X209431400Y-107850600D01*
X209431400Y-106500600D02*
X210431400Y-106500600D01*
G04 #@! TO.C,L2*
X210279000Y-116969200D02*
X209279000Y-116969200D01*
X209279000Y-115619200D02*
X210279000Y-115619200D01*
G04 #@! TO.C,L3*
X209431400Y-104849600D02*
X210431400Y-104849600D01*
X210431400Y-106199600D02*
X209431400Y-106199600D01*
G04 #@! TO.C,L4*
X209279000Y-113942800D02*
X210279000Y-113942800D01*
X210279000Y-115292800D02*
X209279000Y-115292800D01*
G04 #@! TO.C,J14*
X206525119Y-103962841D02*
X200327519Y-103962841D01*
X206525119Y-109561001D02*
X206525119Y-103962841D01*
X200327519Y-109561001D02*
X206525119Y-109561001D01*
X200327519Y-103962841D02*
X200327519Y-109561001D01*
X206126339Y-103962841D02*
X206126339Y-109561001D01*
X200327519Y-106761921D02*
X200825359Y-106761921D01*
X200825359Y-109362881D02*
X200327519Y-109362881D01*
X200327519Y-104160961D02*
X200825359Y-104160961D01*
X200825359Y-109561001D02*
X200825359Y-103962841D01*
G04 #@! TO.C,J15*
X200825359Y-115611001D02*
X200825359Y-110012841D01*
X200327519Y-110210961D02*
X200825359Y-110210961D01*
X200825359Y-115412881D02*
X200327519Y-115412881D01*
X200327519Y-112811921D02*
X200825359Y-112811921D01*
X206126339Y-110012841D02*
X206126339Y-115611001D01*
X200327519Y-110012841D02*
X200327519Y-115611001D01*
X200327519Y-115611001D02*
X206525119Y-115611001D01*
X206525119Y-115611001D02*
X206525119Y-110012841D01*
X206525119Y-110012841D02*
X200327519Y-110012841D01*
G04 #@! TO.C,J13*
X244983400Y-143904000D02*
X244983400Y-141364000D01*
X244703400Y-146724000D02*
X244703400Y-145174000D01*
X244983400Y-143904000D02*
X247523400Y-143904000D01*
X247803400Y-145174000D02*
X247803400Y-146724000D01*
X247803400Y-146724000D02*
X244703400Y-146724000D01*
X247523400Y-143904000D02*
X247523400Y-141364000D01*
X247523400Y-141364000D02*
X244983400Y-141364000D01*
G04 #@! TO.C,U5*
X242490800Y-101592400D02*
G75*
G03X242490800Y-101592400I-100000J0D01*
G01*
X242140800Y-102142400D02*
X242140800Y-101642400D01*
X239240800Y-102142400D02*
X242140800Y-102142400D01*
X239240800Y-101642400D02*
X239240800Y-102142400D01*
X242140800Y-101642400D02*
X239240800Y-101642400D01*
G04 #@! TO.C,R16*
X237724400Y-101526000D02*
X236724400Y-101526000D01*
X236724400Y-100176000D02*
X237724400Y-100176000D01*
G04 #@! TO.C,R17*
X244619800Y-101500600D02*
X243619800Y-101500600D01*
X243619800Y-100150600D02*
X244619800Y-100150600D01*
G04 #@! TO.C,REF\002A\002A*
X231912066Y-120570780D02*
X231578733Y-120094590D01*
X231340638Y-120570780D02*
X231340638Y-119570780D01*
X231721590Y-119570780D01*
X231816828Y-119618400D01*
X231864447Y-119666019D01*
X231912066Y-119761257D01*
X231912066Y-119904114D01*
X231864447Y-119999352D01*
X231816828Y-120046971D01*
X231721590Y-120094590D01*
X231340638Y-120094590D01*
X232340638Y-120046971D02*
X232673971Y-120046971D01*
X232816828Y-120570780D02*
X232340638Y-120570780D01*
X232340638Y-119570780D01*
X232816828Y-119570780D01*
X233578733Y-120046971D02*
X233245400Y-120046971D01*
X233245400Y-120570780D02*
X233245400Y-119570780D01*
X233721590Y-119570780D01*
X234245400Y-119570780D02*
X234245400Y-119808876D01*
X234007304Y-119713638D02*
X234245400Y-119808876D01*
X234483495Y-119713638D01*
X234102542Y-119999352D02*
X234245400Y-119808876D01*
X234388257Y-119999352D01*
X235007304Y-119570780D02*
X235007304Y-119808876D01*
X234769209Y-119713638D02*
X235007304Y-119808876D01*
X235245400Y-119713638D01*
X234864447Y-119999352D02*
X235007304Y-119808876D01*
X235150161Y-119999352D01*
G04 #@! TO.C,R8*
X231710333Y-137777780D02*
X231377000Y-137301590D01*
X231138904Y-137777780D02*
X231138904Y-136777780D01*
X231519857Y-136777780D01*
X231615095Y-136825400D01*
X231662714Y-136873019D01*
X231710333Y-136968257D01*
X231710333Y-137111114D01*
X231662714Y-137206352D01*
X231615095Y-137253971D01*
X231519857Y-137301590D01*
X231138904Y-137301590D01*
X232281761Y-137206352D02*
X232186523Y-137158733D01*
X232138904Y-137111114D01*
X232091285Y-137015876D01*
X232091285Y-136968257D01*
X232138904Y-136873019D01*
X232186523Y-136825400D01*
X232281761Y-136777780D01*
X232472238Y-136777780D01*
X232567476Y-136825400D01*
X232615095Y-136873019D01*
X232662714Y-136968257D01*
X232662714Y-137015876D01*
X232615095Y-137111114D01*
X232567476Y-137158733D01*
X232472238Y-137206352D01*
X232281761Y-137206352D01*
X232186523Y-137253971D01*
X232138904Y-137301590D01*
X232091285Y-137396828D01*
X232091285Y-137587304D01*
X232138904Y-137682542D01*
X232186523Y-137730161D01*
X232281761Y-137777780D01*
X232472238Y-137777780D01*
X232567476Y-137730161D01*
X232615095Y-137682542D01*
X232662714Y-137587304D01*
X232662714Y-137396828D01*
X232615095Y-137301590D01*
X232567476Y-137253971D01*
X232472238Y-137206352D01*
G04 #@! TO.C,R4*
X231710333Y-140978180D02*
X231377000Y-140501990D01*
X231138904Y-140978180D02*
X231138904Y-139978180D01*
X231519857Y-139978180D01*
X231615095Y-140025800D01*
X231662714Y-140073419D01*
X231710333Y-140168657D01*
X231710333Y-140311514D01*
X231662714Y-140406752D01*
X231615095Y-140454371D01*
X231519857Y-140501990D01*
X231138904Y-140501990D01*
X232567476Y-140311514D02*
X232567476Y-140978180D01*
X232329380Y-139930561D02*
X232091285Y-140644847D01*
X232710333Y-140644847D01*
G04 #@! TO.C,U4*
X220955095Y-138250980D02*
X220955095Y-139060504D01*
X221002714Y-139155742D01*
X221050333Y-139203361D01*
X221145571Y-139250980D01*
X221336047Y-139250980D01*
X221431285Y-139203361D01*
X221478904Y-139155742D01*
X221526523Y-139060504D01*
X221526523Y-138250980D01*
X222431285Y-138584314D02*
X222431285Y-139250980D01*
X222193190Y-138203361D02*
X221955095Y-138917647D01*
X222574142Y-138917647D01*
G04 #@! TO.C,J2*
X215152380Y-124349133D02*
X215866666Y-124349133D01*
X216009523Y-124396752D01*
X216104761Y-124491990D01*
X216152380Y-124634847D01*
X216152380Y-124730085D01*
X215247619Y-123920561D02*
X215200000Y-123872942D01*
X215152380Y-123777704D01*
X215152380Y-123539609D01*
X215200000Y-123444371D01*
X215247619Y-123396752D01*
X215342857Y-123349133D01*
X215438095Y-123349133D01*
X215580952Y-123396752D01*
X216152380Y-123968180D01*
X216152380Y-123349133D01*
G04 #@! TO.C,C4*
X209850333Y-110504542D02*
X209802714Y-110552161D01*
X209659857Y-110599780D01*
X209564619Y-110599780D01*
X209421761Y-110552161D01*
X209326523Y-110456923D01*
X209278904Y-110361685D01*
X209231285Y-110171209D01*
X209231285Y-110028352D01*
X209278904Y-109837876D01*
X209326523Y-109742638D01*
X209421761Y-109647400D01*
X209564619Y-109599780D01*
X209659857Y-109599780D01*
X209802714Y-109647400D01*
X209850333Y-109695019D01*
X210707476Y-109933114D02*
X210707476Y-110599780D01*
X210469380Y-109552161D02*
X210231285Y-110266447D01*
X210850333Y-110266447D01*
G04 #@! TO.C,J1*
X203324266Y-130396980D02*
X203324266Y-131111266D01*
X203276647Y-131254123D01*
X203181409Y-131349361D01*
X203038552Y-131396980D01*
X202943314Y-131396980D01*
X204324266Y-131396980D02*
X203752838Y-131396980D01*
X204038552Y-131396980D02*
X204038552Y-130396980D01*
X203943314Y-130539838D01*
X203848076Y-130635076D01*
X203752838Y-130682695D01*
G04 #@! TO.C,J11*
X257084980Y-115351123D02*
X257799266Y-115351123D01*
X257942123Y-115398742D01*
X258037361Y-115493980D01*
X258084980Y-115636838D01*
X258084980Y-115732076D01*
X258084980Y-114351123D02*
X258084980Y-114922552D01*
X258084980Y-114636838D02*
X257084980Y-114636838D01*
X257227838Y-114732076D01*
X257323076Y-114827314D01*
X257370695Y-114922552D01*
X258084980Y-113398742D02*
X258084980Y-113970171D01*
X258084980Y-113684457D02*
X257084980Y-113684457D01*
X257227838Y-113779695D01*
X257323076Y-113874933D01*
X257370695Y-113970171D01*
G04 #@! TO.C,J10*
X250106580Y-110042523D02*
X250820866Y-110042523D01*
X250963723Y-110090142D01*
X251058961Y-110185380D01*
X251106580Y-110328238D01*
X251106580Y-110423476D01*
X251106580Y-109042523D02*
X251106580Y-109613952D01*
X251106580Y-109328238D02*
X250106580Y-109328238D01*
X250249438Y-109423476D01*
X250344676Y-109518714D01*
X250392295Y-109613952D01*
X250106580Y-108423476D02*
X250106580Y-108328238D01*
X250154200Y-108233000D01*
X250201819Y-108185380D01*
X250297057Y-108137761D01*
X250487533Y-108090142D01*
X250725628Y-108090142D01*
X250916104Y-108137761D01*
X251011342Y-108185380D01*
X251058961Y-108233000D01*
X251106580Y-108328238D01*
X251106580Y-108423476D01*
X251058961Y-108518714D01*
X251011342Y-108566333D01*
X250916104Y-108613952D01*
X250725628Y-108661571D01*
X250487533Y-108661571D01*
X250297057Y-108613952D01*
X250201819Y-108566333D01*
X250154200Y-108518714D01*
X250106580Y-108423476D01*
G04 #@! TO.C,J7*
X257084980Y-103749733D02*
X257799266Y-103749733D01*
X257942123Y-103797352D01*
X258037361Y-103892590D01*
X258084980Y-104035447D01*
X258084980Y-104130685D01*
X257084980Y-103368780D02*
X257084980Y-102702114D01*
X258084980Y-103130685D01*
G04 #@! TO.C,J4*
X220443866Y-147496580D02*
X220443866Y-148210866D01*
X220396247Y-148353723D01*
X220301009Y-148448961D01*
X220158152Y-148496580D01*
X220062914Y-148496580D01*
X221348628Y-147829914D02*
X221348628Y-148496580D01*
X221110533Y-147448961D02*
X220872438Y-148163247D01*
X221491485Y-148163247D01*
G04 #@! TO.C,U1*
X251507984Y-130643168D02*
X252080404Y-131215588D01*
X252181419Y-131249260D01*
X252248763Y-131249260D01*
X252349778Y-131215588D01*
X252484465Y-131080901D01*
X252518137Y-130979886D01*
X252518137Y-130912542D01*
X252484465Y-130811527D01*
X251912045Y-130239107D01*
X253326259Y-130239107D02*
X252922198Y-130643168D01*
X253124228Y-130441138D02*
X252417122Y-129734031D01*
X252450793Y-129902390D01*
X252450793Y-130037077D01*
X252417122Y-130138092D01*
G04 #@! TO.C,C11*
X259358970Y-131385352D02*
X259291626Y-131385352D01*
X259156939Y-131318008D01*
X259089596Y-131250665D01*
X259022252Y-131115978D01*
X259022252Y-130981291D01*
X259055924Y-130880276D01*
X259156939Y-130711917D01*
X259257954Y-130610902D01*
X259426313Y-130509886D01*
X259527328Y-130476215D01*
X259662015Y-130476215D01*
X259796702Y-130543558D01*
X259864046Y-130610902D01*
X259931389Y-130745589D01*
X259931389Y-130812932D01*
X259965061Y-132126131D02*
X259561000Y-131722070D01*
X259763031Y-131924100D02*
X260470138Y-131216993D01*
X260301779Y-131250665D01*
X260167092Y-131250665D01*
X260066077Y-131216993D01*
X260638496Y-132799566D02*
X260234435Y-132395505D01*
X260436466Y-132597535D02*
X261143573Y-131890428D01*
X260975214Y-131924100D01*
X260840527Y-131924100D01*
X260739512Y-131890428D01*
G04 #@! TO.C,C12*
X248965663Y-139069539D02*
X248898319Y-139069539D01*
X248763632Y-139002195D01*
X248696289Y-138934852D01*
X248628945Y-138800165D01*
X248628945Y-138665478D01*
X248662617Y-138564463D01*
X248763632Y-138396104D01*
X248864647Y-138295089D01*
X249033006Y-138194073D01*
X249134021Y-138160402D01*
X249268708Y-138160402D01*
X249403395Y-138227745D01*
X249470739Y-138295089D01*
X249538082Y-138429776D01*
X249538082Y-138497119D01*
X249571754Y-139810318D02*
X249167693Y-139406257D01*
X249369724Y-139608287D02*
X250076831Y-138901180D01*
X249908472Y-138934852D01*
X249773785Y-138934852D01*
X249672770Y-138901180D01*
X250480892Y-139439928D02*
X250548235Y-139439928D01*
X250649250Y-139473600D01*
X250817609Y-139641959D01*
X250851281Y-139742974D01*
X250851281Y-139810318D01*
X250817609Y-139911333D01*
X250750266Y-139978676D01*
X250615579Y-140046020D01*
X249807457Y-140046020D01*
X250245189Y-140483753D01*
G04 #@! TO.C,Q3*
X207532619Y-144405638D02*
X207485000Y-144500876D01*
X207389761Y-144596114D01*
X207246904Y-144738971D01*
X207199285Y-144834209D01*
X207199285Y-144929447D01*
X207437380Y-144881828D02*
X207389761Y-144977066D01*
X207294523Y-145072304D01*
X207104047Y-145119923D01*
X206770714Y-145119923D01*
X206580238Y-145072304D01*
X206485000Y-144977066D01*
X206437380Y-144881828D01*
X206437380Y-144691352D01*
X206485000Y-144596114D01*
X206580238Y-144500876D01*
X206770714Y-144453257D01*
X207104047Y-144453257D01*
X207294523Y-144500876D01*
X207389761Y-144596114D01*
X207437380Y-144691352D01*
X207437380Y-144881828D01*
X206437380Y-144119923D02*
X206437380Y-143500876D01*
X206818333Y-143834209D01*
X206818333Y-143691352D01*
X206865952Y-143596114D01*
X206913571Y-143548495D01*
X207008809Y-143500876D01*
X207246904Y-143500876D01*
X207342142Y-143548495D01*
X207389761Y-143596114D01*
X207437380Y-143691352D01*
X207437380Y-143977066D01*
X207389761Y-144072304D01*
X207342142Y-144119923D01*
G04 #@! TO.C,J6*
X200620780Y-138674733D02*
X201335066Y-138674733D01*
X201477923Y-138722352D01*
X201573161Y-138817590D01*
X201620780Y-138960447D01*
X201620780Y-139055685D01*
X200620780Y-137769971D02*
X200620780Y-137960447D01*
X200668400Y-138055685D01*
X200716019Y-138103304D01*
X200858876Y-138198542D01*
X201049352Y-138246161D01*
X201430304Y-138246161D01*
X201525542Y-138198542D01*
X201573161Y-138150923D01*
X201620780Y-138055685D01*
X201620780Y-137865209D01*
X201573161Y-137769971D01*
X201525542Y-137722352D01*
X201430304Y-137674733D01*
X201192209Y-137674733D01*
X201096971Y-137722352D01*
X201049352Y-137769971D01*
X201001733Y-137865209D01*
X201001733Y-138055685D01*
X201049352Y-138150923D01*
X201096971Y-138198542D01*
X201192209Y-138246161D01*
G04 #@! TO.C,J3*
X200620780Y-135169533D02*
X201335066Y-135169533D01*
X201477923Y-135217152D01*
X201573161Y-135312390D01*
X201620780Y-135455247D01*
X201620780Y-135550485D01*
X200620780Y-134788580D02*
X200620780Y-134169533D01*
X201001733Y-134502866D01*
X201001733Y-134360009D01*
X201049352Y-134264771D01*
X201096971Y-134217152D01*
X201192209Y-134169533D01*
X201430304Y-134169533D01*
X201525542Y-134217152D01*
X201573161Y-134264771D01*
X201620780Y-134360009D01*
X201620780Y-134645723D01*
X201573161Y-134740961D01*
X201525542Y-134788580D01*
G04 #@! TO.C,J5*
X200569980Y-131638933D02*
X201284266Y-131638933D01*
X201427123Y-131686552D01*
X201522361Y-131781790D01*
X201569980Y-131924647D01*
X201569980Y-132019885D01*
X200569980Y-130686552D02*
X200569980Y-131162742D01*
X201046171Y-131210361D01*
X200998552Y-131162742D01*
X200950933Y-131067504D01*
X200950933Y-130829409D01*
X200998552Y-130734171D01*
X201046171Y-130686552D01*
X201141409Y-130638933D01*
X201379504Y-130638933D01*
X201474742Y-130686552D01*
X201522361Y-130734171D01*
X201569980Y-130829409D01*
X201569980Y-131067504D01*
X201522361Y-131162742D01*
X201474742Y-131210361D01*
G04 #@! TO.C,Q1*
X212782561Y-141733819D02*
X212687323Y-141686200D01*
X212592085Y-141590961D01*
X212449228Y-141448104D01*
X212353990Y-141400485D01*
X212258752Y-141400485D01*
X212306371Y-141638580D02*
X212211133Y-141590961D01*
X212115895Y-141495723D01*
X212068276Y-141305247D01*
X212068276Y-140971914D01*
X212115895Y-140781438D01*
X212211133Y-140686200D01*
X212306371Y-140638580D01*
X212496847Y-140638580D01*
X212592085Y-140686200D01*
X212687323Y-140781438D01*
X212734942Y-140971914D01*
X212734942Y-141305247D01*
X212687323Y-141495723D01*
X212592085Y-141590961D01*
X212496847Y-141638580D01*
X212306371Y-141638580D01*
X213687323Y-141638580D02*
X213115895Y-141638580D01*
X213401609Y-141638580D02*
X213401609Y-140638580D01*
X213306371Y-140781438D01*
X213211133Y-140876676D01*
X213115895Y-140924295D01*
G04 #@! TO.C,R3*
X224572933Y-142679980D02*
X224239600Y-142203790D01*
X224001504Y-142679980D02*
X224001504Y-141679980D01*
X224382457Y-141679980D01*
X224477695Y-141727600D01*
X224525314Y-141775219D01*
X224572933Y-141870457D01*
X224572933Y-142013314D01*
X224525314Y-142108552D01*
X224477695Y-142156171D01*
X224382457Y-142203790D01*
X224001504Y-142203790D01*
X224906266Y-141679980D02*
X225525314Y-141679980D01*
X225191980Y-142060933D01*
X225334838Y-142060933D01*
X225430076Y-142108552D01*
X225477695Y-142156171D01*
X225525314Y-142251409D01*
X225525314Y-142489504D01*
X225477695Y-142584742D01*
X225430076Y-142632361D01*
X225334838Y-142679980D01*
X225049123Y-142679980D01*
X224953885Y-142632361D01*
X224906266Y-142584742D01*
G04 #@! TO.C,R1*
X224598333Y-141079780D02*
X224265000Y-140603590D01*
X224026904Y-141079780D02*
X224026904Y-140079780D01*
X224407857Y-140079780D01*
X224503095Y-140127400D01*
X224550714Y-140175019D01*
X224598333Y-140270257D01*
X224598333Y-140413114D01*
X224550714Y-140508352D01*
X224503095Y-140555971D01*
X224407857Y-140603590D01*
X224026904Y-140603590D01*
X225550714Y-141079780D02*
X224979285Y-141079780D01*
X225265000Y-141079780D02*
X225265000Y-140079780D01*
X225169761Y-140222638D01*
X225074523Y-140317876D01*
X224979285Y-140365495D01*
G04 #@! TO.C,R2*
X224598333Y-139377980D02*
X224265000Y-138901790D01*
X224026904Y-139377980D02*
X224026904Y-138377980D01*
X224407857Y-138377980D01*
X224503095Y-138425600D01*
X224550714Y-138473219D01*
X224598333Y-138568457D01*
X224598333Y-138711314D01*
X224550714Y-138806552D01*
X224503095Y-138854171D01*
X224407857Y-138901790D01*
X224026904Y-138901790D01*
X224979285Y-138473219D02*
X225026904Y-138425600D01*
X225122142Y-138377980D01*
X225360238Y-138377980D01*
X225455476Y-138425600D01*
X225503095Y-138473219D01*
X225550714Y-138568457D01*
X225550714Y-138663695D01*
X225503095Y-138806552D01*
X224931666Y-139377980D01*
X225550714Y-139377980D01*
G04 #@! TO.C,R5*
X231710333Y-139377980D02*
X231377000Y-138901790D01*
X231138904Y-139377980D02*
X231138904Y-138377980D01*
X231519857Y-138377980D01*
X231615095Y-138425600D01*
X231662714Y-138473219D01*
X231710333Y-138568457D01*
X231710333Y-138711314D01*
X231662714Y-138806552D01*
X231615095Y-138854171D01*
X231519857Y-138901790D01*
X231138904Y-138901790D01*
X232615095Y-138377980D02*
X232138904Y-138377980D01*
X232091285Y-138854171D01*
X232138904Y-138806552D01*
X232234142Y-138758933D01*
X232472238Y-138758933D01*
X232567476Y-138806552D01*
X232615095Y-138854171D01*
X232662714Y-138949409D01*
X232662714Y-139187504D01*
X232615095Y-139282742D01*
X232567476Y-139330361D01*
X232472238Y-139377980D01*
X232234142Y-139377980D01*
X232138904Y-139330361D01*
X232091285Y-139282742D01*
G04 #@! TO.C,R6*
X231735733Y-142679980D02*
X231402400Y-142203790D01*
X231164304Y-142679980D02*
X231164304Y-141679980D01*
X231545257Y-141679980D01*
X231640495Y-141727600D01*
X231688114Y-141775219D01*
X231735733Y-141870457D01*
X231735733Y-142013314D01*
X231688114Y-142108552D01*
X231640495Y-142156171D01*
X231545257Y-142203790D01*
X231164304Y-142203790D01*
X232592876Y-141679980D02*
X232402400Y-141679980D01*
X232307161Y-141727600D01*
X232259542Y-141775219D01*
X232164304Y-141918076D01*
X232116685Y-142108552D01*
X232116685Y-142489504D01*
X232164304Y-142584742D01*
X232211923Y-142632361D01*
X232307161Y-142679980D01*
X232497638Y-142679980D01*
X232592876Y-142632361D01*
X232640495Y-142584742D01*
X232688114Y-142489504D01*
X232688114Y-142251409D01*
X232640495Y-142156171D01*
X232592876Y-142108552D01*
X232497638Y-142060933D01*
X232307161Y-142060933D01*
X232211923Y-142108552D01*
X232164304Y-142156171D01*
X232116685Y-142251409D01*
G04 #@! TO.C,R7*
X224496733Y-137726980D02*
X224163400Y-137250790D01*
X223925304Y-137726980D02*
X223925304Y-136726980D01*
X224306257Y-136726980D01*
X224401495Y-136774600D01*
X224449114Y-136822219D01*
X224496733Y-136917457D01*
X224496733Y-137060314D01*
X224449114Y-137155552D01*
X224401495Y-137203171D01*
X224306257Y-137250790D01*
X223925304Y-137250790D01*
X224830066Y-136726980D02*
X225496733Y-136726980D01*
X225068161Y-137726980D01*
G04 #@! TO.C,R9*
X219522780Y-104497466D02*
X219046590Y-104830800D01*
X219522780Y-105068895D02*
X218522780Y-105068895D01*
X218522780Y-104687942D01*
X218570400Y-104592704D01*
X218618019Y-104545085D01*
X218713257Y-104497466D01*
X218856114Y-104497466D01*
X218951352Y-104545085D01*
X218998971Y-104592704D01*
X219046590Y-104687942D01*
X219046590Y-105068895D01*
X219522780Y-104021276D02*
X219522780Y-103830800D01*
X219475161Y-103735561D01*
X219427542Y-103687942D01*
X219284685Y-103592704D01*
X219094209Y-103545085D01*
X218713257Y-103545085D01*
X218618019Y-103592704D01*
X218570400Y-103640323D01*
X218522780Y-103735561D01*
X218522780Y-103926038D01*
X218570400Y-104021276D01*
X218618019Y-104068895D01*
X218713257Y-104116514D01*
X218951352Y-104116514D01*
X219046590Y-104068895D01*
X219094209Y-104021276D01*
X219141828Y-103926038D01*
X219141828Y-103735561D01*
X219094209Y-103640323D01*
X219046590Y-103592704D01*
X218951352Y-103545085D01*
G04 #@! TO.C,R10*
X218887780Y-114778057D02*
X218411590Y-115111390D01*
X218887780Y-115349485D02*
X217887780Y-115349485D01*
X217887780Y-114968533D01*
X217935400Y-114873295D01*
X217983019Y-114825676D01*
X218078257Y-114778057D01*
X218221114Y-114778057D01*
X218316352Y-114825676D01*
X218363971Y-114873295D01*
X218411590Y-114968533D01*
X218411590Y-115349485D01*
X218887780Y-113825676D02*
X218887780Y-114397104D01*
X218887780Y-114111390D02*
X217887780Y-114111390D01*
X218030638Y-114206628D01*
X218125876Y-114301866D01*
X218173495Y-114397104D01*
X217887780Y-113206628D02*
X217887780Y-113111390D01*
X217935400Y-113016152D01*
X217983019Y-112968533D01*
X218078257Y-112920914D01*
X218268733Y-112873295D01*
X218506828Y-112873295D01*
X218697304Y-112920914D01*
X218792542Y-112968533D01*
X218840161Y-113016152D01*
X218887780Y-113111390D01*
X218887780Y-113206628D01*
X218840161Y-113301866D01*
X218792542Y-113349485D01*
X218697304Y-113397104D01*
X218506828Y-113444723D01*
X218268733Y-113444723D01*
X218078257Y-113397104D01*
X217983019Y-113349485D01*
X217935400Y-113301866D01*
X217887780Y-113206628D01*
G04 #@! TO.C,R18*
X251909742Y-141714780D02*
X251576409Y-141238590D01*
X251338314Y-141714780D02*
X251338314Y-140714780D01*
X251719266Y-140714780D01*
X251814504Y-140762400D01*
X251862123Y-140810019D01*
X251909742Y-140905257D01*
X251909742Y-141048114D01*
X251862123Y-141143352D01*
X251814504Y-141190971D01*
X251719266Y-141238590D01*
X251338314Y-141238590D01*
X252862123Y-141714780D02*
X252290695Y-141714780D01*
X252576409Y-141714780D02*
X252576409Y-140714780D01*
X252481171Y-140857638D01*
X252385933Y-140952876D01*
X252290695Y-141000495D01*
X253433552Y-141143352D02*
X253338314Y-141095733D01*
X253290695Y-141048114D01*
X253243076Y-140952876D01*
X253243076Y-140905257D01*
X253290695Y-140810019D01*
X253338314Y-140762400D01*
X253433552Y-140714780D01*
X253624028Y-140714780D01*
X253719266Y-140762400D01*
X253766885Y-140810019D01*
X253814504Y-140905257D01*
X253814504Y-140952876D01*
X253766885Y-141048114D01*
X253719266Y-141095733D01*
X253624028Y-141143352D01*
X253433552Y-141143352D01*
X253338314Y-141190971D01*
X253290695Y-141238590D01*
X253243076Y-141333828D01*
X253243076Y-141524304D01*
X253290695Y-141619542D01*
X253338314Y-141667161D01*
X253433552Y-141714780D01*
X253624028Y-141714780D01*
X253719266Y-141667161D01*
X253766885Y-141619542D01*
X253814504Y-141524304D01*
X253814504Y-141333828D01*
X253766885Y-141238590D01*
X253719266Y-141190971D01*
X253624028Y-141143352D01*
G04 #@! TO.C,C10*
X251512742Y-146197857D02*
X251560361Y-146245476D01*
X251607980Y-146388333D01*
X251607980Y-146483571D01*
X251560361Y-146626428D01*
X251465123Y-146721666D01*
X251369885Y-146769285D01*
X251179409Y-146816904D01*
X251036552Y-146816904D01*
X250846076Y-146769285D01*
X250750838Y-146721666D01*
X250655600Y-146626428D01*
X250607980Y-146483571D01*
X250607980Y-146388333D01*
X250655600Y-146245476D01*
X250703219Y-146197857D01*
X251607980Y-145245476D02*
X251607980Y-145816904D01*
X251607980Y-145531190D02*
X250607980Y-145531190D01*
X250750838Y-145626428D01*
X250846076Y-145721666D01*
X250893695Y-145816904D01*
X250607980Y-144626428D02*
X250607980Y-144531190D01*
X250655600Y-144435952D01*
X250703219Y-144388333D01*
X250798457Y-144340714D01*
X250988933Y-144293095D01*
X251227028Y-144293095D01*
X251417504Y-144340714D01*
X251512742Y-144388333D01*
X251560361Y-144435952D01*
X251607980Y-144531190D01*
X251607980Y-144626428D01*
X251560361Y-144721666D01*
X251512742Y-144769285D01*
X251417504Y-144816904D01*
X251227028Y-144864523D01*
X250988933Y-144864523D01*
X250798457Y-144816904D01*
X250703219Y-144769285D01*
X250655600Y-144721666D01*
X250607980Y-144626428D01*
G04 #@! TO.C,MK4*
X260190476Y-143252380D02*
X260190476Y-142252380D01*
X260523809Y-142966666D01*
X260857142Y-142252380D01*
X260857142Y-143252380D01*
X261333333Y-143252380D02*
X261333333Y-142252380D01*
X261904761Y-143252380D02*
X261476190Y-142680952D01*
X261904761Y-142252380D02*
X261333333Y-142823809D01*
X262761904Y-142585714D02*
X262761904Y-143252380D01*
X262523809Y-142204761D02*
X262285714Y-142919047D01*
X262904761Y-142919047D01*
G04 #@! TO.C,MK3*
X202190476Y-143252380D02*
X202190476Y-142252380D01*
X202523809Y-142966666D01*
X202857142Y-142252380D01*
X202857142Y-143252380D01*
X203333333Y-143252380D02*
X203333333Y-142252380D01*
X203904761Y-143252380D02*
X203476190Y-142680952D01*
X203904761Y-142252380D02*
X203333333Y-142823809D01*
X204238095Y-142252380D02*
X204857142Y-142252380D01*
X204523809Y-142633333D01*
X204666666Y-142633333D01*
X204761904Y-142680952D01*
X204809523Y-142728571D01*
X204857142Y-142823809D01*
X204857142Y-143061904D01*
X204809523Y-143157142D01*
X204761904Y-143204761D01*
X204666666Y-143252380D01*
X204380952Y-143252380D01*
X204285714Y-143204761D01*
X204238095Y-143157142D01*
G04 #@! TO.C,MK2*
X260190476Y-101652380D02*
X260190476Y-100652380D01*
X260523809Y-101366666D01*
X260857142Y-100652380D01*
X260857142Y-101652380D01*
X261333333Y-101652380D02*
X261333333Y-100652380D01*
X261904761Y-101652380D02*
X261476190Y-101080952D01*
X261904761Y-100652380D02*
X261333333Y-101223809D01*
X262285714Y-100747619D02*
X262333333Y-100700000D01*
X262428571Y-100652380D01*
X262666666Y-100652380D01*
X262761904Y-100700000D01*
X262809523Y-100747619D01*
X262857142Y-100842857D01*
X262857142Y-100938095D01*
X262809523Y-101080952D01*
X262238095Y-101652380D01*
X262857142Y-101652380D01*
G04 #@! TO.C,MK1*
X202190476Y-101652380D02*
X202190476Y-100652380D01*
X202523809Y-101366666D01*
X202857142Y-100652380D01*
X202857142Y-101652380D01*
X203333333Y-101652380D02*
X203333333Y-100652380D01*
X203904761Y-101652380D02*
X203476190Y-101080952D01*
X203904761Y-100652380D02*
X203333333Y-101223809D01*
X204857142Y-101652380D02*
X204285714Y-101652380D01*
X204571428Y-101652380D02*
X204571428Y-100652380D01*
X204476190Y-100795238D01*
X204380952Y-100890476D01*
X204285714Y-100938095D01*
G04 #@! TO.C,C3*
X206894533Y-101741542D02*
X206846914Y-101789161D01*
X206704057Y-101836780D01*
X206608819Y-101836780D01*
X206465961Y-101789161D01*
X206370723Y-101693923D01*
X206323104Y-101598685D01*
X206275485Y-101408209D01*
X206275485Y-101265352D01*
X206323104Y-101074876D01*
X206370723Y-100979638D01*
X206465961Y-100884400D01*
X206608819Y-100836780D01*
X206704057Y-100836780D01*
X206846914Y-100884400D01*
X206894533Y-100932019D01*
X207227866Y-100836780D02*
X207846914Y-100836780D01*
X207513580Y-101217733D01*
X207656438Y-101217733D01*
X207751676Y-101265352D01*
X207799295Y-101312971D01*
X207846914Y-101408209D01*
X207846914Y-101646304D01*
X207799295Y-101741542D01*
X207751676Y-101789161D01*
X207656438Y-101836780D01*
X207370723Y-101836780D01*
X207275485Y-101789161D01*
X207227866Y-101741542D01*
G04 #@! TO.C,C1*
X216089333Y-110377542D02*
X216041714Y-110425161D01*
X215898857Y-110472780D01*
X215803619Y-110472780D01*
X215660761Y-110425161D01*
X215565523Y-110329923D01*
X215517904Y-110234685D01*
X215470285Y-110044209D01*
X215470285Y-109901352D01*
X215517904Y-109710876D01*
X215565523Y-109615638D01*
X215660761Y-109520400D01*
X215803619Y-109472780D01*
X215898857Y-109472780D01*
X216041714Y-109520400D01*
X216089333Y-109568019D01*
X217041714Y-110472780D02*
X216470285Y-110472780D01*
X216756000Y-110472780D02*
X216756000Y-109472780D01*
X216660761Y-109615638D01*
X216565523Y-109710876D01*
X216470285Y-109758495D01*
G04 #@! TO.C,C2*
X217562533Y-102732142D02*
X217514914Y-102779761D01*
X217372057Y-102827380D01*
X217276819Y-102827380D01*
X217133961Y-102779761D01*
X217038723Y-102684523D01*
X216991104Y-102589285D01*
X216943485Y-102398809D01*
X216943485Y-102255952D01*
X216991104Y-102065476D01*
X217038723Y-101970238D01*
X217133961Y-101875000D01*
X217276819Y-101827380D01*
X217372057Y-101827380D01*
X217514914Y-101875000D01*
X217562533Y-101922619D01*
X217943485Y-101922619D02*
X217991104Y-101875000D01*
X218086342Y-101827380D01*
X218324438Y-101827380D01*
X218419676Y-101875000D01*
X218467295Y-101922619D01*
X218514914Y-102017857D01*
X218514914Y-102113095D01*
X218467295Y-102255952D01*
X217895866Y-102827380D01*
X218514914Y-102827380D01*
G04 #@! TO.C,J8*
X257084980Y-109312333D02*
X257799266Y-109312333D01*
X257942123Y-109359952D01*
X258037361Y-109455190D01*
X258084980Y-109598047D01*
X258084980Y-109693285D01*
X257513552Y-108693285D02*
X257465933Y-108788523D01*
X257418314Y-108836142D01*
X257323076Y-108883761D01*
X257275457Y-108883761D01*
X257180219Y-108836142D01*
X257132600Y-108788523D01*
X257084980Y-108693285D01*
X257084980Y-108502809D01*
X257132600Y-108407571D01*
X257180219Y-108359952D01*
X257275457Y-108312333D01*
X257323076Y-108312333D01*
X257418314Y-108359952D01*
X257465933Y-108407571D01*
X257513552Y-108502809D01*
X257513552Y-108693285D01*
X257561171Y-108788523D01*
X257608790Y-108836142D01*
X257704028Y-108883761D01*
X257894504Y-108883761D01*
X257989742Y-108836142D01*
X258037361Y-108788523D01*
X258084980Y-108693285D01*
X258084980Y-108502809D01*
X258037361Y-108407571D01*
X257989742Y-108359952D01*
X257894504Y-108312333D01*
X257704028Y-108312333D01*
X257608790Y-108359952D01*
X257561171Y-108407571D01*
X257513552Y-108502809D01*
G04 #@! TO.C,J9*
X250125380Y-103749733D02*
X250839666Y-103749733D01*
X250982523Y-103797352D01*
X251077761Y-103892590D01*
X251125380Y-104035447D01*
X251125380Y-104130685D01*
X251125380Y-103225923D02*
X251125380Y-103035447D01*
X251077761Y-102940209D01*
X251030142Y-102892590D01*
X250887285Y-102797352D01*
X250696809Y-102749733D01*
X250315857Y-102749733D01*
X250220619Y-102797352D01*
X250173000Y-102844971D01*
X250125380Y-102940209D01*
X250125380Y-103130685D01*
X250173000Y-103225923D01*
X250220619Y-103273542D01*
X250315857Y-103321161D01*
X250553952Y-103321161D01*
X250649190Y-103273542D01*
X250696809Y-103225923D01*
X250744428Y-103130685D01*
X250744428Y-102940209D01*
X250696809Y-102844971D01*
X250649190Y-102797352D01*
X250553952Y-102749733D01*
G04 #@! TO.C,J12*
X234174180Y-146872523D02*
X234888466Y-146872523D01*
X235031323Y-146920142D01*
X235126561Y-147015380D01*
X235174180Y-147158238D01*
X235174180Y-147253476D01*
X235174180Y-145872523D02*
X235174180Y-146443952D01*
X235174180Y-146158238D02*
X234174180Y-146158238D01*
X234317038Y-146253476D01*
X234412276Y-146348714D01*
X234459895Y-146443952D01*
X234269419Y-145491571D02*
X234221800Y-145443952D01*
X234174180Y-145348714D01*
X234174180Y-145110619D01*
X234221800Y-145015380D01*
X234269419Y-144967761D01*
X234364657Y-144920142D01*
X234459895Y-144920142D01*
X234602752Y-144967761D01*
X235174180Y-145539190D01*
X235174180Y-144920142D01*
G04 #@! TO.C,Q2*
X212782561Y-138076219D02*
X212687323Y-138028600D01*
X212592085Y-137933361D01*
X212449228Y-137790504D01*
X212353990Y-137742885D01*
X212258752Y-137742885D01*
X212306371Y-137980980D02*
X212211133Y-137933361D01*
X212115895Y-137838123D01*
X212068276Y-137647647D01*
X212068276Y-137314314D01*
X212115895Y-137123838D01*
X212211133Y-137028600D01*
X212306371Y-136980980D01*
X212496847Y-136980980D01*
X212592085Y-137028600D01*
X212687323Y-137123838D01*
X212734942Y-137314314D01*
X212734942Y-137647647D01*
X212687323Y-137838123D01*
X212592085Y-137933361D01*
X212496847Y-137980980D01*
X212306371Y-137980980D01*
X213115895Y-137076219D02*
X213163514Y-137028600D01*
X213258752Y-136980980D01*
X213496847Y-136980980D01*
X213592085Y-137028600D01*
X213639704Y-137076219D01*
X213687323Y-137171457D01*
X213687323Y-137266695D01*
X213639704Y-137409552D01*
X213068276Y-137980980D01*
X213687323Y-137980980D01*
G04 #@! TO.C,Q4*
X212249161Y-133326419D02*
X212153923Y-133278800D01*
X212058685Y-133183561D01*
X211915828Y-133040704D01*
X211820590Y-132993085D01*
X211725352Y-132993085D01*
X211772971Y-133231180D02*
X211677733Y-133183561D01*
X211582495Y-133088323D01*
X211534876Y-132897847D01*
X211534876Y-132564514D01*
X211582495Y-132374038D01*
X211677733Y-132278800D01*
X211772971Y-132231180D01*
X211963447Y-132231180D01*
X212058685Y-132278800D01*
X212153923Y-132374038D01*
X212201542Y-132564514D01*
X212201542Y-132897847D01*
X212153923Y-133088323D01*
X212058685Y-133183561D01*
X211963447Y-133231180D01*
X211772971Y-133231180D01*
X213058685Y-132564514D02*
X213058685Y-133231180D01*
X212820590Y-132183561D02*
X212582495Y-132897847D01*
X213201542Y-132897847D01*
G04 #@! TO.C,R21*
X254221142Y-121420180D02*
X253887809Y-120943990D01*
X253649714Y-121420180D02*
X253649714Y-120420180D01*
X254030666Y-120420180D01*
X254125904Y-120467800D01*
X254173523Y-120515419D01*
X254221142Y-120610657D01*
X254221142Y-120753514D01*
X254173523Y-120848752D01*
X254125904Y-120896371D01*
X254030666Y-120943990D01*
X253649714Y-120943990D01*
X254602095Y-120515419D02*
X254649714Y-120467800D01*
X254744952Y-120420180D01*
X254983047Y-120420180D01*
X255078285Y-120467800D01*
X255125904Y-120515419D01*
X255173523Y-120610657D01*
X255173523Y-120705895D01*
X255125904Y-120848752D01*
X254554476Y-121420180D01*
X255173523Y-121420180D01*
X256125904Y-121420180D02*
X255554476Y-121420180D01*
X255840190Y-121420180D02*
X255840190Y-120420180D01*
X255744952Y-120563038D01*
X255649714Y-120658276D01*
X255554476Y-120705895D01*
G04 #@! TO.C,TH1*
X251446180Y-117351314D02*
X251446180Y-116779885D01*
X252446180Y-117065600D02*
X251446180Y-117065600D01*
X252446180Y-116446552D02*
X251446180Y-116446552D01*
X251922371Y-116446552D02*
X251922371Y-115875123D01*
X252446180Y-115875123D02*
X251446180Y-115875123D01*
X252446180Y-114875123D02*
X252446180Y-115446552D01*
X252446180Y-115160838D02*
X251446180Y-115160838D01*
X251589038Y-115256076D01*
X251684276Y-115351314D01*
X251731895Y-115446552D01*
G04 #@! TO.C,U2*
X216459295Y-107262980D02*
X216459295Y-108072504D01*
X216506914Y-108167742D01*
X216554533Y-108215361D01*
X216649771Y-108262980D01*
X216840247Y-108262980D01*
X216935485Y-108215361D01*
X216983104Y-108167742D01*
X217030723Y-108072504D01*
X217030723Y-107262980D01*
X217459295Y-107358219D02*
X217506914Y-107310600D01*
X217602152Y-107262980D01*
X217840247Y-107262980D01*
X217935485Y-107310600D01*
X217983104Y-107358219D01*
X218030723Y-107453457D01*
X218030723Y-107548695D01*
X217983104Y-107691552D01*
X217411676Y-108262980D01*
X218030723Y-108262980D01*
G04 #@! TO.C,U3*
X212598495Y-117986980D02*
X212598495Y-118796504D01*
X212646114Y-118891742D01*
X212693733Y-118939361D01*
X212788971Y-118986980D01*
X212979447Y-118986980D01*
X213074685Y-118939361D01*
X213122304Y-118891742D01*
X213169923Y-118796504D01*
X213169923Y-117986980D01*
X213550876Y-117986980D02*
X214169923Y-117986980D01*
X213836590Y-118367933D01*
X213979447Y-118367933D01*
X214074685Y-118415552D01*
X214122304Y-118463171D01*
X214169923Y-118558409D01*
X214169923Y-118796504D01*
X214122304Y-118891742D01*
X214074685Y-118939361D01*
X213979447Y-118986980D01*
X213693733Y-118986980D01*
X213598495Y-118939361D01*
X213550876Y-118891742D01*
G04 #@! TO.C,C16*
X206249942Y-109291657D02*
X206297561Y-109339276D01*
X206345180Y-109482133D01*
X206345180Y-109577371D01*
X206297561Y-109720228D01*
X206202323Y-109815466D01*
X206107085Y-109863085D01*
X205916609Y-109910704D01*
X205773752Y-109910704D01*
X205583276Y-109863085D01*
X205488038Y-109815466D01*
X205392800Y-109720228D01*
X205345180Y-109577371D01*
X205345180Y-109482133D01*
X205392800Y-109339276D01*
X205440419Y-109291657D01*
X206345180Y-108339276D02*
X206345180Y-108910704D01*
X206345180Y-108624990D02*
X205345180Y-108624990D01*
X205488038Y-108720228D01*
X205583276Y-108815466D01*
X205630895Y-108910704D01*
X205345180Y-107482133D02*
X205345180Y-107672609D01*
X205392800Y-107767847D01*
X205440419Y-107815466D01*
X205583276Y-107910704D01*
X205773752Y-107958323D01*
X206154704Y-107958323D01*
X206249942Y-107910704D01*
X206297561Y-107863085D01*
X206345180Y-107767847D01*
X206345180Y-107577371D01*
X206297561Y-107482133D01*
X206249942Y-107434514D01*
X206154704Y-107386895D01*
X205916609Y-107386895D01*
X205821371Y-107434514D01*
X205773752Y-107482133D01*
X205726133Y-107577371D01*
X205726133Y-107767847D01*
X205773752Y-107863085D01*
X205821371Y-107910704D01*
X205916609Y-107958323D01*
G04 #@! TO.C,C17*
X206478542Y-118410257D02*
X206526161Y-118457876D01*
X206573780Y-118600733D01*
X206573780Y-118695971D01*
X206526161Y-118838828D01*
X206430923Y-118934066D01*
X206335685Y-118981685D01*
X206145209Y-119029304D01*
X206002352Y-119029304D01*
X205811876Y-118981685D01*
X205716638Y-118934066D01*
X205621400Y-118838828D01*
X205573780Y-118695971D01*
X205573780Y-118600733D01*
X205621400Y-118457876D01*
X205669019Y-118410257D01*
X206573780Y-117457876D02*
X206573780Y-118029304D01*
X206573780Y-117743590D02*
X205573780Y-117743590D01*
X205716638Y-117838828D01*
X205811876Y-117934066D01*
X205859495Y-118029304D01*
X205573780Y-117124542D02*
X205573780Y-116457876D01*
X206573780Y-116886447D01*
G04 #@! TO.C,C18*
X204970542Y-103544942D02*
X204922923Y-103592561D01*
X204780066Y-103640180D01*
X204684828Y-103640180D01*
X204541971Y-103592561D01*
X204446733Y-103497323D01*
X204399114Y-103402085D01*
X204351495Y-103211609D01*
X204351495Y-103068752D01*
X204399114Y-102878276D01*
X204446733Y-102783038D01*
X204541971Y-102687800D01*
X204684828Y-102640180D01*
X204780066Y-102640180D01*
X204922923Y-102687800D01*
X204970542Y-102735419D01*
X205922923Y-103640180D02*
X205351495Y-103640180D01*
X205637209Y-103640180D02*
X205637209Y-102640180D01*
X205541971Y-102783038D01*
X205446733Y-102878276D01*
X205351495Y-102925895D01*
X206494352Y-103068752D02*
X206399114Y-103021133D01*
X206351495Y-102973514D01*
X206303876Y-102878276D01*
X206303876Y-102830657D01*
X206351495Y-102735419D01*
X206399114Y-102687800D01*
X206494352Y-102640180D01*
X206684828Y-102640180D01*
X206780066Y-102687800D01*
X206827685Y-102735419D01*
X206875304Y-102830657D01*
X206875304Y-102878276D01*
X206827685Y-102973514D01*
X206780066Y-103021133D01*
X206684828Y-103068752D01*
X206494352Y-103068752D01*
X206399114Y-103116371D01*
X206351495Y-103163990D01*
X206303876Y-103259228D01*
X206303876Y-103449704D01*
X206351495Y-103544942D01*
X206399114Y-103592561D01*
X206494352Y-103640180D01*
X206684828Y-103640180D01*
X206780066Y-103592561D01*
X206827685Y-103544942D01*
X206875304Y-103449704D01*
X206875304Y-103259228D01*
X206827685Y-103163990D01*
X206780066Y-103116371D01*
X206684828Y-103068752D01*
G04 #@! TO.C,C19*
X206102542Y-114498657D02*
X206150161Y-114546276D01*
X206197780Y-114689133D01*
X206197780Y-114784371D01*
X206150161Y-114927228D01*
X206054923Y-115022466D01*
X205959685Y-115070085D01*
X205769209Y-115117704D01*
X205626352Y-115117704D01*
X205435876Y-115070085D01*
X205340638Y-115022466D01*
X205245400Y-114927228D01*
X205197780Y-114784371D01*
X205197780Y-114689133D01*
X205245400Y-114546276D01*
X205293019Y-114498657D01*
X206197780Y-113546276D02*
X206197780Y-114117704D01*
X206197780Y-113831990D02*
X205197780Y-113831990D01*
X205340638Y-113927228D01*
X205435876Y-114022466D01*
X205483495Y-114117704D01*
X206197780Y-113070085D02*
X206197780Y-112879609D01*
X206150161Y-112784371D01*
X206102542Y-112736752D01*
X205959685Y-112641514D01*
X205769209Y-112593895D01*
X205388257Y-112593895D01*
X205293019Y-112641514D01*
X205245400Y-112689133D01*
X205197780Y-112784371D01*
X205197780Y-112974847D01*
X205245400Y-113070085D01*
X205293019Y-113117704D01*
X205388257Y-113165323D01*
X205626352Y-113165323D01*
X205721590Y-113117704D01*
X205769209Y-113070085D01*
X205816828Y-112974847D01*
X205816828Y-112784371D01*
X205769209Y-112689133D01*
X205721590Y-112641514D01*
X205626352Y-112593895D01*
G04 #@! TO.C,L1*
X209764733Y-109202780D02*
X209288542Y-109202780D01*
X209288542Y-108202780D01*
X210621876Y-109202780D02*
X210050447Y-109202780D01*
X210336161Y-109202780D02*
X210336161Y-108202780D01*
X210240923Y-108345638D01*
X210145685Y-108440876D01*
X210050447Y-108488495D01*
G04 #@! TO.C,L2*
X210006733Y-118499180D02*
X209530542Y-118499180D01*
X209530542Y-117499180D01*
X210292447Y-117594419D02*
X210340066Y-117546800D01*
X210435304Y-117499180D01*
X210673400Y-117499180D01*
X210768638Y-117546800D01*
X210816257Y-117594419D01*
X210863876Y-117689657D01*
X210863876Y-117784895D01*
X210816257Y-117927752D01*
X210244828Y-118499180D01*
X210863876Y-118499180D01*
G04 #@! TO.C,L3*
X209637733Y-104503780D02*
X209161542Y-104503780D01*
X209161542Y-103503780D01*
X209875828Y-103503780D02*
X210494876Y-103503780D01*
X210161542Y-103884733D01*
X210304400Y-103884733D01*
X210399638Y-103932352D01*
X210447257Y-103979971D01*
X210494876Y-104075209D01*
X210494876Y-104313304D01*
X210447257Y-104408542D01*
X210399638Y-104456161D01*
X210304400Y-104503780D01*
X210018685Y-104503780D01*
X209923447Y-104456161D01*
X209875828Y-104408542D01*
G04 #@! TO.C,L4*
X209573533Y-113774780D02*
X209097342Y-113774780D01*
X209097342Y-112774780D01*
X210335438Y-113108114D02*
X210335438Y-113774780D01*
X210097342Y-112727161D02*
X209859247Y-113441447D01*
X210478295Y-113441447D01*
G04 #@! TO.C,J14*
X207379579Y-107571444D02*
X208093865Y-107571444D01*
X208236722Y-107619063D01*
X208331960Y-107714301D01*
X208379579Y-107857159D01*
X208379579Y-107952397D01*
X208379579Y-106571444D02*
X208379579Y-107142873D01*
X208379579Y-106857159D02*
X207379579Y-106857159D01*
X207522437Y-106952397D01*
X207617675Y-107047635D01*
X207665294Y-107142873D01*
X207712913Y-105714301D02*
X208379579Y-105714301D01*
X207331960Y-105952397D02*
X208046246Y-106190492D01*
X208046246Y-105571444D01*
G04 #@! TO.C,J15*
X206792980Y-111795123D02*
X207507266Y-111795123D01*
X207650123Y-111842742D01*
X207745361Y-111937980D01*
X207792980Y-112080838D01*
X207792980Y-112176076D01*
X207792980Y-110795123D02*
X207792980Y-111366552D01*
X207792980Y-111080838D02*
X206792980Y-111080838D01*
X206935838Y-111176076D01*
X207031076Y-111271314D01*
X207078695Y-111366552D01*
X206792980Y-109890361D02*
X206792980Y-110366552D01*
X207269171Y-110414171D01*
X207221552Y-110366552D01*
X207173933Y-110271314D01*
X207173933Y-110033219D01*
X207221552Y-109937980D01*
X207269171Y-109890361D01*
X207364409Y-109842742D01*
X207602504Y-109842742D01*
X207697742Y-109890361D01*
X207745361Y-109937980D01*
X207792980Y-110033219D01*
X207792980Y-110271314D01*
X207745361Y-110366552D01*
X207697742Y-110414171D01*
G04 #@! TO.C,J13*
X245443876Y-149726380D02*
X245443876Y-150440666D01*
X245396257Y-150583523D01*
X245301019Y-150678761D01*
X245158161Y-150726380D01*
X245062923Y-150726380D01*
X246443876Y-150726380D02*
X245872447Y-150726380D01*
X246158161Y-150726380D02*
X246158161Y-149726380D01*
X246062923Y-149869238D01*
X245967685Y-149964476D01*
X245872447Y-150012095D01*
X246777209Y-149726380D02*
X247396257Y-149726380D01*
X247062923Y-150107333D01*
X247205780Y-150107333D01*
X247301019Y-150154952D01*
X247348638Y-150202571D01*
X247396257Y-150297809D01*
X247396257Y-150535904D01*
X247348638Y-150631142D01*
X247301019Y-150678761D01*
X247205780Y-150726380D01*
X246920066Y-150726380D01*
X246824828Y-150678761D01*
X246777209Y-150631142D01*
G04 #@! TO.C,U5*
X237185695Y-102335380D02*
X237185695Y-103144904D01*
X237233314Y-103240142D01*
X237280933Y-103287761D01*
X237376171Y-103335380D01*
X237566647Y-103335380D01*
X237661885Y-103287761D01*
X237709504Y-103240142D01*
X237757123Y-103144904D01*
X237757123Y-102335380D01*
X238709504Y-102335380D02*
X238233314Y-102335380D01*
X238185695Y-102811571D01*
X238233314Y-102763952D01*
X238328552Y-102716333D01*
X238566647Y-102716333D01*
X238661885Y-102763952D01*
X238709504Y-102811571D01*
X238757123Y-102906809D01*
X238757123Y-103144904D01*
X238709504Y-103240142D01*
X238661885Y-103287761D01*
X238566647Y-103335380D01*
X238328552Y-103335380D01*
X238233314Y-103287761D01*
X238185695Y-103240142D01*
G04 #@! TO.C,R16*
X233545542Y-101379580D02*
X233212209Y-100903390D01*
X232974114Y-101379580D02*
X232974114Y-100379580D01*
X233355066Y-100379580D01*
X233450304Y-100427200D01*
X233497923Y-100474819D01*
X233545542Y-100570057D01*
X233545542Y-100712914D01*
X233497923Y-100808152D01*
X233450304Y-100855771D01*
X233355066Y-100903390D01*
X232974114Y-100903390D01*
X234497923Y-101379580D02*
X233926495Y-101379580D01*
X234212209Y-101379580D02*
X234212209Y-100379580D01*
X234116971Y-100522438D01*
X234021733Y-100617676D01*
X233926495Y-100665295D01*
X235355066Y-100379580D02*
X235164590Y-100379580D01*
X235069352Y-100427200D01*
X235021733Y-100474819D01*
X234926495Y-100617676D01*
X234878876Y-100808152D01*
X234878876Y-101189104D01*
X234926495Y-101284342D01*
X234974114Y-101331961D01*
X235069352Y-101379580D01*
X235259828Y-101379580D01*
X235355066Y-101331961D01*
X235402685Y-101284342D01*
X235450304Y-101189104D01*
X235450304Y-100951009D01*
X235402685Y-100855771D01*
X235355066Y-100808152D01*
X235259828Y-100760533D01*
X235069352Y-100760533D01*
X234974114Y-100808152D01*
X234926495Y-100855771D01*
X234878876Y-100951009D01*
G04 #@! TO.C,R17*
X246372542Y-101379580D02*
X246039209Y-100903390D01*
X245801114Y-101379580D02*
X245801114Y-100379580D01*
X246182066Y-100379580D01*
X246277304Y-100427200D01*
X246324923Y-100474819D01*
X246372542Y-100570057D01*
X246372542Y-100712914D01*
X246324923Y-100808152D01*
X246277304Y-100855771D01*
X246182066Y-100903390D01*
X245801114Y-100903390D01*
X247324923Y-101379580D02*
X246753495Y-101379580D01*
X247039209Y-101379580D02*
X247039209Y-100379580D01*
X246943971Y-100522438D01*
X246848733Y-100617676D01*
X246753495Y-100665295D01*
X247658257Y-100379580D02*
X248324923Y-100379580D01*
X247896352Y-101379580D01*
G04 #@! TD*
M02*
