M48
; DRILL file {KiCad 5.1.4+dfsg1-1} date tor 24 okt 2019 18:48:23 CEST
; FORMAT={-:-/ absolute / inch / decimal}
; #@! TF.CreationDate,2019-10-24T18:48:23+02:00
; #@! TF.GenerationSoftware,Kicad,Pcbnew,5.1.4+dfsg1-1
; #@! TF.FileFunction,Plated,1,2,PTH
FMAT,2
INCH
T1C0.0157
T2C0.0236
T3C0.0276
T4C0.0394
T5C0.0400
T6C0.0432
%
G90
G05
T1
X7.9095Y-3.879
X7.9095Y-4.6664
X7.9095Y-5.0601
X7.9095Y-5.4538
X8.087Y-5.239
X8.0895Y-4.1075
X8.0935Y-5.3775
X8.0955Y-4.626
X8.118Y-5.863
X8.188Y-3.999
X8.1907Y-4.4007
X8.215Y-4.2695
X8.215Y-4.455
X8.225Y-4.106
X8.226Y-4.6275
X8.302Y-5.7665
X8.3235Y-4.4595
X8.324Y-5.686
X8.3825Y-4.537
X8.3825Y-4.5725
X8.386Y-4.6595
X8.3969Y-4.296
X8.4105Y-4.165
X8.4105Y-4.2
X8.4175Y-4.537
X8.4175Y-4.5725
X8.4455Y-4.165
X8.4455Y-4.2
X8.451Y-5.091
X8.451Y-5.4215
X8.454Y-5.2765
X8.467Y-4.6585
X8.4802Y-4.3014
X8.5117Y-5.863
X8.5267Y-4.5854
X8.5412Y-4.3059
X8.5605Y-4.215
X8.579Y-4.7095
X8.657Y-5.0245
X8.6765Y-4.3815
X8.843Y-4.189
X8.8835Y-5.2415
X8.9054Y-5.863
X9.1125Y-5.5695
X9.116Y-5.4365
X9.179Y-4.109
X9.1845Y-5.3115
X9.261Y-5.5735
X9.2991Y-5.863
X9.372Y-5.4345
X9.507Y-5.214
X9.542Y-5.556
X9.554Y-4.2265
X9.574Y-5.3615
X9.6266Y-5.5173
X9.6467Y-5.4413
X9.6858Y-5.4616
X9.6882Y-5.3987
X9.6928Y-5.863
X9.716Y-5.003
X9.7292Y-5.4132
X9.73Y-5.5285
X9.7445Y-4.47
X9.778Y-4.7065
X9.7995Y-3.9481
X9.8315Y-5.4795
X9.8414Y-3.9369
X9.8445Y-4.0102
X9.856Y-5.2815
X9.882Y-5.6185
X9.8846Y-4.0307
X9.925Y-5.1475
X9.9502Y-5.519
X9.986Y-5.3275
X10.023Y-4.7365
X10.0597Y-4.4531
X10.0815Y-5.214
X10.0824Y-4.7358
X10.0865Y-5.863
X10.098Y-5.5455
X10.101Y-4.4665
X10.1205Y-5.372
X10.197Y-5.259
X10.2117Y-5.3139
X10.2251Y-5.5621
X10.2377Y-5.5205
X10.2576Y-5.4819
X10.3292Y-5.0436
X10.3325Y-4.6587
X10.333Y-5.4785
X10.3395Y-5.3916
X10.3402Y-5.3131
X10.3423Y-5.2507
X10.404Y-3.935
X10.404Y-4.288
X10.404Y-5.0515
X10.4054Y-5.4565
X10.408Y-4.661
T2
X9.921Y-4.9415
T3
X8.145Y-4.3457
X8.35Y-4.0715
X9.929Y-4.1915
X9.9863Y-4.9506
X10.129Y-4.1875
X10.3193Y-5.1846
X10.253Y-4.2905
X10.3318Y-4.2905
X9.9783Y-4.2905
X10.057Y-4.2905
X9.979Y-4.0715
X10.0578Y-4.0715
X10.253Y-4.5095
X10.3318Y-4.5095
X10.253Y-4.0715
X10.3318Y-4.0715
X8.374Y-4.8825
X8.374Y-4.9613
T4
X8.2035Y-3.7886
X8.2035Y-3.8886
X8.3035Y-3.7886
X8.3035Y-3.8886
X8.4035Y-3.7886
X8.4035Y-3.8886
X8.5035Y-3.7886
X8.5035Y-3.8886
X8.6035Y-3.7886
X8.6035Y-3.8886
X8.7035Y-3.7886
X8.7035Y-3.8886
X8.8035Y-3.7886
X8.8035Y-3.8886
X8.9035Y-3.7886
X8.9035Y-3.8886
X9.0035Y-3.7886
X9.0035Y-3.8886
X9.1035Y-3.7886
X9.1035Y-3.8886
X9.2035Y-3.7886
X9.2035Y-3.8886
X9.3035Y-3.7886
X9.3035Y-3.8886
X9.4035Y-3.7886
X9.4035Y-3.8886
X9.5035Y-3.7886
X9.5035Y-3.8886
X9.6035Y-3.7886
X9.6035Y-3.8886
X9.7035Y-3.7886
X9.7035Y-3.8886
X9.8035Y-3.7886
X9.8035Y-3.8886
X9.9035Y-3.7886
X9.9035Y-3.8886
X10.0035Y-3.7886
X10.0035Y-3.8886
X10.1035Y-3.7886
X10.1035Y-3.8886
T5
X9.1265Y-5.7355
X9.2265Y-5.7355
X9.3265Y-5.7355
X8.015Y-5.4485
X8.115Y-5.4485
X8.018Y-4.7545
X8.018Y-4.8545
X8.018Y-4.9545
X10.019Y-4.5218
X10.019Y-4.6218
X9.695Y-5.6155
X9.695Y-5.7155
X8.015Y-5.3095
X8.115Y-5.3095
X8.595Y-5.7305
X8.695Y-5.7305
X8.795Y-5.7305
X8.015Y-5.1675
X8.115Y-5.1675
T6
X8.0089Y-4.3914
X8.0089Y-4.4914
X8.0089Y-4.1532
X8.0089Y-4.2532
T0
M30
